<svg xmlns="http://www.w3.org/2000/svg" xmlns:svg="http://www.w3.org/2000/svg" id="svg55661" width="17.795" height="18.001" version="1.1" viewBox="0 0 17.795 18.001"><defs id="defs55645"><linearGradient id="a2543bcd-55aa-4840-a5ac-39d57afd4228" x1="9.261" x2="6.218" y1="-.364" y2="20.052" gradientUnits="userSpaceOnUse"><stop id="stop55630" offset="0" stop-color="#32bedd"/><stop id="stop55632" offset="1" stop-color="#198ab3"/></linearGradient><linearGradient id="a60145e1-6ccb-441f-b67d-d2694a998ff5" x1="10.798" x2="14.441" y1="7.388" y2="19.066" gradientUnits="userSpaceOnUse"><stop id="stop55635" offset="0" stop-color="#50e6ff"/><stop id="stop55637" offset=".997" stop-color="#32bedd"/></linearGradient><linearGradient id="b456a054-82ca-4a95-919b-f07fd04a13ed" x1="-.168" x2="12.572" y1="4.114" y2="10.895" gradientTransform="translate(0.105,-9.7228349e-4)" gradientUnits="userSpaceOnUse"><stop id="stop55640" offset="0" stop-color="#fff"/><stop id="stop55642" offset="1" stop-color="#9cebff"/></linearGradient></defs><path id="path55647" d="M 14.323,3.3509723 9.128,0.35097228 a 2.624,2.624 0 0 0 -2.622,0 L 1.311,3.3509723 A 2.625,2.625 0 0 0 0,5.6219723 v 5.9999997 a 2.625,2.625 0 0 0 1.311,2.272 l 5.2,3 a 2.624,2.624 0 0 0 2.622,0 l 5.2,-3 a 2.625,2.625 0 0 0 1.311,-2.272 V 5.6219723 a 2.625,2.625 0 0 0 -1.321,-2.271 z" style="fill:url(#a2543bcd-55aa-4840-a5ac-39d57afd4228)"/><path id="path55649" d="m 16.737,7.7439723 -3.653,-2.109 a 2.109,2.109 0 0 0 -2.107,0 l -3.652,2.109 a 2.1,2.1 0 0 0 -1.053,1.824 v 4.2179997 a 2.106,2.106 0 0 0 1.053,1.824 l 3.652,2.109 a 2.109,2.109 0 0 0 2.107,0 l 3.653,-2.109 a 2.108,2.108 0 0 0 1.058,-1.824 V 9.5679723 a 2.107,2.107 0 0 0 -1.058,-1.824 z" style="fill:url(#a60145e1-6ccb-441f-b67d-d2694a998ff5)"/><polygon id="polygon55651" points="13.14 11.728 12.774 12.128 2.835 12.128 2.947 10.931 11.328 10.931 7.578 2.963 8.63 2.381" transform="translate(-0.105,9.7228349e-4)" style="fill:url(#b456a054-82ca-4a95-919b-f07fd04a13ed)"/><circle id="circle55653" cx="2.627" cy="11.586" r="1.5" style="fill:#fff"/><circle id="circle55655" cx="12.031" cy="11.677" r="2.344" style="fill:#fff"/><circle id="circle55657" cx="7.936" cy="2.559" r="1.5" style="fill:#fff"/><metadata id="metadata55659">​​</metadata>​</svg>