<svg xmlns="http://www.w3.org/2000/svg" xmlns:svg="http://www.w3.org/2000/svg" id="svg72155" width="17.874" height="12.47" version="1.1"><defs id="defs72137"><linearGradient id="ba88ea91-3b3a-4da0-9b97-9a10ebaa3e50" x1="12.805" x2="12.805" y1="15.237" y2="7.962" gradientUnits="userSpaceOnUse"><stop id="stop72126" offset="0" stop-color="#0078d4"/><stop id="stop72128" offset=".156" stop-color="#1380da"/><stop id="stop72130" offset=".528" stop-color="#3c91e5"/><stop id="stop72132" offset=".822" stop-color="#559cec"/><stop id="stop72134" offset="1" stop-color="#5ea0ef"/></linearGradient></defs><path id="path72139" d="M 15.537,2.936 H 0.004 V 0.226 A 0.226,0.226 0 0 1 0.23,0 h 15.077 a 0.227,0.227 0 0 1 0.227,0.226 z" style="fill:#949494"/><path id="path72141" d="m 0,2.936 h 15.53 v 9.254 a 0.231,0.231 0 0 1 -0.231,0.231 H 0.231 A 0.231,0.231 0 0 1 0,12.19 Z" style="fill:#bfbfbf"/><path id="path72143" d="m 1.072,3.736 h 13.37 v 7.57 H 1.072 Z" style="fill:#005ba1"/><g id="g72149" transform="translate(-0.063,-2.764)" style="fill:#fff"><rect id="rect72145" width="2.837" height=".527" x="4.576" y="10.738" rx=".263"/><path id="path72147" d="M 2.675,11.215 4.35,9.54 a 0.169,0.169 0 0 0 0,-0.243 L 2.65,7.664 A 0.17,0.17 0 0 0 2.406,7.674 L 2.28,7.8 A 0.17,0.17 0 0 0 2.29,8.036 L 3.623,9.3 a 0.171,0.171 0 0 1 0,0.242 l -1.3,1.333 a 0.171,0.171 0 0 0 0,0.239 l 0.1,0.1 a 0.17,0.17 0 0 0 0.252,10e-4 z"/></g><path id="path72151" d="m 17.874,10.194 a 2.3,2.3 0 0 0 -2,-2.216 2.906,2.906 0 0 0 -2.994,-2.78 2.982,2.982 0 0 0 -2.851,1.938 2.752,2.752 0 0 0 -2.42,2.648 2.793,2.793 0 0 0 2.89,2.684 l 0.255,-0.01 h 4.683 a 0.465,0.465 0 0 0 0.124,-0.019 2.333,2.333 0 0 0 2.313,-2.244 z" style="fill:url(#ba88ea91-3b3a-4da0-9b97-9a10ebaa3e50)"/><metadata id="metadata72153"/></svg>