<svg xmlns="http://www.w3.org/2000/svg" xmlns:svg="http://www.w3.org/2000/svg" id="e6e9dc42-aa45-4c25-a153-3c4dea6d1408" width="18" height="17.822" version="1.1" viewBox="0 0 18 17.822"><defs id="defs72434"><linearGradient id="bee47a41-9626-4448-9119-87ad28e72505" x1="9" x2="9" y1="12.85" y2=".09" gradientUnits="userSpaceOnUse"><stop id="stop72426" offset="0" stop-color="#198ab3"/><stop id="stop72428" offset=".44" stop-color="#28b7db"/><stop id="stop72430" offset=".78" stop-color="#32d4f5"/></linearGradient><linearGradient id="beb70c0a-9df6-4825-adec-20340c00add6" x1="40.987" x2="40.987" y1="81.83" y2="67.541" gradientUnits="userSpaceOnUse" href="#bee47a41-9626-4448-9119-87ad28e72505"/></defs><path id="path72436" d="m 18,8.7623092 a 4.06,4.06 0 0 0 -3.51,-3.85 5.1,5.1 0 0 0 -5.25,-4.91000001 5.23,5.23 0 0 0 -5,3.41000001 4.82,4.82 0 0 0 -4.24,4.64 4.9,4.9 0 0 0 5.07,4.7099998 h 0.44 8.21 a 0.78,0.78 0 0 0 0.22,0 A 4.09,4.09 0 0 0 18,8.7623092 Z" style="fill:url(#bee47a41-9626-4448-9119-87ad28e72505)"/><rect id="rect72438" width=".78" height="6.19" x="8.58" y="8.372" style="fill:#b3b3b3"/><circle id="circle72440" cx="8.97" cy="6.502" r="2.08" style="fill:#f2f2f2"/><rect id="rect72442" width="3.78" height="3.78" x="7.08" y="14.042" rx=".73" style="fill:url(#beb70c0a-9df6-4825-adec-20340c00add6)"/><metadata id="metadata72444"/></svg>