<svg xmlns="http://www.w3.org/2000/svg" xmlns:svg="http://www.w3.org/2000/svg" id="ad094621-3a1a-48a5-aaf9-2376221c6085" width="15.7" height="18" version="1.1" viewBox="0 0 15.7 18"><defs id="defs72583"><linearGradient id="ea0182c4-a05a-47e0-8d38-dceaa08cffc1" x1="7.688" x2="7.688" y1="-26.771" y2="-21.482" gradientTransform="translate(1.15,31.975)" gradientUnits="userSpaceOnUse"><stop id="stop72558" offset=".23" stop-color="#5ea0ef"/><stop id="stop72560" offset=".32" stop-color="#5b9fee"/><stop id="stop72562" offset=".48" stop-color="#509aeb"/><stop id="stop72564" offset=".57" stop-color="#3f92e6"/><stop id="stop72566" offset=".75" stop-color="#2688df"/><stop id="stop72568" offset=".93" stop-color="#127fd9"/></linearGradient><linearGradient id="b2374fe1-82b4-4770-97f1-de978b276dd6" x1="10.312" x2="10.312" y1="-24.568" y2="-19.279" gradientTransform="translate(1.15,31.975)" gradientUnits="userSpaceOnUse"><stop id="stop72571" offset=".2" stop-color="#50e6ff"/><stop id="stop72573" offset=".65" stop-color="#32bedd"/><stop id="stop72575" offset="1" stop-color="#198ab3"/></linearGradient><linearGradient id="f85376f9-8ccb-4ef0-ab3e-33ae7fcb4e4a" x1="9" x2="9" y1="5.38" gradientTransform="translate(1.15,-0.025)" gradientUnits="userSpaceOnUse"><stop id="stop72578" offset=".199" stop-color="#005ba1"/><stop id="stop72580" offset="1" stop-color="#0078d4"/></linearGradient></defs><g id="g72597" transform="translate(-1.15,0.025)"><g id="g72593"><g id="g72589"><path id="path72585" d="M 8.736,5.229 H 6.62 A 2.644,2.644 0 0 0 6.21,10.482 2.824,2.824 0 0 1 6.237,9.5 1.67,1.67 0 0 1 6.62,6.2 h 2.116 a 1.675,1.675 0 0 1 0,3.35 H 8.154 A 1.275,1.275 0 0 0 8.03,10.079 1.234,1.234 0 0 0 8.114,10.52 h 0.622 a 2.645,2.645 0 0 0 0,-5.289 z" style="fill:url(#ea0182c4-a05a-47e0-8d38-dceaa08cffc1)"/><path id="path72587" d="m 11.79,7.468 a 3.042,3.042 0 0 1 0.031,0.405 2.722,2.722 0 0 1 -0.058,0.577 1.671,1.671 0 0 1 -0.383,3.3 H 9.264 a 1.675,1.675 0 0 1 0,-3.35 H 9.846 A 1.195,1.195 0 0 0 9.886,7.43 H 9.264 a 2.645,2.645 0 0 0 0,5.289 h 2.116 a 2.644,2.644 0 0 0 0.41,-5.253 z" style="fill:url(#b2374fe1-82b4-4770-97f1-de978b276dd6)"/></g><path id="path72591" d="m 9,-0.025 -7.85,4.49 v 8.97 l 7.85,4.54 7.85,-4.49 v -9 z m 6.4,12.57 -6.4,3.7 -6.4,-3.661 V 5.355 l 6.4,-3.7 6.4,3.71 z" style="fill:#0078d4"/></g><polygon id="polygon72595" points="1.15 4.49 2.6 5.38 9 1.68 9 1.68 15.4 5.38 16.85 4.49 9 0" style="fill:url(#f85376f9-8ccb-4ef0-ab3e-33ae7fcb4e4a)"/></g><metadata id="metadata72599"/></svg>