<svg xmlns="http://www.w3.org/2000/svg" xmlns:svg="http://www.w3.org/2000/svg" id="b88b3828-ef78-412f-8d84-c8abf44d0075" width="17.694" height="17.694" version="1.1" viewBox="0 0 17.694 17.694"><defs id="defs72812"><linearGradient id="aa17ea79-e1b1-4771-8623-8089fc66d31f" x1="9.252" x2="9.252" y1="14.005" y2="-.028" gradientTransform="translate(0.15289303,2.152893)" gradientUnits="userSpaceOnUse"><stop id="stop72793" offset="0" stop-color="#b3b4b4"/><stop id="stop72795" offset=".33" stop-color="#b3b4b4"/><stop id="stop72797" offset=".82" stop-color="#cccccb"/><stop id="stop72799" offset="1" stop-color="#cccccb"/></linearGradient><linearGradient id="e4e801cf-1833-4cda-9534-289a2affc042" x1="10.558" x2="10.439" y1="15.244" y2="17.218" gradientTransform="translate(0.15289303,0.15289303)" gradientUnits="userSpaceOnUse"><stop id="stop72802" offset=".317" stop-color="#33bedd"/><stop id="stop72804" offset="1" stop-color="#74cfeb"/></linearGradient><linearGradient id="f4710473-a20d-4433-b34a-8d485da6bbc6" x1="9" x2="9" y1="14.113" y2="3.938" gradientTransform="translate(0.15289303,0.15289303)" gradientUnits="userSpaceOnUse"><stop id="stop72807" offset="0" stop-color="#616261"/><stop id="stop72809" offset="1" stop-color="#b6b8ba"/></linearGradient></defs><g id="g72824" transform="translate(-0.15289303,-0.15289303)"><path id="path72814" d="M 11.167,17.718 1.088,13.183 A 1.52,1.52 0 0 1 0.282,11.167 L 4.817,1.088 A 1.52,1.52 0 0 1 6.833,0.282 l 10.079,4.535 a 1.52,1.52 0 0 1 0.806,2.016 l -4.535,10.079 a 1.52,1.52 0 0 1 -2.016,0.806 z" style="fill:#74cfeb"/><path id="path72816" d="M 15.9,5.12 13.183,2.4 A 1.294,1.294 0 0 0 12.175,2 H 3.608 A 1.378,1.378 0 0 0 2.2,3.406 v 11.188 a 1.378,1.378 0 0 0 1.411,1.411 H 14.9 a 1.378,1.378 0 0 0 1.411,-1.411 V 6.128 a 1.54,1.54 0 0 0 -0.4,-1.008 z" style="fill:url(#aa17ea79-e1b1-4771-8623-8089fc66d31f)"/><path id="path72818" d="m 7.449,16.005 3.7,1.652 c 1.166,0.681 2.139,-0.777 2.43,-1.652" style="fill:url(#e4e801cf-1833-4cda-9534-289a2affc042)"/><path id="path72820" d="M 14.087,9.575 V 8.415 L 13.925,8.354 12.683,7.947 12.358,7.153 12.988,5.81 12.174,5 12.012,5.081 10.852,5.672 10.058,5.346 9.549,3.946 H 8.39 L 8.328,4.1 7.921,5.342 7.128,5.668 5.805,5.037 4.991,5.851 5.073,6.014 5.663,7.173 5.337,7.967 3.913,8.476 v 1.16 l 0.162,0.061 1.242,0.407 0.325,0.793 -0.63,1.343 0.814,0.814 0.162,-0.081 1.16,-0.59 0.794,0.325 0.509,1.4 H 9.61 l 0.062,-0.163 0.407,-1.242 0.793,-0.325 1.343,0.631 0.814,-0.814 -0.081,-0.163 -0.59,-1.16 0.325,-0.794 z" style="fill:url(#f4710473-a20d-4433-b34a-8d485da6bbc6)"/><path id="path72822" d="M 9.652,6.292 A 0.1,0.1 0 0 0 9.6,6.279 0.139,0.139 0 0 0 9.506,6.332 L 7.2,9.687 A 0.129,0.129 0 0 0 7.187,9.808 0.137,0.137 0 0 0 7.294,9.875 H 8.672 L 8.055,11.9 A 0.1,0.1 0 0 0 8.109,12.035 0.081,0.081 0 0 0 8.162,12.048 0.133,0.133 0 0 0 8.256,12 L 10.632,8.6 C 10.645,8.573 10.658,8.56 10.658,8.533 A 0.12,0.12 0 0 0 10.538,8.412 H 9.115 L 9.706,6.426 A 0.1,0.1 0 0 0 9.652,6.292 Z" style="fill:#fff"/></g><metadata id="metadata72826"/></svg>