<svg xmlns="http://www.w3.org/2000/svg" xmlns:svg="http://www.w3.org/2000/svg" id="a7c41816-c460-4394-bf0d-7d5af4f59c5d" width="12.82" height="17" version="1.1" viewBox="0 0 12.82 17"><defs id="defs73141"><linearGradient id="ab5214c3-3e17-4021-b3c2-de63248529d4" x1="2.59" x2="15.41" y1="10.16" y2="10.16" gradientUnits="userSpaceOnUse"><stop id="stop73119" offset="0" stop-color="#005ba1"/><stop id="stop73121" offset=".07" stop-color="#0060a9"/><stop id="stop73123" offset=".36" stop-color="#0071c8"/><stop id="stop73125" offset=".52" stop-color="#0078d4"/><stop id="stop73127" offset=".64" stop-color="#0074cd"/><stop id="stop73129" offset=".82" stop-color="#006abb"/><stop id="stop73131" offset="1" stop-color="#005ba1"/></linearGradient><radialGradient id="bd8cfab1-5dd6-4d45-ad3d-d0c2bffa7473" cx="9.36" cy="10.57" r="7.07" gradientUnits="userSpaceOnUse"><stop id="stop73134" offset="0" stop-color="#f2f2f2"/><stop id="stop73136" offset=".58" stop-color="#eee"/><stop id="stop73138" offset="1" stop-color="#e6e6e6"/></radialGradient></defs><title id="title73143">Icon-iot-198</title><path id="path73145" d="M 6.41,4.64 C 2.87,4.64 0,3.64 0,2.32 v 12.36 c 0,1.27 2.82,2.3 6.32,2.32 h 0.09 c 3.54,0 6.41,-1 6.41,-2.32 V 2.32 c 0,1.29 -2.87,2.32 -6.41,2.32 z" style="fill:url(#ab5214c3-3e17-4021-b3c2-de63248529d4)"/><path id="path73147" d="M 12.82,2.32 C 12.82,3.61 9.95,4.64 6.41,4.64 2.87,4.64 0,3.64 0,2.32 0,1 2.87,0 6.41,0 c 3.54,0 6.41,1 6.41,2.32" style="fill:#e8e8e8"/><path id="path73149" d="m 11.33,2.13 c 0,0.82 -2.21,1.48 -4.92,1.48 -2.71,0 -4.92,-0.66 -4.92,-1.48 0,-0.82 2.21,-1.47 4.92,-1.47 2.71,0 4.92,0.66 4.92,1.47" style="fill:#50e6ff"/><path id="path73151" d="M 6.41,2.5 A 11.55,11.55 0 0 0 2.52,3.07 11.42,11.42 0 0 0 6.41,3.61 11.15,11.15 0 0 0 10.3,3.03 11.84,11.84 0 0 0 6.41,2.5 Z" style="fill:#198ab3"/><path id="path73153" d="M 10.31,10.9 V 7.5 h -0.9 v 4.13 h 2.46 V 10.9 Z M 3.17,9.23 A 1.83,1.83 0 0 1 2.66,8.92 0.44,0.44 0 0 1 2.53,8.6 0.35,0.35 0 0 1 2.69,8.3 0.68,0.68 0 0 1 3.11,8.18 a 1.67,1.67 0 0 1 1,0.29 V 7.61 A 2.67,2.67 0 0 0 3.11,7.45 1.64,1.64 0 0 0 2.02,7.79 1.08,1.08 0 0 0 1.6,8.68 c 0,0.51 0.32,0.91 1,1.21 a 2.88,2.88 0 0 1 0.62,0.36 0.42,0.42 0 0 1 0.15,0.32 0.38,0.38 0 0 1 -0.16,0.31 0.73,0.73 0 0 1 -0.45,0.11 1.66,1.66 0 0 1 -1.09,-0.42 V 11.5 A 2.17,2.17 0 0 0 2.74,11.74 1.88,1.88 0 0 0 3.92,11.41 1.08,1.08 0 0 0 4.25,10.5 1.05,1.05 0 0 0 4,9.8 2.42,2.42 0 0 0 3.17,9.23 Z m 5.24,1.59 A 2.34,2.34 0 0 0 8.74,9.56 2.32,2.32 0 0 0 8.41,8.5 1.81,1.81 0 0 0 7.71,7.75 2,2 0 0 0 6.71,7.49 2.11,2.11 0 0 0 5.63,7.76 1.86,1.86 0 0 0 4.9,8.5 2.46,2.46 0 0 0 4.64,9.64 a 2.26,2.26 0 0 0 0.24,1 1.76,1.76 0 0 0 0.69,0.74 2.06,2.06 0 0 0 1,0.3 l 0.86,1 h 1.21 l -1.23,-1.1 a 1.79,1.79 0 0 0 1,-0.76 z m -1,-0.25 a 0.94,0.94 0 0 1 -0.76,0.35 0.92,0.92 0 0 1 -0.76,-0.36 1.52,1.52 0 0 1 -0.29,-1 1.53,1.53 0 0 1 0.29,-1 1,1 0 0 1 0.78,-0.37 0.87,0.87 0 0 1 0.75,0.37 1.62,1.62 0 0 1 0.27,1 1.46,1.46 0 0 1 -0.28,1.01 z" style="fill:url(#bd8cfab1-5dd6-4d45-ad3d-d0c2bffa7473)"/><metadata id="metadata73155"/></svg>