<svg xmlns="http://www.w3.org/2000/svg" xmlns:svg="http://www.w3.org/2000/svg" id="a1b7605f-a809-451b-a4b7-0cf3505cf130" width="18" height="12.903" version="1.1" viewBox="0 0 18 12.903"><defs id="defs62867"><linearGradient id="e45189b1-c2d3-4f10-b300-1da54b2b00ea" x1="9.59" x2="9.59" y1="17.96" y2="-.17" gradientUnits="userSpaceOnUse"><stop id="stop62862" offset="0" stop-color="#0078d4"/><stop id="stop62864" offset=".82" stop-color="#5ea0ef"/></linearGradient></defs><title id="title62869">Icon-storage-95</title><path id="path62871" d="m 18.000215,8.1825006 a 3.77,3.77 0 0 0 -3.28,-3.63 4.75,4.75 0 0 0 -4.8999999,-4.55000003 4.89,4.89 0 0 0 -4.69,3.18000003 4.48,4.48 0 0 0 -3.94,4.34 4.57,4.57 0 0 0 4.73,4.3900004 h 0.42 7.6599999 0.21 a 3.81,3.81 0 0 0 3.79,-3.7300004 z" style="fill:url(#e45189b1-c2d3-4f10-b300-1da54b2b00ea)"/><path id="path62873" d="m 2.150662e-4,9.1125006 a 3.76,3.76 0 0 1 3.8000000338,-3.8 3.77,3.77 0 0 1 3.8,3.8 v 3.7900004 h -3.8 A 3.76,3.76 0 0 1 2.150662e-4,9.1125006 Z" style="fill:#50e6ff;fill-rule:evenodd"/><g id="b33a10b5-62f7-4935-ba61-5887e2c71eb8" transform="translate(2.150662e-4,-2.5474994)"><path id="path62875" d="m 6.17,11.91 v -0.56 0 L 5.6,11.15 5.46,10.77 5.74,10.18 V 10.12 L 5.56,9.94 5.35,9.7 H 5.27 L 4.71,10 4.33,9.89 4.08,9.26 H 3.53 v 0 L 3.34,9.83 2.92,10 2.27,9.69 1.88,10.08 v 0.07 L 2.17,10.71 2,11.13 1.33,11.38 v 0.56 h 0.08 l 0.59,0.2 0.16,0.38 -0.3,0.65 0.39,0.4 h 0.08 l 0.55,-0.28 0.39,0.16 0.24,0.67 H 4.07 V 14.04 L 4.26,13.44 4.64,13.28 5.3,13.59 5.69,13.2 V 13.12 L 5.41,12.56 5.52,12.17 Z m -2.35,0.52 a 0.79,0.79 0 0 1 0,-1.57 0.78,0.78 0 0 1 0.79,0.78 v 0 a 0.78,0.78 0 0 1 -0.79,0.79 z" style="fill:#fff"/></g><metadata id="metadata62878"/></svg>