<svg xmlns="http://www.w3.org/2000/svg" xmlns:svg="http://www.w3.org/2000/svg" id="b4d0e6e2-12c1-4275-b717-890060dd1560" width="18" height="15.619" version="1.1" viewBox="0 0 18 15.619"><defs id="defs62954"><linearGradient id="f1a30f9e-7f48-44e2-9483-6a6db8928977" x1="11.13" x2="11.13" y1="10.95" y2="1.21" gradientUnits="userSpaceOnUse"><stop id="stop62930" offset="0" stop-color="#0078d4"/><stop id="stop62932" offset=".16" stop-color="#1380da"/><stop id="stop62934" offset=".53" stop-color="#3c91e5"/><stop id="stop62936" offset=".82" stop-color="#559cec"/><stop id="stop62938" offset="1" stop-color="#5ea0ef"/></linearGradient><linearGradient id="b4a5ed8d-a28d-4d26-9aad-a57e6ad0c0b9" x1="7.06" x2="7.06" y1="16.79" y2="6.78" gradientUnits="userSpaceOnUse"><stop id="stop62941" offset="0" stop-color="#198ab3"/><stop id="stop62943" offset=".13" stop-color="#21a0c7"/><stop id="stop62945" offset=".31" stop-color="#28b7db"/><stop id="stop62947" offset=".5" stop-color="#2ec7ea"/><stop id="stop62949" offset=".72" stop-color="#31d1f2"/><stop id="stop62951" offset="1" stop-color="#32d4f5"/></linearGradient></defs><title id="title62956">Icon-manage-315</title><path id="path62958" d="m 18,6.7216604 a 3.09,3.09 0 0 0 -2.68,-3 3.89,3.89 0 0 0 -4,-3.72000002 4,4 0 0 0 -3.82,2.63000002 3.68,3.68 0 0 0 -3.24,3.55 3.74,3.74 0 0 0 3.87,3.64 h 0.34 6.26 0.17 a 3.13,3.13 0 0 0 3.1,-3.1 z" style="fill:url(#f1a30f9e-7f48-44e2-9483-6a6db8928977)"/><path id="path62960" d="m 14.39,4.0416604 -1.83,-1.78 c -0.2,-0.2 -0.37,-0.13 -0.37,0.18 v 0.8 a 0.22,0.22 0 0 1 -0.23,0.22 c -1.18,0 -4.47,0.31 -4.59,4.81 a 0.23,0.23 0 0 0 0.23,0.23 h 1.17 a 0.23,0.23 0 0 0 0.23,-0.25 2.76,2.76 0 0 1 3,-3.33 0.23,0.23 0 0 1 0.23,0.23 v 0.74 c 0,0.37 0.12,0.43 0.37,0.18 l 1.79,-1.65 a 0.23,0.23 0 0 0 0,-0.38 z" style="fill:#fff"/><path id="path62962" d="m 14.12,12.48166 a 3.17,3.17 0 0 0 -2.75,-3.0499996 4,4 0 0 0 -4.12,-3.83 4.1,4.1 0 0 0 -3.92,2.68 A 3.78,3.78 0 0 0 0,11.92166 a 3.84,3.84 0 0 0 4,3.69 h 6.78 a 0.47,0.47 0 0 0 0.17,0 3.21,3.21 0 0 0 3.17,-3.13 z" style="fill:url(#b4a5ed8d-a28d-4d26-9aad-a57e6ad0c0b9)"/><metadata id="metadata62964"/></svg>