<svg xmlns="http://www.w3.org/2000/svg" xmlns:svg="http://www.w3.org/2000/svg" id="svg74175" width="18" height="16.496" version="1.1" viewBox="0 0 18 16.496"><defs id="defs74156"><linearGradient id="a3c84452-5462-4576-9ec1-78e83c3246f7" x1="9" x2="9" y1="15.563" y2="-2.323" gradientTransform="translate(0,0.5677412)" gradientUnits="userSpaceOnUse"><stop id="stop74151" offset="0" stop-color="#0078d4"/><stop id="stop74153" offset="1" stop-color="#5ea0ef"/></linearGradient></defs><g id="bf187bb0-4c3d-4c4e-a222-f036f6cbd48e" transform="translate(0,-0.5677412)"><g id="g74162"><path id="path74158" d="M 18,9.5 A 4.094,4.094 0 0 0 14.49,5.539 5.139,5.139 0 0 0 9.24,0.569 5.27,5.27 0 0 0 4.216,4.044 4.857,4.857 0 0 0 0,8.773 a 4.937,4.937 0 0 0 5.068,4.8 c 0.151,0 0.3,-0.007 0.447,-0.02 h 8.207 A 0.781,0.781 0 0 0 13.939,13.52 4.13,4.13 0 0 0 18,9.5 Z" style="fill:url(#a3c84452-5462-4576-9ec1-78e83c3246f7)"/><rect id="rect74160" width="9" height="9" x="7.35" y="7.267" rx=".6" style="fill:#50e6ff"/></g><rect id="rect74164" width="9.871" height="9.871" x="6.914" y="7.193" rx=".6" style="fill:#50e6ff"/><rect id="rect74166" width="7.266" height="1.696" x="8.393" y="8.538" rx=".3" style="fill:#fff"/><rect id="rect74168" width="7.266" height="1.696" x="8.393" y="11.279" rx=".3" style="opacity:.8;fill:#fff"/><rect id="rect74170" width="7.266" height="1.696" x="8.393" y="14.02" rx=".3" style="opacity:.6;fill:#fff"/></g><metadata id="metadata74173"/></svg>