<svg xmlns="http://www.w3.org/2000/svg" xmlns:svg="http://www.w3.org/2000/svg" id="b7c2a418-e983-45bb-8b22-a3ab53d9ffdb" width="17" height="13.67" version="1.1" viewBox="0 0 17 13.67"><defs id="defs74225"><linearGradient id="ecfac9f9-2ace-451a-aef4-4aae90523bfb" x1="9" x2="9" y1="15.83" y2="5.79" gradientUnits="userSpaceOnUse"><stop id="stop74216" offset="0" stop-color="#32bedd"/><stop id="stop74218" offset=".18" stop-color="#32caea"/><stop id="stop74220" offset=".41" stop-color="#32d2f2"/><stop id="stop74222" offset=".78" stop-color="#32d4f5"/></linearGradient></defs><title id="title74227">Icon-storage-96</title><path id="path74229" d="m 0,3.62 h 17 v 9.48 a 0.57,0.57 0 0 1 -0.57,0.57 H 0.57 A 0.57,0.57 0 0 1 0,13.1 Z" style="fill:url(#ecfac9f9-2ace-451a-aef4-4aae90523bfb)"/><path id="path74231" d="M 0.57,0 H 16.43 A 0.57,0.57 0 0 1 17,0.57000001 V 3.62 H 0 V 0.56000001 A 0.57,0.57 0 0 1 0.57,0 Z" style="fill:#198ab3"/><path id="path74233" d="m 2.31,4.72 h 12.36 a 0.27,0.27 0 0 1 0.27,0.27 v 1.4 A 0.27,0.27 0 0 1 14.67,6.66 H 2.31 A 0.27,0.27 0 0 1 2.05,6.39 V 4.99 A 0.27,0.27 0 0 1 2.31,4.72 Z" style="fill:#fff"/><path id="path74235" d="m 2.32,7.51 h 12.36 a 0.27,0.27 0 0 1 0.27,0.27 V 9.19 A 0.27,0.27 0 0 1 14.68,9.46 H 2.32 A 0.26,0.26 0 0 1 2.06,9.19 V 7.83 A 0.26,0.26 0 0 1 2.32,7.51 Z" style="fill:#9cebff"/><path id="path74237" d="m 2.32,10.33 h 12.36 a 0.27,0.27 0 0 1 0.27,0.27 v 1.41 a 0.27,0.27 0 0 1 -0.27,0.27 H 2.32 A 0.26,0.26 0 0 1 2.06,12.01 V 10.6 a 0.26,0.26 0 0 1 0.26,-0.27 z" style="fill:#9cebff"/><path id="ae090ab3-6849-4f1b-8ada-ca4d90aafe4f" d="m 4.61,5.69 v 5.59 a 0.28,0.28 0 0 0 0.28,0.28 H 7.24 A 0.28,0.28 0 0 0 7.5,11.28 V 7.96 A 0.27,0.27 0 0 1 7.78,7.68 h 1.41 a 0.27,0.27 0 0 1 0.28,0.28 v 3.32 a 0.28,0.28 0 0 0 0.29,0.28 h 2.35 a 0.28,0.28 0 0 0 0.28,-0.28 V 5.69 A 0.28,0.28 0 0 0 12.11,5.41 H 4.89 A 0.28,0.28 0 0 0 4.61,5.69 Z" style="fill:#0078d4"/><metadata id="metadata74240"/></svg>