<svg xmlns="http://www.w3.org/2000/svg" xmlns:svg="http://www.w3.org/2000/svg" id="svg74321" width="17.894" height="12.689" version="1.1" viewBox="0 0 17.894 12.689"><defs id="defs74302"><linearGradient id="a6a26b1e-cede-48df-bcf6-3a300bc5db1b" x1="9" x2="9" y1="15.342" y2="2.658" gradientTransform="translate(0.05289898,2.6555764)" gradientUnits="userSpaceOnUse"><stop id="stop74297" offset="0" stop-color="#0078d4"/><stop id="stop74299" offset=".817" stop-color="#5ea0ef"/></linearGradient></defs><title id="title74304">Icon691_DataBox_Gateway</title><g id="f6c7b812-ee36-44dd-823e-9aaf382a5c73" transform="translate(-0.05289898,-2.6555764)"><g id="g74316"><g id="g74310"><path id="path74306" d="M 17.947,11.369 A 4.019,4.019 0 0 0 14.458,7.505 5.068,5.068 0 0 0 9.238,2.658 5.2,5.2 0 0 0 4.27,6.046 a 4.8,4.8 0 0 0 -4.217,4.616 4.869,4.869 0 0 0 5.038,4.68 c 0.15,0 0.3,-0.008 0.444,-0.02 H 13.7 a 0.8,0.8 0 0 0 0.215,-0.032 4.068,4.068 0 0 0 4.032,-3.921 z" style="fill:url(#a6a26b1e-cede-48df-bcf6-3a300bc5db1b)"/><path id="path74308" d="m 9.468,10.545 a 4.708,4.708 0 1 0 -4.707,4.8 c 0.053,0 0.1,0 0.157,0 H 9.47 v -4.8 z" style="fill:#50e6ff"/></g><path id="path74312" d="m 1.325,11.747 1.782,1.473 a 0.169,0.169 0 0 0 0.277,-0.13 v -0.641 h 4.253 v -1 h -6.2 a 0.168,0.168 0 0 0 -0.112,0.298 z" style="opacity:.75;fill:#fff"/><path id="path74314" d="M 7.96,10.255 6.14,8.778 A 0.169,0.169 0 0 0 5.864,8.908 V 9.554 H 2.01 v 1 H 7.853 A 0.168,0.168 0 0 0 7.96,10.255 Z" style="fill:#fff"/></g></g><metadata id="metadata74319"/></svg>