<svg xmlns="http://www.w3.org/2000/svg" xmlns:svg="http://www.w3.org/2000/svg" id="bfbb91d2-cb20-44cf-b1a9-0d16204a32d7" width="17" height="13.88" version="1.1" viewBox="0 0 17 13.88"><defs id="defs74615"><linearGradient id="ab3b8b9f-732a-4d4f-a164-b86d9fbe1f71" x1="9.24" x2="8.85" y1=".96" y2="16.52" gradientUnits="userSpaceOnUse"><stop id="stop74602" offset="0" stop-color="#32d4f5"/><stop id="stop74604" offset=".23" stop-color="#31d0f1"/><stop id="stop74606" offset=".46" stop-color="#2cc3e6"/><stop id="stop74608" offset=".7" stop-color="#25afd4"/><stop id="stop74610" offset=".94" stop-color="#1c92ba"/><stop id="stop74612" offset="1" stop-color="#198ab3"/></linearGradient></defs><title id="title74617">Icon-storage-90</title><path id="path74619" d="M 16.6,1.540001 H 9.19 a 0.34,0.34 0 0 1 -0.22,-0.07 L 6.85,0.06000096 A 0.43,0.43 0 0 0 6.63,9.6153962e-7 H 0.4 A 0.4,0.4 0 0 0 0,0.39000096 V 13.490001 a 0.4,0.4 0 0 0 0.4,0.39 h 16.2 a 0.4,0.4 0 0 0 0.4,-0.39 v -11.55 a 0.4,0.4 0 0 0 -0.4,-0.4 z" style="fill:#005ba1"/><rect id="rect74621" width="3.86" height=".77" x="1.55" y=".76" rx=".16" style="fill:#fff"/><rect id="rect74623" width=".77" height=".77" x="1.55" y=".76" rx=".11" style="fill:#1ac3f2"/><path id="path74625" d="M 16.6,1.520001 H 8.5 a 0.36,0.36 0 0 0 -0.28,0.12 l -1.35,1.3 a 0.43,0.43 0 0 1 -0.28,0.11 H 0.4 a 0.4,0.4 0 0 0 -0.4,0.4 v 10 a 0.4,0.4 0 0 0 0.4,0.39 h 16.2 a 0.4,0.4 0 0 0 0.4,-0.39 v -11.51 a 0.4,0.4 0 0 0 -0.4,-0.42 z" style="fill:url(#ab3b8b9f-732a-4d4f-a164-b86d9fbe1f71)"/><path id="path74627" d="m 9.68,3.640001 a 0.15,0.15 0 0 0 -0.08,0 c 0,0 -0.09,0 -0.13,0.07 l -3.16,4.59 a 0.16,0.16 0 0 0 0,0.16 0.19,0.19 0 0 0 0.15,0.1 h 1.87 l -0.83,2.78 a 0.13,0.13 0 0 0 0.07,0.18 0.1,0.1 0 0 0 0.07,0 c 0.06,0 0.09,0 0.13,-0.07 l 3.26,-4.66 c 0,0 0,-0.06 0,-0.1 a 0.17,0.17 0 0 0 -0.17,-0.16 h -2 l 0.81,-2.73 a 0.13,0.13 0 0 0 0.01,-0.16 z" style="fill:#fff"/><metadata id="metadata74629"/></svg>