<svg xmlns="http://www.w3.org/2000/svg" xmlns:svg="http://www.w3.org/2000/svg" id="f2f04349-8aee-4413-84c9-a9053611b319" width="17" height="13.67" version="1.1" viewBox="0 0 17 13.67"><defs id="defs75527"><linearGradient id="ad4c4f96-09aa-4f91-ba10-5cb8ad530f74" x1="9" x2="9" y1="15.83" y2="5.79" gradientUnits="userSpaceOnUse"><stop id="stop75520" offset="0" stop-color="#b3b3b3"/><stop id="stop75522" offset=".26" stop-color="#c1c1c1"/><stop id="stop75524" offset="1" stop-color="#e6e6e6"/></linearGradient></defs><title id="title75529">Icon-storage-86</title><path id="path75531" d="m 0,3.62 h 17 v 9.48 a 0.57,0.57 0 0 1 -0.57,0.57 H 0.57 A 0.57,0.57 0 0 1 0,13.1 Z" style="fill:url(#ad4c4f96-09aa-4f91-ba10-5cb8ad530f74)"/><path id="path75533" d="M 0.57,0 H 16.43 A 0.57,0.57 0 0 1 17,0.57000001 V 3.62 H 0 V 0.56000001 A 0.57,0.57 0 0 1 0.57,0 Z" style="fill:#37c2b1"/><path id="path75535" d="m 2.31,4.72 h 12.37 a 0.27,0.27 0 0 1 0.26,0.27 v 1.4 A 0.27,0.27 0 0 1 14.68,6.66 H 2.31 A 0.27,0.27 0 0 1 2.05,6.39 V 4.99 A 0.27,0.27 0 0 1 2.31,4.72 Z" style="fill:#fff"/><path id="path75537" d="m 2.32,7.51 h 12.37 a 0.27,0.27 0 0 1 0.26,0.27 V 9.19 A 0.27,0.27 0 0 1 14.69,9.46 H 2.32 A 0.27,0.27 0 0 1 2.06,9.19 V 7.83 A 0.27,0.27 0 0 1 2.32,7.51 Z" style="fill:#37c2b1"/><path id="path75539" d="m 2.32,10.33 h 12.37 a 0.27,0.27 0 0 1 0.26,0.27 v 1.41 a 0.27,0.27 0 0 1 -0.26,0.27 H 2.32 A 0.27,0.27 0 0 1 2.06,12.01 V 10.6 a 0.27,0.27 0 0 1 0.26,-0.27 z" style="fill:#258277"/><metadata id="metadata75541"/></svg>