<svg xmlns="http://www.w3.org/2000/svg" xmlns:svg="http://www.w3.org/2000/svg" id="fcdf2200-0558-41f8-8840-46e299a8553d" width="12.76" height="17" version="1.1" viewBox="0 0 12.76 17"><defs id="defs75974"><linearGradient id="b53f55b6-5b8c-4246-8553-f63a4c06f010" x1="2.55" x2="15.3" y1="10.17" y2="10.17" gradientTransform="rotate(0.15,11.509153,38.182211)" gradientUnits="userSpaceOnUse"><stop id="stop75959" offset="0" stop-color="#005ba1"/><stop id="stop75961" offset=".07" stop-color="#0060a9"/><stop id="stop75963" offset=".36" stop-color="#0071c8"/><stop id="stop75965" offset=".52" stop-color="#0078d4"/><stop id="stop75967" offset=".64" stop-color="#0074cd"/><stop id="stop75969" offset=".82" stop-color="#006abb"/><stop id="stop75971" offset="1" stop-color="#005ba1"/></linearGradient></defs><title id="title75976">Icon-storage-92</title><path id="path75978" d="m 6.37,4.6400751 c -3.52,0 -6.37,-1 -6.37,-2.33 V 14.660075 c 0,1.27 2.8,2.31 6.28,2.34 h 0.09 c 3.52,0 6.38,-1 6.38,-2.31 V 2.3400751 c 0.01,1.28 -2.85,2.31 -6.38,2.3 z" style="fill:url(#b53f55b6-5b8c-4246-8553-f63a4c06f010)"/><path id="path75980" d="m 12.76,2.3400751 c 0,1.28 -2.86,2.31 -6.38,2.3 -3.52,-0.01 -6.37,-1 -6.37,-2.33 C 0.01,0.98007508 2.87,-0.00992492 6.37,7.5082705e-5 9.87,0.01007508 12.74,1.0600751 12.74,2.3400751" style="fill:#f2f2f2"/><path id="path75982" d="m 11.27,2.1500751 c 0,0.81 -2.19,1.47 -4.89,1.46 -2.7,-0.01 -4.88,-0.67 -4.88,-1.49 0,-0.82 2.19,-1.47000002 4.87,-1.46000002 2.68,0.01 4.89,0.67000002 4.88,1.49000002" style="fill:#50e6ff"/><path id="path75984" d="m 6.37,2.5000751 a 11.86,11.86 0 0 0 -3.88,0.56 11.39,11.39 0 0 0 3.88,0.55 11.44,11.44 0 0 0 3.88,-0.57 12.08,12.08 0 0 0 -3.88,-0.54 z" style="fill:#198ab3"/><path id="path75986" d="m 9.84,9.6800751 -0.82,-0.26 c -0.05,0 -0.08,0 -0.1,-0.09 l -0.17,-0.42 a 0.38,0.38 0 0 1 0,-0.15 c 0.12,-0.26 0.24,-0.52 0.38,-0.77 a 0.11,0.11 0 0 0 0,-0.16 v 0 c -0.14,-0.14 -0.28,-0.26 -0.41,-0.41 a 0.13,0.13 0 0 0 -0.22,0 v 0 l -0.7,0.35 c -0.05,0 -0.08,0 -0.13,0 l -0.41,-0.17 a 0.14,0.14 0 0 1 -0.16,-0.1 c -0.1,-0.27 -0.2,-0.54 -0.28,-0.81 a 0.11,0.11 0 0 0 -0.1,-0.09 H 6.05 c -0.07,0 -0.08,0 -0.12,0.08 -0.08,0.28 -0.17,0.55 -0.27,0.82 0,0 0,0.09 -0.09,0.1 l -0.42,0.17 a 0.22,0.22 0 0 1 -0.16,0 l -0.8,-0.39 a 0.11,0.11 0 0 0 -0.12,0 c -0.15,0.16 -0.3,0.33 -0.47,0.48 a 0.08,0.08 0 0 0 0,0.12 v 0 c 0.13,0.25 0.25,0.51 0.39,0.76 a 0.18,0.18 0 0 1 0,0.16 l -0.18,0.39 a 0.14,0.14 0 0 1 -0.12,0.12 c -0.27,0.1 -0.54,0.2 -0.81,0.28 -0.07,0 -0.09,0.05 -0.09,0.11 v 0.6999999 c 0,0.07 0,0.1 0.08,0.12 0.28,0.08 0.55,0.19 0.82,0.27 a 0.13,0.13 0 0 1 0.1,0.11 c 0,0.13 0.12,0.27 0.17,0.41 a 0.19,0.19 0 0 1 0,0.15 c -0.14,0.27 -0.26,0.54 -0.39,0.81 a 0.09,0.09 0 0 0 0,0.11 l 0.5,0.49 c 0,0 0,0.05 0.08,0 l 0.48,-0.25 0.35,-0.22 c 0,0 0.09,0 0.14,0 l 0.42,0.17 c 0.05,0 0.07,0.05 0.09,0.1 0.1,0.27 0.2,0.56 0.28,0.83 a 0.12,0.12 0 0 0 0.11,0.09 h 0.66 c 0.07,0 0.09,0 0.12,-0.08 0.09,-0.27 0.19,-0.55 0.27,-0.82 a 0.15,0.15 0 0 1 0.09,-0.1 l 0.43,-0.17 a 0.15,0.15 0 0 1 0.13,0 l 0.8,0.39 a 0.1,0.1 0 0 0 0.12,0 c 0.15,-0.16 0.31,-0.33 0.48,-0.48 0.17,-0.15 0.05,-0.07 0,-0.14 a 8.1,8.1 0 0 1 -0.39,-0.78 0.11,0.11 0 0 1 0,-0.15 c 0.06,-0.14 0.12,-0.27 0.17,-0.41 a 0.13,0.13 0 0 1 0.1,-0.1 c 0.27,-0.1 0.55,-0.21 0.82,-0.29 0.07,0 0.08,-0.05 0.08,-0.12 0,-0.24 0,-0.44 0,-0.6499999 0,-0.21 0.01,-0.08 -0.06,-0.11 z m -2.36,1.5199999 -0.08,0.07 a 1.58,1.58 0 0 1 -1.87,0.12 l -0.1,-0.07 a 1.61,1.61 0 0 1 -0.63,-1 1.53,1.53 0 0 1 0.46,-1.4099999 c 0.05,-0.05 0.05,-0.07 0,-0.12 l -0.13,-0.15 h 0.78 c 0,0 0.05,0 0.05,0 v 0 0.77 l -0.22,-0.21 c 0,0 0,-0.05 -0.1,0 a 1.12,1.12 0 0 0 -0.11,1.5699999 0.8,0.8 0 0 0 0.17,0.15 l 0.12,0.06 a 1,1 0 0 0 0.56,0.17 1,1 0 0 0 0.94,-0.55 1.09,1.09 0 0 0 -0.19,-1.2999999 c 0,0 -0.1,-0.07 -0.11,-0.14 -0.01,-0.07 0,0 0,-0.07 a 1.62,1.62 0 0 0 0.18,-0.19 c 0.14,-0.11 0.14,-0.11 0.24,0 a 1.63,1.63 0 0 1 0.04,2.2999999 z" style="fill:#fff"/><metadata id="metadata75988"/></svg>