<svg xmlns="http://www.w3.org/2000/svg" xmlns:svg="http://www.w3.org/2000/svg" id="ed8fbe5c-618b-47ce-8d68-3dbd1e10f81a" width="16.986" height="17" version="1.1" viewBox="0 0 16.986 17"><defs id="defs55716"><linearGradient id="e78519cd-36d2-4ee5-987f-be84be24d95e" x1="7.93" x2="7.93" y1="17.95" y2="5.62" gradientUnits="userSpaceOnUse"><stop id="stop55706" offset="0" stop-color="#5e9624"/><stop id="stop55708" offset="1" stop-color="#b4ec36"/></linearGradient><linearGradient id="ac3f95ec-6391-4f34-b431-9534d4cdf013" x1="7.95" x2="7.95" y1="9.21" y2="-2.02" gradientUnits="userSpaceOnUse"><stop id="stop55711" offset="0" stop-color="#5e9624"/><stop id="stop55713" offset="1" stop-color="#b4ec36"/></linearGradient></defs><path id="path55718" d="m 13.496103,16.35 a 1.3,1.3 0 0 0 1.32,-1.31 0.81,0.81 0 0 0 0,-0.16 c -0.52,-4.15 -2.88,-7.53 -7.3999997,-7.53 -4.52,0 -6.91999996,2.86 -7.40999996,7.54 a 1.34,1.34 0 0 0 1.18999996,1.46 z" style="fill:url(#e78519cd-36d2-4ee5-987f-be84be24d95e)"/><path id="path55720" d="m 7.4961033,8.33 a 4.16,4.16 0 0 1 -2.26,-0.66 l 2.18,5.83 2.22,-5.79 a 4.2,4.2 0 0 1 -2.14,0.62 z" style="fill:#fff"/><circle id="circle55722" cx="7.446" cy="4.17" r="4.17" style="fill:url(#ac3f95ec-6391-4f34-b431-9534d4cdf013)"/><polygon id="polygon55724" points="13.85 17.5 13.85 13.26 17.49 11.13 17.49 15.37" transform="translate(-0.50389666,-0.5)" style="fill:#32bedd"/><polygon id="polygon55726" points="10.21 11.13 13.85 9 17.49 11.13 13.85 13.26" transform="translate(-0.50389666,-0.5)" style="fill:#9cebff"/><polygon id="polygon55728" points="10.21 15.37 10.21 11.13 13.85 13.26 13.85 17.5" transform="translate(-0.50389666,-0.5)" style="fill:#50e6ff"/><polygon id="polygon55730" points="13.85 17.5 10.21 15.37 13.85 13.26" transform="translate(-0.50389666,-0.5)" style="fill:#9cebff"/><polygon id="polygon55732" points="13.85 17.5 17.49 15.37 13.85 13.26" transform="translate(-0.50389666,-0.5)" style="fill:#50e6ff"/><metadata id="metadata55734"/></svg>