<svg xmlns="http://www.w3.org/2000/svg" xmlns:svg="http://www.w3.org/2000/svg" id="svg55981" width="17.872" height="18.001" version="1.1" viewBox="0 0 17.872 18.001"><defs id="defs55956"><linearGradient id="b34e541a-f267-45a6-9cce-021b15a8536a" x1="11.202" x2="2.831" y1="13.906" y2="-.576" gradientTransform="translate(0.064)" gradientUnits="userSpaceOnUse"><stop id="stop55951" offset="0" stop-color="#0078d4"/><stop id="stop55953" offset=".998" stop-color="#83b9f9"/></linearGradient></defs><g id="bac6293a-af63-4cea-ac41-34ab61f3fcef" transform="translate(-0.064)"><path id="path55958" d="m 12.574,7.01 c 0,4.036 -4.969,7.286 -6.049,7.945 a 0.4,0.4 0 0 1 -0.412,0 C 5.032,14.3 0.064,11.046 0.064,7.01 V 2.153 A 0.39,0.39 0 0 1 0.448,1.768 C 4.312,1.666 3.423,0 6.319,0 9.215,0 8.325,1.666 12.19,1.768 a 0.39,0.39 0 0 1 0.384,0.385 z" style="fill:#5ea0ef"/><path id="path55960" d="m 12.055,7.051 c 0,3.7 -4.556,6.682 -5.547,7.286 a 0.366,0.366 0 0 1 -0.378,0 C 5.139,13.737 0.583,10.753 0.583,7.051 V 2.6 A 0.357,0.357 0 0 1 0.935,2.247 C 4.479,2.15 3.663,0.623 6.319,0.623 c 2.656,0 1.84,1.527 5.381,1.621 a 0.357,0.357 0 0 1 0.352,0.353 z" style="fill:url(#b34e541a-f267-45a6-9cce-021b15a8536a)"/><path id="path55962" d="m 6.13,8.631 h 11.418 a 0.369,0.369 0 0 1 0.388,0.347 v 8.675 A 0.369,0.369 0 0 1 17.548,18 H 6.13 A 0.369,0.369 0 0 1 5.742,17.653 V 8.978 A 0.37,0.37 0 0 1 6.13,8.631 Z" style="fill:#83b9f9"/><path id="path55964" d="m 6.108,8.631 h 11.463 a 0.348,0.348 0 0 1 0.365,0.327 v 0 1.307 H 5.742 V 8.958 A 0.349,0.349 0 0 1 6.108,8.631 Z" style="opacity:.7;fill:#fff"/><path id="path55966" d="M 16.275,13.673 H 8.749 c -0.167,0 -0.3,0.076 -0.3,0.17 v 0.42 c 0,0.094 0.136,0.17 0.3,0.17 h 7.526 c 0.168,0 0.3,-0.076 0.3,-0.17 v -0.42 c 0.003,-0.094 -0.132,-0.17 -0.3,-0.17 z" style="opacity:.7;fill:#fff"/><path id="path55968" d="M 16.275,11.759 H 8.749 c -0.167,0 -0.3,0.076 -0.3,0.17 v 0.42 c 0,0.094 0.136,0.17 0.3,0.17 h 7.526 c 0.168,0 0.3,-0.076 0.3,-0.17 v -0.42 c 0.003,-0.094 -0.132,-0.17 -0.3,-0.17 z" style="opacity:.7;fill:#fff"/><path id="path55970" d="M 16.76,16.272 H 8.733 c -0.179,0 -0.324,0.082 -0.324,0.182 V 16.9 c 0,0.1 0.145,0.181 0.324,0.181 h 8.027 c 0.179,0 0.324,-0.081 0.324,-0.181 v -0.448 c 0,-0.098 -0.145,-0.18 -0.324,-0.18 z" style="opacity:.7;fill:#fff"/><circle id="circle55972" cx="7.198" cy="12.139" r=".498" style="opacity:.7;fill:#fff"/><circle id="circle55974" cx="7.198" cy="14.053" r=".498" style="opacity:.7;fill:#fff"/><circle id="circle55976" cx="7.078" cy="16.678" r=".531" style="opacity:.7;fill:#fff"/></g><metadata id="metadata55979"/></svg>