<svg xmlns="http://www.w3.org/2000/svg" xmlns:svg="http://www.w3.org/2000/svg" id="svg71667" width="17.577" height="16.597" version="1.1" viewBox="0 0 17.577 16.597"><defs id="defs71636"><linearGradient id="bd6e50c9-d5a4-4e74-abad-3b4ae921495e" x1="8.693" x2="8.693" y1="12.726" y2=".705" gradientUnits="userSpaceOnUse"><stop id="stop71623" offset="0" stop-color="#0078d4"/><stop id="stop71625" offset=".105" stop-color="#1480da"/><stop id="stop71627" offset=".306" stop-color="#348ee3"/><stop id="stop71629" offset=".5" stop-color="#4b98ea"/><stop id="stop71631" offset=".682" stop-color="#599eee"/><stop id="stop71633" offset=".84" stop-color="#5ea0ef"/></linearGradient></defs><title id="title71638">Icon-469-Internet-Analyzer</title><path id="path71645" d="m 16.962,8.2583845 a 3.811,3.811 0 0 0 -3.307,-3.661 A 4.8,4.8 0 0 0 8.708,0.00238446 4.926,4.926 0 0 0 4,3.2133845 a 4.547,4.547 0 0 0 -4,4.375 4.615,4.615 0 0 0 4.776,4.4349995 c 0.141,0 0.281,-0.007 0.42,-0.018 h 7.734 a 0.769,0.769 0 0 0 0.2,-0.031 3.855,3.855 0 0 0 3.832,-3.7159995 z" style="fill:url(#bd6e50c9-d5a4-4e74-abad-3b4ae921495e)"/><circle id="circle71647" cx="8.89" cy="5.676" r="1.318" style="fill:#fff"/><ellipse id="ellipse71649" cx="12.482" cy="6.995" rx="1.057" ry="1.062" style="fill:#fff"/><circle id="circle71651" cx="10.208" cy="2.912" r=".738" style="fill:#fff"/><path style="fill:#50e6ff" id="path71653" d="m 17.231,16.597384 h -8.7 c -0.277,0 -0.44,-0.443 -0.283,-0.671 l 3,-4.369 a 0.351,0.351 0 0 0 0.061,-0.2 V 8.4693845 a 0.173,0.173 0 0 0 -0.174,-0.172 h -0.161 a 0.344,0.344 0 0 1 -0.344,-0.344 v -0.156 a 0.344,0.344 0 0 1 0.344,-0.344 h 3.815 a 0.344,0.344 0 0 1 0.344,0.344 v 0.155 a 0.344,0.344 0 0 1 -0.344,0.345 h -0.161 a 0.172,0.172 0 0 0 -0.172,0.172 v 2.8949995 a 0.339,0.339 0 0 0 0.061,0.2 l 3,4.362 c 0.155,0.223 -0.009,0.671 -0.286,0.671 z"/><path style="fill:#fff" id="path71655" d="m 9.535,15.425384 2.277,-3.32 a 0.827,0.827 0 0 0 0.146,-0.471 v -1.337 a 0.265,0.265 0 0 1 0.265,-0.265 h 1.292 a 0.265,0.265 0 0 1 0.265,0.265 v 1.428 a 0.553,0.553 0 0 0 0.1,0.317 l 2.325,3.383 a 0.2,0.2 0 0 1 -0.163,0.311 H 9.698 a 0.2,0.2 0 0 1 -0.163,-0.311 z"/><path style="fill:#86d633" id="path71657" d="m 11.738,14.331384 0.463,1.072 a 0.066,0.066 0 0 0 0.124,-0.005 l 0.484,-1.435 a 0.066,0.066 0 0 1 0.122,-0.01 l 0.394,0.751 a 0.067,0.067 0 0 0 0.116,0 l 0.526,-0.889 a 0.066,0.066 0 0 1 0.058,-0.033 h 1.057 l -0.215,-0.311 a 0.066,0.066 0 0 0 -0.055,-0.029 h -0.981 a 0.067,0.067 0 0 0 -0.058,0.032 l -0.314,0.532 a 0.066,0.066 0 0 1 -0.116,0 l -0.481,-0.915 a 0.066,0.066 0 0 0 -0.122,0.01 l -0.451,1.348 a 0.066,0.066 0 0 1 -0.124,0.005 l -0.387,-0.9 a 0.066,0.066 0 0 0 -0.119,0 l -0.549,1 a 0.067,0.067 0 0 1 -0.059,0.034 h -0.9 a 0.068,0.068 0 0 0 -0.055,0.029 l -0.214,0.311 h 1.367 a 0.067,0.067 0 0 0 0.059,-0.034 l 0.311,-0.565 a 0.066,0.066 0 0 1 0.119,0.002 z"/><metadata id="metadata71665"/></svg>