<svg xmlns="http://www.w3.org/2000/svg" xmlns:svg="http://www.w3.org/2000/svg" id="svg71783" width="17.716" height="18" version="1.1" viewBox="0 0 17.716 18"><defs id="defs71770"><linearGradient id="f40fb1ff-0852-4039-9599-71aa564b13c7" x1="7.123" x2="7.123" y2="13.962" gradientTransform="translate(0.1420002)" gradientUnits="userSpaceOnUse"><stop id="stop71765" offset="0" stop-color="#0078d4"/><stop id="stop71767" offset="1" stop-color="#005ba1"/></linearGradient></defs><g id="a5954726-4807-4c57-b928-cf0999f8d145" transform="translate(-0.1420002)"><circle id="circle71772" cx="7.123" cy="6.981" r="6.981" style="fill:url(#f40fb1ff-0852-4039-9599-71aa564b13c7)"/><circle id="circle71774" cx="11.022" cy="11.164" r="6.684" style="fill:#0078d4"/><path id="path71776" d="m 17.858,10.94 h -0.011 a 6.835,6.835 0 1 0 0,0.45 h 0.011 z m -2.835,0 a 7.851,7.851 0 0 0 -0.55,-2.846 h 2.145 A 6.351,6.351 0 0 1 17.4,10.94 Z M 4.648,11.39 h 2.466 a 7.83,7.83 0 0 0 0.564,2.847 H 5.428 A 6.334,6.334 0 0 1 4.648,11.39 Z m 6.284,-3.746 h -2.5 a 7.724,7.724 0 0 1 2.5,-2.466 z m 0.45,-2.465 a 7.094,7.094 0 0 1 2.388,2.465 h -2.388 z m -0.45,2.915 V 10.94 H 7.563 A 6.816,6.816 0 0 1 8.208,8.094 Z M 7.113,10.94 H 4.648 A 6.338,6.338 0 0 1 5.427,8.094 H 7.714 A 7.364,7.364 0 0 0 7.113,10.94 Z m 0.451,0.45 h 3.368 v 2.847 H 8.183 A 7.252,7.252 0 0 1 7.564,11.39 Z m 3.368,3.3 V 17.3 A 7.461,7.461 0 0 1 8.4,14.688 Z m 0.45,0 h 2.352 a 7.349,7.349 0 0 1 -2.352,2.494 z m 0,-0.451 V 11.39 h 3.191 a 7.252,7.252 0 0 1 -0.619,2.847 z m 0,-3.3 V 8.094 h 2.6 a 7.3,7.3 0 0 1 0.59,2.846 z m 4.962,-3.3 H 14.258 A 7.429,7.429 0 0 0 11.637,4.81 6.389,6.389 0 0 1 16.344,7.644 Z M 10.7,4.8 A 8,8 0 0 0 7.941,7.644 H 5.7 a 6.379,6.379 0 0 1 5,-2.844 z m -5,9.888 H 7.9 A 7.648,7.648 0 0 0 10.458,17.521 6.387,6.387 0 0 1 5.7,14.688 Z m 5.99,2.826 a 7.649,7.649 0 0 0 2.548,-2.826 h 2.1 a 6.39,6.39 0 0 1 -4.646,2.826 z m 4.925,-3.277 H 14.459 A 7.83,7.83 0 0 0 15.023,11.39 H 17.4 a 6.346,6.346 0 0 1 -0.783,2.847 z" style="fill:#83b9f9"/><path id="path71778" d="M 11.031,9.684 A 1.538,1.538 0 0 0 10.368,9.838 L 6.328,4.862 A 1.573,1.573 0 1 0 5.621,5.41 L 9.7,10.438 a 1.539,1.539 0 0 0 -0.23,0.8 1.557,1.557 0 1 0 1.557,-1.557 z" style="fill:#42e8ca"/></g><metadata id="metadata71781">​​</metadata></svg>