<svg xmlns="http://www.w3.org/2000/svg" xmlns:svg="http://www.w3.org/2000/svg" id="svg71925" width="18" height="15.272" version="1.1" viewBox="0 0 18 15.272"><defs id="defs71904"><linearGradient id="f10037e5-08de-4fde-88a0-a5111932c8f6" x1="8.991" x2="8.991" y1="14.11" y2="1.365" gradientTransform="translate(0,1.3625571)" gradientUnits="userSpaceOnUse"><stop id="stop71889" offset="0" stop-color="#773adc"/><stop id="stop71891" offset=".817" stop-color="#a67af4"/></linearGradient><linearGradient id="a611bbc8-9cc4-4056-894f-1a6a87216432" x1="12.253" x2="12.253" y1="4.246" y2="9.797" gradientTransform="translate(0,1.3625571)" gradientUnits="userSpaceOnUse"><stop id="stop71894" offset="0" stop-color="#c3f1ff"/><stop id="stop71896" offset=".999" stop-color="#9cebff"/></linearGradient><linearGradient id="eda6497f-9c76-477d-ab72-569c0508aebb" x1="12.253" x2="12.253" y1="16.635" y2="12.512" gradientTransform="translate(0,1.3625571)" gradientUnits="userSpaceOnUse"><stop id="stop71899" offset="0" stop-color="#c3f1ff"/><stop id="stop71901" offset=".999" stop-color="#9cebff"/></linearGradient></defs><g id="afb37d11-6e90-4ac0-b9c9-249fa60649c5" transform="translate(0,-1.3625571)"><path id="path71906" d="M 17.982,10.118 C 17.982,9.3 16.789,9.031 16.33,8.401 15.698,7.534 15.63,6.424 14.475,6.235 A 5.091,5.091 0 0 0 9.231,1.365 5.225,5.225 0 0 0 4.238,4.765 4.822,4.822 0 0 0 0,9.408 a 4.893,4.893 0 0 0 5.063,4.7 c 0.151,0 0.3,-0.007 0.446,-0.019 h 8.2 a 0.811,0.811 0 0 0 0.216,-0.032 4.089,4.089 0 0 0 4.057,-3.939 z" style="fill:url(#f10037e5-08de-4fde-88a0-a5111932c8f6)"/><rect id="rect71908" width="9.178" height="3.679" x="7.664" y="6.553" rx=".3" style="fill:#005ba1"/><rect id="rect71910" width="7.367" height="5.55" x="8.57" y="4.246" rx=".3" style="fill:url(#a611bbc8-9cc4-4056-894f-1a6a87216432)"/><path id="path71912" d="M 7.106,8.18 H 17.4 a 0.6,0.6 0 0 1 0.6,0.6 v 6.1 H 6.507 v -6.1 a 0.6,0.6 0 0 1 0.599,-0.6 z" style="fill:#5ea0ef"/><rect id="rect71914" width="11.493" height="1.02" x="6.507" y="14.093" style="fill:#0078d4"/><rect id="rect71916" width="8.509" height="1.192" x="7.997" y="12.305" rx=".3" style="fill:#83b9f9"/><circle id="circle71918" cx="16.045" cy="10.082" r=".285" style="fill:#c3f1ff"/><path id="path71920" d="m 8.57,12.512 h 7.367 v 3.823 a 0.3,0.3 0 0 1 -0.3,0.3 H 8.869 a 0.3,0.3 0 0 1 -0.3,-0.3 v -3.823 z" style="fill:url(#eda6497f-9c76-477d-ab72-569c0508aebb)"/></g><metadata id="metadata71923"/></svg>