<svg xmlns="http://www.w3.org/2000/svg" xmlns:svg="http://www.w3.org/2000/svg" id="svg72081" width="17" height="17" version="1.1" viewBox="0 0 17 17"><defs id="defs72064"><radialGradient id="e9a2b8bf-efad-4e15-89f0-635373400131" cx="9" cy="9" r="8.5" gradientTransform="translate(0.5,0.5)" gradientUnits="userSpaceOnUse"><stop id="stop72049" offset="0" stop-color="#198ab3"/><stop id="stop72051" offset=".382" stop-color="#1a8cb5"/><stop id="stop72053" offset=".576" stop-color="#1c94bc"/><stop id="stop72055" offset=".727" stop-color="#21a1c8"/><stop id="stop72057" offset=".856" stop-color="#27b4d8"/><stop id="stop72059" offset=".97" stop-color="#2fccee"/><stop id="stop72061" offset="1" stop-color="#32d4f5"/></radialGradient></defs><g id="faeec9e4-44b9-413a-8332-867d334dcda2" transform="translate(-0.5,-0.5)"><g id="g72070"><circle id="circle72066" cx="9" cy="9" r="8.5" style="fill:url(#e9a2b8bf-efad-4e15-89f0-635373400131)"/><circle id="circle72068" cx="9" cy="9" r="7.321" style="fill:#005ba1"/></g><g id="g72076"><path id="path72072" d="M 9.1,9.937 6.266,7.125 a 0.507,0.507 0 0 0 -0.709,0 L 5.2,7.48 A 0.469,0.469 0 0 0 5.057,7.817 0.476,0.476 0 0 0 5.198,8.156 l 2.132,2.122 -2.178,2.163 a 0.473,0.473 0 0 0 0,0.676 l 0.361,0.355 a 0.507,0.507 0 0 0 0.709,0 L 9.1,10.612 A 0.475,0.475 0 0 0 9.241,10.274 0.468,0.468 0 0 0 9.1,9.937 Z" style="fill:#f2f2f2"/><path id="path72074" d="m 8.755,7.678 a 0.475,0.475 0 0 0 0.141,0.338 l 2.88,2.859 a 0.507,0.507 0 0 0 0.709,0 l 0.361,-0.356 A 0.469,0.469 0 0 0 12.989,10.182 0.475,0.475 0 0 0 12.848,9.844 L 10.674,7.682 12.806,5.559 A 0.475,0.475 0 0 0 12.947,5.221 0.469,0.469 0 0 0 12.804,4.884 L 12.443,4.528 a 0.507,0.507 0 0 0 -0.709,0 L 8.9,7.34 A 0.472,0.472 0 0 0 8.755,7.678 Z" style="fill:#f2f2f2"/></g></g><metadata id="metadata72079"/></svg>