<svg xmlns="http://www.w3.org/2000/svg" xmlns:svg="http://www.w3.org/2000/svg" id="svg63149" width="18" height="14.256" version="1.1" viewBox="0 0 18 14.256"><defs id="defs63126"><linearGradient id="aeb3bebf-e891-43d3-b045-06c026f5040e" x1="9" x2="9" y1="14.633" y2="1.875" gradientTransform="translate(0,1.8726482)" gradientUnits="userSpaceOnUse"><stop id="stop63116" offset="0" stop-color="#0078d4"/><stop id="stop63118" offset="1" stop-color="#5ea0ef"/></linearGradient><linearGradient id="a1a3bad5-bba7-4b2b-aeca-10273cb8629a" x1="11.443" x2="11.443" y1="9.184" y2="15.325" gradientTransform="translate(0,1.8726482)" gradientUnits="userSpaceOnUse"><stop id="stop63121" offset="0" stop-color="#fff"/><stop id="stop63123" offset="1" stop-color="#f2f2f2"/></linearGradient></defs><g id="bbaf661a-4927-421b-af2a-366eca680343" transform="translate(0,-1.8726482)"><path id="path63128" d="M 18,10.637 A 4.044,4.044 0 0 0 14.49,6.75 5.1,5.1 0 0 0 9.24,1.875 5.229,5.229 0 0 0 4.24,5.283 4.826,4.826 0 0 0 0,9.927 4.9,4.9 0 0 0 5.068,14.633 c 0.151,0 0.3,-0.007 0.447,-0.019 h 8.207 A 0.819,0.819 0 0 0 13.939,14.581 4.092,4.092 0 0 0 18,10.637 Z" style="fill:url(#aeb3bebf-e891-43d3-b045-06c026f5040e)"/><path id="path63130" d="m 11.442,8.286 c 3.862,0 6.221,2.874 6.41,6.8 A 0.994,0.994 0 0 1 16.86,16.129 H 6.026 A 1,1 0 0 1 5.034,15.085 C 5.227,11.16 7.587,8.286 11.442,8.286 Z" style="fill:#50e6ff"/><path id="path63132" d="m 6.026,15.463 a 0.324,0.324 0 0 1 -0.239,-0.1 0.329,0.329 0 0 1 -0.092,-0.246 c 0.185,-3.752 2.768,-6.166 5.747,-6.166 2.979,0 5.569,2.414 5.749,6.166 a 0.329,0.329 0 0 1 -0.092,0.246 0.324,0.324 0 0 1 -0.239,0.1 z" style="fill:url(#a1a3bad5-bba7-4b2b-aeca-10273cb8629a)"/><path id="path63134" d="M 14.55,11.02 A 4.648,4.648 0 0 0 11.773,9.835 V 12 a 2.6,2.6 0 0 1 1.291,0.551 z" style="fill:#9cebff"/><path id="path63136" d="m 8.335,11.02 1.486,1.528 A 2.6,2.6 0 0 1 11.112,12 V 9.835 A 4.648,4.648 0 0 0 8.335,11.02 Z" style="fill:#50e6ff"/><path id="path63138" d="m 13.532,13.029 a 2.753,2.753 0 0 1 0.535,1.327 h 2.1 A 4.926,4.926 0 0 0 15.018,11.5 Z" style="fill:#9cebff"/><path id="path63140" d="M 9.354,13.029 7.867,11.5 a 4.933,4.933 0 0 0 -1.153,2.855 h 2.1 a 2.745,2.745 0 0 1 0.54,-1.326 z" style="fill:#32bedd"/><path id="path63142" d="m 15.31,12.555 a 0.331,0.331 0 0 0 -0.428,-0.188 l -3.1,1.236 0.241,0.616 3.1,-1.235 a 0.332,0.332 0 0 0 0.187,-0.429 z" style="fill:#32bedd"/><circle id="circle63144" cx="11.442" cy="14.049" r=".904" style="fill:#767676"/></g><metadata id="metadata63147"/></svg>