<svg xmlns="http://www.w3.org/2000/svg" xmlns:svg="http://www.w3.org/2000/svg" id="f45ab782-7a6d-4f18-9416-8f78a4087155" width="14.18" height="17.034" version="1.1" viewBox="0 0 14.18 17.034"><defs id="defs57307"><linearGradient id="f8a6a4fc-9e8d-423a-97d1-d514179ece73" x1="8.15" x2="8.15" y1="17.5" y2="2.09" gradientUnits="userSpaceOnUse"><stop id="stop57302" offset="0" stop-color="#1988d9"/><stop id="stop57304" offset=".9" stop-color="#54aef0"/></linearGradient></defs><title id="title57309">Icon-manage-305</title><path id="path57311" d="M 0.02,1.6139957 1.23,0.20399566 a 0.59,0.59 0 0 1 0.45,-0.2 h 11.61 a 0.81,0.81 0 0 1 0.89,0.83 V 15.333996 a 0.57,0.57 0 0 1 -0.2,0.43 l -1.3,1.19 H 0.81 l -0.81,-0.33 z" style="fill:#005ba1"/><path id="path57313" d="M 1,1.6039957 1.74,0.76399566 a 0.5,0.5 0 0 1 0.35,-0.18 H 12.98 A 0.52,0.52 0 0 1 13.5,1.1039957 V 14.883996 a 0.52,0.52 0 0 1 -0.17,0.39 l -1.16,1.05 z" style="fill:#fff"/><path id="path57315" d="m 12.09,1.5939957 h -12 a 0.06,0.06 0 0 0 -0.06,0.06 V 16.653996 a 0.39,0.39 0 0 0 0.39,0.38 h 11.67 a 0.38,0.38 0 0 0 0.38,-0.38 V 1.9839957 a 0.39,0.39 0 0 0 -0.38,-0.39 z" style="fill:url(#f8a6a4fc-9e8d-423a-97d1-d514179ece73)"/><rect id="rect57317" width="6.58" height="2.38" x="2.81" y="5.704" rx=".28" style="fill:#fff"/><metadata id="metadata57319"/></svg>