<svg xmlns="http://www.w3.org/2000/svg" xmlns:svg="http://www.w3.org/2000/svg" id="a9f56b4e-2a51-4471-9488-d461408ae4eb" width="17" height="14.178" version="1.1" viewBox="0 0 17 14.178"><defs id="defs57458"><linearGradient id="e4e1e494-21f1-4e9c-a6fa-0993efff08d3" x1="9" x2="9" y1="17.2" y2="-3.28" gradientTransform="translate(0.49991379,1.91)" gradientUnits="userSpaceOnUse"><stop id="stop57447" offset="0" stop-color="#5e9624"/><stop id="stop57449" offset=".18" stop-color="#629c25"/><stop id="stop57451" offset=".44" stop-color="#6dae2a"/><stop id="stop57453" offset=".73" stop-color="#7fcb30"/><stop id="stop57455" offset=".82" stop-color="#86d633"/></linearGradient></defs><g id="g57466" transform="translate(-0.49991379,-1.91)"><path id="path57460" d="m 17.5,2.5 v 10.83 a 0.58,0.58 0 0 1 -0.58,0.58 H 12.4 a 0.15,0.15 0 0 0 -0.15,0.14 V 15.8 A 0.28,0.28 0 0 1 11.8,16.03 L 9.08,13.94 H 8.99 1.08 A 0.58,0.58 0 0 1 0.5,13.36 V 2.5 A 0.58,0.58 0 0 1 1.08,1.91 H 16.92 A 0.58,0.58 0 0 1 17.5,2.5 Z" style="fill:url(#e4e1e494-21f1-4e9c-a6fa-0993efff08d3)"/><path id="path57462" d="M 9.54,9.63 H 8.38 A 0.36,0.36 0 0 1 8,9.29 L 7.8,3.43 A 0.35,0.35 0 0 1 8.15,3.07 h 1.7 A 0.35,0.35 0 0 1 10.2,3.44 L 9.89,9.3 A 0.35,0.35 0 0 1 9.54,9.63 Z" style="fill:#fff"/><rect id="rect57464" width="1.69" height="1.69" x="8.13" y="10.62" rx=".61" style="fill:#fff"/></g><metadata id="metadata57468"/></svg>