<svg xmlns="http://www.w3.org/2000/svg" xmlns:svg="http://www.w3.org/2000/svg" id="b1565e97-e53a-44a5-9479-199d8c3c42d2" width="17.8" height="17.8" version="1.1" viewBox="0 0 17.8 17.8"><defs id="defs57751"><linearGradient id="ec4358fa-c977-42e2-a7ab-994b5de56830" x1="9" x2="9" y1="177.9" y2="160.1" gradientTransform="translate(0,-160)" gradientUnits="userSpaceOnUse"><stop id="stop57727" offset="0" stop-color="#0078d4"/><stop id="stop57729" offset=".064" stop-color="#0a7cd7"/><stop id="stop57731" offset=".338" stop-color="#2e8ce1"/><stop id="stop57733" offset=".594" stop-color="#4897e9"/><stop id="stop57735" offset=".822" stop-color="#589eed"/><stop id="stop57737" offset="1" stop-color="#5ea0ef"/></linearGradient><linearGradient id="aae9e42c-091e-4dc7-8bec-a93418af93c4" x1="-26.189" x2="-26.189" y1="-295.6" y2="-311.105" gradientTransform="matrix(1.156,0,0,1.029,39.425,321.61)" gradientUnits="userSpaceOnUse"><stop id="stop57740" offset="0" stop-color="#fea11b"/><stop id="stop57742" offset=".284" stop-color="#fea51a"/><stop id="stop57744" offset=".547" stop-color="#feb018"/><stop id="stop57746" offset=".8" stop-color="#ffc314"/><stop id="stop57748" offset="1" stop-color="#ffd70f"/></linearGradient></defs><title id="title57753">Icon-322Artboard 1</title><path id="path57755" d="m 17.8,9.9 v -2 L 17.5,7.8 15.3,7.1 14.7,5.7 15.9,3.3 14.4,1.9 14.1,2 12.1,3 10.7,2.4 9.9,0 h -2 L 7.7,0.3 7,2.5 5.6,3 3.3,1.9 1.9,3.4 2,3.7 3,5.7 2.5,7.1 0,7.9 v 2 l 0.3,0.1 2.2,0.7 0.6,1.4 -1.2,2.4 1.5,1.4 0.3,-0.1 2,-1 1.4,0.6 0.8,2.4 h 2 l 0.1,-0.3 0.7,-2.2 1.4,-0.6 2.3,1.1 1.4,-1.4 -0.1,-0.3 -1,-2 0.6,-1.4 z M 8.9,12.8 A 3.842,3.842 0 0 1 5,8.9 3.842,3.842 0 0 1 8.9,5 3.842,3.842 0 0 1 12.8,8.9 v 0 a 3.842,3.842 0 0 1 -3.9,3.9 z" style="fill:url(#ec4358fa-c977-42e2-a7ab-994b5de56830)"/><path id="path57757" d="M 8.4,10.4 H 4.8 A 0.215,0.215 0 0 1 4.6,10.2 V 10.1 L 8.9,1.6 C 8.9,1.5 9,1.5 9.1,1.5 h 4.2 a 0.215,0.215 0 0 1 0.2,0.2 V 1.8 L 8.4,8.5 h 4.9 a 0.215,0.215 0 0 1 0.2,0.2 0.1,0.1 0 0 1 -0.1,0.1 l -8.2,8.5 c -0.1,0 -0.6,0.5 -0.4,-0.2 v 0 z" style="fill:url(#aae9e42c-091e-4dc7-8bec-a93418af93c4)"/><metadata id="metadata57759"/></svg>