<svg xmlns="http://www.w3.org/2000/svg" xmlns:svg="http://www.w3.org/2000/svg" xmlns:xlink="http://www.w3.org/1999/xlink" id="svg57944" width="18" height="13.479" version="1.1" viewBox="0 0 18 13.479"><defs id="defs57915"><linearGradient id="b69d2150-b4da-460b-99ae-a9f5a961b313" x1="-1194.321" x2="-1190.755" y1="9.128" y2="9.128" gradientTransform="matrix(-1,0,0,1,-1179.887,0)" gradientUnits="userSpaceOnUse"><stop id="stop57900" offset="0" stop-color="#32bedd"/><stop id="stop57902" offset=".998" stop-color="#9cebff" stop-opacity=".5"/></linearGradient><linearGradient id="e690cc62-d1a2-4325-90ca-ac2fe51a5b58" x1="80.363" x2="83.929" y1="9.135" y2="9.135" gradientTransform="translate(-76.796,2.395)" gradientUnits="userSpaceOnUse"><stop id="stop57905" offset="0" stop-color="#005ba1"/><stop id="stop57907" offset=".998" stop-color="#005ba1" stop-opacity="0"/></linearGradient><linearGradient id="ff649864-6b4c-4fa8-bcca-c12b2b910f3c" x1="3.555" x2="14.434" y1="9.326" y2="9.326" gradientTransform="translate(0,2.395)" gradientUnits="userSpaceOnUse"><stop id="stop57910" offset="0" stop-color="#005ba1"/><stop id="stop57912" offset=".974" stop-color="#32bedd"/></linearGradient><linearGradient id="linearGradient57948" x1="-1194.321" x2="-1190.755" y1="9.128" y2="9.128" gradientTransform="matrix(-1,0,0,1,-1179.887,2.395)" gradientUnits="userSpaceOnUse" xlink:href="#b69d2150-b4da-460b-99ae-a9f5a961b313"/><linearGradient id="linearGradient57950" x1="-1194.321" x2="-1190.755" y1="9.128" y2="9.128" gradientTransform="matrix(-1,0,0,1,-1179.887,2.395)" gradientUnits="userSpaceOnUse" xlink:href="#b69d2150-b4da-460b-99ae-a9f5a961b313"/></defs><g id="a826c017-5e9e-4208-897f-2ade2eb58cd6" transform="translate(0,-2.395)"><polygon id="polygon57917" points="0 4.468 3.567 2.395 7.132 4.469 3.567 6.542" style="fill:#5ea0ef"/><polygon id="polygon57919" points="3.566 15.867 7.132 13.794 3.566 11.735" style="fill:#005ba1"/><polygon id="polygon57921" points="3.566 6.542 0 4.468 0 13.801 3.566 15.874 7.132 13.801 7.132 13.794 3.566 15.867 3.566 11.735 7.132 13.794 7.132 4.469 3.567 6.542 3.566 6.541" style="fill:#0078d4"/><polygon id="polygon57923" points="18 4.468 14.433 2.395 10.868 4.469 14.433 6.542" style="fill:#9cebff"/><polygon id="polygon57925" points="14.434 15.867 10.868 13.794 14.434 11.735" style="fill:#32bedd"/><polygon id="polygon57927" points="14.434 6.535 14.434 11.728 10.868 13.794 10.868 4.462 14.433 6.535 14.434 6.535" style="fill:url(#linearGradient57948)"/><polygon id="polygon57929" points="18 4.468 14.433 2.395 10.868 4.469 14.433 6.542" style="fill:#9cebff"/><polygon id="polygon57931" points="10.868 13.794 14.434 11.735 14.434 15.867 10.868 13.794 10.868 13.801 14.434 15.874 18 13.801 18 4.468 18 4.468 14.433 6.542 10.868 4.469" style="fill:#50e6ff"/><polygon id="polygon57933" points="14.434 15.867 10.868 13.794 14.434 11.735" style="fill:#32bedd"/><polygon id="polygon57935" points="14.434 6.535 14.434 11.728 10.868 13.794 10.868 4.462 14.433 6.535 14.434 6.535" style="fill:url(#linearGradient57950)"/><polygon id="polygon57937" points="3.566 6.541 3.566 11.734 7.132 13.801 7.132 4.469 3.567 6.541 3.566 6.541" style="fill:url(#e690cc62-d1a2-4325-90ca-ac2fe51a5b58)"/><path id="path57939" d="M 14.423,10.126 C 13.799,11.682 11.357,12.71 9.075,12.71 H 8.994 8.914 c -2.282,0 -4.724,-1.028 -5.348,-2.584 0,0 -0.025,-1.561 0,-1.713 0.454,1.737 2.834,3.022 5.293,3.022 H 8.994 9.13 c 2.455,0 4.839,-1.285 5.293,-3.022 0.025,0.152 0,1.713 0,1.713 z M 13.4,5.942 A 6.653,6.653 0 0 1 9.13,7.416 H 8.994 8.859 A 6.656,6.656 0 0 1 4.592,5.946 l -0.856,0.5 C 4.553,7.809 6.8,8.69 8.914,8.69 h 0.161 c 2.115,0 4.366,-0.883 5.181,-2.251 z" style="fill:url(#ff649864-6b4c-4fa8-bcca-c12b2b910f3c)"/></g><metadata id="metadata57942"/></svg>