<svg xmlns="http://www.w3.org/2000/svg" xmlns:svg="http://www.w3.org/2000/svg" id="svg58124" width="15.403" height="17.71" version="1.1" viewBox="0 0 15.403 17.71"><defs id="defs58109"><linearGradient id="b0415b5b-3b98-48a9-9263-d680ffce93e8" x1="9" x2="9" y1="17.86" y2="4.06" gradientTransform="translate(1.2986036,0.1501785)" gradientUnits="userSpaceOnUse"><stop id="stop58098" offset="0" stop-color="#0078d4"/><stop id="stop58100" offset=".16" stop-color="#1380da"/><stop id="stop58102" offset=".53" stop-color="#3c91e5"/><stop id="stop58104" offset=".82" stop-color="#559cec"/><stop id="stop58106" offset="1" stop-color="#5ea0ef"/></linearGradient></defs><title id="title58111">Icon471-AzureLighthouse</title><g id="e5b0933f-d08a-4ba0-b46b-ca75717b991a" transform="translate(-1.2986036,-0.1501785)"><path id="path58113" d="M 16.65,17.08 13.06,7.76 A 0.28,0.28 0 0 0 12.8,7.58 H 10.24 V 5.36 a 1.3,1.3 0 1 0 -2.59,0 V 7.58 H 5.34 A 0.29,0.29 0 0 0 5.07,7.76 l -3.72,9.32 a 0.55,0.55 0 0 0 0.45,0.78 h 14.4 a 0.55,0.55 0 0 0 0.45,-0.78 z" style="fill:url(#b0415b5b-3b98-48a9-9263-d680ffce93e8)"/><path id="path58115" d="M 3.37,12 12,7.58 h 0.75 a 0.28,0.28 0 0 1 0.27,0.19 L 13.85,9.92 1.8,16 Z" style="fill:#83b9f9"/><path id="path58117" d="m 9.54,17.84 6,-3.6 1.09,2.84 a 0.56,0.56 0 0 1 -0.46,0.78 z" style="fill:#83b9f9"/><path id="path58119" d="M 8.87,0.16 4.75,2.55 A 0.16,0.16 0 0 0 4.67,2.69 V 3.06 A 0.16,0.16 0 0 0 4.83,3.22 H 5.45 V 7.58 H 6.23 V 3.22 h 5.44 v 4.36 h 0.77 V 3.22 h 0.63 A 0.16,0.16 0 0 0 13.23,3.06 V 2.69 A 0.16,0.16 0 0 0 13.15,2.55 L 9,0.16 a 0.22,0.22 0 0 0 -0.13,0 z" style="fill:#0078d4"/></g><metadata id="metadata58122"/></svg>