<svg xmlns="http://www.w3.org/2000/svg" xmlns:svg="http://www.w3.org/2000/svg" id="accb8b11-ff75-4ed7-86d0-74f3af9e9fdb" width="13.88" height="17" version="1.1" viewBox="0 0 13.88 17"><defs id="defs58501"><linearGradient id="ec34cf3c-0705-4609-8eda-9dd9d51977d2" x1="9" x2="9" y1="17.5" y2=".5" gradientTransform="translate(2.06,0.5)" gradientUnits="userSpaceOnUse"><stop id="stop58496" offset="0" stop-color="#0078d4"/><stop id="stop58498" offset=".82" stop-color="#5ea0ef"/></linearGradient></defs><g id="g58512" transform="translate(-2.06,-0.5)"><path id="path58503" d="M 10,0.63 H 2.73 A 0.57,0.57 0 0 0 2.16,1.2 v 15.6 a 0.57,0.57 0 0 0 0.57,0.57 H 15.27 A 0.57,0.57 0 0 0 15.84,16.8 V 6.48 A 0.58,0.58 0 0 0 15.27,5.9 H 11.11 A 0.56,0.56 0 0 1 10.54,5.33 V 1.2 A 0.57,0.57 0 0 0 10,0.63 Z" style="fill:#fff"/><path id="path58505" d="m 9.7,1.36 v 3.92 a 1.44,1.44 0 0 0 1.44,1.43 h 3.95 v 9.93 H 2.91 V 1.36 H 9.7 M 10,0.5 H 2.64 A 0.58,0.58 0 0 0 2.06,1.08 v 15.84 a 0.58,0.58 0 0 0 0.58,0.58 h 12.72 a 0.58,0.58 0 0 0 0.58,-0.58 V 6.44 A 0.58,0.58 0 0 0 15.36,5.86 H 11.14 A 0.58,0.58 0 0 1 10.56,5.28 V 1.08 A 0.58,0.58 0 0 0 10,0.5 Z" style="fill:url(#ec34cf3c-0705-4609-8eda-9dd9d51977d2)"/><path id="path58507" d="M 15.72,6 10.36,0.63 V 5 a 1,1 0 0 0 1,1 z" style="fill:#0078d4"/><path id="a3a9e1d3-9e08-4e6c-b1f3-95c11e84f06a" d="m 10.41,11.18 a 2.21,2.21 0 0 1 -2.93,0 L 7.3,14.81 a 0.29,0.29 0 0 0 0.5,0.22 L 8.92,13.88 10.06,15 a 0.29,0.29 0 0 0 0.49,-0.22 z" style="fill:#b31b1b"/><ellipse id="a09a1db5-9087-43a3-902a-422185a7e3a0" cx="8.98" cy="9.31" rx="2.61" ry="2.62" style="fill:#e62323"/><ellipse id="ac490612-dbc7-498b-b2fc-d820fcb1a7b0" cx="8.98" cy="9.31" rx="1.98" ry="1.99" style="fill:#ffd400"/></g><metadata id="metadata58514"/></svg>