<svg xmlns="http://www.w3.org/2000/svg" xmlns:svg="http://www.w3.org/2000/svg" id="b48c5089-b926-4e5c-afdd-c8d37fee705e" width="14.201" height="17.039" version="1.1" viewBox="0 0 14.201 17.039"><defs id="defs58713"><linearGradient id="ef71ca8b-e0c3-42a3-b174-28e7219ff221" x1="8.15" x2="8.15" y1="17.49" y2="2.09" gradientUnits="userSpaceOnUse"><stop id="stop58706" offset="0" stop-color="#5e9624"/><stop id="stop58708" offset=".31" stop-color="#69a828"/><stop id="stop58710" offset=".93" stop-color="#86d633"/></linearGradient></defs><title id="title58715">Icon-manage-306</title><path id="path58717" d="M 13.27,0.00901626 H 1.66 a 0.57,0.57 0 0 0 -0.44,0.2 L 0,1.6190163 13.38,15.179016 l -2,1.83 h 1 a 0.71,0.71 0 0 0 0.46,-0.17 l 1.17,-1.07 a 0.59,0.59 0 0 0 0.19,-0.43 V 0.83901626 a 0.81,0.81 0 0 0 -0.93,-0.83 z" style="fill:#5e9624"/><path id="path58719" d="M 0.98,1.6090163 1.72,0.76901626 a 0.5,0.5 0 0 1 0.35,-0.18 H 12.95 A 0.52,0.52 0 0 1 13.47,1.1090163 V 14.889016 a 0.52,0.52 0 0 1 -0.17,0.38 l -1.15,1.06" style="fill:#fff"/><path id="path58721" d="m 12.07,1.5990163 h -12 a 0.06,0.06 0 0 0 -0.05,0.06 V 16.659016 a 0.38,0.38 0 0 0 0.38,0.38 h 11.67 a 0.38,0.38 0 0 0 0.38,-0.38 V 1.9890163 a 0.38,0.38 0 0 0 -0.38,-0.39 z" style="fill:url(#ef71ca8b-e0c3-42a3-b174-28e7219ff221)"/><path id="path58723" d="m 10.57,7.3290163 a 0.37,0.37 0 0 0 -0.37,-0.39 H 8.35 a 0.16,0.16 0 0 0 -0.15,0.09 l -0.77,1.38 -1.26,-2.55 -1.17,3.65 -1,-2.6 -1.32,2.44 a 0.18,0.18 0 0 1 -0.15,0.1 h -0.6 a 0.37,0.37 0 0 0 -0.37,0.33 v 0 a 0.37,0.37 0 0 0 0.37,0.4099997 h 1 a 0.18,0.18 0 0 0 0.16,-0.1 l 0.78,-1.4699997 1.21,2.9999997 1.23,-3.8599997 1.08,2.19 1.21,-2.17 a 0.16,0.16 0 0 1 0.15,-0.09 h 1.45 a 0.37,0.37 0 0 0 0.37,-0.36 z" style="fill:#fff"/><metadata id="metadata58725"/></svg>