<svg xmlns="http://www.w3.org/2000/svg" xmlns:svg="http://www.w3.org/2000/svg" id="bac28690-24ba-4d9d-92b0-bad9cc8dbd92" width="17.9" height="13.876" version="1.1" viewBox="0 0 17.9 13.876"><defs id="defs58947"><linearGradient id="a17aa354-e567-4356-a718-7e4e2198998f" x1="9" x2="9" y1="-7205.66" y2="-7219.44" gradientTransform="matrix(1,0,0,-1,0.05489881,-7204.4864)" gradientUnits="userSpaceOnUse"><stop id="stop58936" offset=".13" stop-color="#773adc"/><stop id="stop58938" offset=".23" stop-color="#8249e2"/><stop id="stop58940" offset=".43" stop-color="#9664ec"/><stop id="stop58942" offset=".6" stop-color="#a274f2"/><stop id="stop58944" offset=".74" stop-color="#a67af4"/></linearGradient></defs><title id="title58949">Icon-manage-326</title><g id="g58959" transform="translate(-0.05489881,-2.0635951)"><path id="path58951" d="M 14.45,8.8 H 3.68 v 4.85 0 c 0,1.26 2.41,2.29 5.44,2.29 3.03,0 5.44,-1 5.44,-2.29 v 0 z" style="fill:#773adc"/><path id="path58953" d="m 8.39,2.16 -8,4.09 A 0.71,0.71 0 0 0 0.14,7.19 0.62,0.62 0 0 0 0.39,7.47 l 8,3.48 a 0.93,0.93 0 0 0 0.73,0 L 17.6,7.45 A 0.72,0.72 0 0 0 17.88,6.51 0.63,0.63 0 0 0 17.6,6.21 L 9.14,2.14 A 0.86,0.86 0 0 0 8.39,2.16 Z" style="fill:url(#a17aa354-e567-4356-a718-7e4e2198998f)"/><path id="path58955" d="m 15.84,10.2 v 0 A 1.26,1.26 0 0 0 15.61,9.68 5.19,5.19 0 0 0 13.09,7.45 L 9.61,6 8.5,6.79 12,8.28 a 5.05,5.05 0 0 1 2.72,2.66 7.88,7.88 0 0 1 0.28,1.68 m 0.16,0 0.42,-0.83 0.53,0.68 h 0.1 A 5,5 0 0 0 15.83,10.2 Z" style="fill:#50e6ff"/><ellipse id="ellipse58957" cx="8.94" cy="6.46" rx="1.34" ry=".68" style="fill:#552f99"/></g><metadata id="metadata58961"/></svg>