<svg xmlns="http://www.w3.org/2000/svg" xmlns:svg="http://www.w3.org/2000/svg" id="svg59483" width="11.688" height="18.001" version="1.1" viewBox="0 0 11.688 18.001"><defs id="defs59468"><linearGradient id="fa1955a2-9167-4a48-9f06-e30210fc6ef7" x1="9.23" x2="9.23" y2="18" gradientTransform="translate(3.387,-7.4109004e-4)" gradientUnits="userSpaceOnUse"><stop id="stop59463" offset="0" stop-color="#a67af4"/><stop id="stop59465" offset=".999" stop-color="#773adc"/></linearGradient></defs><g id="e09ece90-33de-4b2f-a5a3-49ac04dc41bb" transform="translate(-3.387,7.4109004e-4)"><path id="path59470" d="M 15.074,17.39 A 0.645,0.645 0 0 1 14.4,18 H 4.062 A 0.645,0.645 0 0 1 3.387,17.39 V 0.61 A 0.645,0.645 0 0 1 4.062,0 H 14.4 a 0.645,0.645 0 0 1 0.675,0.61 z" style="fill:url(#fa1955a2-9167-4a48-9f06-e30210fc6ef7)"/><path id="path59472" d="M 13.461,7.7 A 1.34,1.34 0 0 0 12.191,6.3 H 6.375 a 1.34,1.34 0 0 0 -1.27,1.4 v 0 a 1.34,1.34 0 0 0 1.27,1.4 h 5.816 a 1.34,1.34 0 0 0 1.27,-1.4 z" style="fill:#552f99"/><path id="path59474" d="m 13.461,3.537 a 1.34,1.34 0 0 0 -1.27,-1.4 H 6.375 a 1.34,1.34 0 0 0 -1.27,1.4 v 0 a 1.34,1.34 0 0 0 1.27,1.4 h 5.816 a 1.34,1.34 0 0 0 1.27,-1.4 z" style="fill:#552f99"/><circle id="circle59476" cx="11.826" cy="3.537" r=".939" style="fill:#50e6ff"/><circle id="circle59478" cx="11.826" cy="7.695" r=".939" style="fill:#50e6ff"/></g><metadata id="metadata59481"/></svg>