<svg xmlns="http://www.w3.org/2000/svg" xmlns:svg="http://www.w3.org/2000/svg" id="ae4df50d-5710-4260-8ee6-bad0cb48dead" width="17.788" height="14.038" version="1.1" viewBox="0 0 17.788 14.038"><defs id="defs60157"><linearGradient id="b1a613f6-50f9-42fe-ac44-c79cd2718830" x1="13.31" x2="6.51" y1=".23" y2="15" gradientTransform="translate(0.1035446,2)" gradientUnits="userSpaceOnUse"><stop id="stop60142" offset="0" stop-color="#552f99"/><stop id="stop60144" offset=".07" stop-color="#643daa"/><stop id="stop60146" offset=".2" stop-color="#7c53c5"/><stop id="stop60148" offset=".35" stop-color="#8f64da"/><stop id="stop60150" offset=".51" stop-color="#9c71e9"/><stop id="stop60152" offset=".7" stop-color="#a478f1"/><stop id="stop60154" offset="1" stop-color="#a67af4"/></linearGradient></defs><title id="title60159">Icon-manage-313</title><g id="g60181" transform="translate(-0.1035446,-2)"><path id="path60161" d="m 9.42,11.66 v 0 l 2.4,-1.33 a 0.07,0.07 0 0 0 0,-0.06 V 7.6 a 0.07,0.07 0 0 0 0,-0.06 H 11.75 L 9.38,8.87 a 0.05,0.05 0 0 0 0,0.05 v 2.67 a 0.07,0.07 0 0 0 0,0.06 v 0 m 0,3.34 v 0 l 2.4,-1.33 a 0.07,0.07 0 0 0 0,-0.06 v -2.66 a 0.07,0.07 0 0 0 0,-0.06 0.09,0.09 0 0 0 -0.07,0 l -2.4,1.33 v 2.67 a 0.07,0.07 0 0 0 0,0.06 v 0 m 3.1,-5 v 0 L 15,8.65 A 0.06,0.06 0 0 0 15,8.59 V 5.93 A 0.06,0.06 0 0 0 15,5.87 H 14.92 L 12.49,7.2 v 2.72 a 0.06,0.06 0 0 0 0,0.06 v 0 m 0,3.34 v 0 L 15,12 a 0.06,0.06 0 0 0 0,-0.06 V 9.27 a 0.06,0.06 0 0 0 0,-0.06 0.11,0.11 0 0 0 -0.08,0 l -2.39,1.33 a 0.05,0.05 0 0 0 0,0.05 v 2.67 a 0.06,0.06 0 0 0 0,0.06 v 0" style="fill:#198ab3"/><path id="path60163" d="m 8.57,11.66 v 0 L 6.14,10.32 a 0.05,0.05 0 0 1 0,-0.06 V 7.6 a 0.06,0.06 0 0 1 0,-0.06 h 0.07 l 2.4,1.33 a 0.06,0.06 0 0 1 0,0.06 v 2.66 a 0.07,0.07 0 0 1 0,0.06 v 0" style="fill:#32bedd"/><path id="path60165" d="m 8.57,15 v 0 L 6.14,13.66 a 0.05,0.05 0 0 1 0,-0.06 v -2.66 a 0.05,0.05 0 0 1 0,-0.06 0.09,0.09 0 0 1 0.07,0 l 2.4,1.33 a 0.06,0.06 0 0 1 0,0.06 v 2.66 a 0.07,0.07 0 0 1 0,0.06 v 0" style="fill:#32bedd"/><path id="path60167" d="m 5.46,10 v 0 L 3,8.65 A 0.07,0.07 0 0 1 3,8.59 V 5.93 A 0.08,0.08 0 0 1 3,5.87 H 3.08 L 5.5,7.2 a 0.07,0.07 0 0 1 0,0.06 v 2.66 a 0.08,0.08 0 0 1 0,0.06 v 0" style="fill:#32bedd"/><path id="path60169" d="m 5.46,13.33 v 0 L 3,12 A 0.07,0.07 0 0 1 3,11.94 V 9.27 a 0.07,0.07 0 0 1 0,-0.06 0.11,0.11 0 0 1 0.08,0 l 2.42,1.33 a 0.07,0.07 0 0 1 0,0.06 v 2.66 a 0.08,0.08 0 0 1 0,0.06 v 0" style="fill:#32bedd"/><path id="path60171" d="m 6.44,6.81 v 0 L 9,5.44 a 0.08,0.08 0 0 1 0.08,0 l 2.45,1.34 a 0.06,0.06 0 0 1 0,0.06 0.07,0.07 0 0 1 0,0.06 L 9,8.24 a 0.035,0 0 0 0 -0.07,0 L 6.47,6.91 a 0.1,0.1 0 0 1 0,-0.07 c 0,0 0,0 0,0" style="fill:#50e6ff"/><path id="path60173" d="m 3.21,5.05 v 0 L 5.69,3.67 H 5.76 L 8.19,5 a 0.06,0.06 0 0 1 0,0.06 0.07,0.07 0 0 1 0,0.06 L 5.74,6.48 H 5.66 L 3.23,5.14 a 0.06,0.06 0 0 1 0,-0.06" style="fill:#50e6ff"/><path id="path60175" d="m 9.75,5.08 v 0 L 12.23,3.7 a 0.09,0.09 0 0 1 0.07,0 L 14.73,5 a 0.08,0.08 0 0 1 0,0.06 0.07,0.07 0 0 1 0,0.06 L 12.28,6.51 H 12.2 L 9.77,5.17 a 0.06,0.06 0 0 1 0,-0.06" style="fill:#50e6ff"/><path id="path60177" d="m 6.45,3.34 v 0 L 9,2 11.5,3.3 a 0.07,0.07 0 0 1 0,0.06 0.05,0.05 0 0 1 0,0.06 L 9,4.75 H 8.94 L 6.48,3.43 a 0.07,0.07 0 0 1 0,-0.05 c 0,0 0,0 0,0" style="fill:#50e6ff"/><path id="path60179" d="M 17.57,4.48 C 16.91,3.39 15.37,2.96 13.22,3.28 h -0.26 l 1.91,1 a 2.07,2.07 0 0 1 1.73,0.75 v 0 C 17,5.7 16.66,6.84 15.67,8.17 a 17.45,17.45 0 0 1 -5,4.23 17.33,17.33 0 0 1 -6.06,2.4 C 2.97,15.05 1.8,14.8 1.4,14.14 1,13.48 1.31,12.45 2.17,11.22 V 9.39 C 1.9,9.7 1.67,10 1.42,10.33 c -1.29,1.73 -1.65,3.29 -1,4.39 a 3.33,3.33 0 0 0 3,1.3 8.92,8.92 0 0 0 1.31,-0.1 18.71,18.71 0 0 0 6.5,-2.52 18.6,18.6 0 0 0 5.3,-4.53 c 1.34,-1.73 1.7,-3.29 1.04,-4.39 z" style="fill:url(#b1a613f6-50f9-42fe-ac44-c79cd2718830)"/></g><metadata id="metadata60183"/></svg>