<svg xmlns="http://www.w3.org/2000/svg" xmlns:svg="http://www.w3.org/2000/svg" id="e4e764cd-2e73-472f-b88a-bf8bfc2c2994" width="17" height="16.94" version="1.1" viewBox="0 0 17 16.94"><defs id="defs60970"><radialGradient id="ac8b32da-30ca-4b92-8d0f-8d2d5ef278a0" cx="5.72" cy="7.45" r="8.42" gradientTransform="matrix(1.01,0,0,1.01,3.23,1.51)" gradientUnits="userSpaceOnUse"><stop id="stop60942" offset=".18" stop-color="#5ea0ef"/><stop id="stop60944" offset=".56" stop-color="#5c9fee"/><stop id="stop60946" offset=".69" stop-color="#559ced"/><stop id="stop60948" offset=".78" stop-color="#4a97e9"/><stop id="stop60950" offset=".86" stop-color="#3990e4"/><stop id="stop60952" offset=".93" stop-color="#2387de"/><stop id="stop60954" offset=".99" stop-color="#087bd6"/><stop id="stop60956" offset="1" stop-color="#0078d4"/></radialGradient><radialGradient id="a9954820-cb38-4943-9842-f0a568d2b015" cx="28.18" cy="202.29" r="2.7" gradientTransform="matrix(0.95,0,0,0.95,-17.77,-185.01)" gradientUnits="userSpaceOnUse"><stop id="stop60959" offset=".19" stop-color="#8c8e90"/><stop id="stop60961" offset=".35" stop-color="#848688"/><stop id="stop60963" offset=".6" stop-color="#6e7071"/><stop id="stop60965" offset=".91" stop-color="#4a4b4c"/><stop id="stop60967" offset="1" stop-color="#3e3f3f"/></radialGradient></defs><title id="title60972">Icon-manage-317</title><ellipse id="ellipse60974" cx="8.5" cy="8.47" rx="8.5" ry="8.47" style="fill:url(#ac8b32da-30ca-4b92-8d0f-8d2d5ef278a0)"/><ellipse id="ellipse60976" cx="8.5" cy="8.47" rx="7.4" ry="7.37" style="fill:#fff"/><path id="path60978" d="M 2.22,8.9100003 A 6.24,6.24 0 0 0 4.04,12.91 l 2,-2 a 3.53,3.53 0 0 1 -1,-1.9999997 z" style="fill:#9cebff"/><path id="path60980" d="m 12.63,3.7400003 a 6.25,6.25 0 0 0 -3.69,-1.53 v 2.79 a 3.41,3.41 0 0 1 1.71,0.7 z" style="fill:#32bedd"/><path id="path60982" d="m 4.37,3.7400003 2,2 a 3.41,3.41 0 0 1 1.71,-0.7 v -2.83 a 6.25,6.25 0 0 0 -3.71,1.53 z" style="fill:#32bedd"/><path id="path60984" d="m 11.28,6.3200003 a 3.6,3.6 0 0 1 0.71,1.71 h 2.79 a 6.16,6.16 0 0 0 -1.53,-3.67 z" style="fill:#32bedd"/><path id="path60986" d="m 5.72,6.3200003 -2,-2 a 6.16,6.16 0 0 0 -1.5,3.71 h 2.79 a 3.6,3.6 0 0 1 0.71,-1.71 z" style="fill:#50e6ff"/><path id="path60988" d="m 13.64,6.4700003 a 0.45,0.45 0 0 0 -0.57,-0.25 l -4.12,1.66 0.32,0.81 4.12,-1.63 a 0.44,0.44 0 0 0 0.25,-0.59 z" style="fill:#f04049"/><circle id="ellipse60990" cx="8.5" cy="8.47" r="1.2" style="fill:url(#a9954820-cb38-4943-9842-f0a568d2b015)"/><metadata id="metadata60992"/></svg>