<svg xmlns="http://www.w3.org/2000/svg" xmlns:svg="http://www.w3.org/2000/svg" id="a5c2c34a-a5f9-4043-a084-e51b74497895" width="18.027" height="14.72" version="1.1" viewBox="0 0 18.027 14.72"><defs id="defs61397"><linearGradient id="f97360fa-fd13-420b-9b43-74b8dde83a11" x1="6.7" x2="6.7" y1="7.26" y2="18.36" gradientUnits="userSpaceOnUse"><stop id="stop61387" offset=".22" stop-color="#32d4f5"/><stop id="stop61389" offset="1" stop-color="#198ab3"/></linearGradient><linearGradient id="b2ab4071-529d-4450-9443-e6dc0939cc4e" x1="6.42" x2="7.23" y1="1.32" y2="11.39" gradientUnits="userSpaceOnUse"><stop id="stop61392" offset=".22" stop-color="#32d4f5"/><stop id="stop61394" offset="1" stop-color="#198ab3"/></linearGradient></defs><title id="title61399">Icon-identity-223</title><path id="path61401" d="m 17.225664,12.28 a 0.79,0.79 0 0 0 0.8,-0.79 0.28,0.28 0 0 0 -0.02,-0.13 c -0.31,-2.4999999 -1.74,-4.5399999 -4.46,-4.5399999 -2.72,0 -4.1899995,1.76 -4.4699995,4.5399999 a 0.81,0.81 0 0 0 0.72,0.88 h 7.4299995 z" style="fill:#0078d4"/><path id="path61403" d="m 13.555664,7.4500001 a 2.44,2.44 0 0 1 -1.36,-0.4 l 1.35,3.5199999 1.33,-3.4899999 a 2.54,2.54 0 0 1 -1.32,0.37 z" style="opacity:.8;fill:#fff"/><circle id="circle61405" cx="13.556" cy="4.94" r="2.51" style="fill:#0078d4"/><path id="path61407" d="m 12.195664,14.72 a 1.19,1.19 0 0 0 1.19,-1.19 0.66,0.66 0 0 0 0,-0.14 c -0.47,-3.7399999 -2.6,-6.7799999 -6.6599995,-6.7799999 -4.06,0 -6.28000003,2.58 -6.72000003,6.7499999 A 1.2,1.2 0 0 0 1.0756645,14.67 H 12.175664 Z" style="fill:url(#f97360fa-fd13-420b-9b43-74b8dde83a11)"/><path id="path61409" d="m 6.7756645,7.5000001 a 3.72,3.72 0 0 1 -2,-0.6 l 2,5.2499999 2,-5.2099999 a 3.81,3.81 0 0 1 -2,0.56 z" style="opacity:.8;fill:#fff"/><circle id="circle61411" cx="6.746" cy="3.75" r="3.75" style="fill:url(#b2ab4071-529d-4450-9443-e6dc0939cc4e)"/><metadata id="metadata61413"/></svg>