<svg xmlns="http://www.w3.org/2000/svg" xmlns:svg="http://www.w3.org/2000/svg" id="bbbdcf65-3739-4dbc-b087-782b22710417" width="14.18" height="17.034" version="1.1" viewBox="0 0 14.18 17.034"><defs id="defs61667"><linearGradient id="eb32dcec-9280-43a7-8fb4-14f8780a43df" x1="8.15" x2="8.15" y1="17.5" y2="2.09" gradientUnits="userSpaceOnUse"><stop id="stop61662" offset="0" stop-color="#1988d9"/><stop id="stop61664" offset=".9" stop-color="#54aef0"/></linearGradient></defs><title id="title61669">Icon-manage-324</title><path id="path61671" d="M 0.02,1.6139957 1.23,0.20399566 a 0.59,0.59 0 0 1 0.45,-0.2 h 11.61 a 0.81,0.81 0 0 1 0.89,0.83 V 15.333996 a 0.57,0.57 0 0 1 -0.2,0.43 l -1.3,1.19 H 0.81 l -0.81,-0.33 z" style="fill:#005ba1"/><path id="path61673" d="M 1,1.6039957 1.74,0.76399566 a 0.5,0.5 0 0 1 0.35,-0.18 H 12.98 A 0.52,0.52 0 0 1 13.5,1.1039957 V 14.883996 a 0.52,0.52 0 0 1 -0.17,0.39 l -1.16,1.05 z" style="fill:#fff"/><path id="path61675" d="m 12.09,1.5939957 h -12 a 0.06,0.06 0 0 0 -0.06,0.06 V 16.653996 a 0.39,0.39 0 0 0 0.39,0.38 h 11.67 a 0.38,0.38 0 0 0 0.38,-0.38 V 1.9839957 a 0.39,0.39 0 0 0 -0.38,-0.39 z" style="fill:url(#eb32dcec-9280-43a7-8fb4-14f8780a43df)"/><rect id="rect61677" width="6.58" height="2.38" x="2.81" y="5.704" rx=".28" style="fill:#fff"/><metadata id="metadata61679"/></svg>