<svg xmlns="http://www.w3.org/2000/svg" xmlns:svg="http://www.w3.org/2000/svg" id="fb45399d-101d-4307-af8b-b95e6d550e3d" width="17.457" height="17.88" version="1.1" viewBox="0 0 17.457 17.88"><defs id="defs62474"><linearGradient id="efc8edab-197e-437c-8de3-c7ad62d8cf10" x1="6.49" x2="6.49" y1="6.29" y2="18.38" gradientUnits="userSpaceOnUse"><stop id="stop62457" offset=".1" stop-color="#54aef0"/><stop id="stop62459" offset="1" stop-color="#1988d9"/></linearGradient><linearGradient id="f6def0c6-d993-4d63-90a2-b68ba69df74a" x1="7.13" x2="8.01" y1="-.19" y2="10.79" gradientUnits="userSpaceOnUse"><stop id="stop62462" offset=".1" stop-color="#54aef0"/><stop id="stop62464" offset="1" stop-color="#1988d9"/></linearGradient><linearGradient id="ada114d9-8e8c-4a06-9507-f18462256263" x1="13.76" x2="13.76" y1="18.05" y2="10.25" gradientUnits="userSpaceOnUse"><stop id="stop62467" offset="0" stop-color="#76bc2d"/><stop id="stop62469" offset=".6" stop-color="#81ce31"/><stop id="stop62471" offset=".82" stop-color="#86d633"/></linearGradient></defs><title id="title62476">Icon-manage-325</title><path id="path62478" d="m 9.1571743,10.14 a 0.51,0.51 0 0 1 0.51,-0.5100001 h 2.9299997 a 6.53,6.53 0 0 0 -5.3099997,-2.43 c -4.48,0 -6.83000004,2.8100001 -7.28000004,7.4000001 a 1.29,1.29 0 0 0 1.16000004,1.42 h 8 z" style="fill:url(#efc8edab-197e-437c-8de3-c7ad62d8cf10)"/><path id="path62480" d="m 7.2871743,8.1699999 a 4.09,4.09 0 0 1 -2.21,-0.65 l 2.19,5.7100001 2.17,-5.6800001 a 4,4 0 0 1 -2.15,0.62 z" style="opacity:.8;fill:#fff"/><circle id="circle62482" cx="7.287" cy="4.08" r="4.08" style="fill:url(#f6def0c6-d993-4d63-90a2-b68ba69df74a)"/><path id="path62484" d="m 12.397174,15.54 h 2.34 v 2.34 h -2.34 z M 9.6671743,12.42 h 2.3399997 v -2.34 h -2 a 0.33,0.33 0 0 0 -0.3299997,0.33 z m 0.33,5.46 H 11.997174 V 15.54 H 9.6671743 v 2 a 0.33,0.33 0 0 0 0.33,0.34 z m -0.33,-2.73 H 12.007174 V 12.83 H 9.6671743 Z m 5.4499997,2.73 h 2 a 0.32,0.32 0 0 0 0.32,-0.33 v -2 h -2.32 z m -2.72,-2.73 h 2.34 v -2.32 h -2.34 z m 2.72,0 h 2.34 v -2.32 h -2.34 z m 0,-5.07 v 2.34 h 2.34 v -2 a 0.32,0.32 0 0 0 -0.32,-0.33 z m -2.72,2.34 h 2.34 v -2.34 h -2.34 z" style="fill:url(#ada114d9-8e8c-4a06-9507-f18462256263)"/><metadata id="metadata62486"/></svg>