<svg xmlns="http://www.w3.org/2000/svg" xmlns:svg="http://www.w3.org/2000/svg" id="a4532404-4c5c-4d46-bcf5-7eb251bd3d88" width="16.901" height="16.95" version="1.1" viewBox="0 0 16.901 16.95"><defs id="defs62657"><linearGradient id="beb91629-a2bd-40af-be99-914b769571a4" x1="-6941.93" x2="-6941.93" y1="-2082.96" y2="-2101.68" gradientTransform="matrix(0.5,0,0,-0.5,3476.4,-1033.45)" gradientUnits="userSpaceOnUse"><stop id="stop62633" offset="0" stop-color="#5ea0ef"/><stop id="stop62635" offset=".18" stop-color="#589eed"/><stop id="stop62637" offset=".41" stop-color="#4897e9"/><stop id="stop62639" offset=".66" stop-color="#2e8ce1"/><stop id="stop62641" offset=".94" stop-color="#0a7cd7"/><stop id="stop62643" offset="1" stop-color="#0078d4"/></linearGradient><linearGradient id="b166d928-c1e7-4c12-bb3f-f2e4856c02db" x1="11.5" x2="11.5" y1="12.45" y2=".55" gradientUnits="userSpaceOnUse"><stop id="stop62646" offset="0" stop-color="#198ab3"/><stop id="stop62648" offset=".24" stop-color="#22a5cb"/><stop id="stop62650" offset=".53" stop-color="#2bbfe2"/><stop id="stop62652" offset=".79" stop-color="#30cff0"/><stop id="stop62654" offset="1" stop-color="#32d4f5"/></linearGradient></defs><title id="title62659">Icon-manage-321</title><path id="path62661" d="m 5.04,12.580316 h 4.32 v 3.87 a 0.5,0.5 0 0 1 -0.5,0.5 H 5.04 Z m -4.44,4.32 h 3.72 v -4.32 H 0 v 3.72 a 0.6,0.6 0 0 0 0.6,0.6 z m -0.6,-5 H 4.32 V 7.5403162 H 0.5 a 0.5,0.5 0 0 0 -0.5,0.5 z" style="fill:url(#beb91629-a2bd-40af-be99-914b769571a4)"/><path id="path62663" d="M 10.95,3.1622647e-4 A 5.89,5.89 0 0 1 16.9,6.0003162 5.89,5.89 0 0 1 10.95,11.950316 H 5 V 5.9503162 A 5.89,5.89 0 0 1 10.95,3.1622647e-4 Z" style="fill:url(#b166d928-c1e7-4c12-bb3f-f2e4856c02db);fill-rule:evenodd"/><path id="path62665" d="m 14.61,2.6903162 a 1,1 0 0 0 -1,1 1,1 0 0 0 0.22,0.62 l -1.67,2.99 h -0.13 a 1,1 0 0 0 -0.53,0.16 l -1.29,-1.32 a 1,1 0 0 0 0.08,-0.39 1.025,1.025 0 1 0 -2.05,0 1,1 0 0 0 0.13,0.48 l -1.17,1.54 a 1.26,1.26 0 0 0 -0.28,0 1,1 0 1 0 1,1 1,1 0 0 0 -0.13,-0.47 l 1.23,-1.55 a 1,1 0 0 0 0.25,0 1.05,1.05 0 0 0 0.36,-0.08 l 1.41,1.48 a 1.1,1.1 0 0 0 0,0.18 1,1 0 0 0 2,0 1.1,1.1 0 0 0 -0.2,-0.6 l 1.67,-3 h 0.1 a 1,1 0 0 0 1,-1 1,1 0 0 0 -1,-1.04 z" style="fill:#fff"/><metadata id="metadata62667"/></svg>