<svg xmlns="http://www.w3.org/2000/svg" xmlns:svg="http://www.w3.org/2000/svg" id="bb70dade-293f-45b2-9a10-be6db017cd74" width="16.005" height="17.029" version="1.1" viewBox="0 0 16.005 17.029"><defs id="defs62548"><linearGradient id="a1b98161-c331-4559-9700-7c3dbf716821" x1="8.11" x2="8.11" y1="6.45" y2="18.2" gradientUnits="userSpaceOnUse"><stop id="stop62533" offset=".22" stop-color="#32d4f5"/><stop id="stop62535" offset="1" stop-color="#198ab3"/></linearGradient><linearGradient id="ae2314f4-c766-47db-ad18-ec313459d520" x1="7.78" x2="8.64" y1=".15" y2="10.82" gradientUnits="userSpaceOnUse"><stop id="stop62538" offset=".22" stop-color="#32d4f5"/><stop id="stop62540" offset="1" stop-color="#198ab3"/></linearGradient><linearGradient id="e2290250-b7a3-47ee-abfe-de7d410961d8" x1="13.49" x2="13.49" y1="17.15" y2="9.35" gradientUnits="userSpaceOnUse"><stop id="stop62543" offset="0" stop-color="#1988d9"/><stop id="stop62545" offset=".9" stop-color="#54aef0"/></linearGradient></defs><title id="title62550">Icon-manage-303</title><path id="path62552" d="m 12.935415,15.58 a 1.26,1.26 0 0 0 1.26,-1.25 0.76,0.76 0 0 0 0,-0.15 c -0.49,-4 -2.75,-7.1799998 -7.0000001,-7.1799998 -4.25,0 -6.71000004,2.73 -7.19000004,7.1899998 A 1.27,1.27 0 0 0 1.1354149,15.57 H 12.935415 Z" style="fill:url(#a1b98161-c331-4559-9700-7c3dbf716821)"/><path id="path62554" d="m 7.1354149,7.9400002 a 3.94,3.94 0 0 1 -2.13,-0.64 l 2.1,5.5599998 2.12,-5.5199998 a 4,4 0 0 1 -2.09,0.6 z" style="opacity:.8;fill:#fff"/><circle id="circle62556" cx="7.135" cy="3.97" r="3.97" style="fill:url(#ae2314f4-c766-47db-ad18-ec313459d520)"/><path id="path62558" d="m 16.005415,12.5 c 0,2.28 -2.76,4.12 -3.36,4.5 a 0.24,0.24 0 0 1 -0.23,0 c -0.64,-0.41 -3.4100001,-2.25 -3.4100001,-4.5 V 9.7200002 a 0.22,0.22 0 0 1 0.21,-0.22 c 2.1500001,-0.06 1.6600001,-1 3.2700001,-1 1.61,0 1.11,0.94 3.26,1 a 0.22,0.22 0 0 1 0.21,0.22 z" style="fill:#005ba1"/><path id="path62560" d="m 15.675415,12.5 c 0,2.1 -2.53,3.79 -3.08,4.13 a 0.2,0.2 0 0 1 -0.21,0 c -0.55,-0.34 -3.0800001,-2 -3.0800001,-4.13 V 9.9700002 a 0.19,0.19 0 0 1 0.19,-0.2 c 2.0000001,0 1.5200001,-0.92 3.0000001,-0.92 1.48,0 1,0.87 3,0.92 a 0.19,0.19 0 0 1 0.19,0.2 z" style="fill:url(#e2290250-b7a3-47ee-abfe-de7d410961d8)"/><metadata id="metadata62562"/></svg>