<svg xmlns="http://www.w3.org/2000/svg" xmlns:svg="http://www.w3.org/2000/svg" id="svg1992" width="16.22" height="17.52" version="1.1" viewBox="0 0 16.22 17.52"><defs id="defs1961"><linearGradient id="b756f194-f0ab-4baf-9a5b-c24373260298" x1="6.01" x2="6.01" y1="17.69" y2=".26" gradientTransform="translate(0.88991227,0.25991227)" gradientUnits="userSpaceOnUse"><stop id="stop1929" offset="0" stop-color="#949494"/><stop id="stop1931" offset=".53" stop-color="#a2a2a2"/><stop id="stop1933" offset="1" stop-color="#b3b3b3"/></linearGradient><linearGradient id="b4a51a97-50dd-4686-924a-188a97007e56" x1="10.55" x2="15" y1="853.33" y2="858.17" gradientTransform="matrix(1,0,0,1.59,0.88991227,-1351.2001)" gradientUnits="userSpaceOnUse"><stop id="stop1936" offset="0" stop-color="#0078d4"/><stop id="stop1938" offset=".02" stop-color="#0d7ed8"/><stop id="stop1940" offset=".08" stop-color="#2b8ae0"/><stop id="stop1942" offset=".15" stop-color="#4194e7"/><stop id="stop1944" offset=".22" stop-color="#519beb"/><stop id="stop1946" offset=".29" stop-color="#5b9fee"/><stop id="stop1948" offset=".4" stop-color="#5ea0ef"/><stop id="stop1950" offset=".55" stop-color="#5b9fee"/><stop id="stop1952" offset=".68" stop-color="#509aeb"/><stop id="stop1954" offset=".8" stop-color="#3f92e6"/><stop id="stop1956" offset=".91" stop-color="#2688df"/><stop id="stop1958" offset=".99" stop-color="#127fd9"/></linearGradient></defs><g id="a5e70dc5-b1f0-464a-b150-2d065854bc52" transform="translate(-0.88991227,-0.25991227)"><g id="g1987"><g id="g1973"><path id="path1963" d="m 11.13,17.1 a 0.6,0.6 0 0 1 -0.59,0.59 H 1.48 A 0.59,0.59 0 0 1 0.89,17.1 V 0.85 A 0.58,0.58 0 0 1 1.48,0.26 h 9.06 a 0.59,0.59 0 0 1 0.59,0.59 z" style="fill:url(#b756f194-f0ab-4baf-9a5b-c24373260298)"/><path id="path1965" d="M 2.39,6.37 A 1.12,1.12 0 0 1 3.51,5.26 H 8.6 a 1.11,1.11 0 0 1 1.11,1.11 v 0 A 1.11,1.11 0 0 1 8.6,7.49 H 3.51 A 1.12,1.12 0 0 1 2.39,6.37 Z" style="fill:#003067"/><path id="path1967" d="M 2.39,3.07 A 1.11,1.11 0 0 1 3.51,2 H 8.6 a 1.1,1.1 0 0 1 1.11,1.07 v 0 A 1.11,1.11 0 0 1 8.6,4.18 H 3.51 A 1.12,1.12 0 0 1 2.39,3.07 Z" style="fill:#003067"/><circle id="circle1969" cx="3.55" cy="3.07" r=".75" style="fill:#50e6ff"/><circle id="circle1971" cx="3.55" cy="6.37" r=".75" style="fill:#50e6ff"/></g><ellipse id="ellipse1975" cx="12.62" cy="14.91" rx="4.49" ry="1.84" style="fill:#76bc2d"/><ellipse id="ellipse1977" cx="12.73" cy="14.89" rx="1.49" ry=".41" style="fill:#5e9624"/><ellipse id="ellipse1979" cx="12.62" cy="10.82" rx="4.49" ry="1.84" style="fill:url(#b4a51a97-50dd-4686-924a-188a97007e56)"/><ellipse id="ellipse1981" cx="12.73" cy="10.8" rx="1.49" ry=".41" style="fill:#005ba1"/><path id="path1983" d="m 12.62,16.72 c 2.48,0 4.49,-0.83 4.49,-1.85 v 0 1.13 0 c -0.09,1 -2.06,1.78 -4.49,1.78 -2.43,0 -4.49,-0.82 -4.49,-1.84 v -1 c 0,0.95 2.01,1.78 4.49,1.78 z" style="fill:#5e9624"/><path id="path1985" d="m 12.62,12.62 c 2.48,0 4.49,-0.82 4.49,-1.84 v 0 1.09 0 c -0.09,1 -2.06,1.78 -4.49,1.78 -2.43,0 -4.49,-0.83 -4.49,-1.85 v -1 c 0,1 2.01,1.82 4.49,1.82 z" style="fill:#0078d4"/></g></g><metadata id="metadata1990"/></svg>