<svg xmlns="http://www.w3.org/2000/svg" xmlns:svg="http://www.w3.org/2000/svg" id="svg2145" width="14.96" height="17.12" version="1.1" viewBox="0 0 14.96 17.12"><defs id="defs2116"><linearGradient id="fdd5d44a-d038-42da-afe7-cecaad9f8ff9" x1="6.49" x2="6.49" y1="17.38" y2=".44" gradientTransform="translate(1.5199091,0.43999999)" gradientUnits="userSpaceOnUse"><stop id="stop2094" offset="0" stop-color="#949494"/><stop id="stop2096" offset=".53" stop-color="#a2a2a2"/><stop id="stop2098" offset="1" stop-color="#b3b3b3"/></linearGradient><linearGradient id="bf4a560d-147b-4f76-9d70-f90bc5f8ddd6" x1="10.06" x2="16.48" y1="13.89" y2="13.89" gradientTransform="translate(1.5199091,0.43999999)" gradientUnits="userSpaceOnUse"><stop id="stop2101" offset="0" stop-color="#005ba1"/><stop id="stop2103" offset=".07" stop-color="#0060a9"/><stop id="stop2105" offset=".36" stop-color="#0071c8"/><stop id="stop2107" offset=".52" stop-color="#0078d4"/><stop id="stop2109" offset=".64" stop-color="#0074cd"/><stop id="stop2111" offset=".82" stop-color="#006abb"/><stop id="stop2113" offset="1" stop-color="#005ba1"/></linearGradient></defs><g id="a55981fb-ccb2-4f5b-acf6-743ff717cb3a" transform="translate(-1.5199091,-0.43999999)"><g id="g2140"><path id="path2118" d="M 11,9.57 A 6.72,6.72 0 0 0 8.77,9.89 6.64,6.64 0 0 0 11,10.22 6.56,6.56 0 0 0 13.23,9.89 6.63,6.63 0 0 0 11,9.57 Z" style="fill:#198ab3"/><g id="g2130"><path id="path2120" d="m 11.47,16.81 a 0.57,0.57 0 0 1 -0.58,0.57 H 2.09 A 0.56,0.56 0 0 1 1.52,16.81 V 1 A 0.57,0.57 0 0 1 2.09,0.44 h 8.8 a 0.58,0.58 0 0 1 0.58,0.57 z" style="fill:url(#fdd5d44a-d038-42da-afe7-cecaad9f8ff9)"/><path id="path2122" d="M 3,6.38 A 1.08,1.08 0 0 1 4.06,5.3 H 9 a 1.08,1.08 0 0 1 1.08,1.08 v 0 A 1.08,1.08 0 0 1 9,7.47 H 4.06 A 1.08,1.08 0 0 1 3,6.38 Z" style="fill:#003067"/><path id="path2124" d="M 3,3.17 A 1.08,1.08 0 0 1 4.06,2.09 H 9 a 1.08,1.08 0 0 1 1.08,1.08 v 0 A 1.08,1.08 0 0 1 9,4.25 H 4.06 A 1.08,1.08 0 0 1 3,3.17 Z" style="fill:#003067"/><circle id="circle2126" cx="4.11" cy="3.17" r=".73" style="fill:#50e6ff"/><circle id="circle2128" cx="4.11" cy="6.38" r=".73" style="fill:#50e6ff"/></g><path id="path2132" d="m 13.27,11.38 c -1.77,0 -3.21,-0.53 -3.21,-1.17 v 6.19 c 0,0.63 1.42,1.15 3.17,1.16 v 0 c 1.78,0 3.21,-0.52 3.21,-1.16 v -6.19 c 0.04,0.64 -1.39,1.17 -3.17,1.17 z" style="fill:url(#bf4a560d-147b-4f76-9d70-f90bc5f8ddd6)"/><path id="path2134" d="m 16.48,10.21 c 0,0.64 -1.43,1.17 -3.21,1.17 -1.78,0 -3.21,-0.53 -3.21,-1.17 0,-0.64 1.44,-1.16 3.21,-1.16 1.77,0 3.21,0.52 3.21,1.16" style="fill:#e6e6e6"/><path id="path2136" d="m 15.73,10.12 c 0,0.41 -1.1,0.74 -2.46,0.74 -1.36,0 -2.46,-0.33 -2.46,-0.74 0,-0.41 1.1,-0.74 2.46,-0.74 1.36,0 2.46,0.33 2.46,0.74" style="fill:#50e6ff"/><path id="path2138" d="M 13.68,8.66 15.81,6.53 A 0.11,0.11 0 0 0 15.73,6.34 h -1.24 c 0,-2.57 -1.37,-5.13 -3.84,-5.13 a 6.68,6.68 0 0 1 2,5.13 h -1.18 a 0.11,0.11 0 0 0 -0.08,0.19 l 2.13,2.13 a 0.12,0.12 0 0 0 0.16,0 z" style="fill:#50e6ff"/></g></g><metadata id="metadata2143"/></svg>