<svg xmlns="http://www.w3.org/2000/svg" xmlns:svg="http://www.w3.org/2000/svg" id="svg2301" width="18" height="17.128" version="1.1" viewBox="0 0 18 17.128"><defs id="defs2278"><linearGradient id="e94fd5a6-4ada-41a5-97db-ab7076cce3b5" x1="6.234" x2="6.234" y1="5.679" y2="16.03" gradientTransform="translate(1.606869e-4,0.43599987)" gradientUnits="userSpaceOnUse"><stop id="stop2263" offset=".227" stop-color="#a67af4"/><stop id="stop2265" offset="1" stop-color="#773adc"/></linearGradient><linearGradient id="b4c9f14c-cd88-421f-a4fa-7e7c86ef7ab6" x1="5.972" x2="6.727" y1=".13" y2="9.529" gradientTransform="translate(1.606869e-4,0.43599987)" gradientUnits="userSpaceOnUse"><stop id="stop2268" offset=".225" stop-color="#a67af4"/><stop id="stop2270" offset="1" stop-color="#773adc"/></linearGradient><linearGradient id="b9e0f377-f52d-4b6f-89b8-6bbad397e26a" x1="9.128" x2="18" y1="13.552" y2="13.552" gradientTransform="translate(1.606869e-4,0.43599987)" gradientUnits="userSpaceOnUse"><stop id="stop2273" offset="0" stop-color="#1988d9"/><stop id="stop2275" offset=".9" stop-color="#54aef0"/></linearGradient></defs><g id="bdbb9a60-650f-4841-b656-90ae680b08db" transform="translate(-1.606869e-4,-0.43599987)"><g id="g2296"><g id="g2290"><path id="path2280" d="m 16.312,11.946 a 0.74,0.74 0 0 0 0.742,-0.738 0.532,0.532 0 0 0 0,-0.089 C 16.758,8.792 15.431,6.9 12.9,6.9 10.323,6.9 8.993,8.505 8.734,11.128 a 0.745,0.745 0 0 0 0.664,0.817 0.628,0.628 0 0 0 0.075,0 z" style="fill:#773adc"/><circle id="circle2282" cx="12.898" cy="5.114" r="2.335" style="fill:#773adc"/><path id="path2284" d="m 11.355,14.162 a 1.109,1.109 0 0 0 1.112,-1.105 1,1 0 0 0 -0.008,-0.134 C 12.024,9.439 10.036,6.6 6.243,6.6 2.385,6.6 0.394,9 0.006,12.933 A 1.115,1.115 0 0 0 1,14.156 1.051,1.051 0 0 0 1.112,14.162 Z" style="fill:url(#e94fd5a6-4ada-41a5-97db-ab7076cce3b5)"/><path id="path2286" d="M 6.3,7.428 A 3.481,3.481 0 0 1 4.41,6.871 L 6.284,11.766 8.144,6.9 A 3.468,3.468 0 0 1 6.3,7.428 Z" style="opacity:.8;fill:#fff"/><circle id="circle2288" cx="6.277" cy="3.932" r="3.496" style="fill:url(#b4c9f14c-cd88-421f-a4fa-7e7c86ef7ab6)"/></g><polygon id="polygon2292" points="13.564 17.564 18 15.751 13.564 9.54 9.128 15.751" style="fill:url(#b9e0f377-f52d-4b6f-89b8-6bbad397e26a)"/><polygon id="polygon2294" points="13.564 17.564 13.564 9.54 9.128 15.751" style="fill:#50e6ff"/></g></g><metadata id="metadata2299"/></svg>