<svg xmlns="http://www.w3.org/2000/svg" xmlns:svg="http://www.w3.org/2000/svg" id="svg2699" width="17.689" height="17.48" version="1.1" viewBox="0 0 17.689 17.48"><defs id="defs2679"><linearGradient id="e45c6200-6488-4339-a709-a13bd54e49f3" x1="13.01" x2="12.78" y1="5.83" y2="19.82" gradientTransform="translate(0.13158586,0.26)" gradientUnits="userSpaceOnUse"><stop id="stop2674" offset="0" stop-color="#9cebff"/><stop id="stop2676" offset="1" stop-color="#50e6ff"/></linearGradient></defs><title id="title2681">Icon-azurestack-8</title><g id="ea18473d-2ef4-4f9c-b256-443e4dcd2a2c" transform="translate(-0.13158586,-0.26)"><g id="g2694"><path id="path2683" d="m 13.1,0.26 h -7 A 0.45,0.45 0 0 0 5.65,0.71 v 10.2 a 8.8,8.8 0 0 1 1.13,-0.83 h 1.33 l 0.74,1 v 1.54 l -0.93,1.24 -1.28,-0.17 -1,-0.39 v 0.27 a 0.45,0.45 0 0 0 0.45,0.46 h 7 a 0.45,0.45 0 0 0 0.45,-0.46 V 0.71 A 0.45,0.45 0 0 0 13.1,0.26 Z" style="fill:#0078d4"/><path id="ad507295-c076-421c-9034-1cdfff692626" d="M 6.7,2.07 H 8 a 0.11,0.11 0 0 1 0.12,0.11 v 1.7 A 0.12,0.12 0 0 1 8,4 H 6.7 A 0.11,0.11 0 0 1 6.59,3.88 V 2.18 A 0.11,0.11 0 0 1 6.7,2.07 Z m 2.3,0 h 1.29 a 0.11,0.11 0 0 1 0.11,0.11 v 1.7 A 0.11,0.11 0 0 1 10.29,4 H 9 A 0.11,0.11 0 0 1 8.89,3.88 V 2.18 A 0.11,0.11 0 0 1 9,2.07 Z m 2.27,0 h 1.28 a 0.11,0.11 0 0 1 0.11,0.11 v 1.7 A 0.11,0.11 0 0 1 12.55,4 H 11.23 A 0.12,0.12 0 0 1 11.11,3.88 V 2.18 A 0.11,0.11 0 0 1 11.23,2.07 Z M 6.7,5.16 H 8 A 0.11,0.11 0 0 1 8.12,5.27 V 7 A 0.11,0.11 0 0 1 8,7.09 H 6.7 A 0.11,0.11 0 0 1 6.59,7 V 5.27 A 0.11,0.11 0 0 1 6.7,5.16 Z m 2.3,0 h 1.29 A 0.11,0.11 0 0 1 10.4,5.27 V 7 A 0.11,0.11 0 0 1 10.29,7.11 H 9 A 0.11,0.11 0 0 1 8.85,7 V 5.27 A 0.11,0.11 0 0 1 9,5.16 Z m 2.27,0 h 1.28 a 0.11,0.11 0 0 1 0.11,0.11 V 7 A 0.11,0.11 0 0 1 12.55,7.11 H 11.23 A 0.11,0.11 0 0 1 11.11,7 V 5.27 a 0.11,0.11 0 0 1 0.12,-0.11 z" style="fill:#f2f2f2"/><path id="path2686" d="m 7.12,11.05 a 1,1 0 0 0 -1,0.76 H 2.53 a 3.07,3.07 0 0 0 -0.06,0.53 v 0.05 h 3.65 a 1,1 0 1 0 1,-1.34 z" style="fill:#50e6ff"/><path id="path2688" d="M 9.88,10.6 A 2.64,2.64 0 0 0 7.2,8.05 2.67,2.67 0 0 0 4.64,9.83 a 2.57,2.57 0 0 0 -2,1.64 H 5.9 a 1.37,1.37 0 0 1 1.22,-0.76 1.41,1.41 0 1 1 -1.22,2 H 2.53 a 2.55,2.55 0 0 0 2.53,2 H 9.48 9.6 a 2.05,2.05 0 0 0 0.28,-4.09 z" style="fill:#32bedd"/><path id="path2690" d="m 7.12,11.05 a 1,1 0 0 0 -1,0.76 H 2.53 A 1.92,1.92 0 0 1 2.16,11.76 1.84,1.84 0 0 1 2.36,8.13 H 2.53 L 2.59,7.96 a 2,2 0 0 1 2,-1.36 2.08,2.08 0 0 1 1.82,1 A 2.89,2.89 0 0 1 7,7.54 2.66,2.66 0 0 0 4.55,6 2.63,2.63 0 0 0 2.11,7.59 2.42,2.42 0 0 0 1.9,12.3 v 0 a 1.51,1.51 0 0 0 0.59,0.1 h 3.63 a 1,1 0 1 0 1,-1.34 z" style="fill:#50e6ff"/><path id="path2692" d="m 8,11.29 4.5,-4.5 a 0.54,0.54 0 0 1 0.76,0 l 4.49,4.5 a 0.24,0.24 0 0 1 -0.17,0.41 h -2.72 a 0.24,0.24 0 0 0 -0.24,0.24 v 5.61 a 0.19,0.19 0 0 1 -0.19,0.19 h -3 A 0.18,0.18 0 0 1 11.24,17.55 V 11.94 A 0.24,0.24 0 0 0 11,11.7 H 8.21 A 0.24,0.24 0 0 1 8,11.29 Z" style="fill:url(#e45c6200-6488-4339-a709-a13bd54e49f3)"/></g></g><metadata id="metadata2697"/></svg>