<svg xmlns="http://www.w3.org/2000/svg" xmlns:svg="http://www.w3.org/2000/svg" id="b6f6d99e-f330-481d-836f-ea58cc42217f" width="11.899" height="17" version="1.1" viewBox="0 0 11.899 17"><defs id="defs16023"><radialGradient id="a7a1c431-6c6d-4a8f-9a69-8da437e5b0c5" cx="9" cy="7.35" r="6.42" gradientUnits="userSpaceOnUse"><stop id="stop15987" offset="0" stop-color="#b77af4"/><stop id="stop15989" offset=".21" stop-color="#b378f2"/><stop id="stop15991" offset=".43" stop-color="#a672ed"/><stop id="stop15993" offset=".65" stop-color="#9267e4"/><stop id="stop15995" offset=".88" stop-color="#7559d8"/><stop id="stop15997" offset="1" stop-color="#624fd0"/></radialGradient><linearGradient id="ec0c4f0d-5c8e-4882-96a1-89d61808eb49" x1="9.02" x2="9.08" y1="3.91" y2="11.49" gradientUnits="userSpaceOnUse"><stop id="stop16000" offset="0" stop-color="#f2f2f2"/><stop id="stop16002" offset=".23" stop-color="#f1f1f2" stop-opacity=".99"/><stop id="stop16004" offset=".37" stop-color="#ededf1" stop-opacity=".95"/><stop id="stop16006" offset=".48" stop-color="#e7e5f0" stop-opacity=".89"/><stop id="stop16008" offset=".58" stop-color="#dedbee" stop-opacity=".81"/><stop id="stop16010" offset=".67" stop-color="#d3ceeb" stop-opacity=".7"/><stop id="stop16012" offset=".76" stop-color="#c4bee8" stop-opacity=".57"/><stop id="stop16014" offset=".84" stop-color="#b4abe5" stop-opacity=".41"/><stop id="stop16016" offset=".92" stop-color="#a095e1" stop-opacity=".22"/><stop id="stop16018" offset=".99" stop-color="#8b7ddc" stop-opacity=".02"/><stop id="stop16020" offset="1" stop-color="#897bdc" stop-opacity="0"/></linearGradient></defs><title id="title16025">Icon-manage-310</title><path id="path16027" d="m 7.1794195,16.8903 0.81,-0.87 v -2.32 h -4.04 v 2.32 l 0.81,0.87 a 0.32,0.32 0 0 0 0.19,0.11 h 2 a 0.32,0.32 0 0 0 0.23,-0.11 z" style="fill:#cecece"/><path id="path16029" d="M 5.9494195,2.9972545e-4 A 5.89,5.89 0 0 0 0.03941949,6.5702997 c 0.27,2.47 2.62000001,3.6200003 3.29000001,6.7500003 a 0.49,0.49 0 0 0 0.47,0.38 h 4.3 a 0.49,0.49 0 0 0 0.47,-0.38 c 0.67,-3.13 2.9999995,-4.2800003 3.2899995,-6.7500003 A 5.89,5.89 0 0 0 5.9494195,2.9972545e-4 Z m -2,13.70000027455" style="fill:url(#a7a1c431-6c6d-4a8f-9a69-8da437e5b0c5)"/><path id="path16031" d="m 8.4094195,3.2902997 a 1.4,1.4 0 0 0 -1.35,1.44 v 0.77 h -2.11 v -0.77 a 1.41,1.41 0 0 0 -1.41,-1.44 1.4,1.4 0 0 0 -1.35,1.44 1.41,1.41 0 0 0 1.35,1.45 h 0.64 V 12.1803 a 0.36,0.36 0 0 0 0.72,0 V 6.1802997 h 2.16 V 12.1803 a 0.36,0.36 0 1 0 0.72,0 V 6.1802997 h 0.63 a 1.4,1.4 0 0 0 1.35,-1.45 1.4,1.4 0 0 0 -1.35,-1.44 z m -4.23,2.21 h -0.68 a 0.74,0.74 0 0 1 -0.68,-0.77 0.74,0.74 0 0 1 0.68,-0.77 0.74,0.74 0 0 1 0.68,0.77 z m 4.28,0 h -0.68 v -0.81 a 0.68,0.68 0 1 1 1.35,0 0.73,0.73 0 0 1 -0.67,0.81 z" style="fill:url(#ec0c4f0d-5c8e-4882-96a1-89d61808eb49)"/><polygon id="polygon16033" points="11.04 14.56 6.96 15.36 6.96 15.8 11.04 15.01" transform="translate(-3.0505805,-0.49970027)" style="fill:#999"/><polygon id="polygon16035" points="6.96 16.48 6.96 16.52 7.27 16.86 11.04 16.11 11.04 15.67" transform="translate(-3.0505805,-0.49970027)" style="fill:#999"/><metadata id="metadata16037"/></svg>