<svg xmlns="http://www.w3.org/2000/svg" xmlns:svg="http://www.w3.org/2000/svg" id="a98517fd-0655-40a4-8dda-ae47a1480280" width="17.02" height="16.402" version="1.1" viewBox="0 0 17.02 16.402"><defs id="defs16179"><linearGradient id="b80226ba-6d0d-4956-8f19-ab3101ca010c" x1="9" x2="9" y1="16.39" y2="-1.94" gradientUnits="userSpaceOnUse"><stop id="stop16153" offset="0" stop-color="#0078d4"/><stop id="stop16155" offset=".16" stop-color="#1380da"/><stop id="stop16157" offset=".53" stop-color="#3c91e5"/><stop id="stop16159" offset=".82" stop-color="#559cec"/><stop id="stop16161" offset="1" stop-color="#5ea0ef"/></linearGradient><linearGradient id="a4c1ad8b-2628-48af-97c3-ee4a90db0ba3" x1="9.88" x2="9.99" y1="7.11" y2="17.27" gradientUnits="userSpaceOnUse"><stop id="stop16164" offset="0" stop-color="#32d4f5"/><stop id="stop16166" offset=".32" stop-color="#31d1f3"/><stop id="stop16168" offset=".53" stop-color="#2ec9eb"/><stop id="stop16170" offset=".7" stop-color="#29bade"/><stop id="stop16172" offset=".86" stop-color="#22a5cb"/><stop id="stop16174" offset="1" stop-color="#198ab3"/><stop id="stop16176" offset="1" stop-color="#198ab3"/></linearGradient></defs><title id="title16181">Icon-devops-264</title><path id="path16183" d="m 17.02,8.2821581 a 3.82,3.82 0 0 0 -3.32,-3.67 4.81,4.81 0 0 0 -4.95,-4.61 5,5 0 0 0 -4.75,3.2 4.54,4.54 0 0 0 -4,4.39 4.62,4.62 0 0 0 4.79,4.4399999 3,3 0 0 0 0.42,0 h 7.75 a 0.64,0.64 0 0 0 0.2,0 3.86,3.86 0 0 0 3.86,-3.7499999 z" style="fill:url(#b80226ba-6d0d-4956-8f19-ab3101ca010c)"/><path id="path16185" d="M 14.33,16.402158 H 4.69 c -0.31,0 -0.49,-0.49 -0.32,-0.75 l 3.32,-4.84 a 0.34,0.34 0 0 0 0.07,-0.22 V 7.3921581 a 0.2,0.2 0 0 0 -0.19,-0.19 H 7.39 a 0.38,0.38 0 0 1 -0.38,-0.38 v -0.17 a 0.38,0.38 0 0 1 0.38,-0.38 h 4.23 a 0.38,0.38 0 0 1 0.38,0.38 v 0.17 a 0.38,0.38 0 0 1 -0.38,0.38 h -0.18 a 0.19,0.19 0 0 0 -0.19,0.19 v 3.2099999 a 0.36,0.36 0 0 0 0.07,0.22 l 3.32,4.83 c 0.17,0.25 -0.01,0.75 -0.31,0.75 z" style="fill:url(#a4c1ad8b-2628-48af-97c3-ee4a90db0ba3)"/><path id="path16187" d="m 5.8,15.102158 2.52,-3.68 a 0.94,0.94 0 0 0 0.2,-0.52 V 9.4221581 a 0.29,0.29 0 0 1 0.29,-0.29 h 1.44 a 0.29,0.29 0 0 1 0.29,0.29 v 1.5799999 a 0.61,0.61 0 0 0 0.11,0.35 l 2.58,3.75 a 0.23,0.23 0 0 1 -0.18,0.35 h -7 a 0.22,0.22 0 0 1 -0.25,-0.35 z" style="fill:#552f99"/><metadata id="metadata16189"/></svg>