<svg xmlns="http://www.w3.org/2000/svg" xmlns:svg="http://www.w3.org/2000/svg" id="f8151f8a-9263-4324-b56b-089ba1ca77d2" width="17.02" height="16.402" version="1.1" viewBox="0 0 17.02 16.402"><defs id="defs16269"><linearGradient id="e57d1fe5-b52e-4274-9d08-e2461ccc36fe" x1="9" x2="9" y1="16.39" y2="-1.94" gradientUnits="userSpaceOnUse"><stop id="stop16243" offset="0" stop-color="#0078d4"/><stop id="stop16245" offset=".16" stop-color="#1380da"/><stop id="stop16247" offset=".53" stop-color="#3c91e5"/><stop id="stop16249" offset=".82" stop-color="#559cec"/><stop id="stop16251" offset="1" stop-color="#5ea0ef"/></linearGradient><linearGradient id="be195039-c4e2-4308-9e01-e416f2347f85" x1="9.88" x2="9.99" y1="7.11" y2="17.27" gradientUnits="userSpaceOnUse"><stop id="stop16254" offset="0" stop-color="#32d4f5"/><stop id="stop16256" offset=".32" stop-color="#31d1f3"/><stop id="stop16258" offset=".53" stop-color="#2ec9eb"/><stop id="stop16260" offset=".7" stop-color="#29bade"/><stop id="stop16262" offset=".86" stop-color="#22a5cb"/><stop id="stop16264" offset="1" stop-color="#198ab3"/><stop id="stop16266" offset="1" stop-color="#198ab3"/></linearGradient></defs><title id="title16271">Icon-devops-265</title><path id="path16273" d="m 17.02,8.2821581 a 3.82,3.82 0 0 0 -3.32,-3.67 4.81,4.81 0 0 0 -4.95,-4.61 5,5 0 0 0 -4.75,3.2 4.54,4.54 0 0 0 -4,4.39 4.62,4.62 0 0 0 4.79,4.4399999 3,3 0 0 0 0.42,0 h 7.75 a 0.64,0.64 0 0 0 0.2,0 3.86,3.86 0 0 0 3.86,-3.7499999 z" style="fill:url(#e57d1fe5-b52e-4274-9d08-e2461ccc36fe)"/><path id="path16275" d="M 14.33,16.402158 H 4.69 c -0.31,0 -0.49,-0.49 -0.32,-0.75 l 3.32,-4.84 a 0.34,0.34 0 0 0 0.07,-0.22 V 7.3921581 a 0.2,0.2 0 0 0 -0.19,-0.19 H 7.39 a 0.38,0.38 0 0 1 -0.38,-0.38 v -0.17 a 0.38,0.38 0 0 1 0.38,-0.38 h 4.23 a 0.38,0.38 0 0 1 0.38,0.38 v 0.17 a 0.38,0.38 0 0 1 -0.38,0.38 h -0.18 a 0.19,0.19 0 0 0 -0.19,0.19 v 3.2099999 a 0.36,0.36 0 0 0 0.07,0.22 l 3.32,4.83 c 0.17,0.25 -0.01,0.75 -0.31,0.75 z" style="fill:url(#be195039-c4e2-4308-9e01-e416f2347f85)"/><path id="path16277" d="m 5.8,15.102158 2.52,-3.68 a 0.94,0.94 0 0 0 0.2,-0.52 V 9.4221581 a 0.29,0.29 0 0 1 0.29,-0.29 h 1.44 a 0.29,0.29 0 0 1 0.29,0.29 v 1.5799999 a 0.61,0.61 0 0 0 0.11,0.35 l 2.58,3.75 a 0.23,0.23 0 0 1 -0.18,0.35 h -7 a 0.22,0.22 0 0 1 -0.25,-0.35 z" style="fill:#fff"/><metadata id="metadata16279"/></svg>