<svg xmlns="http://www.w3.org/2000/svg" xmlns:svg="http://www.w3.org/2000/svg" id="fd3d8d4a-46e1-4408-ba1e-9135a7e34c49" width="16" height="16" version="1.1" viewBox="0 0 16 16"><defs id="defs1113"><linearGradient id="b25a6eef-63a1-4028-981f-ae9a6e561a3b" x1="9" x2="9" y1="3.72" y2="15.02" gradientUnits="userSpaceOnUse"><stop id="stop1108" offset=".18" stop-color="#5ea0ef"/><stop id="stop1110" offset="1" stop-color="#0078d4"/></linearGradient></defs><title id="title1115">Icon-web-47</title><path id="path1117" d="M 7.57,7.61 H 0 V 1.1 A 1.1,1.1 0 0 1 1.09,0 H 7.57 Z M 0.94,6.67 H 6.63 V 0.92 H 1.09 A 0.15,0.15 0 0 0 0.94,1.07 Z" style="fill:#949494"/><path id="path1119" d="M 16,7.61 H 8.43 V 0 h 6.48 A 1.1,1.1 0 0 1 16,1.1 Z M 9.37,6.67 h 5.69 V 1.1 A 0.15,0.15 0 0 0 14.91,0.92 H 9.37 Z" style="fill:#949494"/><path id="path1121" d="M 7.57,16 H 1.09 A 1.09,1.09 0 0 1 0,14.92 V 8.4 H 7.57 Z M 0.94,9.34 v 5.58 a 0.15,0.15 0 0 0 0.15,0.15 H 6.63 V 9.34 Z" style="fill:#949494"/><path id="path1123" d="M 14.91,16 H 8.43 V 8.4 H 16 v 6.52 A 1.09,1.09 0 0 1 14.91,16 Z M 9.37,15.06 h 5.54 a 0.15,0.15 0 0 0 0.15,-0.15 V 9.34 H 9.37 Z" style="fill:#949494"/><path id="path1125" d="M 13.67,9.54 A 2.59,2.59 0 0 0 11.46,7.04 3.24,3.24 0 0 0 8.15,3.92 3.32,3.32 0 0 0 5,6.09 a 3.08,3.08 0 0 0 -2.66,3 3.11,3.11 0 0 0 3.19,3 H 11 11.14 a 2.61,2.61 0 0 0 2.53,-2.55 z" style="fill:url(#b25a6eef-63a1-4028-981f-ae9a6e561a3b)"/><metadata id="metadata1127"/></svg>