<svg xmlns="http://www.w3.org/2000/svg" xmlns:svg="http://www.w3.org/2000/svg" id="f39db08f-c433-4b3e-8dd9-f5b32b0dd2e2" width="17" height="13.67" version="1.1" viewBox="0 0 17 13.67"><defs id="defs1021"><linearGradient id="e3b462d3-4c3c-47e9-827b-0de254d5c11f" x1="9" x2="9" y1="15.83" y2="5.79" gradientUnits="userSpaceOnUse"><stop id="stop1012" offset="0" stop-color="#32bedd"/><stop id="stop1014" offset=".18" stop-color="#32caea"/><stop id="stop1016" offset=".41" stop-color="#32d2f2"/><stop id="stop1018" offset=".78" stop-color="#32d4f5"/></linearGradient></defs><title id="title1023">Icon-web-50</title><path id="path1025" d="m 0,3.62 h 17 v 9.48 a 0.57,0.57 0 0 1 -0.57,0.57 H 0.57 A 0.57,0.57 0 0 1 0,13.1 Z" style="fill:url(#e3b462d3-4c3c-47e9-827b-0de254d5c11f)"/><path id="path1027" d="M 0.57,0 H 16.43 A 0.57,0.57 0 0 1 17,0.57000001 V 3.62 H 0 V 0.56000001 A 0.57,0.57 0 0 1 0.57,0 Z" style="fill:#005ba1"/><rect id="rect1029" width="12.43" height="1.46" x="2.29" y="1.08" rx=".28" style="fill:#f2f2f2"/><path id="path1031" d="m 6.18,6.83 -0.9,3 H 4.56 l -0.55,-2 a 1.1,1.1 0 0 1 0,-0.27 v 0 a 1,1 0 0 1 0,0.26 L 3.3,9.83 H 2.59 l -0.89,-3 h 0.71 l 0.55,2.19 a 1.43,1.43 0 0 1 0,0.26 v 0 a 1.32,1.32 0 0 1 0,-0.26 L 3.68,6.83 h 0.65 l 0.55,2.2 a 1.59,1.59 0 0 1 0,0.26 v 0 a 1.51,1.51 0 0 1 0,-0.26 L 5.5,6.83 Z" style="fill:#fff"/><path id="path1033" d="m 10.78,6.83 -0.9,3 H 9.16 l -0.55,-2 a 1.1,1.1 0 0 1 0,-0.27 v 0 A 1.85,1.85 0 0 1 8.5,7.83 l -0.6,2 H 7.2 l -0.9,-3 h 0.71 l 0.56,2.19 a 1.56,1.56 0 0 1 0,0.26 v 0 c 0,-0.08 0,-0.17 0.05,-0.26 L 8.29,6.83 h 0.64 l 0.55,2.2 a 1.59,1.59 0 0 1 0,0.26 v 0 a 1.51,1.51 0 0 1 0,-0.26 l 0.65,-2.2 z" style="fill:#fff"/><path id="path1035" d="m 15.39,6.83 -0.89,3 h -0.72 l -0.57,-2 a 1.93,1.93 0 0 1 0,-0.27 v 0 A 1,1 0 0 1 13.16,7.82 L 12.5,9.83 h -0.7 l -0.9,-3 h 0.72 l 0.55,2.19 a 1.43,1.43 0 0 1 0,0.26 v 0 a 1.27,1.27 0 0 1 0,-0.26 l 0.72,-2.19 h 0.61 l 0.54,2.2 a 1.59,1.59 0 0 1 0,0.26 v 0 a 1.66,1.66 0 0 1 0,-0.26 l 0.69,-2.2 z" style="fill:#fff"/><metadata id="metadata1037"/></svg>