<svg xmlns="http://www.w3.org/2000/svg" xmlns:svg="http://www.w3.org/2000/svg" xmlns:xlink="http://www.w3.org/1999/xlink" id="b70acf0a-34b4-4bdf-9024-7496043ff915" width="16.968" height="16.971" version="1.1" viewBox="0 0 16.968 16.971"><defs id="defs1416"><radialGradient id="e2cf8746-c9a8-4eee-86c2-4951983c6032" cx="13428.81" cy="3518.86" r="56.67" gradientTransform="matrix(0.15,0,0,0.15,-2005.33,-518.83)" gradientUnits="userSpaceOnUse"><stop id="stop1396" offset=".18" stop-color="#5ea0ef"/><stop id="stop1398" offset="1" stop-color="#0078d4"/></radialGradient><linearGradient id="bdd213dd-d313-473c-8ff4-0133fd3a9033" x1="4.4" x2="4.37" y1="11.48" y2="7.53" gradientUnits="userSpaceOnUse"><stop id="stop1401" offset="0" stop-color="#ccc"/><stop id="stop1403" offset="1" stop-color="#fcfcfc"/></linearGradient><linearGradient id="afcc63c5-3649-4476-a742-bcb53a569f3c" x1="10.13" x2="10.13" y1="15.45" y2="11.9" gradientUnits="userSpaceOnUse"><stop id="stop1406" offset="0" stop-color="#ccc"/><stop id="stop1408" offset="1" stop-color="#fcfcfc"/></linearGradient><linearGradient id="bd873f0b-9954-4aa5-a3df-9f4c64e8729d" x1="14.18" x2="14.18" y1="11.15" y2="7.38" gradientUnits="userSpaceOnUse"><stop id="stop1411" offset="0" stop-color="#ccc"/><stop id="stop1413" offset="1" stop-color="#fcfcfc"/></linearGradient><linearGradient id="linearGradient1450" x1="4.4" x2="4.37" y1="11.48" y2="7.53" gradientUnits="userSpaceOnUse" xlink:href="#bdd213dd-d313-473c-8ff4-0133fd3a9033"/><linearGradient id="linearGradient1452" x1="10.13" x2="10.13" y1="15.45" y2="11.9" gradientUnits="userSpaceOnUse" xlink:href="#afcc63c5-3649-4476-a742-bcb53a569f3c"/><linearGradient id="linearGradient1454" x1="4.4" x2="4.37" y1="11.48" y2="7.53" gradientUnits="userSpaceOnUse" xlink:href="#bdd213dd-d313-473c-8ff4-0133fd3a9033"/><linearGradient id="linearGradient1456" x1="10.13" x2="10.13" y1="15.45" y2="11.9" gradientUnits="userSpaceOnUse" xlink:href="#afcc63c5-3649-4476-a742-bcb53a569f3c"/></defs><title id="title1418">Icon-web-41</title><path id="ee75dd06-1aca-4f76-9d11-d05a284020ad" d="M 13.713088,15.188401 A 8.5030877,8.5030877 0 0 1 3.2930877,1.7484011 l 0.09,-0.06 A 8.5,8.5 0 0 1 13.713088,15.188401" style="fill:url(#e2cf8746-c9a8-4eee-86c2-4951983c6032)"/><path id="path1421" d="m 6.1930877,6.6984011 a 13,13 0 0 1 8.9100003,-3.58 8.47,8.47 0 0 0 -1.49,-1.44 14.34,14.34 0 0 0 -4.6900003,1.1 12.54,12.54 0 0 0 -4.08,2.82 2.76,2.76 0 0 1 1.35,1.1 z" style="opacity:.6;fill:#fff"/><path id="path1423" d="m 1.9830877,10.118401 a 17.86,17.86 0 0 0 -0.83,2.62 7.82,7.82 0 0 0 0.62,0.92 c 0.18,0.23 0.35,0.44 0.55,0.65 a 17.94,17.94 0 0 1 1.08,-3.47 2.76,2.76 0 0 1 -1.42,-0.72 z" style="opacity:.6;fill:#fff"/><path id="path1425" d="m 2.9630877,5.5784011 a 12,12 0 0 1 -0.69,-2.94 8.15,8.15 0 0 0 -1.1,1.45 12.69,12.69 0 0 0 0.57,2.38 2.69,2.69 0 0 1 1.22,-0.89 z" style="opacity:.55;fill:#f2f2f2"/><circle id="circle1427" cx="3.883" cy="8.148" r="2.73" style="fill:url(#linearGradient1450)"/><path id="path1429" d="m 7.8630877,13.138401 a 1.77,1.77 0 0 1 0.54,-1.27 11.88,11.88 0 0 1 -2.53,-1.86 2.74,2.74 0 0 1 -1.49,0.83 13.1,13.1 0 0 0 1.45,1.28 12.12,12.12 0 0 0 2.05,1.25 1.79,1.79 0 0 1 -0.02,-0.23 z" style="opacity:.55;fill:#f2f2f2"/><path id="path1431" d="m 14.163088,13.348401 a 12,12 0 0 1 -2.76,-0.32 0.41,0.41 0 0 1 0,0.11 1.75,1.75 0 0 1 -0.51,1.24 13.69,13.69 0 0 0 3.42,0.24 8.21,8.21 0 0 0 1.19,-1.34 11.5,11.5 0 0 1 -1.34,0.07 z" style="opacity:.55;fill:#f2f2f2"/><circle id="circle1433" cx="9.633" cy="13.138" r="1.78" style="fill:url(#linearGradient1452)"/><path id="path1435" d="m 11.823088,8.3984011 a 1.83,1.83 0 0 1 0.61,-1 25.5,25.5 0 0 1 -4.4600003,-4.14 16.91,16.91 0 0 1 -2,-2.92000003 7.64,7.64 0 0 0 -1.09,0.42 18.14,18.14 0 0 0 2.15,3.18000003 26.44,26.44 0 0 0 4.7900003,4.46 z" style="opacity:.7;fill:#f2f2f2"/><circle id="circle1437" cx="13.683" cy="8.738" r="1.89" style="fill:url(#bd873f0b-9954-4aa5-a3df-9f4c64e8729d)"/><path id="path1439" d="m 16.853088,10.008401 -0.35,-0.1699999 v 0 l -0.3,-0.16 h -0.06 l -0.26,-0.21 h -0.07 l -0.31,-0.2 a 1.76,1.76 0 0 1 -0.64,0.9199999 c 0.12,0.08 0.25,0.15 0.38,0.22 l 0.08,0.05 0.35,0.19 v 0 l 0.86,0.45 v 0 a 8.63,8.63 0 0 0 0.29,-1.1099999 z" style="opacity:.55;fill:#f2f2f2"/><circle id="circle1441" cx="3.883" cy="8.148" r="2.73" style="fill:url(#linearGradient1454)"/><circle id="circle1443" cx="9.633" cy="13.138" r="1.78" style="fill:url(#linearGradient1456)"/><metadata id="metadata1445"/></svg>