<svg xmlns="http://www.w3.org/2000/svg" xmlns:svg="http://www.w3.org/2000/svg" id="b300f0d1-2ad8-4418-a1c5-23d0b9d21841" width="18" height="10.461" version="1.1" viewBox="0 0 18 10.461"><defs id="defs1594"><linearGradient id="b8cad6fd-ec7f-45e9-be2a-125e8b87bd03" x1="10.79" x2="10.79" y1="2.17" y2="16.56" gradientUnits="userSpaceOnUse"><stop id="stop1589" offset=".18" stop-color="#5ea0ef"/><stop id="stop1591" offset="1" stop-color="#0078d4"/></linearGradient></defs><title id="title1596">Icon-web-43</title><rect id="rect1598" width="1.18" height="5.26" x="-4.891" y="1.66" rx=".52" transform="rotate(-90)" style="fill:#b3b3b3"/><rect id="rect1600" width="1.18" height="5.26" x="-7.281" y="0" rx=".52" transform="rotate(-90)" style="fill:#a3a3a3"/><rect id="rect1602" width="1.18" height="5.26" x="-9.671" y="1.66" rx=".52" transform="rotate(-90)" style="fill:#7a7a7a"/><path id="path1604" d="m 18,7.1808145 a 3.28,3.28 0 0 0 -2.81,-3.18 A 4.13,4.13 0 0 0 10.98,8.1453973e-4 4.23,4.23 0 0 0 6.9799999,2.8008145 a 3.89,3.89 0 0 0 -3.38,3.8 4,4 0 0 0 4.06,3.8600005 h 0.36 H 14.6 14.77 A 3.32,3.32 0 0 0 18,7.1808145 Z" style="fill:url(#b8cad6fd-ec7f-45e9-be2a-125e8b87bd03)"/><metadata id="metadata1606"/></svg>