<svg xmlns="http://www.w3.org/2000/svg" xmlns:svg="http://www.w3.org/2000/svg" id="bdd6e15d-1a8a-482e-8d29-5037fed47de7" width="12.82" height="17" version="1.1" viewBox="0 0 12.82 17"><defs id="defs11637"><linearGradient id="ad192933-7c41-4627-94b0-c2754cc3b3fb" x1="2.59" x2="15.41" y1="10.16" y2="10.16" gradientUnits="userSpaceOnUse"><stop id="stop11622" offset="0" stop-color="#005ba1"/><stop id="stop11624" offset=".07" stop-color="#0060a9"/><stop id="stop11626" offset=".36" stop-color="#0071c8"/><stop id="stop11628" offset=".52" stop-color="#0078d4"/><stop id="stop11630" offset=".64" stop-color="#0074cd"/><stop id="stop11632" offset=".82" stop-color="#006abb"/><stop id="stop11634" offset="1" stop-color="#005ba1"/></linearGradient></defs><title id="title11639">Icon-databases-123</title><path id="path11641" d="M 6.41,4.64 C 2.87,4.64 0,3.64 0,2.32 v 12.36 c 0,1.27 2.82,2.3 6.32,2.32 h 0.09 c 3.54,0 6.41,-1 6.41,-2.32 V 2.32 c 0,1.29 -2.87,2.32 -6.41,2.32 z" style="fill:url(#ad192933-7c41-4627-94b0-c2754cc3b3fb)"/><path id="path11643" d="M 12.82,2.32 C 12.82,3.61 9.95,4.64 6.41,4.64 2.87,4.64 0,3.64 0,2.32 0,1 2.87,0 6.41,0 c 3.54,0 6.41,1 6.41,2.32" style="fill:#e8e8e8"/><path id="path11645" d="m 11.33,2.13 c 0,0.82 -2.21,1.48 -4.92,1.48 -2.71,0 -4.92,-0.66 -4.92,-1.48 0,-0.82 2.21,-1.47 4.92,-1.47 2.71,0 4.92,0.66 4.92,1.47" style="fill:#50e6ff"/><path id="path11647" d="M 6.41,2.5 A 11.55,11.55 0 0 0 2.52,3.07 11.42,11.42 0 0 0 6.41,3.61 11.15,11.15 0 0 0 10.3,3.03 11.84,11.84 0 0 0 6.41,2.5 Z" style="fill:#198ab3"/><path id="path11649" d="m 11.66,5.82 c -0.33,0 0.06,0.25 -1.11,0.3 C 9.38,6.17 8.97,7.37 8.21,8.38 a 4.93,4.93 0 0 1 -3,1.41 3.67,3.67 0 0 0 -1.88,1.39 0.92,0.92 0 0 1 -0.71,0.52 c -0.27,0 -0.86,0.08 -0.86,0.08 a 3.36,3.36 0 0 0 -0.71,0.24 c 0.08,0.33 0.74,0.19 0.74,0.19 a 5.25,5.25 0 0 1 -0.52,0.47 2.8,2.8 0 0 0 1,0.05 c 0.43,0 0.76,-0.41 1.55,-0.84 0.79,-0.43 2.61,0 2.9,0 0.29,0 0.72,-0.76 0.82,-1 0.08,0.54 -0.82,2 -0.82,2 a 2.11,2.11 0 0 0 1.66,-1 c 0.08,-0.1 0.33,-0.62 0.36,-0.57 0.03,0.05 0.16,0.19 0.21,0.17 A 1.88,1.88 0 0 0 9.2,11.22 7.58,7.58 0 0 0 10.34,8.74 C 10.41,8.5 10.41,7.63 11.01,7.27 11.61,6.91 11.69,6.58 11.69,6.55 V 6.5 a 1.63,1.63 0 0 1 -0.39,-0.35 0.11,0.11 0 0 1 0,-0.11 0.77,0.77 0 0 0 0.48,0.38 v 0 c 0,0 0.21,-0.6 -0.12,-0.6 z M 10.41,6.88 H 10.35 A 0.36,0.36 0 0 1 10.05,6.8 0.48,0.48 0 0 1 10.57,6.5 0.3,0.3 0 0 1 10.41,6.88 Z m 0.56,0 v 0 A 2.81,2.81 0 0 1 11.3,6.3 v 0 a 3.12,3.12 0 0 0 -0.35,0.62 z m 0.36,-0.51 v 0 0 a 1.81,1.81 0 0 0 -0.08,0.51 v 0 a 1.69,1.69 0 0 1 0,-0.38 1.4,1.4 0 0 0 -0.16,0.39 v 0 a 1.34,1.34 0 0 1 0.22,-0.48 z" style="fill:#f2f2f2"/><path id="path11651" d="m 9.62,11.02 c 0,0 -0.49,0.46 -0.51,0.62 -0.02,0.16 0.54,0.41 0.89,0.32 A 7.58,7.58 0 0 1 9.62,11.02 Z" style="fill:#f2f2f2"/><metadata id="metadata11653"/></svg>