<svg xmlns="http://www.w3.org/2000/svg" xmlns:svg="http://www.w3.org/2000/svg" id="e628f514-cf24-48e8-9bd9-b0847bc224d0" width="16.7" height="18.002" version="1.1" viewBox="0 0 16.7 18.002"><defs id="defs11789"><linearGradient id="b01f2302-385e-4b49-a7e9-dac023c15293" x1="9" x2="9" y1="11.84" gradientUnits="userSpaceOnUse"><stop id="stop11761" offset="0" stop-color="#0078d4"/><stop id="stop11763" offset=".16" stop-color="#1380da"/><stop id="stop11765" offset=".53" stop-color="#3c91e5"/><stop id="stop11767" offset=".82" stop-color="#559cec"/><stop id="stop11769" offset="1" stop-color="#5ea0ef"/></linearGradient><linearGradient id="f7246c3f-62d1-41c6-a3d3-d69183d80ba0" x1="4.62" x2="13.47" y1="13.54" y2="13.54" gradientUnits="userSpaceOnUse"><stop id="stop11772" offset="0" stop-color="#32bedd"/><stop id="stop11774" offset=".06" stop-color="#37c5e3"/><stop id="stop11776" offset=".3" stop-color="#49ddf7"/><stop id="stop11778" offset=".45" stop-color="#50e6ff"/><stop id="stop11780" offset=".55" stop-color="#50e6ff"/><stop id="stop11782" offset=".7" stop-color="#49ddf7"/><stop id="stop11784" offset=".94" stop-color="#37c5e3"/><stop id="stop11786" offset="1" stop-color="#32bedd"/></linearGradient></defs><title id="title11791">Icon-databases-133</title><path id="path11793" d="m 16.7,8.1322048 a 3.74,3.74 0 0 0 -3.25,-3.6 A 4.74,4.74 0 0 0 8.57,0.00220481 4.87,4.87 0 0 0 3.93,3.1622048 4.48,4.48 0 0 0 0,7.4722048 4.54,4.54 0 0 0 4.7,11.842205 h 8 a 1.2,1.2 0 0 0 0.2,0 3.81,3.81 0 0 0 3.8,-3.7100002 z" style="fill:url(#b01f2302-385e-4b49-a7e9-dac023c15293)"/><path id="path11795" d="m 8.4,10.492205 c -2.45,0 -4.43,-0.6300002 -4.43,-1.4100002 v 7.5100002 c 0,0.77 2,1.4 4.37,1.41 H 8.4 c 2.44,0 4.42,-0.63 4.42,-1.41 V 9.0822048 c 0,0.78 -1.98,1.4100002 -4.42,1.4100002 z" style="fill:url(#f7246c3f-62d1-41c6-a3d3-d69183d80ba0)"/><path id="path11797" d="m 12.82,9.0822048 c 0,0.78 -2,1.4100002 -4.42,1.4100002 -2.42,0 -4.43,-0.6300002 -4.43,-1.4100002 0,-0.78 2,-1.41 4.43,-1.41 2.43,0 4.42,0.63 4.42,1.41" style="fill:#e8e8e8"/><path id="path11799" d="m 11.79,9.0022048 c 0,0.49 -1.52,0.9 -3.39,0.9 -1.87,0 -3.4,-0.41 -3.4,-0.9 0,-0.49 1.52,-0.9 3.4,-0.9 1.88,0 3.39,0.4 3.39,0.9" style="fill:#50e6ff"/><path id="path11801" d="m 8.4,9.1822048 a 9.13,9.13 0 0 0 -2.69,0.34 9,9 0 0 0 2.69,0.35 9.09,9.09 0 0 0 2.69,-0.35 9.23,9.23 0 0 0 -2.69,-0.34 z" style="fill:#32bedd"/><path id="path11803" d="m 5.64,5.0022048 2.59,-2.62 a 0.3,0.3 0 0 1 0.43,0 l 2.59,2.62 a 0.13,0.13 0 0 1 -0.1,0.23 H 9.56 a 0.14,0.14 0 0 0 -0.14,0.14 v 3.21 a 0.1,0.1 0 0 1 -0.11,0.11 H 7.57 a 0.11,0.11 0 0 1 -0.11,-0.11 v -3.24 a 0.13,0.13 0 0 0 -0.11,-0.14 H 5.73 a 0.13,0.13 0 0 1 -0.09,-0.2 z" style="fill:#f2f2f2"/><metadata id="metadata11805"/></svg>