<svg xmlns="http://www.w3.org/2000/svg" xmlns:svg="http://www.w3.org/2000/svg" id="b6c98345-0c39-4f6f-b933-5283deff5690" width="17.031" height="17.006" version="1.1" viewBox="0 0 17.031 17.006"><defs id="defs11530"><linearGradient id="ea6f59fb-306a-4655-8ef5-c9678451765c" x1="1.3" x2="17.5" y1="8.6" y2="8.6" gradientTransform="translate(0.4992139,0.49920995)" gradientUnits="userSpaceOnUse"><stop id="stop11510" offset=".1" stop-color="#54aef0"/><stop id="stop11512" offset="1" stop-color="#1988d9"/></linearGradient><linearGradient id="a331b263-1cab-4091-811f-6e285c35c115" x1=".5" x2="8.11" y1="13.7" y2="13.7" gradientTransform="rotate(45,3.4518997,14.055819)" gradientUnits="userSpaceOnUse"><stop id="stop11515" offset="0" stop-color="#b3b2b3"/><stop id="stop11517" offset="1" stop-color="#979797"/></linearGradient><linearGradient id="ef7d2642-0773-456f-ac58-3a1abd750919" x1=".5" x2="5.72" y1="10.08" y2="10.08" gradientTransform="rotate(45,2.2624632,10.433139)" gradientUnits="userSpaceOnUse"><stop id="stop11520" offset="0" stop-color="#b3b2b3"/><stop id="stop11522" offset="1" stop-color="#979797"/></linearGradient><linearGradient id="a156353f-4d63-4962-9d1c-839eceb7590b" x1="5.28" x2="10.49" y1="14.89" y2="14.89" gradientTransform="rotate(45,7.0283925,15.247251)" gradientUnits="userSpaceOnUse"><stop id="stop11525" offset="0" stop-color="#b3b2b3"/><stop id="stop11527" offset="1" stop-color="#979797"/></linearGradient></defs><title id="title11532">Icon-analytics-145</title><g id="g11544" transform="translate(-0.4992139,-0.49920995)"><path id="path11534" d="m 1.47,1.47 15.06,15.06 a 0.57,0.57 0 0 0 1,-0.4 V 1.07 A 0.57,0.57 0 0 0 16.93,0.5 H 1.87 a 0.57,0.57 0 0 0 -0.4,0.97 z" style="fill:url(#ea6f59fb-306a-4655-8ef5-c9678451765c)"/><path id="f582129e-1fd7-440c-a5c4-799b0a032e7c" d="m 5.53,5.53 6.94,6.94 5,-5 V 1.07 A 0.57,0.57 0 0 0 16.93,0.5 h -6.37 z" style="fill:#50e6ff"/><rect id="b55df55b-2ac6-4f92-ba84-9d8becd854da" width="9.37" height="1.7" x="-.38" y="12.85" rx=".27" transform="rotate(-45,4.3071739,13.70591)" style="fill:url(#a331b263-1cab-4091-811f-6e285c35c115)"/><rect id="a1d88672-156d-4d85-8ddb-d3d546338b0e" width="5.99" height="1.7" x=".12" y="9.23" rx=".27" transform="rotate(-45,3.1065999,10.083204)" style="fill:url(#ef7d2642-0773-456f-ac58-3a1abd750919)"/><rect id="a50d2abb-ca8f-44bb-a92d-5a79f17e98d0" width="5.99" height="1.7" x="4.89" y="14.04" rx=".27" transform="rotate(-45,7.8765703,14.887418)" style="fill:url(#a156353f-4d63-4962-9d1c-839eceb7590b)"/><rect id="abef2dbd-e94f-4bb4-9503-d2b3cf2041a9" width="1.7" height="1.7" x="9.19" y="4.75" rx=".38" transform="rotate(-45,10.040113,5.6012489)" style="fill:#fff"/><rect id="a157044f-57ca-43a1-b77d-760bafa34854" width="1.7" height="1.7" x="11.59" y="2.35" rx=".38" transform="rotate(-45,12.435149,3.1991926)" style="fill:#fff"/><rect id="b637d7ff-a1d5-4533-b34f-12a87620ff68" width="1.7" height="1.7" x="11.59" y="7.15" rx=".38" transform="rotate(-45,12.44217,7.9962846)" style="fill:#fff"/><path id="f613147f-9647-4c5d-a52a-663abb19234f" d="m 13.91,5.33 0.66,-0.66 a 0.38,0.38 0 0 1 0.54,0 l 0.66,0.66 a 0.38,0.38 0 0 1 0,0.54 l -0.66,0.66 a 0.38,0.38 0 0 1 -0.54,0 L 13.91,5.87 a 0.38,0.38 0 0 1 0,-0.54" style="fill:#fff"/></g><metadata id="metadata11546"/></svg>