<svg xmlns="http://www.w3.org/2000/svg" xmlns:svg="http://www.w3.org/2000/svg" id="fc890127-728b-4ac0-b5da-86cdfc191e86" width="12.82" height="17" version="1.1" viewBox="0 0 12.82 17"><defs id="defs12110"><linearGradient id="a28dee20-4c71-46b5-b957-804c67da725a" x1="2.44" x2="15.27" y1="10.67" y2="10.67" gradientTransform="rotate(-0.01,-2864.719,-802.36945)" gradientUnits="userSpaceOnUse"><stop id="stop12095" offset="0" stop-color="#005ba1"/><stop id="stop12097" offset=".07" stop-color="#0060a9"/><stop id="stop12099" offset=".36" stop-color="#0071c8"/><stop id="stop12101" offset=".52" stop-color="#0078d4"/><stop id="stop12103" offset=".64" stop-color="#0074cd"/><stop id="stop12105" offset=".82" stop-color="#006abb"/><stop id="stop12107" offset="1" stop-color="#005ba1"/></linearGradient></defs><title id="title12112">Icon-databases-131</title><path id="path12114" d="M 6.41,4.64 C 2.87,4.64 0,3.64 0,2.32 v 12.36 c 0,1.27 2.82,2.3 6.32,2.32 h 0.09 c 3.54,0 6.41,-1 6.41,-2.32 V 2.32 c 0,1.28 -2.87,2.32 -6.41,2.32 z" style="fill:url(#a28dee20-4c71-46b5-b957-804c67da725a)"/><path id="path12116" d="M 12.82,2.32 C 12.82,3.6 9.95,4.64 6.41,4.64 2.87,4.64 0,3.64 0,2.32 0,1 2.87,0 6.41,0 c 3.54,0 6.41,1 6.41,2.32" style="fill:#e8e8e8"/><path id="path12118" d="m 11.32,2.13 c 0,0.82 -2.2,1.48 -4.91,1.48 -2.71,0 -4.92,-0.66 -4.92,-1.47 0,-0.81 2.2,-1.48 4.92,-1.48 2.72,0 4.91,0.66 4.91,1.47" style="fill:#50e6ff"/><path id="path12120" d="M 6.41,2.5 A 11.65,11.65 0 0 0 2.51,3.07 11.53,11.53 0 0 0 6.41,3.61 11.47,11.47 0 0 0 10.3,3.03 11.93,11.93 0 0 0 6.41,2.5 Z" style="fill:#198ab3"/><path id="path12122" d="m 9.41,8.5 c 0,0.08 0,0.24 0,0.42 A 5.12,5.12 0 0 0 9.33,9.55 c 0,0.12 0,0.3 0.05,0.46 0.05,0.16 0,0.27 0,0.36 a 1.68,1.68 0 0 1 -0.25,0.86 0.43,0.43 0 0 0 0,0.07 l 0.1,0.12 a 10.55,10.55 0 0 0 1.06,-2.38 v 0 C 10.57,8.09 10.6,7.41 10.38,7.12 A 2.58,2.58 0 0 0 7.7,6.26 3.29,3.29 0 0 1 8.61,6.93 2.28,2.28 0 0 1 9.41,8.5 Z M 9.1,8.58 A 1.15,1.15 0 0 0 8.31,8.67 c -0.29,0.18 -0.2,0.55 0,1 a 7.77,7.77 0 0 0 0.35,0.85 l 0.09,0.16 v 0 c 0.05,0.08 0.08,0.15 0.11,0.2 l 0.08,0.13 a 1.28,1.28 0 0 0 0.18,-0.65 2.86,2.86 0 0 0 0,-0.33 c 0,-0.17 0,-0.36 -0.05,-0.49 A 6.1,6.1 0 0 1 9.15,8.85 C 9.12,8.74 9.13,8.63 9.14,8.55 Z M 8.8,8.99 a 0.4,0.4 0 0 1 -0.18,0.1 v 0 A 0.33,0.33 0 0 1 8.48,9.09 0.23,0.23 0 0 1 8.41,8.9 v 0 c 0,-0.07 0.11,-0.13 0.24,-0.15 h 0.19 c 0,0 0.09,0 0.09,0.08 A 0.2,0.2 0 0 1 8.84,8.96 Z M 4.11,9.88 c 0,-0.07 0,-0.13 0,-0.17 a 1,1 0 0 0 0,-0.17 5.55,5.55 0 0 1 0,-1 5.22,5.22 0 0 1 0.3,-1.1 A 2.41,2.41 0 0 1 4.99,6.5 4.78,4.78 0 0 0 3.64,6.3 1.87,1.87 0 0 0 2.54,6.6 2,2 0 0 0 1.91,8.42 a 12.27,12.27 0 0 0 0.5,2.24 c 0.34,1.14 0.73,1.84 1.07,1.95 v 0 c 0.15,0.05 0.31,0 0.47,-0.21 0.28,-0.34 0.54,-0.63 0.69,-0.8 A 1.88,1.88 0 0 1 4.15,9.85 Z m 0.26,0.4 a 2.18,2.18 0 0 0 0.06,0.56 1.5,1.5 0 0 0 0.26,0.44 1.07,1.07 0 0 0 0.35,0.25 1.09,1.09 0 0 0 0.39,0.08 c 0,-0.17 0.14,-0.38 0.23,-0.6 a 4.35,4.35 0 0 0 0.21,-0.59 6.61,6.61 0 0 0 0,-1.11 c 0,-0.09 0,-0.19 -0.06,-0.3 A 0.45,0.45 0 0 0 5.69,8.74 v 0 A 0.66,0.66 0 0 0 5.41,8.58 H 5.21 A 1.56,1.56 0 0 0 4.73,8.72 2,2 0 0 0 4.41,8.91 v 0.11 c 0,0.2 0,0.41 0,0.61 v 0 a 0.86,0.86 0 0 1 0,0.15 v 0.39 0 z M 5.03,8.94 v 0 a 0.46,0.46 0 0 1 0.28,0 A 0.6,0.6 0 0 1 5.5,9 c 0.09,0 0.1,0.11 0.09,0.14 v 0 A 0.37,0.37 0 0 1 5.47,9.27 0.3,0.3 0 0 1 5.41,9.23 v 0 A 0.34,0.34 0 0 1 5.13,8.95 Z m 0.74,3 A 0.23,0.23 0 0 0 5.64,12 L 5.5,12.17 c -0.17,0.21 -0.24,0.28 -0.73,0.38 a 0.52,0.52 0 0 0 -0.26,0.1 0.58,0.58 0 0 0 0.24,0.11 1.18,1.18 0 0 0 0.72,0 1.7,1.7 0 0 0 0.39,-0.26 0.61,0.61 0 0 0 0.2,-0.31 0.36,0.36 0 0 0 -0.1,-0.28 0.15,0.15 0 0 0 -0.15,-0.02 z m 4.61,0 a 1.63,1.63 0 0 1 -1.13,0 0.22,0.22 0 0 0 -0.14,0 0.3,0.3 0 0 0 -0.17,0.14 1.09,1.09 0 0 0 0,0.31 1.8,1.8 0 0 0 1.1,-0.1 1.36,1.36 0 0 0 0.48,-0.34 z M 7.98,9.8 C 7.84,9.39 7.64,8.8 8.16,8.44 A 1.35,1.35 0 0 1 9.05,8.29 3.18,3.18 0 0 0 8.41,7.14 L 8.31,7.04 8.25,6.98 v 0 A 0.34,0.34 0 0 0 8.19,6.92 v 0 0 A 2.34,2.34 0 0 0 7.52,6.5 2.63,2.63 0 0 0 6.41,6.28 1.52,1.52 0 0 0 5.71,6.39 1.77,1.77 0 0 0 5.41,6.5 a 2.1,2.1 0 0 0 -0.74,1 5.84,5.84 0 0 0 -0.21,1 1.66,1.66 0 0 1 1,-0.23 0.84,0.84 0 0 1 0.77,0.91 7.26,7.26 0 0 1 0,1.27 A 3.87,3.87 0 0 1 6,11.08 c -0.06,0.17 -0.14,0.35 -0.18,0.49 a 0.5,0.5 0 0 1 0.38,0.14 0.66,0.66 0 0 1 0.19,0.53 h 0.02 c 0,0.08 0,0.16 0,0.24 a 6.55,6.55 0 0 0 0.24,2.44 0.54,0.54 0 0 0 0.24,0.21 0.6,0.6 0 0 0 0.31,0.1 1.3,1.3 0 0 0 1,-0.34 1.05,1.05 0 0 0 0.29,-0.66 c 0.07,-0.45 0.22,-1.7 0.24,-2 v 0 A 0.72,0.72 0 0 1 8.82,11.79 0.63,0.63 0 0 1 9.09,11.55 5.36,5.36 0 0 1 8.02,9.74 Z" style="fill:#f2f2f2"/><metadata id="metadata12124"/></svg>