<svg xmlns="http://www.w3.org/2000/svg" xmlns:svg="http://www.w3.org/2000/svg" id="e05c9575-4c38-4bcd-90eb-276caf26e3d0" width="12.82" height="17" version="1.1" viewBox="0 0 12.82 17"><defs id="defs11941"><linearGradient id="e291aba6-8038-4db1-a04d-c7be74f5a3e6" x1="2.59" x2="15.41" y1="10.16" y2="10.16" gradientUnits="userSpaceOnUse"><stop id="stop11926" offset="0" stop-color="#005ba1"/><stop id="stop11928" offset=".07" stop-color="#0060a9"/><stop id="stop11930" offset=".36" stop-color="#0071c8"/><stop id="stop11932" offset=".52" stop-color="#0078d4"/><stop id="stop11934" offset=".64" stop-color="#0074cd"/><stop id="stop11936" offset=".82" stop-color="#006abb"/><stop id="stop11938" offset="1" stop-color="#005ba1"/></linearGradient></defs><title id="title11943">Icon-databases-122</title><path id="path11945" d="M 6.41,4.64 C 2.87,4.64 0,3.64 0,2.32 v 12.36 c 0,1.27 2.82,2.3 6.32,2.32 h 0.09 c 3.54,0 6.41,-1 6.41,-2.32 V 2.32 c 0,1.29 -2.87,2.32 -6.41,2.32 z" style="fill:url(#e291aba6-8038-4db1-a04d-c7be74f5a3e6)"/><path id="path11947" d="M 12.82,2.32 C 12.82,3.61 9.95,4.64 6.41,4.64 2.87,4.64 0,3.64 0,2.32 0,1 2.87,0 6.41,0 c 3.54,0 6.41,1 6.41,2.32" style="fill:#e8e8e8"/><path id="path11949" d="m 11.33,2.13 c 0,0.82 -2.21,1.48 -4.92,1.48 -2.71,0 -4.92,-0.66 -4.92,-1.48 0,-0.82 2.21,-1.47 4.92,-1.47 2.71,0 4.92,0.66 4.92,1.47" style="fill:#50e6ff"/><path id="path11951" d="M 6.41,2.5 A 11.55,11.55 0 0 0 2.52,3.07 11.42,11.42 0 0 0 6.41,3.61 11.15,11.15 0 0 0 10.3,3.03 11.84,11.84 0 0 0 6.41,2.5 Z" style="fill:#198ab3"/><path id="path11953" d="m 10.05,8.5 v 1.63 h -1 A 0.39,0.39 0 0 1 8.76,9.99 V 8.5 H 7.41 v 1.78 a 0.92,0.92 0 0 0 1,0.89 H 9.9 l 0.26,-0.13 c 0,0 -0.11,0.41 -0.26,0.43 H 7.52 v 1 h 2.66 A 1.21,1.21 0 0 0 11.41,11.2 V 8.5 Z" style="fill:#f2f2f2"/><path id="path11955" d="m 6.94,8.5 c 0,0 0,0 0,0 V 8.01 A 0.7,0.7 0 0 0 6.46,7.24 1.74,1.74 0 0 0 5.96,7.16 0.94,0.94 0 0 0 5.05,7.74 l -0.78,1.9 -1,-1.9 A 0.93,0.93 0 0 0 2.41,7.16 1.44,1.44 0 0 0 1.9,7.25 C 1.55,7.36 1.47,7.59 1.47,7.98 v 3.31 H 2.64 V 9.06 l 0.63,1.57 a 1.08,1.08 0 0 0 1,0.66 c 0.44,0 0.62,-0.26 0.8,-0.66 L 5.74,9.12 v 2.15 h 1.18 v -2.77 0 z" style="fill:#f2f2f2"/><metadata id="metadata11957"/></svg>