<svg xmlns="http://www.w3.org/2000/svg" xmlns:svg="http://www.w3.org/2000/svg" id="a4c0a6df-707e-4ae7-9b86-742e4f9651e0" width="17" height="13.86" version="1.1" viewBox="0 0 17 13.86"><defs id="defs13093"><linearGradient id="ac420e47-f190-46df-ab14-7e1f8fa3a93d" x1="9.5" x2="17.5" y1="7.37" y2="7.37" gradientUnits="userSpaceOnUse"><stop id="stop13060" offset="0" stop-color="#005ba1"/><stop id="stop13062" offset=".07" stop-color="#0060a9"/><stop id="stop13064" offset=".36" stop-color="#0071c8"/><stop id="stop13066" offset=".52" stop-color="#0078d4"/><stop id="stop13068" offset="1" stop-color="#005ba1"/></linearGradient><linearGradient id="a51ffd84-af0a-457a-abee-1f70656da56f" x1=".5" x2="8.5" y1="7.37" y2="7.37" gradientUnits="userSpaceOnUse"><stop id="stop13071" offset="0" stop-color="#005ba1"/><stop id="stop13073" offset=".07" stop-color="#0060a9"/><stop id="stop13075" offset=".36" stop-color="#0071c8"/><stop id="stop13077" offset=".52" stop-color="#0078d4"/><stop id="stop13079" offset="1" stop-color="#005ba1"/></linearGradient><linearGradient id="bbb4b87e-b1f0-4042-b6d6-9b91b5dac799" x1="5" x2="13" y1="11.9" y2="11.9" gradientTransform="translate(0.5,2.07)" gradientUnits="userSpaceOnUse"><stop id="stop13082" offset="0" stop-color="#005ba1"/><stop id="stop13084" offset=".07" stop-color="#0060a9"/><stop id="stop13086" offset=".36" stop-color="#0071c8"/><stop id="stop13088" offset=".52" stop-color="#0078d4"/><stop id="stop13090" offset="1" stop-color="#005ba1"/></linearGradient></defs><title id="title13095">Icon-databases-137</title><path id="path13097" d="M 13,2.55 C 10.79,2.55 9,1.98 9,1.27 v 6.79 c 0,0.69 1.76,1.26 3.95,1.27 H 13 c 2.21,0 4,-0.57 4,-1.27 V 1.27 c 0,0.71 -1.79,1.28 -4,1.28 z" style="fill:url(#ac420e47-f190-46df-ab14-7e1f8fa3a93d)"/><path id="path13099" d="M 17,1.27 C 17,1.98 15.21,2.55 13,2.55 10.79,2.55 9,1.98 9,1.27 9,0.56 10.79,0 13,0 c 2.21,0 4,0.57 4,1.27" style="fill:#e8e8e8"/><path id="path13101" d="m 16.07,1.17 c 0,0.45 -1.38,0.81 -3.07,0.81 -1.69,0 -3.07,-0.36 -3.07,-0.81 0,-0.45 1.38,-0.81 3.07,-0.81 1.69,0 3.07,0.36 3.07,0.81" style="fill:#50e6ff"/><path id="path13103" d="M 13,1.36 A 8.65,8.65 0 0 0 10.57,1.66 7.8,7.8 0 0 0 13,1.98 7.8,7.8 0 0 0 15.43,1.66 8.65,8.65 0 0 0 13,1.36 Z" style="fill:#32bedd"/><path id="path13105" d="M 4,2.55 C 1.79,2.55 0,1.98 0,1.27 v 6.79 c 0,0.69 1.76,1.26 4,1.27 v 0 c 2.21,0 4,-0.57 4,-1.27 V 1.27 C 8,1.98 6.21,2.55 4,2.55 Z" style="fill:url(#a51ffd84-af0a-457a-abee-1f70656da56f)"/><path id="path13107" d="M 8,1.27 C 8,1.98 6.21,2.55 4,2.55 1.79,2.55 0,1.98 0,1.27 0,0.56 1.79,0 4,0 6.21,0 8,0.57 8,1.27" style="fill:#e8e8e8"/><path id="path13109" d="M 7.07,1.17 C 7.07,1.62 5.69,1.98 4,1.98 2.31,1.98 0.93,1.62 0.93,1.17 0.93,0.72 2.31,0.36 4,0.36 c 1.69,0 3.07,0.36 3.07,0.81" style="fill:#50e6ff"/><path id="path13111" d="M 4,1.36 A 8.65,8.65 0 0 0 1.57,1.66 7.8,7.8 0 0 0 4,1.98 7.8,7.8 0 0 0 6.43,1.66 8.65,8.65 0 0 0 4,1.36 Z" style="fill:#32bedd"/><g id="g13121" transform="translate(-0.5,-2.07)"><path id="path13113" d="M 9,9.15 C 6.79,9.15 5,8.58 5,7.87 v 6.79 c 0,0.7 1.76,1.26 3.95,1.27 H 9 c 2.21,0 4,-0.57 4,-1.27 V 7.87 c 0,0.71 -1.79,1.28 -4,1.28 z" style="fill:url(#bbb4b87e-b1f0-4042-b6d6-9b91b5dac799)"/><path id="path13115" d="M 13,7.87 C 13,8.58 11.21,9.15 9,9.15 6.79,9.15 5,8.58 5,7.87 5,7.16 6.79,6.6 9,6.6 c 2.21,0 4,0.57 4,1.27" style="fill:#e8e8e8"/><path id="path13117" d="M 12.07,7.77 C 12.07,8.22 10.69,8.58 9,8.58 7.31,8.58 5.93,8.22 5.93,7.77 5.93,7.32 7.31,7 9,7 c 1.69,0 3.07,0.36 3.07,0.81" style="fill:#50e6ff"/><path id="path13119" d="M 9,8 A 8.65,8.65 0 0 0 6.57,8.3 7.8,7.8 0 0 0 9,8.58 7.8,7.8 0 0 0 11.43,8.26 8.65,8.65 0 0 0 9,8 Z" style="fill:#32bedd"/></g><metadata id="metadata13123"/></svg>