<svg xmlns="http://www.w3.org/2000/svg" xmlns:svg="http://www.w3.org/2000/svg" id="f9ed9690-6753-43a7-8b32-d66ac7b8a99a" width="17" height="17" version="1.1" viewBox="0 0 17 17"><defs id="defs13407"><linearGradient id="f710a364-083f-494c-9d96-89b92ee2d5a8" x1=".5" x2="9" y1="9.77" y2="9.77" gradientTransform="translate(0.49990908,0.5)" gradientUnits="userSpaceOnUse"><stop id="stop13392" offset="0" stop-color="#005ba1"/><stop id="stop13394" offset=".07" stop-color="#0060a9"/><stop id="stop13396" offset=".36" stop-color="#0071c8"/><stop id="stop13398" offset=".52" stop-color="#0078d4"/><stop id="stop13400" offset=".64" stop-color="#0074cd"/><stop id="stop13402" offset=".81" stop-color="#006abb"/><stop id="stop13404" offset=".99" stop-color="#005ba1"/></linearGradient></defs><title id="title13409">Icon-databases-126</title><g id="g13427" transform="translate(-0.49990908,-0.5)"><path id="path13411" d="M 13.25,10.48 V 6.57 a 0.14,0.14 0 0 0 -0.24,-0.1 l -4,4 -4.16,4.16 V 17.5 H 16.93 A 0.56,0.56 0 0 0 17.5,16.93 V 6.57 a 0.14,0.14 0 0 0 -0.24,-0.1 z" style="fill:#005ba1"/><path id="path13413" d="M 4.75,3.58 C 2.4,3.58 0.5,2.89 0.5,2 v 5.67 0 9.26 A 0.56,0.56 0 0 0 1.07,17.5 H 9 V 2 C 9,2.89 7.1,3.58 4.75,3.58 Z" style="fill:url(#f710a364-083f-494c-9d96-89b92ee2d5a8)"/><rect id="rect13415" width="2.27" height="2.27" x="12.91" y="12.97" rx=".28" style="fill:#fff"/><rect id="rect13417" width="2.27" height="2.27" x="8.97" y="12.97" rx=".28" style="fill:#fff"/><rect id="rect13419" width="2.27" height="2.27" x="5.03" y="12.97" rx=".28" style="fill:#fff"/><path id="path13421" d="M 9,2 C 9,2.85 7.1,3.54 4.75,3.54 2.4,3.54 0.5,2.89 0.5,2 0.5,1.11 2.4,0.5 4.75,0.5 7.1,0.5 9,1.19 9,2" style="fill:#eaeaea"/><path id="path13423" d="m 8,1.91 c 0,0.55 -1.46,1 -3.26,1 -1.8,0 -3.26,-0.43 -3.26,-1 C 1.48,1.34 3,0.94 4.75,0.94 6.5,0.94 8,1.37 8,1.91" style="fill:#50e6ff"/><path id="path13425" d="M 4.75,2.14 A 8.07,8.07 0 0 0 2.17,2.51 7.64,7.64 0 0 0 4.75,2.89 7.64,7.64 0 0 0 7.33,2.51 8.07,8.07 0 0 0 4.75,2.14 Z" style="fill:#198ab3"/></g><metadata id="metadata13429"/></svg>