<svg xmlns="http://www.w3.org/2000/svg" xmlns:svg="http://www.w3.org/2000/svg" id="fab23b23-e919-4dd4-b247-de15da1c5ef9" width="17" height="16.783" data-name="azure-fluent-icons" version="1.1" viewBox="0 0 17 16.783"><defs id="defs14174"><linearGradient id="a30745b0-ad63-49cb-b0a6-bfff2ae873e7" x1="5.41" x2="5.41" y1="17.33" y2="4.61" gradientTransform="translate(0.49963624,0.60999988)" gradientUnits="userSpaceOnUse"><stop id="stop14156" offset="0" stop-color="#949494"/><stop id="stop14158" offset=".53" stop-color="#a2a2a2"/><stop id="stop14160" offset="1" stop-color="#b3b3b3"/></linearGradient><linearGradient id="a9d4c02a-89a8-4dd3-9cb4-7cc2e8933fb4" x1="10.04" x2="10.04" y1="-1347.39" y2="-1336.82" gradientTransform="matrix(1,0,0,-1,0.49963624,-1329.39)" gradientUnits="userSpaceOnUse"><stop id="stop14163" offset="0" stop-color="#0078d4"/><stop id="stop14165" offset=".16" stop-color="#1380da"/><stop id="stop14167" offset=".53" stop-color="#3c91e5"/><stop id="stop14169" offset=".82" stop-color="#559cec"/><stop id="stop14171" offset="1" stop-color="#5ea0ef"/></linearGradient></defs><title id="title14176">Icon-databases-138</title><g id="g14192" transform="translate(-0.49963624,-0.60999988)"><path id="path14178" d="m 14.32,12.76 a 0.59,0.59 0 0 1 -0.57,0.57 H 5.07 A 0.57,0.57 0 0 1 4.5,12.76 V 1.18 A 0.55,0.55 0 0 1 5.05,0.61 h 8.7 a 0.57,0.57 0 0 1 0.57,0.57 z" style="fill:#777"/><path id="path14180" d="m 12.32,14.76 a 0.59,0.59 0 0 1 -0.57,0.57 H 3.07 A 0.57,0.57 0 0 1 2.5,14.76 V 3.18 A 0.55,0.55 0 0 1 3.05,2.61 h 8.7 a 0.57,0.57 0 0 1 0.57,0.57 z" style="fill:#999"/><path id="path14182" d="M 10.32,16.76 A 0.59,0.59 0 0 1 9.75,17.33 H 1.07 A 0.58,0.58 0 0 1 0.5,16.76 V 5.18 A 0.55,0.55 0 0 1 1.05,4.61 h 8.7 a 0.57,0.57 0 0 1 0.57,0.57 z" style="fill:url(#a30745b0-ad63-49cb-b0a6-bfff2ae873e7)"/><path id="path14184" d="M 1.94,7.31 A 1.06,1.06 0 0 1 3,6.24 h 4.9 a 1.07,1.07 0 0 1 1.1,1 v 0 0 A 1.08,1.08 0 0 1 7.92,8.37 H 3 A 1.08,1.08 0 0 1 1.94,7.31 Z" style="fill:#003067"/><circle id="circle14186" cx="3.06" cy="7.31" r=".72" style="fill:#50e6ff"/><path id="path14188" d="m 17.5,14.08 a 3.35,3.35 0 0 0 -2.91,-3.22 4.21,4.21 0 0 0 -4.35,-4 4.31,4.31 0 0 0 -4.14,2.78 4,4 0 0 0 -3.52,3.85 4.06,4.06 0 0 0 4.2,3.9 h 7.39 a 3.38,3.38 0 0 0 3.33,-3.31 z" style="fill:url(#a9d4c02a-89a8-4dd3-9cb4-7cc2e8933fb4)"/><path id="path14190" d="m 13.61,14.45 v -3.36 h -0.93 v 4.12 h 2.45 V 14.45 Z M 6.51,12.8 A 2.67,2.67 0 0 1 6,12.49 0.47,0.47 0 0 1 5.88,12.17 a 0.32,0.32 0 0 1 0.15,-0.3 0.63,0.63 0 0 1 0.42,-0.12 1.68,1.68 0 0 1 1,0.29 v -0.86 a 2.82,2.82 0 0 0 -1,-0.15 1.7,1.7 0 0 0 -1.09,0.33 1.08,1.08 0 0 0 -0.41,0.89 1.35,1.35 0 0 0 0.94,1.2 2.51,2.51 0 0 1 0.61,0.36 0.42,0.42 0 0 1 0.15,0.32 A 0.33,0.33 0 0 1 6.5,14.43 0.78,0.78 0 0 1 6.05,14.55 1.61,1.61 0 0 1 5,14.13 v 0.92 A 2.28,2.28 0 0 0 6,15.28 1.93,1.93 0 0 0 7.15,15 1.06,1.06 0 0 0 7.58,14.09 1,1 0 0 0 7.33,13.39 2.26,2.26 0 0 0 6.51,12.8 Z m 5.16,1.58 A 2.33,2.33 0 0 0 12,13.12 2.27,2.27 0 0 0 11.75,12 1.7,1.7 0 0 0 11.06,11.26 1.88,1.88 0 0 0 10,11 2.1,2.1 0 0 0 9,11.29 1.87,1.87 0 0 0 8.27,12.06 2.49,2.49 0 0 0 8,13.2 a 2.28,2.28 0 0 0 0.24,1.05 1.86,1.86 0 0 0 0.68,0.74 2.07,2.07 0 0 0 1,0.29 l 0.85,1 H 12 l -1.19,-1.1 a 1.82,1.82 0 0 0 0.86,-0.8 z m -0.93,-0.25 a 0.93,0.93 0 0 1 -0.76,0.35 0.92,0.92 0 0 1 -0.75,-0.36 1.5,1.5 0 0 1 -0.28,-1 1.43,1.43 0 0 1 0.29,-1 0.93,0.93 0 0 1 0.77,-0.37 0.87,0.87 0 0 1 0.74,0.37 1.48,1.48 0 0 1 0.28,1 1.47,1.47 0 0 1 -0.29,1.01 z" style="fill:#f2f2f2"/></g><metadata id="metadata14194"/></svg>