<svg xmlns="http://www.w3.org/2000/svg" xmlns:svg="http://www.w3.org/2000/svg" id="a0bfe492-1579-433c-8ece-4b967fa03537" width="17.03" height="16.002" version="1.1" viewBox="0 0 17.03 16.002"><defs id="defs14568"><linearGradient id="a277b8e4-bda7-42ff-a227-3f8bf005decb" x1=".5" x2="12.43" y1="9.96" y2="9.96" gradientUnits="userSpaceOnUse"><stop id="stop14538" offset="0" stop-color="#005ba1"/><stop id="stop14540" offset=".07" stop-color="#0060a9"/><stop id="stop14542" offset=".36" stop-color="#0071c8"/><stop id="stop14544" offset=".52" stop-color="#0078d4"/><stop id="stop14546" offset=".64" stop-color="#0074cd"/><stop id="stop14548" offset=".82" stop-color="#006abb"/><stop id="stop14550" offset="1" stop-color="#005ba1"/></linearGradient><linearGradient id="ab2c3ec1-3cb9-4ca3-b673-1a1d1ffb5675" x1="11.77" x2="11.77" y1="17.03" y2="8.9" gradientUnits="userSpaceOnUse"><stop id="stop14553" offset="0" stop-color="#198ab3"/><stop id="stop14555" offset="0" stop-color="#198ab3"/><stop id="stop14557" offset=".11" stop-color="#22a5cb"/><stop id="stop14559" offset=".23" stop-color="#29bade"/><stop id="stop14561" offset=".37" stop-color="#2ec9eb"/><stop id="stop14563" offset=".53" stop-color="#31d1f3"/><stop id="stop14565" offset=".78" stop-color="#32d4f5"/></linearGradient></defs><title id="title14570">Icon-databases-135</title><path id="path14572" d="m 6.04,4.3 c -3.3,0 -6,-1 -6,-2.16 v 11.49 c 0,1.18 2.63,2.15 5.88,2.16 h 0.09 c 3.29,0 6,-1 6,-2.16 V 2.14 C 12,3.33 9.33,4.3 6.04,4.3 Z" style="fill:url(#a277b8e4-bda7-42ff-a227-3f8bf005decb)"/><path id="path14574" d="M 12,2.14 C 12,3.33 9.33,4.3 6,4.3 2.67,4.3 0,3.3 0,2.14 0,0.98 2.74,0 6.04,0 c 3.3,0 6,1 6,2.17" style="fill:#eaeaea"/><path id="path14576" d="M 10.57,2 C 10.57,2.76 8.57,3.37 6,3.37 3.43,3.37 1.46,2.72 1.46,2 1.46,1.28 3.51,0.59 6.04,0.59 8.57,0.59 10.57,1.2 10.57,2" style="fill:#50e6ff"/><path id="path14578" d="M 6.04,2.28 A 11,11 0 0 0 2.41,2.8 10.89,10.89 0 0 0 6.04,3.33 10.86,10.86 0 0 0 9.66,2.8 11,11 0 0 0 6.04,2.28 Z" style="fill:#198ab3"/><path id="path14580" d="M 16.32,11.74 A 2.89,2.89 0 0 0 14.83,11 3.24,3.24 0 0 0 11.49,7.9 3.35,3.35 0 0 0 8.29,10.07 3.06,3.06 0 0 0 5.57,13 3.12,3.12 0 0 0 8.79,16 h 0.29 5.23 0.13 a 2.61,2.61 0 0 0 2.59,-2.51 2.46,2.46 0 0 0 -0.75,-1.74" style="fill:url(#ab2c3ec1-3cb9-4ca3-b673-1a1d1ffb5675)"/><path id="path14582" d="m 13.87,14.8 h -0.94 v -2.53 q 0,-0.4 0,-0.9 v 0 c 0,0.25 -0.1,0.44 -0.13,0.56 l -1,2.87 h -0.78 l -1,-2.85 A 4.61,4.61 0 0 1 9.89,11.37 v 0 c 0,0.41 0,0.78 0,1.09 V 14.8 H 9.05 v -4.23 h 1.4 l 0.86,2.51 a 3.29,3.29 0 0 1 0.15,0.6 v 0 c 0.05,-0.23 0.11,-0.44 0.16,-0.61 l 0.87,-2.5 h 1.38 z" style="fill:#fff"/><metadata id="metadata14584"/></svg>