<svg xmlns="http://www.w3.org/2000/svg" xmlns:svg="http://www.w3.org/2000/svg" id="bfe7cacd-ee25-481f-8f5e-25c9c27c3227" width="17.994" height="17.994" version="1.1" viewBox="0 0 17.994 17.994"><defs id="defs15415"><linearGradient id="a3e5dfd8-a5f0-49b4-8cf9-1d0f89138e2c" x1="-3071.86" x2="-3071.86" y1="6711.69" y2="6747.69" gradientTransform="matrix(0.35,0.35,0.35,-0.35,-1293.3215,3478.3065)" gradientUnits="userSpaceOnUse"><stop id="stop15406" offset="0" stop-color="#005ba1"/><stop id="stop15408" offset=".1" stop-color="#0060a9"/><stop id="stop15410" offset=".52" stop-color="#0071c8"/><stop id="stop15412" offset=".75" stop-color="#0078d4"/></linearGradient></defs><title id="title15417">Icon-databases-134</title><rect id="rect15419" width="13.08" height="13.08" x="-6.54" y="6.183" rx=".61" transform="rotate(-45)" style="fill:url(#a3e5dfd8-a5f0-49b4-8cf9-1d0f89138e2c)"/><path id="path15421" d="m 8.9989192,3.4068413 c -0.95,0 -1.71,-0.24 -1.71,-0.55 v 2.91 c 0,0.29 0.75,0.54 1.68,0.54 h 0.03 c 0.94,0 1.7099998,-0.24 1.7099998,-0.54 v -2.91 c 0.01,0.31 -0.7099998,0.55 -1.7099998,0.55 z" style="fill:#50e6ff"/><path id="path15423" d="m 10.718919,2.8568413 c 0,0.31 -0.7699998,0.55 -1.7099998,0.55 -0.94,0 -1.71,-0.24 -1.71,-0.55 0,-0.31 0.76,-0.54 1.7,-0.54 0.94,0 1.7099998,0.24 1.7099998,0.54" style="fill:#eaeaea"/><path id="path15425" d="m 10.318919,2.8168413 c 0,0.19 -0.5899998,0.35 -1.3099998,0.35 -0.72,0 -1.31,-0.17 -1.31,-0.35 0,-0.18 0.58,-0.35 1.3,-0.35 0.72,0 1.3099998,0.16 1.3099998,0.35" style="fill:#50e6ff"/><path id="path15427" d="m 8.9989192,2.8968413 a 3.57,3.57 0 0 0 -1,0.1 3.52,3.52 0 0 0 1,0.14 3.52,3.52 0 0 0 1,-0.14 3.62,3.62 0 0 0 -1,-0.1 z" style="fill:#32bedd"/><path id="path15429" d="m 8.9989192,12.816841 c -0.95,0 -1.71,-0.24 -1.71,-0.55 v 2.91 c 0,0.29 0.75,0.54 1.68,0.54 h 0.03 c 0.94,0 1.7099998,-0.24 1.7099998,-0.54 v -2.91 c 0.01,0.31 -0.7099998,0.55 -1.7099998,0.55 z" style="fill:#50e6ff"/><path id="path15431" d="m 10.718919,12.266841 c 0,0.31 -0.7699998,0.55 -1.7099998,0.55 -0.94,0 -1.71,-0.24 -1.71,-0.55 0,-0.31 0.76,-0.54 1.71,-0.54 0.95,0 1.7099998,0.24 1.7099998,0.54" style="fill:#eaeaea"/><path id="path15433" d="m 10.318919,12.226841 c 0,0.19 -0.5899998,0.35 -1.3099998,0.35 -0.72,0 -1.31,-0.16 -1.31,-0.35 0,-0.19 0.58,-0.35 1.31,-0.35 0.73,0 1.3099998,0.16 1.3099998,0.35" style="fill:#50e6ff"/><path id="path15435" d="m 8.9989192,12.306841 a 3.57,3.57 0 0 0 -1,0.13 3.52,3.52 0 0 0 1,0.14 3.52,3.52 0 0 0 1,-0.14 3.62,3.62 0 0 0 -1,-0.13 z" style="fill:#32bedd"/><path id="path15437" d="m 13.218919,8.0868413 c -1,0 -1.71,-0.24 -1.71,-0.54 v 2.8999997 c 0,0.3 0.75,0.54 1.69,0.55 v 0 c 0.94,0 1.71,-0.25 1.71,-0.55 V 7.5468413 c 0.02,0.3 -0.75,0.54 -1.69,0.54 z" style="fill:#50e6ff"/><path id="path15439" d="m 14.928919,7.5468413 c 0,0.3 -0.77,0.54 -1.71,0.54 -0.94,0 -1.71,-0.24 -1.71,-0.54 0,-0.3 0.76,-0.55 1.71,-0.55 0.95,0 1.71,0.25 1.71,0.55" style="fill:#eaeaea"/><path id="path15441" d="m 14.528919,7.4968413 c 0,0.2 -0.59,0.35 -1.31,0.35 -0.72,0 -1.31,-0.15 -1.31,-0.35 0,-0.2 0.58,-0.34 1.31,-0.34 0.73,0 1.31,0.15 1.31,0.34" style="fill:#50e6ff"/><path id="path15443" d="m 13.218919,7.5768413 a 3.52,3.52 0 0 0 -1,0.14 3.57,3.57 0 0 0 1,0.13 3.57,3.57 0 0 0 1,-0.13 3.57,3.57 0 0 0 -1,-0.14 z" style="fill:#32bedd"/><path id="path15445" d="m 4.9189192,8.0868413 c -0.95,0 -1.71,-0.24 -1.71,-0.54 v 2.8999997 c 0,0.3 0.75,0.54 1.68,0.55 v 0 c 0.94,0 1.71,-0.25 1.71,-0.55 V 7.5468413 c 0.03,0.3 -0.74,0.54 -1.68,0.54 z" style="fill:#50e6ff"/><path id="path15447" d="m 6.6289192,7.5468413 c 0,0.3 -0.77,0.54 -1.71,0.54 -0.94,0 -1.71,-0.24 -1.71,-0.54 0,-0.3 0.79,-0.55 1.71,-0.55 0.92,0 1.71,0.25 1.71,0.55" style="fill:#eaeaea"/><path id="path15449" d="m 6.2289192,7.4968413 c 0,0.2 -0.59,0.35 -1.31,0.35 -0.72,0 -1.31,-0.15 -1.31,-0.35 0,-0.2 0.58,-0.34 1.31,-0.34 0.73,0 1.31,0.15 1.31,0.34" style="fill:#50e6ff"/><path id="path15451" d="m 4.9189192,7.5768413 a 3.52,3.52 0 0 0 -1,0.14 3.57,3.57 0 0 0 1,0.13 3.57,3.57 0 0 0 1,-0.13 3.57,3.57 0 0 0 -1,-0.14 z" style="fill:#32bedd"/><metadata id="metadata15453"/></svg>