<svg xmlns="http://www.w3.org/2000/svg" xmlns:svg="http://www.w3.org/2000/svg" id="b1cfe86c-f00b-4507-bce2-50d07e45fe96" width="17.1" height="17.04" version="1.1" viewBox="0 0 17.1 17.04"><defs id="defs15769"><linearGradient id="b39dcf83-187e-4c64-98df-431bb60809d2" x1=".5" x2="13.18" y1="10.04" y2="10.04" gradientUnits="userSpaceOnUse"><stop id="stop15754" offset="0" stop-color="#005ba1"/><stop id="stop15756" offset=".07" stop-color="#0060a9"/><stop id="stop15758" offset=".36" stop-color="#0071c8"/><stop id="stop15760" offset=".52" stop-color="#0078d4"/><stop id="stop15762" offset=".64" stop-color="#0074cd"/><stop id="stop15764" offset=".82" stop-color="#006abb"/><stop id="stop15766" offset="1" stop-color="#005ba1"/></linearGradient></defs><title id="title15771">Icon-databases-132</title><path id="path15773" d="M 6.34,4.6 C 2.84,4.6 0,3.6 0,2.3 v 12.21 c 0,1.26 2.79,2.28 6.25,2.3 h 0.09 c 3.5,0 6.34,-1 6.34,-2.3 V 2.3 c 0,1.27 -2.84,2.3 -6.34,2.3 z" style="fill:url(#b39dcf83-187e-4c64-98df-431bb60809d2)"/><path id="path15775" d="M 12.68,2.3 C 12.68,3.57 9.84,4.6 6.34,4.6 2.84,4.6 0,3.57 0,2.3 0,1.03 2.84,0 6.34,0 c 3.5,0 6.34,1 6.34,2.3" style="fill:#e8e8e8"/><path id="path15777" d="M 11.2,2.11 C 11.2,2.92 9.02,3.57 6.34,3.57 3.66,3.57 1.5,2.92 1.5,2.11 1.5,1.3 3.66,0.65 6.34,0.65 c 2.68,0 4.86,0.66 4.86,1.46" style="fill:#50e6ff"/><path id="path15779" d="M 6.34,2.45 A 12,12 0 0 0 2.5,3 11.25,11.25 0 0 0 6.35,3.57 11.25,11.25 0 0 0 10.2,3 12,12 0 0 0 6.34,2.45 Z" style="fill:#198ab3"/><path id="path15781" d="M 10.24,10.61 V 7.23 H 9.31 v 4.14 h 2.46 V 10.61 Z M 3.09,8.94 A 1.92,1.92 0 0 1 2.58,8.63 0.44,0.44 0 0 1 2.5,8.31 0.38,0.38 0 0 1 2.66,8 0.72,0.72 0 0 1 3.08,7.89 a 1.67,1.67 0 0 1 1,0.29 V 7.32 a 2.67,2.67 0 0 0 -1,-0.16 1.74,1.74 0 0 0 -1.2,0.35 1.13,1.13 0 0 0 -0.41,0.9 c 0,0.51 0.32,0.91 1,1.21 A 2.9,2.9 0 0 1 3.08,9.98 0.4,0.4 0 0 1 3.24,10.3 0.38,0.38 0 0 1 3.08,10.61 0.75,0.75 0 0 1 2.63,10.73 1.6,1.6 0 0 1 1.5,10.28 v 0.93 A 2.29,2.29 0 0 0 2.57,11.44 2,2 0 0 0 3.75,11.12 1.1,1.1 0 0 0 4.18,10.2 1,1 0 0 0 3.93,9.5 2.42,2.42 0 0 0 3.09,8.94 Z m 5.2,1.57 A 2.4,2.4 0 0 0 8.62,9.24 2.32,2.32 0 0 0 8.37,8.14 1.81,1.81 0 0 0 7.67,7.39 2,2 0 0 0 6.67,7.13 2.18,2.18 0 0 0 5.58,7.4 1.87,1.87 0 0 0 4.85,8.17 2.41,2.41 0 0 0 4.59,9.32 a 2.26,2.26 0 0 0 0.24,1.05 1.83,1.83 0 0 0 0.68,0.75 2,2 0 0 0 1,0.29 l 0.85,1 H 8.55 L 7.35,11.3 A 1.81,1.81 0 0 0 8.29,10.51 Z M 7.36,10.25 a 1,1 0 0 1 -1.53,0 1.51,1.51 0 0 1 -0.28,-1 1.48,1.48 0 0 1 0.29,-1 0.92,0.92 0 0 1 0.78,-0.37 0.89,0.89 0 0 1 0.75,0.37 1.62,1.62 0 0 1 0.27,1 1.46,1.46 0 0 1 -0.28,1.03 z" style="fill:#f2f2f2"/><path id="path15783" d="m 14.31,17 0.24,-0.79 0.47,-0.27 0.81,0.36 0.52,-0.53 V 15.71 L 15.98,15 16.2,14.5 17.01,14.21 H 17.1 V 13.48 H 17 l -0.8,-0.24 -0.26,-0.46 0.35,-0.82 -0.53,-0.51 H 15.7 l -0.71,0.36 -0.49,-0.3 -0.32,-0.89 h -0.74 v 0.11 l -0.24,0.79 -0.51,0.22 -0.87,-0.4 -0.51,0.53 0.05,0.1 0.38,0.74 -0.2,0.51 -0.94,0.29 v 0.74 h 0.11 l 0.79,0.24 0.22,0.51 -0.39,0.86 0.53,0.52 0.09,-0.05 0.74,-0.38 0.51,0.2 0.34,0.89 h 0.73 z m -1.2,-2.36 a 1.0642486,1.0642486 0 1 1 1.49,-1.52 1.0642486,1.0642486 0 0 1 -1.49,1.52 z" style="fill:#949494"/><metadata id="metadata15785"/></svg>