<svg xmlns="http://www.w3.org/2000/svg" xmlns:svg="http://www.w3.org/2000/svg" id="a5c93a83-9fd9-4ccb-ba77-53d6c609a7d3" width="17" height="16.783" version="1.1" viewBox="0 0 17 16.783"><defs id="defs15624"><linearGradient id="acf2da4b-8aca-4b58-b995-ca6956cf663e" x1="5.41" x2="5.41" y1="17.33" y2=".61" gradientUnits="userSpaceOnUse"><stop id="stop15606" offset="0" stop-color="#949494"/><stop id="stop15608" offset=".53" stop-color="#a2a2a2"/><stop id="stop15610" offset="1" stop-color="#b3b3b3"/></linearGradient><linearGradient id="b152b416-25c2-4a4a-9d7f-a0bb2a13f84a" x1="10.04" x2="10.04" y1="17.39" y2="6.82" gradientUnits="userSpaceOnUse"><stop id="stop15613" offset="0" stop-color="#0078d4"/><stop id="stop15615" offset=".16" stop-color="#1380da"/><stop id="stop15617" offset=".53" stop-color="#3c91e5"/><stop id="stop15619" offset=".82" stop-color="#559cec"/><stop id="stop15621" offset="1" stop-color="#5ea0ef"/></linearGradient></defs><title id="title15626">Icon-databases-136</title><path id="path15628" d="m 9.8200909,16.150091 a 0.58,0.58 0 0 1 -0.57,0.57 H 0.57009092 a 0.57,0.57 0 0 1 -0.569999995878,-0.57 V 0.57009092 A 0.56,0.56 0 0 1 0.57009092,9.0924122e-5 H 9.2500909 a 0.57,0.57 0 0 1 0.57,0.569999995878 z" style="fill:url(#acf2da4b-8aca-4b58-b995-ca6956cf663e)"/><path id="path15630" d="m 1.4400909,5.8600909 a 1.07,1.07 0 0 1 1.06,-1.06 h 4.9 a 1.07,1.07 0 0 1 1.1,1.06 v 0 a 1.07,1.07 0 0 1 -1.1,1.07 h -4.9 a 1.07,1.07 0 0 1 -1.06,-1.07 z" style="fill:#003067"/><path id="path15632" d="m 1.4400909,2.7000909 a 1.07,1.07 0 0 1 1.06,-1.07 h 4.9 a 1.07,1.07 0 0 1 1.1,1.07 v 0 a 1.07,1.07 0 0 1 -1.1,1.06 h -4.9 a 1.07,1.07 0 0 1 -1.06,-1.06 z" style="fill:#003067"/><circle id="circle15634" cx="2.56" cy="2.7" r=".72" style="fill:#50e6ff"/><circle id="circle15636" cx="2.56" cy="5.86" r=".72" style="fill:#50e6ff"/><path id="path15638" d="m 17.000091,13.470091 a 3.36,3.36 0 0 0 -2.91,-3.22 4.22,4.22 0 0 0 -4.3500001,-4.0000001 4.32,4.32 0 0 0 -4.14,2.78 4,4 0 0 0 -3.52,3.8500001 4.06,4.06 0 0 0 4.2,3.9 h 0.37 6.8500001 0.17 a 3.39,3.39 0 0 0 3.33,-3.31 z" style="fill:url(#b152b416-25c2-4a4a-9d7f-a0bb2a13f84a)"/><path id="path15640" d="m 13.110091,13.840091 v -3.36 h -0.93 v 4.12 h 2.45 v -0.76 z m -7.1000001,-1.65 a 2.23,2.23 0 0 1 -0.51,-0.31 0.44,0.44 0 0 1 -0.12,-0.32 0.34,0.34 0 0 1 0.15,-0.3 0.66,0.66 0 0 1 0.42,-0.12 1.66,1.66 0 0 1 1,0.29 v -0.86 a 2.89,2.89 0 0 0 -1,-0.15 1.69,1.69 0 0 0 -1.09,0.33 1.1,1.1 0 0 0 -0.41,0.89 1.34,1.34 0 0 0 0.94,1.2 2.51,2.51 0 0 1 0.61,0.36 0.42,0.42 0 0 1 0.15,0.32 0.34,0.34 0 0 1 -0.15,0.3 0.75,0.75 0 0 1 -0.45,0.12 1.63,1.63 0 0 1 -1.08,-0.42 v 0.92 a 2.25,2.25 0 0 0 1.03,0.23 1.91,1.91 0 0 0 1.15,-0.28 1.07,1.07 0 0 0 0.43,-0.91 1,1 0 0 0 -0.25,-0.7 2.36,2.36 0 0 0 -0.82,-0.59 z m 5.1600001,1.58 a 2.37,2.37 0 0 0 0.33,-1.26 2.28,2.28 0 0 0 -0.25,-1.12 1.77,1.77 0 0 0 -0.69,-0.74 1.94,1.94 0 0 0 -1.0600001,-0.26 2.21,2.21 0 0 0 -1,0.29 1.87,1.87 0 0 0 -0.73,0.77 2.52,2.52 0 0 0 -0.27,1.14 2.26,2.26 0 0 0 0.24,1.05 1.87,1.87 0 0 0 0.68,0.74 2,2 0 0 0 1,0.29 l 0.8500001,1 h 1.2 l -1.19,-1.1 a 1.82,1.82 0 0 0 0.89,-0.8 z m -0.93,-0.25 a 0.92,0.92 0 0 1 -0.7600001,0.35 0.91,0.91 0 0 1 -0.75,-0.36 1.5,1.5 0 0 1 -0.28,-1 1.46,1.46 0 0 1 0.29,-1 0.92,0.92 0 0 1 0.77,-0.37 0.86,0.86 0 0 1 0.7400001,0.37 1.54,1.54 0 0 1 0.28,1 1.47,1.47 0 0 1 -0.29,1.01 z" style="fill:#f2f2f2"/><metadata id="metadata15642"/></svg>