<svg xmlns="http://www.w3.org/2000/svg" xmlns:svg="http://www.w3.org/2000/svg" id="a876d441-6985-4b03-ac91-0cfb754233ca" width="17" height="16.383" version="1.1" viewBox="0 0 17 16.383"><defs id="defs15881"><linearGradient id="ac8ec029-dede-4106-852c-6daca45a4fea" x1="5.35" x2="5.35" y1="7.02" y2="17.19" gradientTransform="translate(0.5,0.80869121)" gradientUnits="userSpaceOnUse"><stop id="stop15861" offset="0" stop-color="#b3b2b3"/><stop id="stop15863" offset=".38" stop-color="#afaeaf"/><stop id="stop15865" offset=".76" stop-color="#a2a2a2"/><stop id="stop15867" offset="1" stop-color="#979797"/></linearGradient><linearGradient id="b524cf9e-cab2-4314-a18d-cd0ba7515d77" x1="11.33" x2="11.33" y1="15.74" y2="6.99" gradientTransform="translate(0.5,0.80869121)" gradientUnits="userSpaceOnUse"><stop id="stop15870" offset="0" stop-color="#0078d4"/><stop id="stop15872" offset=".16" stop-color="#1380da"/><stop id="stop15874" offset=".53" stop-color="#3c91e5"/><stop id="stop15876" offset=".82" stop-color="#559cec"/><stop id="stop15878" offset="1" stop-color="#5ea0ef"/></linearGradient></defs><title id="title15883">Icon-databases-127</title><g id="g15917" transform="translate(-0.5,-0.80869121)"><path id="path15885" d="M 7.77,10.68 A 0.39,0.39 0 0 1 7.35,11.02 H 0.92 A 0.39,0.39 0 0 1 0.5,10.68 V 1.2 A 0.39,0.39 0 0 1 0.92,0.86 H 7.35 A 0.39,0.39 0 0 1 7.77,1.2 Z" style="fill:#949494"/><path id="path15887" d="M 1.57,5.2 A 0.79,0.79 0 0 1 2.36,4.41 H 6 A 0.79,0.79 0 0 1 6.79,5.2 v 0 A 0.79,0.79 0 0 1 6,6 H 2.36 A 0.79,0.79 0 0 1 1.57,5.21 Z" style="fill:#003067"/><path id="path15889" d="M 1.57,2.86 A 0.79,0.79 0 0 1 2.36,2.06 H 6 a 0.79,0.79 0 0 1 0.79,0.8 v 0 A 0.79,0.79 0 0 1 6,3.65 H 2.36 A 0.79,0.79 0 0 1 1.57,2.86 Z" style="fill:#003067"/><circle id="circle15891" cx="2.39" cy="2.86" r=".53" style="fill:#50e6ff"/><circle id="circle15893" cx="2.39" cy="5.2" r=".53" style="fill:#50e6ff"/><path id="path15895" d="m 15.79,10.63 a 0.39,0.39 0 0 1 -0.42,0.35 H 8.94 A 0.39,0.39 0 0 1 8.52,10.63 V 1.16 A 0.39,0.39 0 0 1 8.94,0.81 h 6.43 a 0.39,0.39 0 0 1 0.42,0.35 z" style="fill:#949494"/><path id="path15897" d="M 9.59,5.16 A 0.79,0.79 0 0 1 10.38,4.37 H 14 a 0.79,0.79 0 0 1 0.79,0.79 v 0 A 0.79,0.79 0 0 1 14,6 H 10.38 A 0.79,0.79 0 0 1 9.59,5.21 Z" style="fill:#003067"/><path id="path15899" d="M 9.59,2.81 A 0.79,0.79 0 0 1 10.38,2 H 14 a 0.8,0.8 0 0 1 0.79,0.79 v 0 A 0.79,0.79 0 0 1 14,3.6 H 10.38 A 0.79,0.79 0 0 1 9.59,2.81 Z" style="fill:#003067"/><circle id="circle15901" cx="10.41" cy="2.81" r=".53" style="fill:#50e6ff"/><circle id="circle15903" cx="10.41" cy="5.16" r=".53" style="fill:#50e6ff"/><path id="path15905" d="M 9,16.84 A 0.39,0.39 0 0 1 8.58,17.19 H 2.14 A 0.39,0.39 0 0 1 1.72,16.84 V 7.37 A 0.39,0.39 0 0 1 2.14,7 H 8.57 A 0.39,0.39 0 0 1 9,7.37 Z" style="fill:url(#ac8ec029-dede-4106-852c-6daca45a4fea)"/><path id="path15907" d="M 2.79,11.37 A 0.79,0.79 0 0 1 3.58,10.58 H 7.2 a 0.79,0.79 0 0 1 0.79,0.79 H 8 A 0.8,0.8 0 0 1 7.21,12.16 H 3.58 A 0.79,0.79 0 0 1 2.79,11.37 Z" style="fill:#003067"/><path id="path15909" d="M 2.79,9 A 0.79,0.79 0 0 1 3.58,8.21 H 7.2 A 0.79,0.79 0 0 1 8,9 V 9 A 0.8,0.8 0 0 1 7.21,9.79 H 3.58 A 0.79,0.79 0 0 1 2.79,9 Z" style="fill:#003067"/><circle id="circle15911" cx="3.61" cy="9.02" r=".53" style="fill:#50e6ff"/><circle id="circle15913" cx="3.61" cy="11.37" r=".53" style="fill:#50e6ff"/><path id="path15915" d="M 17.5,13 A 2.77,2.77 0 0 0 15.09,10.34 3.49,3.49 0 0 0 11.5,7 3.58,3.58 0 0 0 8.07,9.33 3.31,3.31 0 0 0 5.16,12.51 3.37,3.37 0 0 0 8.64,15.74 h 5.93 a 0.4,0.4 0 0 0 0.15,0 A 2.8,2.8 0 0 0 17.5,13 Z" style="fill:url(#b524cf9e-cab2-4314-a18d-cd0ba7515d77)"/></g><metadata id="metadata15919"/></svg>