<svg xmlns="http://www.w3.org/2000/svg" xmlns:svg="http://www.w3.org/2000/svg" id="svg54154" width="15.2" height="17.002" version="1.1" viewBox="0 0 15.2 17.002"><defs id="defs54125"><linearGradient id="a790cec7-07c9-4638-b5c5-ab9fbd5ca908" x1="6.41" x2="6.41" y1="1.78" y2="14.13" gradientTransform="translate(1.4,0.49809517)" gradientUnits="userSpaceOnUse"><stop id="stop54101" offset="0" stop-color="#b3b2b3"/><stop id="stop54103" offset=".38" stop-color="#afaeaf"/><stop id="stop54105" offset=".76" stop-color="#a2a2a2"/><stop id="stop54107" offset="1" stop-color="#979797"/></linearGradient><linearGradient id="b9e6ae88-e13e-4cbb-9678-9c3623cbd024" x1="7.85" x2="16.6" y1="13.09" y2="13.09" gradientTransform="translate(1.4,0.49809517)" gradientUnits="userSpaceOnUse"><stop id="stop54110" offset="0" stop-color="#005ba1"/><stop id="stop54112" offset=".07" stop-color="#0060a9"/><stop id="stop54114" offset=".36" stop-color="#0071c8"/><stop id="stop54116" offset=".52" stop-color="#0078d4"/><stop id="stop54118" offset=".64" stop-color="#0074cd"/><stop id="stop54120" offset=".82" stop-color="#006abb"/><stop id="stop54122" offset="1" stop-color="#005ba1"/></linearGradient></defs><title id="title54127">Icon-integration-216</title><g id="g54150" transform="translate(-1.4,-0.49809517)"><g id="e324a405-82e2-4fb6-93ca-106df2178669"><g id="g54147"><path id="path54129" d="m 1.42,1.79 1,-1.13 A 0.48,0.48 0 0 1 2.75,0.5 h 9.31 a 0.66,0.66 0 0 1 0.71,0.67 v 11.62 a 0.48,0.48 0 0 1 -0.16,0.35 l -1,0.95 z" style="fill:#999"/><path id="path54131" d="m 1.42,1.79 1,-1.13 A 0.48,0.48 0 0 1 2.75,0.5 h 9.31 a 0.66,0.66 0 0 1 0.71,0.67 v 11.62 a 0.48,0.48 0 0 1 -0.16,0.35 l -1,0.95 z" style="opacity:.5;fill:#999"/><path id="path54133" d="M 2.2,1.79 2.79,1.11 A 0.44,0.44 0 0 1 3.11,1 h 8.69 a 0.42,0.42 0 0 1 0.42,0.42 v 11.01 a 0.44,0.44 0 0 1 -0.13,0.31 l -0.93,0.85" style="fill:#fff"/><path id="path54135" d="M 11.1,1.78 H 1.45 a 0.025,0 0 0 0 -0.05,0 v 12 a 0.31,0.31 0 0 0 0.31,0.31 h 9.39 a 0.31,0.31 0 0 0 0.31,-0.31 V 2.09 A 0.31,0.31 0 0 0 11.1,1.78 Z" style="fill:url(#a790cec7-07c9-4638-b5c5-ab9fbd5ca908)"/><g id="g54145"><path id="path54137" d="M 12.22,10.08 C 9.81,10.08 7.85,9.46 7.85,8.69 v 7.42 c 0,0.76 1.92,1.38 4.31,1.39 h 0.06 c 2.42,0 4.38,-0.62 4.38,-1.39 V 8.69 c 0,0.77 -1.96,1.39 -4.38,1.39 z" style="fill:url(#b9e6ae88-e13e-4cbb-9678-9c3623cbd024)"/><path id="path54139" d="m 16.6,8.69 c 0,0.77 -2,1.39 -4.38,1.39 -2.38,0 -4.37,-0.62 -4.37,-1.39 0,-0.77 2,-1.4 4.37,-1.4 2.37,0 4.38,0.63 4.38,1.4" style="fill:#e8e8e8"/><path id="path54141" d="m 15.58,8.58 c 0,0.49 -1.51,0.88 -3.36,0.88 -1.85,0 -3.35,-0.39 -3.35,-0.88 0,-0.49 1.5,-0.89 3.35,-0.89 1.85,0 3.36,0.4 3.36,0.89" style="fill:#50e6ff"/><path id="path54143" d="M 12.22,8.78 A 8.89,8.89 0 0 0 9.57,9.12 8.79,8.79 0 0 0 12.22,9.46 8.86,8.86 0 0 0 14.88,9.12 9,9 0 0 0 12.22,8.78 Z" style="fill:#198ab3"/></g></g></g></g><metadata id="metadata54152"/></svg>