<svg xmlns="http://www.w3.org/2000/svg" xmlns:svg="http://www.w3.org/2000/svg" id="svg54504" width="17.002" height="15.14" version="1.1" viewBox="0 0 17.002 15.14"><defs id="defs54454"><linearGradient id="a20547e5-d6af-456b-afbc-05d22ff8cb9d" x1="4589.72" x2="4589.72" y1="-5180.02" y2="-5184.21" gradientTransform="matrix(0.5,0,0,-0.5,-2274.8116,-2587.89)" gradientUnits="userSpaceOnUse"><stop id="stop54448" offset="0" stop-color="#c69aeb"/><stop id="stop54450" offset="1" stop-color="#6f4bb2"/></linearGradient><linearGradient id="a4745f51-5e75-4126-812d-6bb8a5130e16" x1="9645.829" x2="9645.829" y1="-10884.767" y2="-10893.544" gradientTransform="translate(0.49844367,1.43)" gradientUnits="userSpaceOnUse" href="#a20547e5-d6af-456b-afbc-05d22ff8cb9d"/></defs><title id="title54456">Icon-integration-221</title><g id="g54500" transform="translate(-0.49844367,-1.43)"><g id="b30b0bd5-e4d2-456b-8d49-c2df20200912"><path id="b51878b5-8d50-4b8b-bc48-74f5f7315a99" d="M 12.7,8.15 V 7.55 H 8.18 L 6.06,9.66 H 4.5 L 8.12,6 h 2.47 V 5.43 H 7.87 L 3.65,9.66 h -0.6 v 0.6 H 4.86 L 7,12.37 h 5.1 v -0.6 H 7.22 L 5.71,10.26 H 9.38 V 9.66 H 6.92 l 1.5,-1.51 z" style="fill:#32bedd"/><circle id="ad0ed4eb-cd5f-4cc0-bd19-2830d27ec806" cx="9.98" cy="9.96" r=".87" style="fill:#fff"/><circle id="a2746b4a-0ae4-4308-876e-5b82657e1872" cx="10.89" cy="5.74" r=".87" style="fill:#fff"/><circle id="fc3316e0-7094-4ce0-99ed-43f1e6e4350c" cx="13" cy="7.85" r=".87" style="fill:#fff"/><circle id="b5d18443-d50e-4590-8e8f-80b6a7f6d348" cx="12.1" cy="12.07" r=".87" style="fill:#fff"/><circle id="circle54463" cx="10.86" cy="5.74" r="1.05" style="fill:#50e6ff"/><circle id="circle54465" cx="12.97" cy="7.85" r="1.05" style="fill:url(#a20547e5-d6af-456b-afbc-05d22ff8cb9d)"/><circle id="circle54467" cx="12.1" cy="12.07" r="1.05" style="fill:url(#a4745f51-5e75-4126-812d-6bb8a5130e16)"/><circle id="circle54469" cx="9.98" cy="9.96" r="1.05" style="fill:#50e6ff"/><g id="g54475"><path id="path54471" d="M 1.07,1.43 H 2.36 V 5 A 0.29,0.29 0 0 1 2.07,5.29 H 0.79 A 0.29,0.29 0 0 1 0.5,5 V 2 A 0.57,0.57 0 0 1 1.07,1.43 Z" style="fill:#999"/><path id="path54473" d="M 1.07,1.43 H 2.36 V 5 A 0.29,0.29 0 0 1 2.07,5.29 H 0.79 A 0.29,0.29 0 0 1 0.5,5 V 2 A 0.57,0.57 0 0 1 1.07,1.43 Z" style="opacity:.5;fill:#999"/></g><g id="g54481"><path id="path54477" d="m 15.64,1.43 h 1.29 A 0.57,0.57 0 0 1 17.5,2 V 5 A 0.29,0.29 0 0 1 17.21,5.29 H 15.92 A 0.29,0.29 0 0 1 15.64,5 Z" style="fill:#999"/><path id="path54479" d="m 15.64,1.43 h 1.29 A 0.57,0.57 0 0 1 17.5,2 V 5 A 0.29,0.29 0 0 1 17.21,5.29 H 15.92 A 0.29,0.29 0 0 1 15.64,5 Z" style="opacity:.5;fill:#999"/></g><path id="path54483" d="m 8.66,-6.16 h 1.25 v 17 H 8.66 A 0.57,0.57 0 0 1 8.09,10.27 V -5.6 a 0.57,0.57 0 0 1 0.57,-0.56 z" transform="rotate(90,9,2.34)" style="fill:#949494"/><g id="g54489"><path id="path54485" d="m 0.79,12.68 h 1.29 a 0.29,0.29 0 0 1 0.29,0.29 v 3.6 H 1.07 A 0.57,0.57 0 0 1 0.5,16 v -3 a 0.29,0.29 0 0 1 0.29,-0.32 z" style="fill:#999"/><path id="path54487" d="m 0.79,12.68 h 1.29 a 0.29,0.29 0 0 1 0.29,0.29 v 3.6 H 1.07 A 0.57,0.57 0 0 1 0.5,16 v -3 a 0.29,0.29 0 0 1 0.29,-0.32 z" style="opacity:.5;fill:#999"/></g><g id="g54495"><path id="path54491" d="m 15.92,12.68 h 1.29 a 0.29,0.29 0 0 1 0.29,0.29 v 3 a 0.57,0.57 0 0 1 -0.57,0.57 H 15.64 V 13 a 0.29,0.29 0 0 1 0.28,-0.32 z" style="fill:#999"/><path id="path54493" d="m 15.92,12.68 h 1.29 a 0.29,0.29 0 0 1 0.29,0.29 v 3 a 0.57,0.57 0 0 1 -0.57,0.57 H 15.64 V 13 a 0.29,0.29 0 0 1 0.28,-0.32 z" style="opacity:.5;fill:#999"/></g><path id="path54497" d="m 8.66,7.16 h 1.25 v 17 H 8.66 A 0.57,0.57 0 0 1 8.09,23.59 V 7.73 A 0.57,0.57 0 0 1 8.66,7.16 Z" transform="rotate(-90,9,15.66)" style="fill:#949494"/></g></g><metadata id="metadata54502"/></svg>