<svg xmlns="http://www.w3.org/2000/svg" xmlns:svg="http://www.w3.org/2000/svg" id="eee52b4a-717a-410e-b54d-5e8fdc913b96" width="16" height="16" version="1.1" viewBox="0 0 16 16"><defs id="defs54905"><linearGradient id="b6d2ab89-b9ea-48bf-8e7f-c0a0e94aaccb" x1="5.06" x2="5.06" y1="11.62" y2="14.5" gradientUnits="userSpaceOnUse"><stop id="stop54895" offset="0" stop-color="#b77af4"/><stop id="stop54897" offset="1" stop-color="#773adc"/></linearGradient><linearGradient id="aa835ab6-90f2-4950-9adc-1bef25952f94" x1="13.06" x2="13.06" y1="11.62" y2="14.5" gradientUnits="userSpaceOnUse"><stop id="stop54900" offset="0" stop-color="#b77af4"/><stop id="stop54902" offset="1" stop-color="#773adc"/></linearGradient></defs><title id="title54907">Icon-integration-218</title><path id="a2734abb-83a3-460e-90d8-64455870d970" d="M 0,0.54 V 15.46 A 0.54,0.54 0 0 0 0.54,16 H 15.46 A 0.54,0.54 0 0 0 16,15.46 V 0.54 A 0.54,0.54 0 0 0 15.46,0 H 0.54 A 0.54,0.54 0 0 0 0,0.54 Z m 14.56,14 H 1.94 A 0.54,0.54 0 0 1 1.4,14 V 1.44 h 13.16 z" style="fill:#0078d4"/><path id="ba3f6f82-9a3b-4057-ad2f-e8d6b6ae1b0d" d="M 2.56,2.56 H 5.44 V 5.44 H 2.56 Z" style="fill:#ffca00"/><path id="f46b9afd-fd39-4ca3-b68e-e5ca657f5953" d="M 2.56,6.56 H 5.44 V 9.44 H 2.56 Z" style="fill:#e62323"/><path id="e7dd79f4-ae03-42ec-8f08-c2efdcdd3517" d="M 6.56,6.56 H 9.44 V 9.44 H 6.56 Z" style="fill:#5ea0ef"/><path id="bdd26cbb-f087-4b40-a809-b68b4e92b643" d="m 2.56,10.56 h 2.88 v 2.88 H 2.56 Z" style="fill:url(#b6d2ab89-b9ea-48bf-8e7f-c0a0e94aaccb)"/><path id="b42c6875-f245-4ba4-9264-2088283c3036" d="m 6.56,10.56 h 2.88 v 2.88 H 6.56 Z" style="fill:#e62323"/><path id="a8d52762-2bc4-48b4-9685-903c7c3b7d84" d="m 10.56,10.56 h 2.88 v 2.88 h -2.88 z" style="fill:url(#aa835ab6-90f2-4950-9adc-1bef25952f94)"/><metadata id="metadata54916"/></svg>