<svg xmlns="http://www.w3.org/2000/svg" xmlns:svg="http://www.w3.org/2000/svg" id="b5b638e5-1de7-4378-8f50-7c3738e5874c" width="17" height="13.223" version="1.1" viewBox="0 0 17 13.223"><defs id="defs55119"><linearGradient id="e20ae4ca-8128-4625-bcc6-863bc1bc51d9" x1="5.05" x2="5.05" y1="10.55" y2="13.48" gradientTransform="translate(0.5,2.3866682)" gradientUnits="userSpaceOnUse"><stop id="stop55109" offset="0" stop-color="#76bc2d"/><stop id="stop55111" offset="1" stop-color="#5e9624"/></linearGradient><linearGradient id="b6fa89de-29eb-462e-97de-5bdbdaeb090e" x1="12.84" x2="12.84" y1="10.57" y2="13.5" gradientTransform="translate(0.5,2.3866682)" gradientUnits="userSpaceOnUse"><stop id="stop55114" offset="0" stop-color="#76bc2d"/><stop id="stop55116" offset="1" stop-color="#5e9624"/></linearGradient></defs><title id="title55121">Icon-integration-204</title><g id="g55135" transform="translate(-0.5,-2.3866682)"><path id="path55123" d="M 3.19,15.6 A 2.49,2.49 0 0 1 1.66,15.22 1.7,1.7 0 0 1 1.21,13.86 V 10.33 C 1.21,9.75 0.98,9.44 0.5,9.44 V 8.56 c 0.48,0 0.71,-0.31 0.71,-0.92 V 4.17 A 1.79,1.79 0 0 1 1.66,2.78 2.29,2.29 0 0 1 3.19,2.4 V 3.29 C 2.68,3.29 2.4,3.56 2.4,4.14 v 3.4 C 2.4,8.32 2.17,8.8 1.66,9 a 1.42,1.42 0 0 1 0.74,1.46 v 3.37 a 1.25,1.25 0 0 0 0.17,0.68 0.74,0.74 0 0 0 0.58,0.2 v 0.89 z" style="fill:#949494"/><path id="path55125" d="m 14.81,2.4 a 2.49,2.49 0 0 1 1.53,0.38 1.7,1.7 0 0 1 0.45,1.36 v 3.53 c 0,0.58 0.23,0.89 0.71,0.89 v 0.88 c -0.48,0 -0.71,0.31 -0.71,0.92 v 3.43 a 1.8,1.8 0 0 1 -0.45,1.4 2.28,2.28 0 0 1 -1.53,0.41 v -0.89 c 0.51,0 0.79,-0.27 0.79,-0.85 v -3.4 C 15.6,9.68 15.83,9.2 16.34,9 A 1.42,1.42 0 0 1 15.6,7.54 V 4.17 A 1.25,1.25 0 0 0 15.43,3.49 0.74,0.74 0 0 0 14.85,3.29 Z" style="fill:#949494"/><path id="path55127" d="M 9.41,8.35 V 7.08 H 8.51 V 8.35 A 0.18,0.18 0 0 1 8.33,8.53 H 5 A 0.36,0.36 0 0 0 4.64,8.89 v 1.65 h 0.9 V 9.63 A 0.18,0.18 0 0 1 5.71,9.45 h 6.54 a 0.18,0.18 0 0 1 0.18,0.18 v 0.93 h 0.89 V 8.89 A 0.36,0.36 0 0 0 12.97,8.53 H 9.59 A 0.18,0.18 0 0 1 9.41,8.35 Z" style="fill:#005ba1"/><path id="path55129" d="M 10.61,3.21 H 7.25 A 0.38,0.38 0 0 0 6.87,3.58 v 3.36 a 0.37,0.37 0 0 0 0.38,0.37 h 3.36 A 0.37,0.37 0 0 0 11,6.94 V 3.58 A 0.38,0.38 0 0 0 10.61,3.21 Z M 10.29,6.38 A 0.25,0.25 0 0 1 10.04,6.62 H 7.81 A 0.25,0.25 0 0 1 7.56,6.38 V 4.15 A 0.25,0.25 0 0 1 7.81,3.9 H 10 a 0.25,0.25 0 0 1 0.25,0.25 z" style="fill:#0078d4"/><rect id="rect55131" width="2.94" height="2.94" x="3.58" y="10.55" rx=".27" style="fill:url(#e20ae4ca-8128-4625-bcc6-863bc1bc51d9)"/><rect id="rect55133" width="2.94" height="2.94" x="11.38" y="10.57" rx=".27" style="fill:url(#b6fa89de-29eb-462e-97de-5bdbdaeb090e)"/></g><metadata id="metadata55137"/></svg>