<svg xmlns="http://www.w3.org/2000/svg" xmlns:svg="http://www.w3.org/2000/svg" id="svg55337" width="17.012" height="15.15" version="1.1" viewBox="0 0 17.012 15.15"><defs id="defs55295"><linearGradient id="bc749e5b-d92e-4108-bd03-94292d319bad" x1="6.11" x2="6.11" y1="12.5" y2="9.42" gradientTransform="translate(0.57844367,1.2699995)" gradientUnits="userSpaceOnUse"><stop id="stop55285" offset="0" stop-color="#6f4bb2"/><stop id="stop55287" offset="1" stop-color="#c69aeb"/></linearGradient><linearGradient id="a6c0d9d6-4ddb-42bb-a4e1-0936b3e0d5bd" x1="12.06" x2="12.06" y1="12.5" y2="9.42" gradientTransform="translate(0.57844367,1.2699995)" gradientUnits="userSpaceOnUse"><stop id="stop55290" offset="0" stop-color="#6f4bb2"/><stop id="stop55292" offset="1" stop-color="#c69aeb"/></linearGradient></defs><title id="title55297">Icon-integration-209</title><g id="g55333" transform="translate(-0.57844367,-1.2699995)"><g id="a648095e-7302-4e27-a235-6a21bc33cd8e"><polygon id="polygon55299" points="9.13 6.18 8.87 6.01 5.88 10.79 6.49 11.16 9.13 6.93 11.78 11.17 12.38 10.79 9.4 6.01" style="fill:#949494"/><circle id="ba379c67-2b18-4ca9-949e-135360c6791b" cx="9.08" cy="6.21" r="1.54" style="fill:#86d633"/><circle id="f9fc8275-0c73-430b-aa4d-fa59c8a3d174" cx="6.11" cy="10.96" r="1.54" style="fill:url(#bc749e5b-d92e-4108-bd03-94292d319bad)"/><circle id="bcd6bcfb-f475-487d-a26d-eedd4cead763" cx="12.06" cy="10.96" r="1.54" style="fill:url(#a6c0d9d6-4ddb-42bb-a4e1-0936b3e0d5bd)"/><g id="g55308"><path id="path55304" d="m 1.15,1.27 h 1.29 v 3.6 A 0.29,0.29 0 0 1 2.15,5.16 H 0.87 A 0.29,0.29 0 0 1 0.58,4.87 v -3 a 0.57,0.57 0 0 1 0.57,-0.6 z" style="fill:#999"/><path id="path55306" d="m 1.15,1.27 h 1.29 v 3.6 A 0.29,0.29 0 0 1 2.15,5.16 H 0.87 A 0.29,0.29 0 0 1 0.58,4.87 v -3 a 0.57,0.57 0 0 1 0.57,-0.6 z" style="opacity:.5;fill:#999"/></g><g id="g55314"><path id="path55310" d="M 15.72,1.27 H 17 a 0.57,0.57 0 0 1 0.57,0.57 v 3 A 0.29,0.29 0 0 1 17.28,5.13 H 16 A 0.29,0.29 0 0 1 15.71,4.84 V 1.27 Z" style="fill:#999"/><path id="path55312" d="M 15.72,1.27 H 17 a 0.57,0.57 0 0 1 0.57,0.57 v 3 A 0.29,0.29 0 0 1 17.28,5.13 H 16 A 0.29,0.29 0 0 1 15.71,4.84 V 1.27 Z" style="opacity:.5;fill:#999"/></g><path id="path55316" d="M 8.74,-6.32 H 10 v 17 H 8.74 A 0.57,0.57 0 0 1 8.17,10.11 V -5.75 a 0.57,0.57 0 0 1 0.57,-0.57 z" transform="rotate(90,9.08,2.18)" style="fill:#949494"/><g id="g55322"><path id="path55318" d="m 0.87,12.52 h 1.29 a 0.29,0.29 0 0 1 0.29,0.29 v 3.6 H 1.15 A 0.57,0.57 0 0 1 0.58,15.84 v -3 a 0.29,0.29 0 0 1 0.29,-0.32 z" style="fill:#999"/><path id="path55320" d="m 0.87,12.52 h 1.29 a 0.29,0.29 0 0 1 0.29,0.29 v 3.6 H 1.15 A 0.57,0.57 0 0 1 0.58,15.84 v -3 a 0.29,0.29 0 0 1 0.29,-0.32 z" style="opacity:.5;fill:#999"/></g><g id="g55328"><path id="path55324" d="m 16,12.52 h 1.3 a 0.29,0.29 0 0 1 0.29,0.29 v 3 a 0.57,0.57 0 0 1 -0.57,0.57 h -1.3 v -3.6 A 0.29,0.29 0 0 1 16,12.52 Z" style="fill:#999"/><path id="path55326" d="m 16,12.52 h 1.3 a 0.29,0.29 0 0 1 0.29,0.29 v 3 a 0.57,0.57 0 0 1 -0.57,0.57 h -1.3 v -3.6 A 0.29,0.29 0 0 1 16,12.52 Z" style="opacity:.5;fill:#999"/></g><path id="path55330" d="M 8.74,7 H 10 V 24 H 8.74 A 0.57,0.57 0 0 1 8.17,23.43 V 7.57 A 0.57,0.57 0 0 1 8.74,7 Z" transform="rotate(-90,9.085,15.505)" style="fill:#949494"/></g></g><metadata id="metadata55335"/></svg>