<svg xmlns="http://www.w3.org/2000/svg" xmlns:svg="http://www.w3.org/2000/svg" id="be35ad43-1aa6-4603-935f-1197686f7c0c" width="16.99" height="14.013" version="1.1" viewBox="0 0 16.99 14.013"><defs id="defs55448"><linearGradient id="eecac283-5787-4815-966b-5038e8694ef9" x1="9" x2="9" y1="1.99" y2="14.03" gradientUnits="userSpaceOnUse"><stop id="stop55428" offset="0" stop-color="#5ea0ef"/><stop id="stop55430" offset=".18" stop-color="#559cec"/><stop id="stop55432" offset=".47" stop-color="#3c91e5"/><stop id="stop55434" offset=".84" stop-color="#1380da"/><stop id="stop55436" offset="1" stop-color="#0078d4"/></linearGradient><linearGradient id="f10368bd-0855-4655-99c6-f816802ac965" x1="9.06" x2="9.06" y1="6.39" y2="16.01" gradientUnits="userSpaceOnUse"><stop id="stop55439" offset="0" stop-color="#b3b3b3"/><stop id="stop55441" offset=".12" stop-color="#adadad"/><stop id="stop55443" offset=".64" stop-color="#9b9b9b"/><stop id="stop55445" offset="1" stop-color="#949494"/></linearGradient></defs><path id="path55450" d="m 16.99,8.2624867 a 3.82,3.82 0 0 0 -3.32,-3.67 A 4.8,4.8 0 0 0 8.72,0.00248673 4.94,4.94 0 0 0 4,3.2024867 a 4.56,4.56 0 0 0 -4,4.39 4.62,4.62 0 0 0 4.78,4.4100003 h 8.17 a 1.2,1.2 0 0 0 0.2,0 3.87,3.87 0 0 0 3.84,-3.7400003 z" style="fill:url(#eecac283-5787-4815-966b-5038e8694ef9)"/><path id="path55452" d="m 11.37,13.532487 a 0.48,0.48 0 0 1 -0.49,0.48 H 6.21 a 0.48,0.48 0 0 1 -0.49,-0.48 V 4.8724867 a 0.48,0.48 0 0 1 0.49,-0.48 h 4.67 a 0.48,0.48 0 0 1 0.49,0.48 z" style="fill:url(#f10368bd-0855-4655-99c6-f816802ac965)"/><path id="b27878c5-7f3c-4613-bf1f-666b5e29766a" d="m 6.39,5.3924867 h 1.1 v 1.35 h -1.1 z m 1.62,0 h 1.08 v 1.35 H 8.01 Z m 1.62,0 h 1.08 v 1.35 H 9.63 Z m -3.24,2.16 h 1.1 v 1.35 h -1.1 z m 1.62,0 h 1.08 v 1.35 H 8.01 Z m 1.62,0 h 1.08 v 1.35 H 9.63 Z m -3.24,2.16 h 1.1 v 1.3500003 h -1.1 z m 1.62,0 H 9.09 V 11.062487 H 8.01 Z m 0,2.1600003 h 1.08 v 1.62 H 8.01 Z M 9.63,9.7124867 h 1.08 V 11.062487 H 9.63 Z" style="fill:#fff"/><metadata id="metadata55455"/></svg>