<svg xmlns="http://www.w3.org/2000/svg" xmlns:svg="http://www.w3.org/2000/svg" id="b2f464cb-b92f-4bc9-9d8a-b83d938321a8" width="16.68" height="17" version="1.1" viewBox="0 0 16.68 17"><defs id="defs55539"><linearGradient id="fbb0c6d7-8dd3-4464-9217-32033b9dbe40" x1="7.37" x2="7.37" y1=".5" y2="13.23" gradientTransform="translate(0.68,0.5)" gradientUnits="userSpaceOnUse"><stop id="stop55515" offset="0" stop-color="#b3b2b3"/><stop id="stop55517" offset=".38" stop-color="#afaeaf"/><stop id="stop55519" offset=".76" stop-color="#a2a2a2"/><stop id="stop55521" offset="1" stop-color="#979797"/></linearGradient><linearGradient id="f4df9409-8db7-49ba-98de-c39ce5949175" x1="8.96" x2="17.32" y1="13.29" y2="13.29" gradientTransform="translate(0.68,0.5)" gradientUnits="userSpaceOnUse"><stop id="stop55524" offset="0" stop-color="#005ba1"/><stop id="stop55526" offset=".07" stop-color="#0060a9"/><stop id="stop55528" offset=".36" stop-color="#0071c8"/><stop id="stop55530" offset=".52" stop-color="#0078d4"/><stop id="stop55532" offset=".64" stop-color="#0074cd"/><stop id="stop55534" offset=".82" stop-color="#006abb"/><stop id="stop55536" offset="1" stop-color="#005ba1"/></linearGradient></defs><title id="title55541">Icon-databases-125</title><g id="g55555" transform="translate(-0.68,-0.5)"><polygon id="polygon55543" points=".68 5.34 1.91 5.34 1.91 12.62 3.12 12.62 3.12 5.34 11.62 5.34 11.62 13.23 12.83 13.23 12.83 5.34 14.06 5.34 14.06 4.38 7.37 .5 .68 4.38" style="fill:url(#fbb0c6d7-8dd3-4464-9217-32033b9dbe40)"/><path id="path55545" d="M 4.33,12.62 H 6.76 V 10.2 H 4.33 Z m 3.64,0 H 10.4 V 10.2 H 8 Z M 4.33,9 H 6.76 V 6.55 H 4.33 Z M 8,6.55 V 9 h 2.4 V 6.55 Z" style="fill:#50e6ff"/><path id="path55547" d="M 13.14,10.41 C 10.83,10.41 9,9.81 9,9.08 v 7.09 c 0,0.73 1.84,1.32 4.12,1.33 h 0.06 c 2.31,0 4.18,-0.6 4.18,-1.33 V 9.08 c -0.04,0.73 -1.91,1.33 -4.22,1.33 z" style="fill:url(#f4df9409-8db7-49ba-98de-c39ce5949175)"/><path id="path55549" d="m 17.32,9.08 c 0,0.73 -1.87,1.33 -4.18,1.33 C 10.83,10.41 9,9.81 9,9.08 9,8.35 10.87,7.75 13.18,7.75 c 2.31,0 4.18,0.59 4.18,1.33" style="fill:#e8e8e8"/><path id="path55551" d="m 16.35,9 c 0,0.47 -1.44,0.85 -3.21,0.85 -1.77,0 -3.2,-0.41 -3.2,-0.85 0,-0.44 1.43,-0.85 3.2,-0.85 1.77,0 3.21,0.38 3.21,0.85" style="fill:#50e6ff"/><path id="path55553" d="M 13.14,9.17 A 8.59,8.59 0 0 0 10.6,9.49 8.5,8.5 0 0 0 13.14,9.82 8.5,8.5 0 0 0 15.68,9.49 8.59,8.59 0 0 0 13.14,9.17 Z" style="fill:#32bedd"/></g><metadata id="metadata55557"/></svg>