<svg xmlns="http://www.w3.org/2000/svg" xmlns:svg="http://www.w3.org/2000/svg" id="b9ca928b-2484-469e-887a-b914e6d20206" width="18.03" height="16.76" version="1.1" viewBox="0 0 18.03 16.76"><defs id="defs52732"><linearGradient id="e042fd95-47e9-47d7-a97e-6414df5d5c10" x1="13.23" x2="8.6" y1="12.83" y2="4.06" gradientTransform="translate(-0.03,0.62)" gradientUnits="userSpaceOnUse"><stop id="stop52716" offset="0" stop-color="#1988d9"/><stop id="stop52718" offset=".9" stop-color="#54aef0"/></linearGradient><linearGradient id="ebbd60b7-1e21-4536-af03-7974490dde86" x1="11.23" x2="14.44" y1="10.28" y2="15.8" gradientTransform="translate(-0.03,0.62)" gradientUnits="userSpaceOnUse"><stop id="stop52721" offset=".1" stop-color="#54aef0"/><stop id="stop52723" offset=".29" stop-color="#4fabee"/><stop id="stop52725" offset=".51" stop-color="#41a2e9"/><stop id="stop52727" offset=".74" stop-color="#2a93e0"/><stop id="stop52729" offset=".88" stop-color="#1988d9"/></linearGradient></defs><title id="title52734">Icon-identity-224</title><g id="g52754" transform="translate(0.03,-0.62)"><polygon id="polygon52736" points="16.96 9.98 17.97 11.16 8.9 17 -.03 11.16 .99 10 8.9 15.14" style="fill:#50e6ff"/><polygon id="polygon52738" points="16.37 9.35 8.9 14.07 1.58 9.34 8.9 .62" style="fill:#fff"/><polygon id="polygon52740" points="1.58 9.34 8.9 .62 8.9 14.07" style="fill:#50e6ff"/><polygon id="polygon52742" points="16.37 9.35 8.9 .62 8.9 14.07" style="fill:url(#e042fd95-47e9-47d7-a97e-6414df5d5c10)"/><polygon id="polygon52744" points="8.9 14.07 8.9 7.57 16.37 9.35" style="fill:#53b1e0"/><polygon id="polygon52746" points="8.9 7.57 8.9 14.07 1.58 9.34" style="fill:#9cebff"/><polygon id="polygon52748" points="16.96 9.98 8.9 15.14 8.9 17 17.97 11.16" style="fill:url(#ebbd60b7-1e21-4536-af03-7974490dde86)"/><path id="path52750" d="m 13.52,17.38 v 0 C 17.9,14.24 18,12.45 18,11.89 c 0,-0.8 -0.08,-2.88 -2.17,-3 A 2.27,2.27 0 0 0 13.5,10.41 2.26,2.26 0 0 0 11.2,8.85 C 9.11,9 9,11.09 9,11.89 c 0,0.56 0.13,2.35 4.47,5.46" style="fill:#f04049"/><path id="path52752" d="m 18,11.57 h -2 a 0.17,0.17 0 0 0 -0.14,0.08 l -0.63,1.07 a 0.08,0.08 0 0 1 -0.14,0 L 14.14,11 a 0.16,0.16 0 0 0 -0.3,0 L 13,13.6 a 0.08,0.08 0 0 1 -0.15,0 l -0.76,-1.75 a 0.16,0.16 0 0 0 -0.29,0 l -1,1.82 a 0.16,0.16 0 0 1 -0.15,0.09 H 9.69 a 7.13,7.13 0 0 0 0.48,0.65 H 11 a 0.17,0.17 0 0 0 0.14,-0.09 l 0.71,-1.32 1,2.19 a 0.16,0.16 0 0 0 0.3,0 l 1,-2.93 0.85,1.66 a 0.16,0.16 0 0 0 0.28,0 l 1,-1.62 a 0.17,0.17 0 0 1 0.14,-0.08 H 18" style="fill:#fff"/></g><metadata id="metadata52756"/></svg>