<svg xmlns="http://www.w3.org/2000/svg" xmlns:svg="http://www.w3.org/2000/svg" id="a76a0103-ce03-4d58-859d-4c27e02925d2" width="16.74" height="16.94" version="1.1" viewBox="0 0 16.74 16.94"><defs id="defs52816"><linearGradient id="efeb8e96-2af0-4681-9a6a-45f9b0262f19" x1="-6518.78" x2="-6518.78" y1="1118.86" y2="1090.06" gradientTransform="matrix(0.5,0,0,-0.5,3267.42,559.99)" gradientUnits="userSpaceOnUse"><stop id="stop52803" offset="0" stop-color="#5ea0ef"/><stop id="stop52805" offset=".18" stop-color="#589eed"/><stop id="stop52807" offset=".41" stop-color="#4897e9"/><stop id="stop52809" offset=".66" stop-color="#2e8ce1"/><stop id="stop52811" offset=".94" stop-color="#0a7cd7"/><stop id="stop52813" offset="1" stop-color="#0078d4"/></linearGradient></defs><title id="title52818">Icon-identity-232</title><path id="path52820" d="M 5.04,10.08 H 9.37 V 14.4 H 5.04 Z m -5,-5.76 H 4.37 V 0 H 0.6 A 0.6,0.6 0 0 0 0,0.6 Z M 0.64,14.4 H 4.37 V 10.08 H 0 v 3.72 a 0.6,0.6 0 0 0 0.6,0.6 z m -0.6,-5 H 4.37 V 5.04 H 0 Z m 10.08,5 h 3.72 a 0.6,0.6 0 0 0 0.6,-0.6 v -3.72 h -4.36 z m -5,-5 H 9.37 V 5.04 H 5.04 Z m 5,0 h 4.25 V 5.04 h -4.29 z m 0,-9.36 v 4.28 h 4.25 V 0.6 A 0.6,0.6 0 0 0 13.77,0 Z m -5,4.32 H 9.37 V 0 H 5.04 Z" style="fill:url(#efeb8e96-2af0-4681-9a6a-45f9b0262f19)"/><polygon id="polygon52822" points="13.5 17.47 13.5 12.96 17.37 10.7 17.37 15.21" transform="translate(-0.63,-0.53)" style="fill:#32bedd"/><polygon id="polygon52824" points="9.63 10.7 13.5 8.44 17.37 10.7 13.5 12.97" transform="translate(-0.63,-0.53)" style="fill:#9cebff"/><polygon id="polygon52826" points="9.63 15.21 9.63 10.7 13.5 12.97 13.5 17.47" transform="translate(-0.63,-0.53)" style="fill:#50e6ff"/><polygon id="polygon52828" points="13.5 17.47 9.63 15.21 13.5 12.96" transform="translate(-0.63,-0.53)" style="fill:#9cebff"/><polygon id="polygon52830" points="13.5 17.47 17.37 15.21 13.5 12.96" transform="translate(-0.63,-0.53)" style="fill:#50e6ff"/><metadata id="metadata52832"/></svg>