<svg xmlns="http://www.w3.org/2000/svg" xmlns:svg="http://www.w3.org/2000/svg" id="ffd65ef0-46f1-4123-aa86-6c2243292f5f" width="18" height="16.76" version="1.1" viewBox="0 0 18 16.76"><defs id="defs53033"><linearGradient id="ae0c4e08-2440-488c-bae1-6509c7a4ef07" x1="13.25" x2="8.62" y1="12.83" y2="4.06" gradientTransform="translate(0,0.62)" gradientUnits="userSpaceOnUse"><stop id="stop53028" offset="0" stop-color="#1988d9"/><stop id="stop53030" offset=".9" stop-color="#54aef0"/></linearGradient></defs><g id="g53061" transform="translate(0,-0.62)"><polygon id="polygon53035" points="16.99 9.99 18 11.16 8.93 17.01 0 11.17 1.01 10.01 8.93 15.14" style="fill:#50e6ff"/><polygon id="polygon53037" points="16.4 9.36 8.93 14.08 1.61 9.35 8.93 .62" style="fill:#fff"/><polygon id="polygon53039" points="1.61 9.35 8.93 .62 8.93 14.08" style="fill:#50e6ff"/><polygon id="polygon53041" points="16.4 9.36 8.93 .62 8.93 14.08" style="fill:url(#ae0c4e08-2440-488c-bae1-6509c7a4ef07)"/><polygon id="polygon53043" points="8.93 14.08 8.93 7.57 16.4 9.36" style="fill:#53b1e0"/><polygon id="polygon53045" points="8.93 7.57 8.93 14.08 1.61 9.35" style="fill:#9cebff"/><polygon id="polygon53047" points="16.99 9.99 8.93 15.14 8.93 17.01 18 11.16" style="fill:#5ea0ef"/><path id="path53049" d="m 17.45,16 a 0.44,0.44 0 0 0 0.44,-0.44 v 0 a 2.5,2.5 0 0 0 -2.45,-2.5 c -1.53,0 -2.32,0.95 -2.47,2.5 a 0.45,0.45 0 0 0 0.39,0.49 h 4.09 z" style="fill:#773adc"/><path id="path53051" d="m 15.44,13.38 a 1.35,1.35 0 0 1 -0.75,-0.22 l 0.74,1.93 0.73,-1.92 a 1.38,1.38 0 0 1 -0.72,0.21 z" style="opacity:.8;fill:#fff"/><circle id="circle53053" cx="15.44" cy="12" r="1.38" style="fill:#773adc"/><path id="path53055" d="m 14.68,17.38 a 0.65,0.65 0 0 0 0.66,-0.66 v -0.08 c -0.26,-2.05 -1.43,-3.73 -3.67,-3.73 -2.24,0 -3.45,1.42 -3.67,3.74 a 0.65,0.65 0 0 0 0.58,0.72 h 6.11 z" style="fill:#a67af4"/><path id="path53057" d="m 11.7,13.4 a 2,2 0 0 1 -1.11,-0.33 l 1.1,2.93 1.1,-2.87 A 2,2 0 0 1 11.7,13.4 Z" style="opacity:.8;fill:#fff"/><circle id="circle53059" cx="11.69" cy="11.34" r="2.06" style="fill:#a67af4"/></g><metadata id="metadata53063"/></svg>