<svg xmlns="http://www.w3.org/2000/svg" xmlns:svg="http://www.w3.org/2000/svg" id="ada1a734-f5a0-4f30-8c41-a30875acb17e" width="18" height="16.38" version="1.1" viewBox="0 0 18 16.38"><defs id="defs53195"><linearGradient id="f92ae47d-0835-4bac-a4f5-649f41e19a24" x1="13.25" x2="8.62" y1="13.06" y2="4.29" gradientTransform="translate(0,0.85)" gradientUnits="userSpaceOnUse"><stop id="stop53179" offset="0" stop-color="#1988d9"/><stop id="stop53181" offset=".9" stop-color="#54aef0"/></linearGradient><linearGradient id="f418fd20-54c9-41f7-a889-8b791ff60efa" x1="11.26" x2="14.46" y1="10.51" y2="16.03" gradientTransform="translate(0,0.85)" gradientUnits="userSpaceOnUse"><stop id="stop53184" offset=".1" stop-color="#54aef0"/><stop id="stop53186" offset=".29" stop-color="#4fabee"/><stop id="stop53188" offset=".51" stop-color="#41a2e9"/><stop id="stop53190" offset=".74" stop-color="#2a93e0"/><stop id="stop53192" offset=".88" stop-color="#1988d9"/></linearGradient></defs><title id="title53197">Icon-identity-222</title><polygon id="polygon53199" points="16.99 10.21 18 11.38 8.93 17.23 0 11.39 1.01 10.23 8.93 15.37" transform="translate(0,-0.85)" style="fill:#50e6ff"/><polygon id="polygon53201" points="16.4 9.58 8.93 14.3 1.61 9.57 8.93 .85" transform="translate(0,-0.85)" style="fill:#fff"/><polygon id="polygon53203" points="1.61 9.57 8.93 .85 8.93 14.3" transform="translate(0,-0.85)" style="fill:#50e6ff"/><polygon id="polygon53205" points="16.4 9.58 8.93 .85 8.93 14.3" transform="translate(0,-0.85)" style="fill:url(#f92ae47d-0835-4bac-a4f5-649f41e19a24)"/><polygon id="polygon53207" points="8.93 14.3 8.93 7.8 16.4 9.58" transform="translate(0,-0.85)" style="fill:#53b1e0"/><polygon id="polygon53209" points="8.93 7.8 8.93 14.3 1.61 9.57" transform="translate(0,-0.85)" style="fill:#9cebff"/><polygon id="polygon53211" points="16.99 10.21 8.93 15.37 8.93 17.23 18 11.38" transform="translate(0,-0.85)" style="fill:url(#f418fd20-54c9-41f7-a889-8b791ff60efa)"/><polygon id="polygon53213" points="13.53 17.12 18 15.3 13.53 9.04 9.06 15.3" transform="translate(0,-0.85)" style="fill:#773adc"/><polygon id="polygon53215" points="13.53 17.12 13.53 9.04 9.06 15.3" transform="translate(0,-0.85)" style="opacity:.5;fill:#f9f9f9"/><metadata id="metadata53217"/></svg>