<svg xmlns="http://www.w3.org/2000/svg" xmlns:svg="http://www.w3.org/2000/svg" id="a760b6f1-1e55-4349-bcad-563b81ab52cb" width="16.851" height="16.86" version="1.1" viewBox="0 0 16.851 16.86"><defs id="defs53408"><linearGradient id="b715ec20-95db-414c-982b-71456fb0c9ab" x1="-6784.85" x2="-6784.85" y1="1118.78" y2="1089.98" gradientTransform="matrix(0.5,0,0,-0.5,3400.41,559.99)" gradientUnits="userSpaceOnUse"><stop id="stop53373" offset="0" stop-color="#5ea0ef"/><stop id="stop53375" offset=".18" stop-color="#589eed"/><stop id="stop53377" offset=".41" stop-color="#4897e9"/><stop id="stop53379" offset=".66" stop-color="#2e8ce1"/><stop id="stop53381" offset=".94" stop-color="#0a7cd7"/><stop id="stop53383" offset="1" stop-color="#0078d4"/></linearGradient><linearGradient id="f7e46209-f134-49aa-a850-2e9a1b04fba6" x1="-1.47" x2="17.16" y1="14.91" y2="14.8" gradientUnits="userSpaceOnUse"><stop id="stop53386" offset="0" stop-color="#449cdd" stop-opacity=".15"/><stop id="stop53388" offset=".16" stop-color="#2870ab" stop-opacity="0"/><stop id="stop53390" offset=".18" stop-color="#2469a3" stop-opacity=".06"/><stop id="stop53392" offset=".23" stop-color="#1a5991" stop-opacity=".19"/><stop id="stop53394" offset=".28" stop-color="#144f86" stop-opacity=".27"/><stop id="stop53396" offset=".34" stop-color="#124c82" stop-opacity=".3"/><stop id="stop53398" offset=".76" stop-color="#002851" stop-opacity=".35"/><stop id="stop53400" offset=".9" stop-color="#2f7ab6" stop-opacity="0"/><stop id="stop53402" offset="1" stop-color="#449cdd" stop-opacity="0"/></linearGradient><clipPath id="b36c7b72-34c8-47c6-ac8b-a96783f174f2"><circle id="circle53405" cx="13.26" cy="13.27" r="4.16" style="fill:none"/></clipPath></defs><title id="title53410">Icon-identity-225</title><path id="path53412" d="m 5.0407505,10.08 h 4.33 v 4.35 h -4.33 z M 0.04075049,4.32 H 4.3207505 V 0 H 0.60075049 A 0.6,0.6 0 0 0 7.5049283e-4,0.6 Z m 0.56,10.11 H 4.3207505 V 10.08 H 7.5049283e-4 V 13.8 A 0.6,0.6 0 0 0 0.60075049,14.43 Z M 7.5049283e-4,9.43 H 4.3207505 V 5.04 H 7.5049283e-4 Z M 10.09075,14.43 h 3.72 a 0.6,0.6 0 0 0 0.6,-0.6 v -3.75 h -4.32 z m -4.9999995,-5 h 4.28 V 5.04 h -4.33 z m 5.0499995,0 h 4.29 V 5.04 h -4.34 z m 0,-9.36 v 4.25 h 4.29 V 0.6 a 0.6,0.6 0 0 0 -0.6,-0.6 z M 5.1407505,4.39 h 4.23 V 0 h -4.33 z" style="fill:url(#b715ec20-95db-414c-982b-71456fb0c9ab)"/><path id="path53414" d="m 10.09075,14.43 h 4.15 a 0.59,0.59 0 0 1 -0.18,-0.29 h -4 z" style="opacity:.95;fill:url(#f7e46209-f134-49aa-a850-2e9a1b04fba6)"/><circle id="circle53416" cx="12.691" cy="12.7" r="4.16" style="fill:#32bedd"/><g id="g53426" clip-path="url(#b36c7b72-34c8-47c6-ac8b-a96783f174f2)" transform="translate(-0.56924951,-0.57)"><path id="path53418" d="m 17.06,13.87 c -0.21,0.11 -0.51,0.05 -0.65,0.16 a 1.6,1.6 0 0 0 -0.63,0.66 c 0,0.06 0,0.15 -0.07,0.18 -0.28,0.19 -0.56,0.39 -0.3,0.81 -0.3,0 -0.2,-0.27 -0.34,-0.35 a 0.77,0.77 0 0 0 -1.06,0.54 0.34,0.34 0 0 0 0.16,0.37 0.26,0.26 0 0 0 0.36,-0.12 0.18,0.18 0 0 1 0.26,-0.06 c 0,0.16 -0.28,0.45 0.18,0.46 0.12,0 0.09,0.14 0.06,0.23 -0.03,0.09 0.06,0.24 0.19,0.3 0.13,0.06 0,0 0,0.05 0,0.05 0,0 0,0 -0.37,0 -0.45,-0.45 -0.81,-0.5 A 4.28,4.28 0 0 1 13.98,16.46 C 13.71,16.37 13.4,16.32 13.34,15.92 A 0.77,0.77 0 0 0 12.98,15.43 C 12.86,15.35 12.79,15.2 12.67,15.11 a 1,1 0 0 0 -0.22,-0.36 0.94,0.94 0 0 1 -0.14,-0.87 2.32,2.32 0 0 0 -0.1,-1.68 c -0.1,-0.32 -0.12,-0.65 -0.48,-0.86 -0.36,-0.21 -0.3,0.12 -0.44,0.05 -0.14,-0.07 -0.22,0.13 -0.26,0.15 -0.29,0.08 -0.54,0.33 -0.91,0.29 0.14,-0.07 0.25,-0.11 0.35,-0.17 0.1,-0.06 0.29,-0.14 0.07,-0.38 -0.22,-0.24 -0.14,-0.59 0.45,-0.83 -0.05,-0.14 -0.41,-0.11 -0.25,-0.37 0.16,-0.26 0.28,-0.13 0.43,0 0.1,-0.19 -0.12,-0.43 0.05,-0.54 a 2.86,2.86 0 0 1 0.72,-0.29 0.25,0.25 0 0 1 0.34,0.11 c 0.18,0.28 0.54,0.33 0.72,0.61 0.05,0.09 0.15,0 0.22,0 0.41,-0.14 0.68,0.12 1,0.33 0.32,0.21 0.27,0.34 0.53,0.31 a 0.49,0.49 0 0 1 0.21,0 c 0.16,0.07 0.31,0.11 0.43,-0.06 a 0.3,0.3 0 0 0 0.26,-0.23 c 0.06,-0.09 0.09,-0.22 0.24,-0.16 A 1.15,1.15 0 0 0 16,11 c 0.13,-0.1 0.26,-0.16 0.11,-0.39 a 0.37,0.37 0 0 1 0.25,-0.56 0.54,0.54 0 0 1 0.63,0.23 c 0.19,0.34 0.25,0.73 0.47,1 0.07,0.09 0,0.13 0,0.2 0,0.07 -0.18,0 -0.28,-0.06 l 0.07,0.43 A 0.66,0.66 0 0 1 16.43,11.6 c 0,-0.12 0,-0.17 0.12,-0.23 0.12,-0.06 0.19,-0.11 0.19,-0.24 a 0.19,0.19 0 0 0 -0.1,-0.2 c -0.08,0 -0.13,0 -0.15,0.09 -0.02,0.09 -0.33,0.25 -0.28,0.53 0.05,0.28 -0.19,0.22 -0.33,0.14 -0.33,-0.17 -0.45,0.13 -0.59,0.29 -0.14,0.16 0,0.34 0.16,0.46 0.16,0.12 0.31,0.21 0.37,0.4 a 0.88,0.88 0 0 0 0.29,-0.58 c 0,-0.18 0.07,-0.43 0.32,-0.46 a 0.43,0.43 0 0 1 0.44,0.28 c 0.05,0.11 0.13,0.12 0.23,0.13 a 8.79,8.79 0 0 1 0.54,1.52 l -0.37,-0.05 c 0,-0.29 -0.25,-0.16 -0.39,-0.22 -0.04,0.18 0.19,0.23 0.18,0.41 z" style="fill:#b4ec36"/><path id="path53420" d="m 15.62,10.27 c -0.13,-0.12 -0.27,-0.23 -0.06,-0.4 0.21,-0.17 0.2,-0.29 0.3,0 a 0.37,0.37 0 0 1 -0.24,0.4 z" style="fill:#b4ec36"/><path id="path53422" d="m 15.93,9.87 c 0.11,-0.11 0.25,-0.1 0.27,0 0.02,0.1 -0.13,0.19 -0.26,0.23 -0.13,0.04 -0.09,-0.1 -0.01,-0.23 z" style="fill:#b4ec36"/><path id="path53424" d="M 15.16,8.94 14.81,9 c 0,-0.25 0.25,-0.27 0.42,-0.23 0.17,0.04 -0.02,0.12 -0.07,0.17 z" style="fill:#b4ec36"/></g><metadata id="metadata53428"/></svg>