<svg xmlns="http://www.w3.org/2000/svg" xmlns:svg="http://www.w3.org/2000/svg" id="f861199a-9921-482a-87ea-8504385ff0cd" width="16.792" height="16.868" version="1.1" viewBox="0 0 16.792 16.868"><defs id="defs53813"><linearGradient id="f13c7428-fd1f-409a-aa83-518164fbbc0c" x1="9" x2="9" y1="7.11" y2="14.2" gradientTransform="translate(0.60397652,0.57050358)" gradientUnits="userSpaceOnUse"><stop id="stop53803" offset="0" stop-color="#a67af4"/><stop id="stop53805" offset="1" stop-color="#552f99"/></linearGradient><linearGradient id="a6b01360-3b65-4cb5-8c1b-eed2f64af70c" x1="8.8" x2="9.32" y1="3.31" y2="9.75" gradientTransform="translate(0.60397652,0.57050358)" gradientUnits="userSpaceOnUse"><stop id="stop53808" offset="0" stop-color="#a67af4"/><stop id="stop53810" offset="1" stop-color="#552f99"/></linearGradient></defs><title id="title53815">Icon-identity-235</title><g id="g53841" transform="translate(-0.60397652,-0.57050358)"><path id="path53817" d="m 2.15,11.75 a 7.34,7.34 0 0 1 1,-7.2 1.94,1.94 0 0 1 -0.7,-0.83 8.48,8.48 0 0 0 -1.17,8.6 3.1,3.1 0 0 1 0.87,-0.57 z M 5.94,1.14 A 3.14,3.14 0 0 1 6.56,2.04 7.5,7.5 0 0 1 9,1.61 7.33,7.33 0 0 1 13.33,3 2.15,2.15 0 0 1 13.88,2.31 v 0 L 14,2.22 A 8.44,8.44 0 0 0 5.94,1.14 Z m 9.91,5.12 a 7.32,7.32 0 0 1 -1,7.19 2,2 0 0 1 0.43,0.4 1.94,1.94 0 0 1 0.27,0.43 8.48,8.48 0 0 0 1.17,-8.6 3.13,3.13 0 0 1 -0.87,0.58 z M 11.44,16 A 7.25,7.25 0 0 1 9,16.39 v 0 A 7.32,7.32 0 0 1 4.67,15 2.05,2.05 0 0 1 4.12,15.69 v 0 L 4,15.78 A 8.48,8.48 0 0 0 12.09,16.87 3.13,3.13 0 0 1 11.44,16 Z" style="fill:#0078d4"/><path id="path53819" d="m 5.18,1.87 a 2.09,2.09 0 1 1 -3,0 2.09,2.09 0 0 1 3,0 z" style="fill:#32bedd"/><path id="path53821" d="m 4.42,4.07 a 1,1 0 0 0 0,-1.45 1,1 0 0 0 -1.42,0 1,1 0 0 0 0,1.45 v 0 a 1,1 0 0 0 1.44,0" style="fill:#fff"/><path id="path53823" d="m 13.18,1.87 a 2.09,2.09 0 1 1 0,3 2.09,2.09 0 0 1 0,-2.95 z" style="fill:#32bedd"/><path id="path53825" d="m 15.38,2.62 a 1,1 0 1 0 0,1.45 v 0 a 1,1 0 0 0 0,-1.45" style="fill:#fff"/><path id="path53827" d="m 12.82,16.13 a 2.09,2.09 0 1 1 3,0 2.09,2.09 0 0 1 -3,0 z" style="fill:#32bedd"/><path id="path53829" d="m 13.58,13.93 a 1,1 0 0 0 0,1.45 1,1 0 0 0 1.44,0 1,1 0 0 0 0,-1.45 v 0 a 1,1 0 0 0 -1.44,0" style="fill:#fff"/><path id="path53831" d="m 4.82,16.13 a 2.09,2.09 0 1 1 0,-2.95 2.09,2.09 0 0 1 0,2.95 z" style="fill:#32bedd"/><path id="path53833" d="m 2.62,15.38 a 1,1 0 1 0 0,-1.45 v 0 a 1,1 0 0 0 0,1.45" style="fill:#fff"/><path id="path53835" d="m 12.51,12.92 a 0.76,0.76 0 0 0 0.76,-0.76 V 12.07 C 13,9.69 11.61,7.74 9,7.74 6.39,7.74 5,9.39 4.74,12.08 a 0.76,0.76 0 0 0 0.68,0.84 z" style="fill:url(#f13c7428-fd1f-409a-aa83-518164fbbc0c)"/><path id="path53837" d="M 9,8.31 A 2.41,2.41 0 0 1 7.7,7.93 L 9,11.28 10.27,8 A 2.37,2.37 0 0 1 9,8.31 Z" style="opacity:.8;fill:#fff"/><circle id="circle53839" cx="9.01" cy="5.92" r="2.39" style="fill:url(#a6b01360-3b65-4cb5-8c1b-eed2f64af70c)"/></g><metadata id="metadata53843"/></svg>