<svg xmlns="http://www.w3.org/2000/svg" xmlns:svg="http://www.w3.org/2000/svg" id="e24671f6-f501-4952-a2db-8b0b1d329c17" width="16.356" height="18" version="1.1" viewBox="0 0 16.356 18"><defs id="defs53951"><linearGradient id="be92901b-ec33-4c65-adf1-9b0eed06d677" x1="9" x2="9" y1="6.88" y2="20.45" gradientUnits="userSpaceOnUse"><stop id="stop53941" offset=".22" stop-color="#32d4f5"/><stop id="stop53943" offset="1" stop-color="#198ab3"/></linearGradient><linearGradient id="b46fc246-25d8-4398-8779-1042e8cacae7" x1="8.61" x2="9.6" y1="-.4" y2="11.92" gradientUnits="userSpaceOnUse"><stop id="stop53946" offset=".22" stop-color="#32d4f5"/><stop id="stop53948" offset="1" stop-color="#198ab3"/></linearGradient></defs><title id="title53953">Icon-identity-230</title><path id="path53955" d="m 14.898453,18 a 1.45,1.45 0 0 0 1.45,-1.45 0.47,0.47 0 0 0 0,-0.17 c -0.58,-4.57 -3.17,-8.29 -8.1700002,-8.29 -5,0 -7.66000004,3.15 -8.17000004,8.3 A 1.46,1.46 0 0 0 1.3184528,18 Z" style="fill:url(#be92901b-ec33-4c65-adf1-9b0eed06d677)"/><path id="path53957" d="m 8.1784528,9.17 a 4.59,4.59 0 0 1 -2.48,-0.73 l 2.48,6.42 2.4400002,-6.38 A 4.53,4.53 0 0 1 8.1784528,9.17 Z" style="opacity:.8;fill:#fff"/><circle id="circle53959" cx="8.188" cy="4.58" r="4.58" style="fill:url(#b46fc246-25d8-4398-8779-1042e8cacae7)"/><metadata id="metadata53961"/></svg>