<svg xmlns="http://www.w3.org/2000/svg" xmlns:svg="http://www.w3.org/2000/svg" id="a7e5c284-13cc-4ac5-b842-ecfb3e7bbb73" width="14" height="17.007" version="1.1" viewBox="0 0 14 17.007"><defs id="defs73413"><linearGradient id="a3df7d19-3d54-4d86-b7b8-c8d5b9b1be6b" x1="9" x2="9" y1="16.21" y2=".62" gradientUnits="userSpaceOnUse"><stop id="stop73400" offset="0" stop-color="#1b93eb"/><stop id="stop73402" offset=".21" stop-color="#2095eb"/><stop id="stop73404" offset=".44" stop-color="#2e9ced"/><stop id="stop73406" offset=".69" stop-color="#45a7ef"/><stop id="stop73408" offset=".95" stop-color="#64b6f1"/><stop id="stop73410" offset="1" stop-color="#6bb9f2"/></linearGradient></defs><title id="title73415">Icon-security-244</title><path id="path73417" d="m 14,7.94 c 0,4.57 -5.53,8.25 -6.73,9 a 0.43,0.43 0 0 1 -0.46,0 C 5.57,16.19 1.4677822e-8,12.5 1.4677822e-8,7.94 V 2.44 A 0.44,0.44 0 0 1 0.43000001,2 C 4.77,1.89 3.78,0 7,0 c 3.22,0 2.23,1.89 6.53,2 a 0.44,0.44 0 0 1 0.43,0.44 z" style="fill:#1b93eb"/><path id="path73419" d="m 13.38,7.98 c 0,4.2 -5.07,7.57 -6.17,8.25 a 0.4,0.4 0 0 1 -0.42,0 C 5.69,15.55 0.62000001,12.18 0.62000001,7.98 v -5 A 0.41,0.41 0 0 1 1,2.5 C 4.94,2.39 4,0.67 7,0.67 c 3,0 2.05,1.76 6,1.83 a 0.41,0.41 0 0 1 0.39,0.4 z" style="fill:url(#a3df7d19-3d54-4d86-b7b8-c8d5b9b1be6b)"/><path id="path73421" d="m 8.94,12.22 c -1.07,-0.14 -1,-0.83 -1,-1.94 h -2 c 0,1.11 0,1.8 -1,1.94 a 0.56,0.56 0 0 0 -0.51,0.49 h 5.1 A 0.56,0.56 0 0 0 8.94,12.22 Z" style="fill:#1f56a3"/><rect id="rect73423" width="9.18" height="6.5" x="2.3" y="3.81" rx=".31" style="fill:#1490df"/><rect id="rect73425" width="8.11" height="5.39" x="2.83" y="4.32" rx=".16" style="fill:#fff"/><polygon id="polygon73427" points="8.88 9.42 8.89 7.52 10.53 6.57 10.54 8.46" transform="translate(-2,-0.5)" style="fill:#0078d4"/><polygon id="polygon73429" points="7.24 6.56 8.88 5.61 10.53 6.56 8.89 7.52" transform="translate(-2,-0.5)" style="fill:#83b9f9"/><polygon id="polygon73431" points="7.23 8.46 7.23 6.56 8.89 7.52 8.88 9.42" transform="translate(-2,-0.5)" style="fill:#5ea0ef"/><polygon id="polygon73433" points="8.88 9.42 8.88 9.42 10.53 8.46 8.89 7.51 8.88 7.52" transform="translate(-2,-0.5)" style="opacity:.2;fill:#5ea0ef"/><polygon id="polygon73435" points="8.88 9.44 8.88 9.44 7.23 8.49 8.87 7.54 8.88 7.54" transform="translate(-2,-0.5)" style="opacity:.2;fill:#83b9f9"/><metadata id="metadata73437"/></svg>