<svg xmlns="http://www.w3.org/2000/svg" xmlns:svg="http://www.w3.org/2000/svg" id="a75e3f3a-2661-410b-82fb-d300d37dea2d" width="14" height="17.007" version="1.1" viewBox="0 0 14 17.007"><defs id="defs73493"><linearGradient id="aff60ddf-eec1-40bf-8bf5-f3e3b50e8818" x1="9" x2="9" y1="16.21" y2=".62" gradientUnits="userSpaceOnUse"><stop id="stop73480" offset="0" stop-color="#1b93eb"/><stop id="stop73482" offset=".21" stop-color="#2095eb"/><stop id="stop73484" offset=".44" stop-color="#2e9ced"/><stop id="stop73486" offset=".69" stop-color="#45a7ef"/><stop id="stop73488" offset=".95" stop-color="#64b6f1"/><stop id="stop73490" offset="1" stop-color="#6bb9f2"/></linearGradient></defs><title id="title73495">Icon-security-248</title><path id="path73497" d="m 14,7.94 c 0,4.57 -5.53,8.25 -6.73,9 a 0.43,0.43 0 0 1 -0.46,0 C 5.57,16.19 1.4677822e-8,12.5 1.4677822e-8,7.94 V 2.44 A 0.44,0.44 0 0 1 0.43000001,2 C 4.77,1.89 3.78,0 7,0 c 3.22,0 2.23,1.89 6.53,2 a 0.44,0.44 0 0 1 0.43,0.44 z" style="fill:#1b93eb"/><path id="path73499" d="m 13.38,7.98 c 0,4.2 -5.07,7.57 -6.17,8.25 a 0.4,0.4 0 0 1 -0.42,0 C 5.69,15.55 0.62000001,12.18 0.62000001,7.98 v -5 A 0.41,0.41 0 0 1 1,2.5 C 4.94,2.39 4,0.67 7,0.67 c 3,0 2.05,1.76 6,1.83 a 0.41,0.41 0 0 1 0.39,0.4 z" style="fill:url(#aff60ddf-eec1-40bf-8bf5-f3e3b50e8818)"/><path id="path73501" d="m 7,6.03 a 2.88,2.88 0 0 1 2.84,2.47 0.49,0.49 0 0 0 0.49,0.4 h 1.4 a 0.49,0.49 0 0 0 0.5,-0.53 5.26,5.26 0 0 0 -10.46,0 0.49,0.49 0 0 0 0.5,0.53 h 1.4 A 0.49,0.49 0 0 0 4.16,8.5 2.88,2.88 0 0 1 7,6.03 Z" style="fill:#c3f1ff"/><circle id="circle73503" cx="7" cy="8.9" r="1.91" style="fill:#fff"/><metadata id="metadata73505"/></svg>