<svg xmlns="http://www.w3.org/2000/svg" xmlns:svg="http://www.w3.org/2000/svg" id="a12d75ea-cbb6-44fa-832a-e54cce009101" width="14.16" height="17.007" version="1.1" viewBox="0 0 14.16 17.007"><defs id="defs73579"><linearGradient id="e2b13d81-97e0-465a-b9ed-b7f57e1b3f8c" x1="9" x2="9" y1="16.79" y2="1.21" gradientUnits="userSpaceOnUse"><stop id="stop73566" offset="0" stop-color="#0078d4"/><stop id="stop73568" offset=".06" stop-color="#0a7cd7"/><stop id="stop73570" offset=".34" stop-color="#2e8ce1"/><stop id="stop73572" offset=".59" stop-color="#4897e9"/><stop id="stop73574" offset=".82" stop-color="#589eed"/><stop id="stop73576" offset="1" stop-color="#5ea0ef"/></linearGradient></defs><title id="title73581">Icon-identity-233</title><path id="path73583" d="m 14.16,7.94 c 0,4.57 -5.62,8.25 -6.85,9 a 0.43,0.43 0 0 1 -0.46,0 C 5.62,16.2 1.4677824e-8,12.52 1.4677824e-8,7.94 V 2.44 A 0.44,0.44 0 0 1 0.43000001,2 C 4.81,1.89 3.8,0 7.08,0 c 3.28,0 2.27,1.89 6.65,2 a 0.44,0.44 0 0 1 0.43,0.44 z" style="fill:#0078d4"/><path id="path73585" d="m 13.58,7.98 c 0,4.2 -5.16,7.57 -6.29,8.25 a 0.4,0.4 0 0 1 -0.42,0 C 5.74,15.55 0.58000001,12.18 0.58000001,7.98 v -5 a 0.41,0.41 0 0 1 0.4,-0.48 C 5,2.43 4.08,0.71 7.08,0.71 c 3,0 2.08,1.72 6.1,1.79 a 0.41,0.41 0 0 1 0.4,0.4 z" style="fill:url(#e2b13d81-97e0-465a-b9ed-b7f57e1b3f8c)"/><path id="path73587" d="M 9.93,7.16 H 9.53 V 5.74 a 2.62,2.62 0 0 0 -0.7,-1.81 2.37,2.37 0 0 0 -3.48,0 2.61,2.61 0 0 0 -0.7,1.81 V 7.16 H 4.25 A 0.32,0.32 0 0 0 3.9,7.5 v 3.68 a 0.32,0.32 0 0 0 0.33,0.32 h 5.7 a 0.32,0.32 0 0 0 0.33,-0.32 V 7.5 A 0.32,0.32 0 0 0 9.93,7.16 Z m -1.55,0 H 5.78 V 5.72 a 1.43,1.43 0 0 1 0.41,-1 1.19,1.19 0 0 1 1.78,0 1.56,1.56 0 0 1 0.16,0.2 v 0 a 1.4,1.4 0 0 1 0.25,0.79 z" style="fill:#ffbd02"/><path id="path73589" d="m 4.23,7.16 h 5.7 a 0.32,0.32 0 0 1 0.21,0.08 L 4.02,11.4 A 0.33,0.33 0 0 1 3.9,11.16 V 7.5 A 0.32,0.32 0 0 1 4.23,7.16 Z" style="fill:#ffe452"/><path id="path73591" d="M 9.93,7.16 H 4.23 A 0.32,0.32 0 0 0 4.02,7.24 l 6.12,4.16 a 0.3,0.3 0 0 0 0.12,-0.24 V 7.5 A 0.32,0.32 0 0 0 9.93,7.16 Z" style="opacity:.5;fill:#ffd400"/><metadata id="metadata73593"/></svg>