<svg xmlns="http://www.w3.org/2000/svg" xmlns:svg="http://www.w3.org/2000/svg" id="bc93169a-24c4-4686-9f37-c7e4f53b3d34" width="17" height="17" version="1.1" viewBox="0 0 17 17"><defs id="defs73834"><radialGradient id="fb114c93-7c16-4540-899a-0796041629e6" cx="9" cy="9" r="8.5" gradientUnits="userSpaceOnUse"><stop id="stop73808" offset=".18" stop-color="#5ea0ef"/><stop id="stop73810" offset=".56" stop-color="#5c9fee"/><stop id="stop73812" offset=".69" stop-color="#559ced"/><stop id="stop73814" offset=".78" stop-color="#4a97e9"/><stop id="stop73816" offset=".86" stop-color="#3990e4"/><stop id="stop73818" offset=".93" stop-color="#2387de"/><stop id="stop73820" offset=".99" stop-color="#087bd6"/><stop id="stop73822" offset="1" stop-color="#0078d4"/></radialGradient><radialGradient id="ec478bd3-5b38-4e7f-b661-11f355578bff" cx="38.95" cy="182.07" r="9.88" gradientTransform="matrix(0.94,0,0,0.94,-28.21,-162.74)" gradientUnits="userSpaceOnUse"><stop id="stop73825" offset=".27" stop-color="#ffd70f"/><stop id="stop73827" offset=".49" stop-color="#ffcb12"/><stop id="stop73829" offset=".88" stop-color="#feac19"/><stop id="stop73831" offset="1" stop-color="#fea11b"/></radialGradient></defs><title id="title73836">Icon-security-245</title><path id="aacf8311-a317-400f-b613-74bd00da5ce3" d="M 8.5,0 A 8.5,8.5 0 1 0 17,8.5 8.51,8.51 0 0 0 8.5,0 Z m 0,15.84 A 7.34,7.34 0 1 1 15.84,8.5 7.34,7.34 0 0 1 8.5,15.84 Z" style="fill:url(#fb114c93-7c16-4540-899a-0796041629e6)"/><circle id="circle73839" cx="8.5" cy="8.5" r="7.34" style="fill:#fff"/><g id="g73845" transform="translate(-0.5,-0.5)"><path id="bd983c41-db73-40ec-a4f4-da1213fc9924" d="m 13.44,7.33 a 1.84,1.84 0 0 0 0,-2.59 v 0 L 10.29,1.58 a 1.83,1.83 0 0 0 -2.58,0 v 0 L 4.56,4.74 a 1.84,1.84 0 0 0 0,2.59 L 7.18,10 a 0.51,0.51 0 0 1 0.15,0.36 v 4.88 a 0.63,0.63 0 0 0 0.18,0.44 l 1.2,1.2 a 0.41,0.41 0 0 0 0.58,0 l 1.16,-1.16 v 0 l 0.68,-0.68 a 0.25,0.25 0 0 0 0,-0.34 l -0.49,-0.49 a 0.27,0.27 0 0 1 0,-0.37 l 0.49,-0.49 a 0.25,0.25 0 0 0 0,-0.34 l -0.49,-0.49 a 0.27,0.27 0 0 1 0,-0.37 l 0.49,-0.49 a 0.25,0.25 0 0 0 0,-0.34 L 10.45,10.63 V 10.38 Z M 9,2.35 A 1.035,1.035 0 0 1 9,4.42 1.035,1.035 0 1 1 9,2.35 Z" style="fill:url(#ec478bd3-5b38-4e7f-b661-11f355578bff)"/><path id="ad2e7e44-9bfd-4775-8bf4-8ef26a544921" d="m 8.18,15.3 v 0 a 0.23,0.23 0 0 0 0.38,-0.17 v -4 a 0.24,0.24 0 0 0 -0.11,-0.2 v 0 a 0.22,0.22 0 0 0 -0.34,0.2 v 4 a 0.28,0.28 0 0 0 0.07,0.17 z" style="opacity:.75;fill:#ff9300"/><rect id="a996fbff-3936-4b24-b407-369336c143ba" width="5.17" height=".61" x="6.48" y="5.79" rx=".28" style="opacity:.75;fill:#ff9300"/><rect id="bb12d31c-3352-4a18-87dd-a169a4a8721d" width="5.17" height=".61" x="6.48" y="6.78" rx=".28" style="opacity:.75;fill:#ff9300"/></g><metadata id="metadata73847"/></svg>