<svg xmlns="http://www.w3.org/2000/svg" xmlns:svg="http://www.w3.org/2000/svg" id="svg2917" width="14.598" height="17" version="1.1" viewBox="0 0 14.598 17"><defs id="defs2900"><linearGradient id="ebaa666f-d34b-47c6-9dd8-955cce642dd9" x1="14.415" x2="11.867" y1="13.555" y2="9.096" gradientTransform="translate(1.701,0.5)" gradientUnits="userSpaceOnUse"><stop id="stop2895" offset=".101" stop-color="#773adc"/><stop id="stop2897" offset="1" stop-color="#403457"/></linearGradient></defs><title id="title2902">Icon-494-ABS-Member</title><g id="fedf7af2-b5cf-45c6-91f6-8fba9e1b615a" transform="translate(-1.701,-0.5)"><g id="g2912"><polygon id="polygon2904" points="9 17.5 9 9.048 16.299 4.726 16.299 13.274" style="fill:#773adc"/><path id="path2906" d="M 13.074,9.1 C 14.131,8.52 14.9,9 14.9,10.153 a 4.189,4.189 0 0 1 -1.825,3.169 c -1.056,0.576 -1.825,0.1 -1.825,-1.056 A 3.933,3.933 0 0 1 13.074,9.1 Z" style="fill:url(#ebaa666f-d34b-47c6-9dd8-955cce642dd9)"/><polygon id="polygon2908" points="1.701 4.726 9 .5 16.299 4.726 9 9.048" style="fill:#b796f9"/><polygon id="polygon2910" points="1.701 13.274 1.701 4.726 9 9.048 9 17.5" style="fill:#a67af4"/></g></g><metadata id="metadata2915"/></svg>