<svg xmlns="http://www.w3.org/2000/svg" xmlns:svg="http://www.w3.org/2000/svg" id="svg3003" width="18" height="17.82" version="1.1" viewBox="0 0 18 17.82"><title id="title2969">Icon-Blockchain-366</title><polygon id="polygon2971" points="9.18 9.3 9.18 4.7 13.13 2.4 13.13 6.99" transform="translate(0,-0.09)" style="fill:#773adc"/><path id="path2973" d="m 11.45,4.62 c 0.55,-0.32 1,-0.07 1,0.56 a 2.18,2.18 0 0 1 -1,1.72 c -0.55,0.32 -1,0.07 -1,-0.57 a 2.17,2.17 0 0 1 1,-1.71 z" style="fill:#552f99"/><polygon id="polygon2975" points="3.95 17.9 3.95 13.3 7.9 11 7.9 15.59" transform="translate(0,-0.09)" style="fill:#773adc"/><path id="path2977" d="m 5.92,13.44 c 0.55,-0.31 1,-0.06 1,0.57 a 2.2,2.2 0 0 1 -1,1.72 c -0.55,0.32 -1,0.06 -1,-0.57 a 2.2,2.2 0 0 1 1,-1.72 z" style="fill:#552f99"/><polygon id="polygon2979" points="0 15.59 0 11 3.95 13.3 3.95 17.9" transform="translate(0,-0.09)" style="fill:#a67af4"/><polygon id="polygon2981" points="14.05 17.91 14.05 13.31 18 11.01 18 15.6" transform="translate(0,-0.09)" style="fill:#773adc"/><path id="path2983" d="m 11.49,6.11 a 4.17,4.17 0 0 1 2.37,2.61 l 0.19,-0.11 1,0.58 a 5.21,5.21 0 0 0 -3.15,-4.06 0.54039338,0.54039338 0 0 0 -0.41,1 z" style="fill:#32bedd"/><polygon id="polygon2985" points="10.1 15.6 10.1 11.01 14.05 13.32 14.05 17.91" transform="translate(0,-0.09)" style="fill:#a67af4"/><path id="path2987" d="m 12.19,13.5 c -0.52,-0.3 -0.94,-0.05 -0.94,0.54 a 2.08,2.08 0 0 0 0.94,1.63 c 0.52,0.3 0.94,0.06 0.94,-0.54 A 2.08,2.08 0 0 0 12.19,13.5 Z" style="fill:#552f99"/><path id="path2989" d="m 9.2,16.02 a 5.46,5.46 0 0 1 -3.18,-1 0.55,0.55 0 1 1 0.64,-0.89 4.36,4.36 0 0 0 4.81,0.18 0.55226805,0.55226805 0 1 1 0.58,0.94 5.54,5.54 0 0 1 -2.85,0.77 z" style="fill:#32bedd"/><polygon id="polygon2991" points="5.24 2.4 9.19 .09 13.13 2.4 9.19 4.71" transform="translate(0,-0.09)" style="fill:#b796f9"/><path id="path2993" d="m 5.24,5.21 a 5.25,5.25 0 0 0 -2.36,4 L 4,8.6 V 8.65 A 4.2,4.2 0 0 1 5.24,6.58 Z" style="fill:#32bedd"/><polygon id="polygon2995" points="10.1 11.01 14.05 8.7 18 11.01 14.05 13.32" transform="translate(0,-0.09)" style="fill:#b796f9"/><polygon id="polygon2997" points="0 11 3.95 8.69 7.9 11 3.95 13.3" transform="translate(0,-0.09)" style="fill:#b796f9"/><polygon id="polygon2999" points="5.24 6.99 5.24 2.4 9.18 4.71 9.18 9.3" transform="translate(0,-0.09)" style="fill:#a67af4"/><metadata id="metadata3001"/></svg>