<svg xmlns="http://www.w3.org/2000/svg" xmlns:svg="http://www.w3.org/2000/svg" id="svg3221" width="17.6" height="17.7" version="1.1" viewBox="0 0 17.6 17.7"><g id="b7868355-0001-41e8-84e1-ae842d94a5aa" transform="translate(-0.2,-0.15)"><g id="g3216"><polygon id="polygon3172" points="8.9 7.75 8.9 3.95 12.1 2.05 12.1 5.85" style="fill:#773adc"/><path id="path3174" d="m 10.7,4.062 c 0.439,-0.263 0.7,-0.088 0.7,0.439 A 1.776,1.776 0 0 1 10.7,5.729 C 10.349,5.992 10,5.817 10,5.29 a 1.776,1.776 0 0 1 0.7,-1.228 z" style="fill:#552f99"/><polygon id="polygon3176" points="5.6 2.05 8.9 .15 12.1 2.05 8.9 3.95" style="fill:#b796f9"/><polygon id="polygon3178" points="5.6 5.85 5.6 2.05 8.9 3.95 8.9 7.75" style="fill:#a67af4"/><path id="path3180" d="m 7.116,4.05 c -0.4,-0.2 -0.8,0 -0.8,0.4 a 1.441,1.441 0 0 0 0.8,1.3 c 0.4,0.2 0.8,0 0.8,-0.4 a 1.653,1.653 0 0 0 -0.8,-1.3 z" style="fill:#773adc"/><polygon id="polygon3182" points="14.6 12.75 14.6 8.95 17.8 7.05 17.8 10.85" style="fill:#5e9624"/><polygon id="polygon3184" points="11.4 10.85 11.4 7.05 14.6 8.95 14.6 12.75" style="fill:#76bc2d"/><path id="path3186" d="m 13.1,9.25 c -0.4,-0.2 -0.8,0 -0.8,0.4 a 1.441,1.441 0 0 0 0.8,1.3 c 0.4,0.2 0.8,0 0.8,-0.4 a 1.653,1.653 0 0 0 -0.8,-1.3 z" style="fill:#5e9624"/><g id="g3192"><path id="path3188" d="M 13.137,6.073 A 5.151,5.151 0 0 0 11.2,4.65 a 0.517,0.517 0 0 0 -0.7,0.3 0.446,0.446 0 0 0 0.3,0.6 4.256,4.256 0 0 1 1.459,1.017 z" style="fill:#32bedd"/><path id="path3190" d="M 13.134,8.079 C 13.152,8.138 13.185,8.19 13.2,8.25 l 0.12,-0.06 z" style="fill:#32bedd"/></g><polygon id="polygon3194" points="3.4 12.85 3.4 9.15 6.7 7.25 6.7 10.95" style="fill:#258277"/><polygon id="polygon3196" points=".2 10.95 .2 7.25 3.4 9.15 3.4 12.85" style="fill:#37c2b1"/><path id="path3198" d="M 7.4,4.95 A 0.67,0.67 0 0 0 6.6,4.65 6.6,6.6 0 0 0 4.742,6.123 L 5.8,6.729 A 4.646,4.646 0 0 1 7.1,5.75 0.67,0.67 0 0 0 7.4,4.95 Z" style="fill:#32bedd"/><polygon id="polygon3200" points="9.2 17.85 9.2 14.05 12.4 12.15 12.4 15.95" style="fill:#d15900"/><polygon id="polygon3202" points="6 15.95 6 12.15 9.2 14.05 9.2 17.85" style="fill:#f78d1e"/><path id="path3204" d="m 13.2,10.05 a 0.521,0.521 0 0 0 -0.8,0.1 5.26,5.26 0 0 1 -1.339,1.205 l 0.966,0.573 A 5.972,5.972 0 0 0 13.3,10.85 0.521,0.521 0 0 0 13.2,10.05 Z" style="fill:#32bedd"/><path id="path3206" d="M 5.212,9.188 C 5.668,8.939 6,9.147 6,9.644 A 1.809,1.809 0 0 1 5.212,11.012 C 4.757,11.261 4.425,11.053 4.425,10.556 A 1.7,1.7 0 0 1 5.212,9.188 Z" style="fill:#207067"/><path id="path3208" d="M 7.423,11.305 A 4.264,4.264 0 0 1 5.8,10.05 0.529,0.529 0 0 0 5,9.95 a 0.529,0.529 0 0 0 -0.1,0.8 5.524,5.524 0 0 0 1.379,1.235 z" style="fill:#32bedd"/><polygon id="polygon3210" points="6 12.15 9.2 10.25 12.4 12.15 9.2 14.05" style="fill:#ffb34d"/><polygon id="polygon3212" points=".2 7.25 3.4 5.35 6.7 7.25 3.4 9.15" style="fill:#42e8ca"/><polygon id="polygon3214" points="11.4 7.05 14.6 5.25 17.8 7.05 14.6 8.95" style="fill:#b4ec36"/></g></g><metadata id="metadata3219"/></svg>