<svg xmlns="http://www.w3.org/2000/svg" xmlns:svg="http://www.w3.org/2000/svg" id="svg3269" width="18.036" height="16.337" version="1.1" viewBox="0 0 18.036 16.337"><title id="title3255">Icon-Blockchain-364</title><polygon id="polygon3257" points="9.04 13.99 9.04 7.42 14.68 4.13 14.68 10.7" transform="translate(0,-0.83)" style="fill:#773adc"/><polygon id="polygon3259" points="3.4 4.13 9.04 .83 14.68 4.13 9.04 7.43" transform="translate(0,-0.83)" style="fill:#b796f9"/><polygon id="polygon3261" points="3.4 10.7 3.4 4.13 9.04 7.43 9.04 13.99" transform="translate(0,-0.83)" style="fill:#a67af4"/><path id="path3263" d="M 6.06,6.69 C 5.32,6.27 4.72,6.61 4.72,7.46 A 2.93,2.93 0 0 0 6.06,9.77 C 6.79,10.2 7.4,9.86 7.4,9.01 A 3,3 0 0 0 6.06,6.69 Z" style="fill:#773adc"/><path id="path3265" d="m 18,13.52 -2.59,-2.6 a 0.14,0.14 0 0 0 -0.21,0 v 2 H 3.36 a 2,2 0 1 1 0,-4 H 5.75 A 0.68,0.68 0 0 0 6.42,8.24 0.67,0.67 0 0 0 5.75,7.57 H 3.36 a 3.36,3.36 0 0 0 0,6.72 h 11.8 v 2 a 0.14,0.14 0 0 0 0.21,0 L 18,13.7 a 0.13,0.13 0 0 0 0,-0.18 z" style="fill:#32bedd"/><metadata id="metadata3267"/></svg>