<svg xmlns="http://www.w3.org/2000/svg" xmlns:svg="http://www.w3.org/2000/svg" id="svg2857" width="18" height="14.352" version="1.1" viewBox="0 0 18 14.352"><defs id="defs2840"><linearGradient id="ff3b339c-673f-4785-8ec9-c7c05e10f5a2" x1="8.956" x2="8.956" y1="14.347" y2="1.59" gradientTransform="translate(-0.044,1.5877667)" gradientUnits="userSpaceOnUse"><stop id="stop2830" offset="0" stop-color="#0078d4"/><stop id="stop2832" offset="1" stop-color="#5ea0ef"/></linearGradient><linearGradient id="ebb540ac-df51-4d1a-9240-e4de893645e8" x1="9.014" x2="9.014" y1="15.941" y2="12.602" gradientTransform="translate(-0.044,1.5877667)" gradientUnits="userSpaceOnUse"><stop id="stop2835" offset="0" stop-color="#76bc2d"/><stop id="stop2837" offset=".817" stop-color="#86d633"/></linearGradient></defs><g id="ec090ac3-568c-4230-bc25-7e5ca8f80c39" transform="translate(0.044,-1.5877667)"><path id="path2842" d="M 17.956,10.352 A 4.045,4.045 0 0 0 14.446,6.464 5.1,5.1 0 0 0 9.2,1.59 5.228,5.228 0 0 0 4.2,5 4.827,4.827 0 0 0 -0.044,9.641 4.9,4.9 0 0 0 5.024,14.347 c 0.151,0 0.3,-0.007 0.447,-0.019 h 8.207 A 0.813,0.813 0 0 0 13.9,14.3 4.092,4.092 0 0 0 17.956,10.352 Z" style="fill:url(#ff3b339c-673f-4785-8ec9-c7c05e10f5a2)"/><path id="path2844" d="m 11.554,7.876 a 2.533,2.533 0 1 0 -3.769,2.2 v 3.279 h 2.431 V 10.1 A 2.525,2.525 0 0 0 11.554,7.876 Z M 9.466,12.6 H 8.535 v -2.24 a 2.6,2.6 0 0 0 0.486,0.049 2.514,2.514 0 0 0 0.445,-0.045 z m 0,-3.006 A 1.771,1.771 0 0 1 9.021,9.657 1.739,1.739 0 0 1 8.535,9.581 Z m 0.75,-0.4 -2.431,-0.037 a 1.785,1.785 0 1 1 2.431,0.034 z" style="fill:#fff"/><rect id="rect2846" width="12.211" height="3.338" x="2.908" y="12.602" rx=".408" style="fill:url(#ebb540ac-df51-4d1a-9240-e4de893645e8)"/><rect id="rect2848" width=".912" height=".912" x="13.269" y="13.186" rx=".204" style="fill:#fff"/><rect id="rect2850" width=".912" height=".912" x="13.269" y="14.444" rx=".204" style="opacity:.6;fill:#fff"/><path id="path2852" d="M 10.8,7.876 A 1.783,1.783 0 1 0 8.535,9.583 V 12.6 h 0.931 v -3 A 1.779,1.779 0 0 0 10.8,7.876 Z" style="fill:#76bc2d"/></g><metadata id="metadata2855"/></svg>