<svg xmlns="http://www.w3.org/2000/svg" xmlns:svg="http://www.w3.org/2000/svg" id="eccfbced-10ca-487a-a425-bf34f9e15139" width="17" height="17" version="1.1" viewBox="0 0 17 17"><defs id="defs5028"><radialGradient id="b915730c-dc69-4cd4-8cf3-619882b8e8ab" cx="55.71" cy="71.92" r="9" gradientTransform="matrix(0.94,0,0,0.94,-43.61,-58.92)" gradientUnits="userSpaceOnUse"><stop id="stop5017" offset=".67" stop-color="#6bb9f2"/><stop id="stop5019" offset=".74" stop-color="#61b4f1"/><stop id="stop5021" offset=".85" stop-color="#47a8ef"/><stop id="stop5023" offset=".99" stop-color="#1d94eb"/><stop id="stop5025" offset="1" stop-color="#1b93eb"/></radialGradient></defs><title id="title5030">Icon-machinelearning-165</title><path id="f6a29e1b-194b-4d8d-8529-49edea7bbba0" d="M 8.5,0 A 8.5,8.5 0 1 0 17,8.5 8.5,8.5 0 0 0 8.5,0 Z" style="fill:url(#b915730c-dc69-4cd4-8cf3-619882b8e8ab)"/><circle id="circle5033" cx="8.5" cy="8.5" r="7.03" style="fill:#fff"/><circle id="circle5035" cx="6.95" cy="8.5" r=".77" style="fill:#32bedd"/><path id="path5037" d="M 4.76,6.3 H 4.38 A 0.29,0.29 0 0 0 4.09,6.59 v 5.72 a 0.59,0.59 0 0 0 0.59,0.59 h 5.57 a 0.29,0.29 0 0 0 0.29,-0.3 v -0.38 a 0.29,0.29 0 0 0 -0.29,-0.29 h -5 A 0.14,0.14 0 0 1 5.11,11.78 V 6.59 A 0.29,0.29 0 0 0 4.76,6.3 Z" style="fill:#32bedd"/><circle id="circle5039" cx="10.05" cy="8.5" r=".77" style="fill:#32bedd"/><path id="path5041" d="M 11.92,4.1 H 6.73 A 0.29,0.29 0 0 0 6.44,4.4 v 0.38 a 0.29,0.29 0 0 0 0.29,0.29 h 5 a 0.15,0.15 0 0 1 0.15,0.15 v 5.19 a 0.29,0.29 0 0 0 0.29,0.29 h 0.38 a 0.29,0.29 0 0 0 0.29,-0.29 V 4.69 A 0.59,0.59 0 0 0 12.26,4.1 Z" style="fill:#32bedd"/><metadata id="metadata5043"/></svg>