<svg xmlns="http://www.w3.org/2000/svg" xmlns:svg="http://www.w3.org/2000/svg" id="f78f5115-be88-4d44-b34e-3f6ea743125c" width="18" height="12.77" version="1.1" viewBox="0 0 18 12.77"><defs id="defs5095"><linearGradient id="b6c43bd9-e37f-4191-93c2-d3a7a84c505e" x1="9" x2="9" y1="19.13" y2="-.29" gradientUnits="userSpaceOnUse"><stop id="stop5084" offset="0" stop-color="#0078d4"/><stop id="stop5086" offset=".16" stop-color="#1380da"/><stop id="stop5088" offset=".53" stop-color="#3c91e5"/><stop id="stop5090" offset=".82" stop-color="#559cec"/><stop id="stop5092" offset="1" stop-color="#5ea0ef"/></linearGradient></defs><title id="title5097">Icon-machinelearning-162</title><path id="path5099" d="m 18,8.7623452 a 4,4 0 0 0 -3.51,-3.88 5.1,5.1 0 0 0 -5.25,-4.88 5.25,5.25 0 0 0 -5.02,3.38 4.8,4.8 0 0 0 -4.22,4.67 4.9,4.9 0 0 0 5.07,4.7099998 h 0.44 8.21 a 0.78,0.78 0 0 0 0.22,0 A 4.1,4.1 0 0 0 18,8.7623452 Z" style="fill:url(#b6c43bd9-e37f-4191-93c2-d3a7a84c505e)"/><path id="path5101" d="M 5.42,7.7723452 H 4.54 a 1.09,1.09 0 1 0 0,0.49 h 0.88 a 0.2,0.2 0 0 1 0.2,0.2 V 12.762345 H 6.11 V 8.4623452 a 0.69,0.69 0 0 0 -0.69,-0.69 z m -1.95,0.88 a 0.64,0.64 0 1 1 0.64,-0.64 0.64,0.64 0 0 1 -0.64,0.64 z" style="fill:#9cebff"/><path id="path5103" d="m 8.94,7.9923452 v -1 a 0.7,0.7 0 0 0 -0.7,-0.7 H 6.69 a 0.2,0.2 0 0 1 -0.2,-0.2 v -5.31 l -0.23,0.12 -0.26,0.14 v 5 a 0.69,0.69 0 0 0 0.69,0.69 h 1.55 a 0.21,0.21 0 0 1 0.21,0.21 v 1 a 1.08,1.08 0 0 0 -0.85,1.06 1.09,1.09 0 1 0 1.34,-1.06 z m -0.25,1.7 v 0 a 0.64,0.64 0 1 1 0.64,-0.64 0.64,0.64 0 0 1 -0.64,0.64 z" style="fill:#f2f2f2"/><path id="path5105" d="m 14.53,5.8823452 a 1.09,1.09 0 0 0 -0.25,2.15 v 0.2 a 0.21,0.21 0 0 1 -0.21,0.21 h -2 v -3.52 a 0.69,0.69 0 0 0 -0.69,-0.69 h -1.03 a 1.08,1.08 0 0 0 -1.06,-0.85 1.09,1.09 0 1 0 1.06,1.34 h 1.07 a 0.2,0.2 0 0 1 0.2,0.2 v 7.8399998 h 0.49 V 8.9323452 h 2 a 0.7,0.7 0 0 0 0.7,-0.7 v -0.2 a 1.09,1.09 0 0 0 0.85,-1.06 v 0 a 1.09,1.09 0 0 0 -1.13,-1.09 z m -5.24,-0.77 v 0 a 0.64,0.64 0 1 1 0.64,-0.64 0.64,0.64 0 0 1 -0.64,0.64 z m 5.24,2.5 v 0 a 0.64,0.64 0 1 1 0.63,-0.64 0.64,0.64 0 0 1 -0.63,0.64 z" style="fill:#9cebff"/><metadata id="metadata5107"/></svg>