<svg xmlns="http://www.w3.org/2000/svg" xmlns:svg="http://www.w3.org/2000/svg" id="e0b4f447-d5a9-47e3-90e1-f2184bb9d14a" width="16" height="16" version="1.1" viewBox="0 0 16 16"><defs id="defs16325"><linearGradient id="a3fc5392-9f45-473e-a2d4-5f63fa8e0710" x1="8.88" x2="8.88" y1="17.09" y2="1.09" gradientUnits="userSpaceOnUse"><stop id="stop16314" offset="0" stop-color="#5e9624"/><stop id="stop16316" offset=".01" stop-color="#5e9724"/><stop id="stop16318" offset=".35" stop-color="#6cab29"/><stop id="stop16320" offset=".68" stop-color="#73b82c"/><stop id="stop16322" offset="1" stop-color="#76bc2d"/></linearGradient></defs><title id="title16327">Icon-general-1</title><path id="path16329" d="m 5.6,11.2 h 4.8 V 16 H 5.6 Z M 0,4.8 H 4.8 V 0 H 0.67 A 0.67,0.67 0 0 0 0,0.67 Z M 0.67,16 H 4.8 V 11.2 H 0 v 4.13 A 0.67,0.67 0 0 0 0.67,16 Z M 0,10.4 H 4.8 V 5.6 H 0 Z M 11.2,16 h 4.14 A 0.67,0.67 0 0 0 16,15.33 V 11.2 H 11.2 Z M 5.6,10.4 h 4.8 V 5.6 H 5.6 Z m 5.6,0 H 16 V 5.6 H 11.2 Z M 11.2,0 V 4.8 H 16 V 0.67 A 0.67,0.67 0 0 0 15.34,0 Z M 5.6,4.8 h 4.8 V 0 H 5.6 Z" style="fill:url(#a3fc5392-9f45-473e-a2d4-5f63fa8e0710)"/><metadata id="metadata16331"/></svg>