<svg xmlns="http://www.w3.org/2000/svg" xmlns:svg="http://www.w3.org/2000/svg" id="svg16428" width="17.41" height="15.164" version="1.1" viewBox="0 0 17.41 15.164"><defs id="defs16409"><linearGradient id="ae5004eb-b3cc-4afc-9498-a0eb145de4dc" x1="3.439" x2="3.439" y1="6.801" y2="1.432" gradientTransform="translate(0.29460677,1.4176068)" gradientUnits="userSpaceOnUse"><stop id="stop16388" offset=".2" stop-color="#0078d4"/><stop id="stop16390" offset=".287" stop-color="#1380da"/><stop id="stop16392" offset=".759" stop-color="#5ea0ef"/></linearGradient><linearGradient id="a1226368-080a-4756-9af4-a472e9b2c59c" x1="3.439" x2="3.439" y1="11.998" y2="6.628" gradientTransform="translate(0.29460677,1.4176068)" gradientUnits="userSpaceOnUse"><stop id="stop16395" offset=".2" stop-color="#0078d4"/><stop id="stop16397" offset=".287" stop-color="#1380da"/><stop id="stop16399" offset=".759" stop-color="#5ea0ef"/></linearGradient><linearGradient id="a87a55b1-552d-4fae-9ce3-1c309da31213" x1="3.439" x2="3.439" y1="17.194" y2="11.824" gradientTransform="translate(0.29460677,1.4176068)" gradientUnits="userSpaceOnUse"><stop id="stop16402" offset=".2" stop-color="#0078d4"/><stop id="stop16404" offset=".287" stop-color="#1380da"/><stop id="stop16406" offset=".759" stop-color="#5ea0ef"/></linearGradient></defs><g id="fb31d21f-8069-4bda-ba9f-5d4b1930b65d" transform="translate(-0.29460677,-1.4176068)"><g id="g16423"><path id="path16411" d="M 6.437,1.856 6.145,1.564 a 0.5,0.5 0 0 0 -0.707,0 L 2.606,4.392 1.441,3.229 a 0.5,0.5 0 0 0 -0.707,0 L 0.441,3.522 a 0.5,0.5 0 0 0 0,0.707 L 2.253,6.044 A 0.5,0.5 0 0 0 2.607,6.19 0.5,0.5 0 0 0 2.96,6.044 L 6.437,2.563 a 0.5,0.5 0 0 0 0,-0.707 z" style="fill:url(#ae5004eb-b3cc-4afc-9498-a0eb145de4dc)"/><rect id="rect16413" width="10.366" height="1.895" x="7.339" y="2.949" rx=".923" style="fill:#a3a3a3"/><rect id="rect16415" width="10.366" height="1.895" x="7.339" y="8.073" rx=".923" style="fill:#a3a3a3"/><rect id="rect16417" width="10.366" height="1.895" x="7.339" y="13.196" rx=".923" style="fill:#a3a3a3"/><path id="path16419" d="M 6.437,7.053 6.145,6.76 a 0.5,0.5 0 0 0 -0.707,0 L 2.606,9.588 1.441,8.425 a 0.5,0.5 0 0 0 -0.707,0 L 0.441,8.718 a 0.5,0.5 0 0 0 0,0.707 L 2.253,11.24 A 0.5,0.5 0 0 0 2.607,11.387 0.5,0.5 0 0 0 2.96,11.24 L 6.437,7.76 a 0.5,0.5 0 0 0 0,-0.707 z" style="fill:url(#a1226368-080a-4756-9af4-a472e9b2c59c)"/><path id="path16421" d="M 6.437,12.249 6.145,11.956 A 0.5,0.5 0 0 0 5.791,11.81 0.494,0.494 0 0 0 5.438,11.956 L 2.606,14.784 1.441,13.621 a 0.5,0.5 0 0 0 -0.707,0 l -0.293,0.292 a 0.5,0.5 0 0 0 0,0.707 l 1.812,1.815 a 0.5,0.5 0 0 0 0.707,0 l 3.477,-3.48 a 0.5,0.5 0 0 0 0,-0.706 z" style="fill:url(#a87a55b1-552d-4fae-9ce3-1c309da31213)"/></g></g><metadata id="metadata16426"/></svg>