<svg xmlns="http://www.w3.org/2000/svg" xmlns:svg="http://www.w3.org/2000/svg" id="svg16540" width="18" height="16.83" version="1.1" viewBox="0 0 18 16.83"><defs id="defs16521"><linearGradient id="a9fb18f0-3b0f-496b-bdcd-0aa2af06c410" x1="9" x2="9" y1="13.343" y2=".586" gradientTransform="translate(0,0.58364692)" gradientUnits="userSpaceOnUse"><stop id="stop16504" offset="0" stop-color="#0078d4"/><stop id="stop16506" offset="1" stop-color="#5ea0ef"/></linearGradient><linearGradient id="f9c8631e-1318-46e5-81e7-ddf268fd2ea1" x1="9.104" x2="9.104" y1="10.28" y2="7.603" gradientTransform="translate(0,0.58364692)" gradientUnits="userSpaceOnUse"><stop id="stop16509" offset="0" stop-color="#76bc2d"/><stop id="stop16511" offset=".412" stop-color="#7ac32f"/><stop id="stop16513" offset="1" stop-color="#86d633"/></linearGradient><linearGradient id="f3400587-2bbd-47f6-ac28-e9a941b1f347" x1="9.119" x2="9.119" y1="17.414" y2="13.924" gradientTransform="translate(0,0.58364692)" gradientUnits="userSpaceOnUse"><stop id="stop16516" offset="0" stop-color="#0078d4"/><stop id="stop16518" offset="1" stop-color="#5ea0ef"/></linearGradient></defs><title id="title16523">MsPortalFx.base.images-6</title><g id="b5d6c51f-fecd-4739-b92c-3a3190935499" transform="translate(0,-0.58364692)"><g id="g16535"><path id="path16525" d="M 18,9.348 A 4.045,4.045 0 0 0 14.49,5.46 5.1,5.1 0 0 0 9.24,0.586 5.228,5.228 0 0 0 4.24,3.993 4.827,4.827 0 0 0 0,8.637 4.9,4.9 0 0 0 5.068,13.343 c 0.151,0 0.3,-0.007 0.447,-0.019 h 8.207 A 0.819,0.819 0 0 0 13.939,13.292 4.093,4.093 0 0 0 18,9.348 Z" style="fill:url(#a9fb18f0-3b0f-496b-bdcd-0aa2af06c410)"/><rect id="rect16527" width="1.693" height="5.35" x="8.295" y="10.097" style="fill:#005ba1"/><path id="path16529" d="M 13.937,5.8 A 0.207,0.207 0 0 0 13.73,5.6 H 11.285 A 0.092,0.092 0 0 0 11.22,5.758 l 0.705,0.705 0.047,0.047 a 0.094,0.094 0 0 1 0,0.13 L 11.225,7.387 A 2.677,2.677 0 0 0 9.708,6.349 V 4.874 A 0.093,0.093 0 0 1 9.8,4.781 h 1.068 A 0.093,0.093 0 0 0 10.934,4.623 L 9.2,2.886 a 0.207,0.207 0 0 0 -0.293,0 L 7.167,4.623 A 0.092,0.092 0 0 0 7.232,4.781 H 8.3 a 0.093,0.093 0 0 1 0.093,0.093 v 1.475 a 2.678,2.678 0 0 0 -1.56,1.092 l -0.805,-0.8 a 0.094,0.094 0 0 1 0,-0.13 L 6.075,6.464 6.78,5.764 A 0.092,0.092 0 0 0 6.715,5.6 H 4.27 A 0.207,0.207 0 0 0 4.063,5.806 v 2.443 a 0.093,0.093 0 0 0 0.158,0.065 l 0.705,-0.7 0.047,-0.047 a 0.092,0.092 0 0 1 0.13,0 l 1.275,1.271 c 0,0.034 0,0.068 0,0.1 a 2.677,2.677 0 1 0 5.354,0 c 0,-0.067 -0.005,-0.133 -0.01,-0.2 l 1.18,-1.18 a 0.092,0.092 0 0 1 0.13,0 l 0.047,0.047 0.705,0.705 a 0.093,0.093 0 0 0 0.158,-0.065 z" style="fill:#fff"/><circle id="circle16531" cx="9.104" cy="8.941" r="1.338" style="fill:url(#f9c8631e-1318-46e5-81e7-ddf268fd2ea1)"/><circle id="circle16533" cx="9.119" cy="15.669" r="1.745" style="fill:url(#f3400587-2bbd-47f6-ac28-e9a941b1f347)"/></g></g><metadata id="metadata16538"/></svg>