<svg xmlns="http://www.w3.org/2000/svg" xmlns:svg="http://www.w3.org/2000/svg" id="svg16654" width="17" height="13.668" version="1.1" viewBox="0 0 17 13.668"><defs id="defs16633"><linearGradient id="a9c62307-1cd0-400c-911b-17ec6a9110ce" x1="9" x2="9" y1="15.834" y2="5.788" gradientTransform="translate(0.5,2.1659921)" gradientUnits="userSpaceOnUse"><stop id="stop16628" offset="0" stop-color="#32bedd"/><stop id="stop16630" offset=".775" stop-color="#32d4f5"/></linearGradient></defs><title id="title16635">MsPortalFx.base.images-7</title><g id="f31d214e-f09e-49e3-b3d2-7c5d55682d09" transform="translate(-0.5,-2.1659921)"><g id="g16649"><path id="path16637" d="m 0.5,5.788 h 17 v 9.478 a 0.568,0.568 0 0 1 -0.568,0.568 H 1.068 A 0.568,0.568 0 0 1 0.5,15.266 Z" style="fill:url(#a9c62307-1cd0-400c-911b-17ec6a9110ce)"/><path id="path16639" d="m 1.071,2.166 h 15.858 a 0.568,0.568 0 0 1 0.568,0.568 V 5.788 H 0.5 V 2.734 A 0.568,0.568 0 0 1 1.071,2.166 Z" style="fill:#0078d4"/><rect id="rect16641" width="6.281" height="3.408" x="2.328" y="7.049" rx=".283" style="fill:#0078d4"/><rect id="rect16643" width="6.281" height="3.408" x="9.336" y="7.049" rx=".283" style="fill:#fff"/><rect id="rect16645" width="6.281" height="3.408" x="2.296" y="11.128" rx=".283" style="fill:#0078d4"/><rect id="rect16647" width="6.281" height="3.408" x="9.304" y="11.128" rx=".283" style="fill:#0078d4"/></g></g><metadata id="metadata16652"/></svg>