<svg xmlns="http://www.w3.org/2000/svg" xmlns:svg="http://www.w3.org/2000/svg" id="svg17511" width="17" height="16.931" version="1.1" viewBox="0 0 17 16.931"><defs id="defs17484"><linearGradient id="b0b56ca2-72b1-41c5-af06-32eb990813e7" x1="-4199.359" x2="-4199.359" y1="990.275" y2="982.921" gradientTransform="rotate(180,-2094.862,495.6715)" gradientUnits="userSpaceOnUse"><stop id="stop17470" offset=".265" stop-color="#a67af4"/><stop id="stop17472" offset=".45" stop-color="#9e6ff0"/><stop id="stop17474" offset=".771" stop-color="#8952e5"/><stop id="stop17476" offset="1" stop-color="#773adc"/></linearGradient><linearGradient id="a6beae7e-dfa6-485f-bc06-215b34038868" x1="9" x2="9" y1="17.466" y2="12.672" gradientTransform="translate(0.5,0.534)" gradientUnits="userSpaceOnUse"><stop id="stop17479" offset="0" stop-color="#773adc"/><stop id="stop17481" offset=".735" stop-color="#a67af4"/></linearGradient></defs><title id="title17486">MsPortalFx.base.images-33</title><g id="efce58b1-e297-4fa7-8d29-7ddbd73756de" transform="translate(-0.5,-0.534)"><g id="g17506"><path id="path17488" d="M 12.362,4.809 9.386,7.785 a 0.356,0.356 0 0 1 -0.5,0 L 5.909,4.809 A 0.159,0.159 0 0 1 6.021,4.538 h 1.83 A 0.158,0.158 0 0 0 8.009,4.38 V 0.661 A 0.127,0.127 0 0 1 8.136,0.534 h 2 a 0.126,0.126 0 0 1 0.126,0.127 V 4.38 a 0.159,0.159 0 0 0 0.159,0.158 h 1.83 a 0.159,0.159 0 0 1 0.111,0.271 z" style="fill:url(#b0b56ca2-72b1-41c5-af06-32eb990813e7)"/><rect id="rect17490" width="17" height="4.793" x=".5" y="12.672" rx=".513" style="fill:url(#a6beae7e-dfa6-485f-bc06-215b34038868)"/><g id="g17498"><rect id="rect17492" width="2.488" height="2.488" x="4.174" y="9.308" rx=".203" style="fill:#86d633"/><rect id="rect17494" width="2.488" height="2.488" x="7.891" y="9.308" rx=".203" style="fill:#86d633"/><rect id="rect17496" width="2.488" height="2.488" x="11.608" y="9.308" rx=".203" style="fill:#86d633"/></g><g id="g17504"><rect id="rect17500" width="2.488" height="2.488" x="6.033" y="13.746" rx=".203" style="fill:#b4ec36"/><rect id="rect17502" width="2.488" height="2.488" x="9.75" y="13.746" rx=".203" style="fill:#b4ec36"/></g></g></g><metadata id="metadata17509"/></svg>