<svg xmlns="http://www.w3.org/2000/svg" xmlns:svg="http://www.w3.org/2000/svg" id="svg18091" width="17" height="13.668" version="1.1" viewBox="0 0 17 13.668"><defs id="defs18068"><linearGradient id="b6397d2e-3ba1-4824-829e-9978a5335072" x1="9" x2="9" y1="15.834" y2="5.788" gradientTransform="translate(0.5,2.1659921)" gradientUnits="userSpaceOnUse"><stop id="stop18043" offset="0" stop-color="#0078d4"/><stop id="stop18045" offset=".502" stop-color="#4093e6"/><stop id="stop18047" offset=".775" stop-color="#5ea0ef"/></linearGradient><linearGradient id="b054a213-2b95-4773-bd8d-5833c021a783" x1="3.754" x2="6.975" y1="11.614" y2="11.614" gradientTransform="rotate(44.919,2.4616564,11.168413)" gradientUnits="userSpaceOnUse"><stop id="stop18050" offset="0" stop-color="#5ea0ef"/><stop id="stop18052" offset=".372" stop-color="#9fc6f5"/><stop id="stop18054" offset=".8" stop-color="#e4effc"/><stop id="stop18056" offset="1" stop-color="#fff"/></linearGradient><linearGradient id="ae8082eb-8439-45c6-ad31-2630ec597ba3" x1="10.83" x2="14.05" y1="11.614" y2="11.614" gradientTransform="rotate(135.081,11.774908,10.666576)" gradientUnits="userSpaceOnUse"><stop id="stop18059" offset="0" stop-color="#fff"/><stop id="stop18061" offset=".2" stop-color="#e4effc"/><stop id="stop18063" offset=".628" stop-color="#9fc6f5"/><stop id="stop18065" offset="1" stop-color="#5ea0ef"/></linearGradient></defs><title id="title18070">MsPortalFx.base.images-27</title><g id="ab07e3c1-374c-4c6b-be01-1dbf388ebd9f" transform="translate(-0.5,-2.1659921)"><g id="g18086"><path id="path18072" d="m 0.5,5.788 h 17 v 9.478 a 0.568,0.568 0 0 1 -0.568,0.568 H 1.068 A 0.568,0.568 0 0 1 0.5,15.266 Z" style="fill:url(#b6397d2e-3ba1-4824-829e-9978a5335072)"/><path id="path18074" d="m 1.071,2.166 h 15.858 a 0.568,0.568 0 0 1 0.568,0.568 V 5.788 H 0.5 V 2.734 A 0.568,0.568 0 0 1 1.071,2.166 Z" style="fill:#0078d4"/><path id="path18076" d="m 5.244,9.632 h 0.49 V 13.5 A 0.157,0.157 0 0 1 5.577,13.657 H 5.087 A 0.157,0.157 0 0 1 4.93,13.5 V 9.945 A 0.314,0.314 0 0 1 5.244,9.631 Z" transform="rotate(-44.919,5.3327414,11.646398)" style="fill:url(#b054a213-2b95-4773-bd8d-5833c021a783)"/><path id="path18078" d="m 4.951,7.3 h 0.49 a 0.314,0.314 0 0 1 0.314,0.314 v 3.617 A 0.157,0.157 0 0 1 5.598,11.388 H 5.108 A 0.157,0.157 0 0 1 4.951,11.231 Z" transform="rotate(-134.919,5.3532188,9.3448772)" style="fill:#f2f2f2"/><path id="path18080" d="m 12.228,9.632 h 0.49 a 0.157,0.157 0 0 1 0.157,0.157 v 3.873 h -0.49 a 0.314,0.314 0 0 1 -0.314,-0.314 v -3.56 a 0.157,0.157 0 0 1 0.157,-0.157 z" transform="rotate(-135.081,12.472791,11.646751)" style="fill:url(#ae8082eb-8439-45c6-ad31-2630ec597ba3)"/><path id="path18082" d="m 12.2,7.3 h 0.49 a 0.157,0.157 0 0 1 0.157,0.157 v 3.617 a 0.314,0.314 0 0 1 -0.314,0.314 h -0.49 V 7.46 A 0.157,0.157 0 0 1 12.2,7.3 Z" transform="rotate(-45.081,12.448713,9.3469047)" style="fill:#f2f2f2"/><rect id="rect18084" width=".806" height="7.634" x="8.547" y="6.598" rx=".112" transform="rotate(17.752,8.9504116,10.416048)" style="fill:#f2f2f2"/></g></g><metadata id="metadata18089"/></svg>