<svg xmlns="http://www.w3.org/2000/svg" xmlns:svg="http://www.w3.org/2000/svg" id="svg19104" width="18" height="14.654" version="1.1" viewBox="0 0 18 14.654"><defs id="defs19077"><linearGradient id="b1a97c07-b126-40c1-af5c-44a3b300d0ee" x1="-655.644" x2="-655.644" y1="751.401" y2="763.239" gradientTransform="translate(666.052,-742.844)" gradientUnits="userSpaceOnUse"><stop id="stop19056" offset="0" stop-color="#76bc2d"/><stop id="stop19058" offset=".312" stop-color="#72b62c"/><stop id="stop19060" offset="1" stop-color="#5e9624"/></linearGradient><linearGradient id="a3877e25-982a-4897-8137-8a5dd1ced9f3" x1="-650.227" x2="-650.227" y1="759.495" y2="763.239" gradientTransform="translate(664.682,-752.308)" gradientUnits="userSpaceOnUse"><stop id="stop19063" offset="0" stop-color="#76bc2d"/><stop id="stop19065" offset=".312" stop-color="#72b62c"/><stop id="stop19067" offset="1" stop-color="#5e9624"/></linearGradient><linearGradient id="a0958e5a-331e-4c24-9b86-75ae08b642f3" x1="-644.724" x2="-644.724" y1="751.401" y2="763.239" gradientTransform="translate(655.132,-753.765)" gradientUnits="userSpaceOnUse"><stop id="stop19070" offset="0" stop-color="#76bc2d"/><stop id="stop19072" offset=".312" stop-color="#72b62c"/><stop id="stop19074" offset="1" stop-color="#5e9624"/></linearGradient></defs><title id="title19079">MsPortalFx.base.images-30</title><g id="a3ae00bc-15ee-4389-87b9-1b75a9b18163" transform="translate(1.6784668e-7,-1.6730002)"><g id="g19099"><rect id="rect19081" width="2.494" height="18" x="7.753" y="5.476" rx=".596" transform="rotate(-90,9,14.476)" style="fill:#5e9624"/><rect id="rect19083" width="2.494" height="18" x="7.753" y=".059" rx=".596" transform="rotate(-90,9,9.059)" style="fill:#5e9624"/><rect id="rect19085" width="2.494" height="18" x="7.753" y="-5.444" rx=".596" transform="rotate(-90,9,3.556)" style="fill:#5e9624"/><rect id="rect19087" width="2.494" height="11.838" x="10.834" y="8.557" rx=".596" transform="rotate(-90,12.081,14.476)" style="fill:url(#b1a97c07-b126-40c1-af5c-44a3b300d0ee)"/><rect id="rect19089" width="2.494" height="3.744" x="14.881" y="7.187" rx=".596" transform="rotate(-90,16.1275,9.0595)" style="fill:url(#a3877e25-982a-4897-8137-8a5dd1ced9f3)"/><rect id="rect19091" width="2.494" height="11.838" x="10.834" y="-2.363" rx=".596" transform="rotate(-90,12.081,3.556)" style="fill:url(#a0958e5a-331e-4c24-9b86-75ae08b642f3)"/><rect id="rect19093" width="3.766" height="1.178" x="4.74" y="13.855" rx=".589" transform="rotate(-90,6.623,14.444)" style="fill:#e6e6e6"/><rect id="rect19095" width="3.766" height="1.178" x="12.671" y="8.419" rx=".589" transform="rotate(-90,14.554,9.008)" style="fill:#e6e6e6"/><rect id="rect19097" width="3.766" height="1.178" x="4.74" y="2.967" rx=".589" transform="rotate(-90,6.623,3.556)" style="fill:#e6e6e6"/></g></g><metadata id="metadata19102"/></svg>