<svg xmlns="http://www.w3.org/2000/svg" xmlns:svg="http://www.w3.org/2000/svg" id="svg19425" width="17" height="14.164" version="1.1" viewBox="0 0 17 14.164"><defs id="defs19412"><linearGradient id="b69628e4-f1fb-4b63-9c34-e2d84c36afc4" x1="9" x2="9" y1="17.198" y2="-3.282" gradientTransform="translate(0.5,1.918)" gradientUnits="userSpaceOnUse"><stop id="stop19401" offset="0" stop-color="#5e9624"/><stop id="stop19403" offset=".183" stop-color="#629c25"/><stop id="stop19405" offset=".435" stop-color="#6dae2a"/><stop id="stop19407" offset=".726" stop-color="#7fcb30"/><stop id="stop19409" offset=".822" stop-color="#86d633"/></linearGradient></defs><title id="title19414">MsPortalFx.base.images-31</title><g id="a0c8ba28-a0da-4e78-8fdc-d8090f0226f2" transform="translate(-0.5,-1.918)"><g id="g19420"><path id="path19416" d="m 17.5,2.5 v 10.832 a 0.583,0.583 0 0 1 -0.584,0.581 H 12.4 a 0.142,0.142 0 0 0 -0.142,0.141 V 15.8 a 0.284,0.284 0 0 1 -0.456,0.224 L 9.079,13.943 A 0.145,0.145 0 0 0 8.992,13.913 H 1.084 A 0.583,0.583 0 0 1 0.5,13.332 V 2.5 A 0.584,0.584 0 0 1 1.084,1.918 H 16.916 A 0.584,0.584 0 0 1 17.5,2.5 Z" style="fill:url(#b69628e4-f1fb-4b63-9c34-e2d84c36afc4)"/><path id="path19418" d="m 10.772,7.857 v 0 A 3.811,3.811 0 0 0 9.348,7.018 V 5.454 a 3.444,3.444 0 0 1 1.286,0.455 0.11,0.11 0 0 0 0.111,0 0.109,0.109 0 0 0 0.056,-0.1 V 4.556 a 0.11,0.11 0 0 0 -0.056,-0.1 3.37,3.37 0 0 0 -1.4,-0.325 V 3.392 A 0.11,0.11 0 0 0 9.235,3.282 H 8.563 a 0.11,0.11 0 0 0 -0.11,0.11 V 4.158 A 2.3,2.3 0 0 0 7.14,4.772 1.8,1.8 0 0 0 6.584,6.1 1.788,1.788 0 0 0 7.038,7.371 3.874,3.874 0 0 0 8.453,8.207 V 9.7 A 3.684,3.684 0 0 1 7.653,9.5 2.6,2.6 0 0 1 6.89,9.118 0.111,0.111 0 0 0 6.714,9.207 V 10.5 a 0.112,0.112 0 0 0 0.059,0.1 3.883,3.883 0 0 0 1.685,0.439 v 0.874 a 0.111,0.111 0 0 0 0.11,0.111 h 0.675 a 0.111,0.111 0 0 0 0.11,-0.111 V 11 A 2.39,2.39 0 0 0 10.72,10.4 1.77,1.77 0 0 0 11.234,9.081 1.721,1.721 0 0 0 10.772,7.857 Z M 9.787,9.135 v 0.008 a 0.5,0.5 0 0 1 -0.438,0.53 v -1.1 C 9.636,8.734 9.783,8.922 9.787,9.135 Z M 8.033,6.023 A 0.512,0.512 0 0 1 8.453,5.487 V 6.639 A 0.726,0.726 0 0 1 8.033,6.023 Z" style="fill:#f2f2f2"/></g></g><metadata id="metadata19423"/></svg>