<svg xmlns="http://www.w3.org/2000/svg" xmlns:svg="http://www.w3.org/2000/svg" id="e00fef30-156c-4930-8b65-3a593543aa1d" width="17.376" height="15.59" version="1.1" viewBox="0 0 17.376 15.59"><defs id="defs20589"><linearGradient id="a45ba9b5-2e08-4c39-8916-0bab184f06e9" x1="9" x2="9" y1="1.48" y2="17.07" gradientUnits="userSpaceOnUse"><stop id="stop20573" offset="0" stop-color="#76bc2d"/><stop id="stop20575" offset=".32" stop-color="#73b82c"/><stop id="stop20577" offset=".65" stop-color="#6cab29"/><stop id="stop20579" offset=".99" stop-color="#5e9724"/><stop id="stop20581" offset="1" stop-color="#5e9624"/></linearGradient><linearGradient id="e74e2f36-f70f-4351-9609-a084522a8ba7" x1="6.13" x2="11.87" y1="9.28" y2="9.28" gradientUnits="userSpaceOnUse"><stop id="stop20584" offset="0" stop-color="#fff"/><stop id="stop20586" offset="1" stop-color="#fff"/></linearGradient></defs><title id="title20591">Icon-general-19</title><path id="path20593" d="M 12.037949,0 H 5.3379492 a 2,2 0 0 0 -1.73,1 L 0.26794919,6.8 a 2,2 0 0 0 0,2 l 3.34000001,5.79 a 2,2 0 0 0 1.73,1 h 6.6999998 a 2,2 0 0 0 1.73,-1 l 3.34,-5.79 a 2,2 0 0 0 0,-2 l -3.34,-5.8 a 2,2 0 0 0 -1.73,-1 z" style="fill:url(#a45ba9b5-2e08-4c39-8916-0bab184f06e9)"/><path id="path20595" d="m 8.7579492,3.33 a 0.82,0.82 0 0 1 -0.82,-0.81 0.82,0.82 0 0 1 1.64,0 0.82,0.82 0 0 1 -0.82,0.81 z m -0.82,9.75 a 0.82,0.82 0 1 0 1.64,0 0.82,0.82 0 0 0 -1.64,0 z m 0.84,-2.7 a 1.5,1.5 0 0 1 -1.51,-0.86 l -1.45,0.28 a 2.68,2.68 0 0 0 2.87,1.72 c 1.6899998,0 2.9099998,-0.89 2.9099998,-2.13 a 2.07,2.07 0 0 0 -1.12,-2 13,13 0 0 0 -1.7899998,-0.54 c -0.67,-0.16 -1.1,-0.53 -1.1,-1 a 1,1 0 0 1 1.1,-0.87 1.4,1.4 0 0 1 1.29,0.69 L 11.227949,5.27 A 2.56,2.56 0 0 0 8.6879492,3.97 c -1.18,0 -2.55,0.52 -2.55,2 0,1.81 1.11,2.17 2.69,2.48 0.37,0.07 1.2299998,0.32 1.2299998,1 -0.04,0.38 -0.3699998,0.93 -1.2799998,0.93 z" style="opacity:.9;fill:url(#e74e2f36-f70f-4351-9609-a084522a8ba7)"/><metadata id="metadata20597"/></svg>