<svg xmlns="http://www.w3.org/2000/svg" xmlns:svg="http://www.w3.org/2000/svg" id="svg21016" width="17" height="13.668" version="1.1" viewBox="0 0 17 13.668"><title id="title20993">MsPortalFx.base.images-12</title><g id="b83efaea-bdda-4ca6-b3f3-bd9b440f1d12" transform="translate(-0.5,-2.1659921)"><g id="g21011"><path id="path20995" d="M 17.5,5.788 V 2.734 A 0.568,0.568 0 0 0 16.932,2.166 H 1.071 A 0.568,0.568 0 0 0 0.5,2.734 v 3.054 0 9.478 a 0.568,0.568 0 0 0 0.568,0.568 H 16.932 A 0.568,0.568 0 0 0 17.5,15.266 Z" style="fill:#0078d4"/><g id="g21003"><rect id="rect20997" width="4.13" height="8.895" x="1.857" y="4.552" rx=".307" style="fill:#fff"/><rect id="rect20999" width="4.13" height="8.895" x="6.94" y="4.552" rx=".307" style="opacity:.75;fill:#fff"/><rect id="rect21001" width="4.13" height="8.895" x="12.023" y="4.552" rx=".307" style="opacity:.5;fill:#fff"/></g><path id="path21005" d="M 3.9,11.1 Q 2.454,11.1 2.454,9.069 A 2.763,2.763 0 0 1 2.845,7.463 1.3,1.3 0 0 1 3.979,6.911 q 1.411,0 1.412,2.065 A 2.723,2.723 0 0 1 5.005,10.552 1.27,1.27 0 0 1 3.9,11.1 Z M 3.939,7.6 q -0.579,0 -0.579,1.45 0,1.371 0.568,1.37 Q 4.496,10.419 4.482,9.008 4.482,7.6 3.939,7.6 Z" style="fill:#0078d4"/><path id="path21007" d="M 8.911,11.1 Q 7.465,11.1 7.465,9.069 A 2.763,2.763 0 0 1 7.857,7.463 1.3,1.3 0 0 1 8.991,6.911 q 1.412,0 1.412,2.065 A 2.723,2.723 0 0 1 10.017,10.552 1.27,1.27 0 0 1 8.911,11.1 Z m 0.04,-3.5 q -0.579,0 -0.579,1.454 0,1.371 0.568,1.37 Q 9.508,10.423 9.493,9.012 9.493,7.6 8.951,7.6 Z" style="fill:#0078d4"/><path id="path21009" d="M 14.8,6.939 V 11.08 H 13.91 V 7.945 a 1.044,1.044 0 0 1 -0.174,0.122 1.757,1.757 0 0 1 -0.213,0.105 2.026,2.026 0 0 1 -0.235,0.079 1.752,1.752 0 0 1 -0.24,0.047 V 7.546 A 3.661,3.661 0 0 0 13.703,7.287 3.773,3.773 0 0 0 14.26,6.939 Z" style="fill:#f2f2f2"/></g></g><metadata id="metadata21014"/></svg>