<svg xmlns="http://www.w3.org/2000/svg" xmlns:svg="http://www.w3.org/2000/svg" id="svg21591" width="17" height="17.228" version="1.1" viewBox="0 0 17 17.228"><title id="title21560">MsPortalFx.base.images-18</title><g id="fb2be18e-454f-4104-869a-31c3b8ba961c" transform="translate(-0.5,-0.386)"><g id="g21586"><g id="g21568"><polygon id="polygon21562" points="8.926 9.993 8.926 5.194 13.067 2.794 13.067 7.585" style="fill:#76bc2d"/><polygon id="polygon21564" points="4.785 2.793 8.926 .386 13.067 2.794 8.926 5.201" style="fill:#b4ec36"/><polygon id="polygon21566" points="4.785 7.585 4.785 2.793 8.926 5.201 8.926 9.993" style="fill:#86d633"/></g><g id="g21576"><polygon id="polygon21570" points="4.641 17.614 4.641 12.816 8.782 10.416 8.782 15.207" style="fill:#76bc2d"/><polygon id="polygon21572" points=".5 10.415 4.641 8.007 8.782 10.416 4.641 12.822" style="fill:#b4ec36"/><polygon id="polygon21574" points=".5 15.207 .5 10.415 4.641 12.822 4.641 17.614" style="fill:#86d633"/></g><g id="g21584"><polygon id="polygon21578" points="13.359 17.614 13.359 12.816 17.5 10.416 17.5 15.207" style="fill:#76bc2d"/><polygon id="polygon21580" points="9.218 10.415 13.36 8.007 17.5 10.416 13.36 12.822" style="fill:#b4ec36"/><polygon id="polygon21582" points="9.218 15.207 9.218 10.415 13.359 12.822 13.359 17.614" style="fill:#86d633"/></g></g></g><metadata id="metadata21589"/></svg>