<svg xmlns="http://www.w3.org/2000/svg" xmlns:svg="http://www.w3.org/2000/svg" id="e88e7012-6ae0-43b5-9280-053e991d49c6" width="18.03" height="12.751" version="1.1" viewBox="0 0 18.03 12.751"><defs id="defs22100"><linearGradient id="b9c03c70-29a5-4e17-9674-29577b4b9674" x1="8.51" x2="8.51" y1=".58" y2="17.27" gradientUnits="userSpaceOnUse"><stop id="stop22085" offset=".09" stop-color="#6cc6b9"/><stop id="stop22087" offset=".46" stop-color="#6ac4b7"/><stop id="stop22089" offset=".64" stop-color="#62bdb0"/><stop id="stop22091" offset=".77" stop-color="#56b1a4"/><stop id="stop22093" offset=".88" stop-color="#439f93"/><stop id="stop22095" offset=".98" stop-color="#2c897d"/><stop id="stop22097" offset="1" stop-color="#258277"/></linearGradient></defs><title id="title22102">Icon-general-15</title><path id="path22104" d="M 0.55,4.1785469e-4 H 17.49 A 0.52,0.52 0 0 1 18.03,0.49041785 V 12.260418 a 0.52,0.52 0 0 1 -0.54,0.49 H 0.55 A 0.53,0.53 0 0 1 0,12.260418 V 0.51041785 A 0.53,0.53 0 0 1 0.55,4.1785469e-4 Z" style="fill:url(#b9c03c70-29a5-4e17-9674-29577b4b9674)"/><path id="bd0aa3dd-0b00-4321-a08d-35d4016600a8" d="m 7.49,1.5104179 h 8.09 a 0.16,0.16 0 0 1 0.16,0.15 v 4.47 a 0.16,0.16 0 0 1 -0.16,0.15 H 7.49 a 0.16,0.16 0 0 1 -0.16,-0.15 v -4.48 a 0.16,0.16 0 0 1 0.16,-0.14 z" style="fill:#fff"/><rect id="bda038fc-05f8-4c73-8191-dcc998cc8c65" width="3.41" height="9.61" x="2.24" y="1.5" rx=".15" style="fill:#fff"/><path id="f698805f-4654-42cb-b2bf-38f0a925cdbf" d="m 12.41,7.6304179 h 3.14 a 0.15,0.15 0 0 1 0.15,0.15 v 3.1900001 a 0.15,0.15 0 0 1 -0.15,0.14 h -3.14 a 0.15,0.15 0 0 1 -0.15,-0.14 V 7.7804179 a 0.15,0.15 0 0 1 0.15,-0.15 z" style="fill:#fff"/><path id="f83fd769-9efd-4d02-bd0d-a012d7e875a2" d="m 7.44,7.6304179 h 3.05 a 0.15,0.15 0 0 1 0.15,0.15 v 3.1900001 a 0.14,0.14 0 0 1 -0.14,0.14 H 7.49 a 0.15,0.15 0 0 1 -0.15,-0.15 V 7.7804179 a 0.14,0.14 0 0 1 0.1,-0.15 z" style="fill:#fff"/><metadata id="metadata22110"/></svg>