<svg xmlns="http://www.w3.org/2000/svg" xmlns:svg="http://www.w3.org/2000/svg" id="svg23097" width="16.34" height="17" version="1.1" viewBox="0 0 16.34 17"><defs id="defs23062"><linearGradient id="ed55284c-0eaa-4edf-a1b6-a4c950cf56af" x1="-4014.225" x2="-4014.225" y1="-119.864" y2="-127.984" gradientTransform="rotate(180,-2002.1965,-59.432007)" gradientUnits="userSpaceOnUse"><stop id="stop23057" offset="0" stop-color="#6bb9f2"/><stop id="stop23059" offset="1" stop-color="#1b93eb"/></linearGradient></defs><title id="title23064">MsPortalFx.base.images-16</title><g id="g23093" transform="translate(-0.82999998,-0.49998556)"><g id="abd49aa8-9ce6-494e-a01a-11de4625ee71"><g id="g23090"><path id="path23066" d="m 12.649,16.631 c -1.9,-0.255 -1.866,-1.475 -1.857,-3.452 H 7.237 c 0.009,1.977 0.041,3.2 -1.856,3.452 A 0.967,0.967 0 0 0 4.487,17.5 h 9.061 a 0.972,0.972 0 0 0 -0.899,-0.869 z" style="fill:#1f56a3"/><rect id="rect23068" width="16.34" height="11.571" x=".83" y="1.665" rx=".554" style="fill:#1490df"/><rect id="rect23070" width="14.435" height="9.601" x="1.77" y="2.561" rx=".277" style="fill:#fff"/><path id="path23072" d="M 12.565,5.22 9.279,8.505 a 0.392,0.392 0 0 1 -0.554,0 L 5.44,5.22 a 0.175,0.175 0 0 1 0.124,-0.3 h 2.02 A 0.175,0.175 0 0 0 7.759,4.745 V 0.64 A 0.139,0.139 0 0 1 7.9,0.5 h 2.207 a 0.139,0.139 0 0 1 0.139,0.14 v 4.106 a 0.176,0.176 0 0 0 0.176,0.175 h 2.02 a 0.175,0.175 0 0 1 0.123,0.299 z" style="fill:url(#ed55284c-0eaa-4edf-a1b6-a4c950cf56af)"/><g id="g23088"><g id="g23078"><path id="path23074" d="m 4.388,8.869 h 0.724 a 0.16,0.16 0 0 1 0.16,0.16 v 2.024 H 4.549 A 0.321,0.321 0 0 1 4.228,10.732 V 9.03 a 0.16,0.16 0 0 1 0.16,-0.161 z" style="fill:#999"/><path id="path23076" d="m 4.388,8.869 h 0.724 a 0.16,0.16 0 0 1 0.16,0.16 v 2.024 H 4.549 A 0.321,0.321 0 0 1 4.228,10.732 V 9.03 a 0.16,0.16 0 0 1 0.16,-0.161 z" style="opacity:.5;fill:#999"/></g><g id="g23084"><path id="path23080" d="m 12.887,8.869 h 0.724 a 0.16,0.16 0 0 1 0.16,0.16 v 1.7 A 0.321,0.321 0 0 1 13.45,11.05 H 12.726 V 9.03 a 0.16,0.16 0 0 1 0.161,-0.161 z" style="fill:#999"/><path id="path23082" d="m 12.887,8.869 h 0.724 a 0.16,0.16 0 0 1 0.16,0.16 v 1.7 A 0.321,0.321 0 0 1 13.45,11.05 H 12.726 V 9.03 a 0.16,0.16 0 0 1 0.161,-0.161 z" style="opacity:.5;fill:#999"/></g><path id="path23086" d="m 8.809,5.772 h 0.7 v 9.544 h -0.7 A 0.318,0.318 0 0 1 8.491,15 V 6.09 A 0.318,0.318 0 0 1 8.809,5.772 Z" transform="rotate(-90,9,10.544)" style="fill:#949494"/></g></g></g></g><metadata id="metadata23095"/></svg>