<svg xmlns="http://www.w3.org/2000/svg" xmlns:svg="http://www.w3.org/2000/svg" id="svg23529" width="18" height="17.228" version="1.1" viewBox="0 0 18 17.228"><defs id="defs23516"><linearGradient id="bd54f8cd-a509-4194-8c72-54392055662b" x1="9" x2="9" y1="13.145" y2=".387" gradientTransform="translate(0,0.38464692)" gradientUnits="userSpaceOnUse"><stop id="stop23496" offset="0" stop-color="#0078d4"/><stop id="stop23498" offset=".156" stop-color="#1380da"/><stop id="stop23500" offset=".528" stop-color="#3c91e5"/><stop id="stop23502" offset=".822" stop-color="#559cec"/><stop id="stop23504" offset="1" stop-color="#5ea0ef"/></linearGradient><linearGradient id="bba29445-f259-4769-b9d5-17942be8e3ea" x1="13.102" x2="13.102" y1="17.613" y2="9.07" gradientTransform="translate(0,0.38464692)" gradientUnits="userSpaceOnUse"><stop id="stop23507" offset="0" stop-color="#32bedd"/><stop id="stop23509" offset=".175" stop-color="#32caea"/><stop id="stop23511" offset=".41" stop-color="#32d2f2"/><stop id="stop23513" offset=".775" stop-color="#32d4f5"/></linearGradient></defs><title id="title23518">MsPortalFx.base.images-17</title><g id="eac1eaca-e5a4-44bb-9cfc-c100fad7ac76" transform="translate(0,-0.38464692)"><g id="g23524"><path id="path23520" d="M 18,9.149 A 4.045,4.045 0 0 0 14.49,5.261 5.1,5.1 0 0 0 9.24,0.387 5.228,5.228 0 0 0 4.24,3.795 4.825,4.825 0 0 0 0,8.438 4.9,4.9 0 0 0 5.068,13.145 c 0.151,0 0.3,-0.008 0.447,-0.02 h 8.207 A 0.819,0.819 0 0 0 13.939,13.093 4.093,4.093 0 0 0 18,9.149 Z" style="fill:url(#bd54f8cd-a509-4194-8c72-54392055662b)"/><path id="path23522" d="m 10.588,14.3 a 2.531,2.531 0 0 0 0.027,1.49 2.609,2.609 0 0 0 5,-1.49 l -2.5,-5.225 z" style="fill:url(#bba29445-f259-4769-b9d5-17942be8e3ea)"/></g></g><metadata id="metadata23527"/></svg>