<svg xmlns="http://www.w3.org/2000/svg" xmlns:svg="http://www.w3.org/2000/svg" id="svg23915" width="17" height="16.68" version="1.1" viewBox="0 0 17 16.68"><defs id="defs23900"><linearGradient id="a7ee2b34-5d31-4c40-9ffe-8433e6b85e09" x1="8.144" x2="8.144" y1="13.837" y2="6.11" gradientTransform="translate(0.5,0.66)" gradientUnits="userSpaceOnUse"><stop id="stop23891" offset="0" stop-color="#32bedd"/><stop id="stop23893" offset=".175" stop-color="#32caea"/><stop id="stop23895" offset=".41" stop-color="#32d2f2"/><stop id="stop23897" offset=".775" stop-color="#32d4f5"/></linearGradient></defs><title id="title23902">MsPortalFx.base.images-21</title><g id="b60cdf7c-998d-4b07-83eb-3c17ec41d74f" transform="translate(-0.5,-0.66)"><g id="g23910"><rect id="rect23904" width="7.726" height="7.726" x="4.281" y="6.11" rx=".303" style="fill:url(#a7ee2b34-5d31-4c40-9ffe-8433e6b85e09)"/><path id="path23906" d="m 16.894,0.66 h -7.3 a 0.3,0.3 0 0 0 -0.3,0.3 v 1.327 a 0.3,0.3 0 0 0 0.3,0.3 h 5.371 a 0.605,0.605 0 0 1 0.605,0.606 v 5.458 a 0.3,0.3 0 0 0 0.3,0.3 h 1.33 a 0.3,0.3 0 0 0 0.3,-0.3 V 1.266 A 0.606,0.606 0 0 0 16.894,0.66 Z" style="fill:#773adc"/><path id="path23908" d="m 14.333,10.223 v 4.806 a 0.552,0.552 0 0 1 -0.552,0.552 H 2.81 A 0.552,0.552 0 0 1 2.258,15.029 V 4.672 A 0.552,0.552 0 0 1 2.81,4.12 h 5.5 a 0.3,0.3 0 0 0 0.3,-0.3 V 2.665 a 0.3,0.3 0 0 0 -0.3,-0.3 H 1.052 A 0.552,0.552 0 0 0 0.5,2.914 v 13.874 a 0.552,0.552 0 0 0 0.552,0.552 h 14.487 a 0.553,0.553 0 0 0 0.553,-0.552 v -6.565 a 0.3,0.3 0 0 0 -0.3,-0.3 h -1.156 a 0.3,0.3 0 0 0 -0.303,0.3 z" style="fill:#b3b3b3"/></g></g><metadata id="metadata23913"/></svg>