<svg xmlns="http://www.w3.org/2000/svg" xmlns:svg="http://www.w3.org/2000/svg" id="svg24662" width="16.51" height="18" version="1.1" viewBox="0 0 16.51 18"><defs id="defs24631"><linearGradient id="ee9e6206-3cd1-473c-8654-89b04e62a5fd" x1="11.246" x2="11.246" y1="18" y2="3.281" gradientTransform="translate(0.74399849,-1.5060309e-6)" gradientUnits="userSpaceOnUse"><stop id="stop24626" offset="0" stop-color="#0078d4"/><stop id="stop24628" offset=".817" stop-color="#5ea0ef"/></linearGradient></defs><title id="title24633">MsPortalFx.base.images-23</title><g id="ff5c5c80-dfbf-4584-91f1-56ebc112ac71" transform="translate(-0.74399849,1.5060309e-6)"><g id="g24657"><rect id="rect24635" width="10.11" height="11.685" x="1.078" y=".334" style="fill:#5ea0ef"/><path id="path24637" d="M 11.188,12.353 H 1.078 A 0.334,0.334 0 0 1 0.744,12.019 V 0.334 A 0.333,0.333 0 0 1 1.078,0 h 10.11 a 0.333,0.333 0 0 1 0.333,0.334 v 11.685 a 0.334,0.334 0 0 1 -0.333,0.334 z M 1.411,11.685 h 9.443 V 0.668 H 1.411 Z" style="fill:#0078d4"/><rect id="rect24639" width="10.11" height="11.685" x="3.01" y="1.918" style="fill:#83b9f9"/><path id="path24641" d="M 13.12,13.937 H 3.01 A 0.335,0.335 0 0 1 2.676,13.603 V 1.918 A 0.335,0.335 0 0 1 3.01,1.584 h 10.11 a 0.334,0.334 0 0 1 0.334,0.334 V 13.6 A 0.334,0.334 0 0 1 13.12,13.937 Z M 3.344,13.269 h 9.443 V 2.252 H 3.344 Z" style="fill:#0078d4"/><g id="g24649"><path id="path24643" d="M 12.082,3.39 H 5.818 A 0.5,0.5 0 0 0 5.323,3.89 V 17.4 a 0.5,0.5 0 0 0 0.495,0.5 h 10.856 a 0.5,0.5 0 0 0 0.494,-0.5 V 8.454 a 0.5,0.5 0 0 0 -0.494,-0.5 h -3.6 A 0.5,0.5 0 0 1 12.579,7.459 V 3.886 A 0.5,0.5 0 0 0 12.082,3.39 Z" style="fill:#fff"/><path id="path24645" d="M 11.853,4.023 V 7.416 A 1.246,1.246 0 0 0 13.1,8.661 h 3.418 v 8.6 H 5.977 V 4.023 h 5.876 m 0.24,-0.742 H 5.737 a 0.5,0.5 0 0 0 -0.5,0.5 V 17.5 a 0.5,0.5 0 0 0 0.5,0.5 h 11.017 a 0.5,0.5 0 0 0 0.5,-0.5 V 8.421 a 0.5,0.5 0 0 0 -0.5,-0.5 H 13.1 a 0.5,0.5 0 0 1 -0.5,-0.5 V 3.783 a 0.5,0.5 0 0 0 -0.5,-0.5 z" style="fill:url(#ee9e6206-3cd1-473c-8654-89b04e62a5fd)"/><path id="path24647" d="M 17.064,8.019 12.422,3.39 v 3.772 a 0.852,0.852 0 0 0 0.846,0.857 z" style="fill:#0078d4"/></g><rect id="rect24651" width="8.177" height="1.097" x="7.157" y="9.982" rx=".493" style="fill:#5ea0ef"/><rect id="rect24653" width="8.177" height="1.097" x="7.157" y="11.948" rx=".493" style="fill:#5ea0ef"/><rect id="rect24655" width="5.154" height="1.097" x="7.157" y="13.913" rx=".493" style="fill:#5ea0ef"/></g></g><metadata id="metadata24660"/></svg>