<svg xmlns="http://www.w3.org/2000/svg" xmlns:svg="http://www.w3.org/2000/svg" id="svg24324" width="14.7" height="18" version="1.1" viewBox="0 0 14.7 18"><defs id="defs24301"><linearGradient id="e5371565-cc9b-4729-9e54-9bac135a92bd" x1="9" x2="9" y1="18" gradientTransform="translate(1.6499992)" gradientUnits="userSpaceOnUse"><stop id="stop24296" offset="0" stop-color="#0078d4"/><stop id="stop24298" offset=".817" stop-color="#5ea0ef"/></linearGradient></defs><title id="title24303">MsPortalFx.base.images-22</title><g id="abc3e3f9-d4db-41ad-8b60-378d1c3348f7" transform="translate(-1.6499992)"><g id="g24319"><g id="g24311"><path id="path24305" d="M 10.023,0.134 H 2.362 A 0.605,0.605 0 0 0 1.757,0.74 v 16.52 a 0.605,0.605 0 0 0 0.605,0.606 h 13.276 a 0.605,0.605 0 0 0 0.6,-0.606 V 6.327 a 0.605,0.605 0 0 0 -0.6,-0.606 h -4.406 a 0.605,0.605 0 0 1 -0.6,-0.605 V 0.74 A 0.6,0.6 0 0 0 10.023,0.134 Z" style="fill:#fff"/><path id="path24307" d="m 9.743,0.908 v 4.149 a 1.524,1.524 0 0 0 1.52,1.523 h 4.18 V 17.092 H 2.557 V 0.908 H 9.743 M 10.036,0 H 2.264 A 0.614,0.614 0 0 0 1.65,0.615 v 16.77 A 0.614,0.614 0 0 0 2.264,18 H 15.736 A 0.614,0.614 0 0 0 16.35,17.385 V 6.286 A 0.614,0.614 0 0 0 15.736,5.672 H 11.263 A 0.614,0.614 0 0 1 10.65,5.057 V 0.615 A 0.614,0.614 0 0 0 10.036,0 Z" style="fill:url(#e5371565-cc9b-4729-9e54-9bac135a92bd)"/><path id="path24309" d="m 16.116,5.794 -5.678,-5.66 v 4.612 a 1.041,1.041 0 0 0 1.035,1.048 z" style="fill:#0078d4"/></g><rect id="rect24313" width="9.999" height="1.341" x="4" y="8.196" rx=".603" style="fill:#5ea0ef"/><rect id="rect24315" width="9.999" height="1.341" x="4" y="10.599" rx=".603" style="fill:#5ea0ef"/><rect id="rect24317" width="6.302" height="1.341" x="4" y="13.002" rx=".603" style="fill:#5ea0ef"/></g></g><metadata id="metadata24322"/></svg>