<svg xmlns="http://www.w3.org/2000/svg" xmlns:svg="http://www.w3.org/2000/svg" id="svg25058" width="18" height="14.7" version="1.1" viewBox="0 0 18 14.7"><defs id="defs25043"><linearGradient id="ba550277-e5d9-459d-bfde-60aa3d6d8bb4" x1="9.252" x2="8.842" y1=".485" y2="16.966" gradientTransform="translate(0,1.6499988)" gradientUnits="userSpaceOnUse"><stop id="stop25034" offset="0" stop-color="#ffd400"/><stop id="stop25036" offset=".415" stop-color="#ffd000"/><stop id="stop25038" offset=".845" stop-color="#ffc301"/><stop id="stop25040" offset="1" stop-color="#ffbd02"/></linearGradient></defs><title id="title25045">MsPortalFx.base.images-24</title><g id="a2d6bd0e-ea40-44ec-b813-9a41f466150e" transform="translate(0,-1.6499988)"><g id="g25053"><path id="path25047" d="M 17.579,3.283 H 9.727 A 0.419,0.419 0 0 1 9.494,3.213 L 7.251,1.721 A 0.42,0.42 0 0 0 7.018,1.65 H 0.421 A 0.42,0.42 0 0 0 0,2.07 v 13.86 a 0.42,0.42 0 0 0 0.421,0.42 H 17.579 A 0.42,0.42 0 0 0 18,15.93 V 3.7 A 0.42,0.42 0 0 0 17.579,3.283 Z" style="fill:#dfa500"/><rect id="rect25049" width="4.091" height=".818" x="1.636" y="2.455" rx=".172" style="fill:#fff"/><path id="path25051" d="M 17.579,3.263 H 8.956 a 0.421,0.421 0 0 0 -0.3,0.123 L 7.272,4.773 a 0.42,0.42 0 0 1 -0.3,0.123 H 0.421 A 0.42,0.42 0 0 0 0,5.316 V 15.91 a 0.42,0.42 0 0 0 0.421,0.419 H 17.579 A 0.42,0.42 0 0 0 18,15.91 V 3.683 a 0.42,0.42 0 0 0 -0.421,-0.42 z" style="fill:url(#ba550277-e5d9-459d-bfde-60aa3d6d8bb4)"/></g></g><metadata id="metadata25056"/></svg>