<svg xmlns="http://www.w3.org/2000/svg" xmlns:svg="http://www.w3.org/2000/svg" xmlns:xlink="http://www.w3.org/1999/xlink" id="svg25372" width="18" height="14.7" version="1.1" viewBox="0 0 18 14.7"><defs id="defs25316"><linearGradient id="edf8b38a-87da-4beb-b295-2a7890b8fb3b" x1="9.252" x2="8.842" y1=".485" y2="16.966" gradientUnits="userSpaceOnUse"><stop id="stop25292" offset="0" stop-color="#ffd400"/><stop id="stop25294" offset="1" stop-color="#ffbd02"/></linearGradient><radialGradient id="ade01078-f104-424b-86f2-7623db5f6b70" cx="2073.6" cy="3109.478" r="26.184" gradientTransform="matrix(0.15,0,0,0.15,-302.042,-454.662)" gradientUnits="userSpaceOnUse"><stop id="stop25297" offset=".183" stop-color="#5ea0ef"/><stop id="stop25299" offset="1" stop-color="#0078d4"/></radialGradient><linearGradient id="ebfd2ad2-6f29-4f9d-83de-1b85750fb374" x1="6.874" x2="6.86" y1="11.261" y2="9.431" gradientTransform="translate(0,1.6499988)" gradientUnits="userSpaceOnUse"><stop id="stop25302" offset="0" stop-color="#ccc"/><stop id="stop25304" offset=".123" stop-color="#d7d7d7"/><stop id="stop25306" offset="1" stop-color="#fcfcfc"/></linearGradient><linearGradient id="ae34d01e-2d5c-4584-9098-7805cafe1dad" x1="9.524" x2="9.524" y1="13.091" y2="11.45" gradientTransform="translate(0,1.6499988)" gradientUnits="userSpaceOnUse"><stop id="stop25309" offset="0" stop-color="#ccc"/><stop id="stop25311" offset=".123" stop-color="#d7d7d7"/><stop id="stop25313" offset="1" stop-color="#fcfcfc"/></linearGradient><linearGradient id="linearGradient25376" x1="9.252" x2="8.842" y1=".485" y2="16.966" gradientTransform="translate(0,1.6499988)" gradientUnits="userSpaceOnUse" xlink:href="#edf8b38a-87da-4beb-b295-2a7890b8fb3b"/><linearGradient id="linearGradient25378" x1="9.252" x2="8.842" y1=".485" y2="16.966" gradientTransform="translate(0,1.6499988)" gradientUnits="userSpaceOnUse" xlink:href="#edf8b38a-87da-4beb-b295-2a7890b8fb3b"/></defs><title id="title25318">MsPortalFx.base.images-25</title><g id="e40d5f91-938d-4a7c-b99f-1542f688b107" transform="translate(0,-1.6499988)"><g id="g25332"><path id="path25320" d="M 17.579,3.283 H 9.727 A 0.419,0.419 0 0 1 9.494,3.213 L 7.251,1.721 A 0.42,0.42 0 0 0 7.018,1.65 H 0.421 A 0.42,0.42 0 0 0 0,2.07 v 13.86 a 0.42,0.42 0 0 0 0.421,0.42 H 17.579 A 0.42,0.42 0 0 0 18,15.93 V 3.7 A 0.42,0.42 0 0 0 17.579,3.283 Z" style="fill:#dfa500"/><rect id="rect25322" width="4.091" height=".818" x="1.636" y="2.455" rx=".172" style="fill:#fff"/><path id="path25324" d="M 17.579,3.263 H 8.956 a 0.421,0.421 0 0 0 -0.3,0.123 L 7.272,4.773 a 0.42,0.42 0 0 1 -0.3,0.123 H 0.421 A 0.42,0.42 0 0 0 0,5.316 V 15.91 a 0.42,0.42 0 0 0 0.421,0.419 H 17.579 A 0.42,0.42 0 0 0 18,15.91 V 3.683 a 0.42,0.42 0 0 0 -0.421,-0.42 z" style="fill:url(#linearGradient25376)"/><polygon id="polygon25326" points="8.961 14.039 8.961 10.12 12.343 8.16 12.343 12.073" style="fill:#f78d1e"/><polygon id="polygon25328" points="5.58 8.159 8.962 6.193 12.343 8.16 8.962 10.126" style="fill:#ffb34d"/><polygon id="polygon25330" points="5.58 12.073 5.58 8.16 8.961 10.126 8.961 14.039" style="fill:#faa21d"/></g><g id="g25367"><path id="path25334" d="M 17.579,3.283 H 9.727 A 0.419,0.419 0 0 1 9.494,3.213 L 7.251,1.721 A 0.42,0.42 0 0 0 7.018,1.65 H 0.421 A 0.42,0.42 0 0 0 0,2.07 v 13.86 a 0.42,0.42 0 0 0 0.421,0.42 H 17.579 A 0.42,0.42 0 0 0 18,15.93 V 3.7 A 0.42,0.42 0 0 0 17.579,3.283 Z" style="fill:#dfa500"/><rect id="rect25336" width="4.091" height=".818" x="1.636" y="2.455" rx=".172" style="fill:#fff"/><path id="path25338" d="M 17.579,3.263 H 8.956 a 0.421,0.421 0 0 0 -0.3,0.123 L 7.272,4.773 a 0.42,0.42 0 0 1 -0.3,0.123 H 0.421 A 0.42,0.42 0 0 0 0,5.316 V 15.91 a 0.42,0.42 0 0 0 0.421,0.419 H 17.579 A 0.42,0.42 0 0 0 18,15.91 V 3.683 a 0.42,0.42 0 0 0 -0.421,-0.42 z" style="fill:url(#linearGradient25378)"/><path id="a1911e4e-9624-47fa-b357-e1471898d577" d="M 11.407,13.216 A 3.928,3.928 0 1 1 6.593,7.009 l 0.04,-0.03 a 3.9271887,3.9271887 0 0 1 4.774,6.237" style="fill:url(#ade01078-f104-424b-86f2-7623db5f6b70)"/><g id="g25365"><circle id="circle25341" cx="6.864" cy="9.965" r="1.262" style="fill:url(#ebfd2ad2-6f29-4f9d-83de-1b85750fb374)"/><circle id="circle25343" cx="9.524" cy="12.271" r=".82" style="fill:url(#ae34d01e-2d5c-4584-9098-7805cafe1dad)"/><circle id="circle25345" cx="11.394" cy="10.236" r=".871" style="fill:#fff"/><g id="g25359"><path id="path25347" d="m 5.6,12.085 a 4.207,4.207 0 0 0 0.288,0.426 3.842,3.842 0 0 0 0.256,0.3 8.217,8.217 0 0 1 0.5,-1.6 A 1.253,1.253 0 0 1 5.986,10.877 8.775,8.775 0 0 0 5.6,12.085 Z" style="opacity:.55;fill:#f2f2f2"/><path id="path25349" d="M 6.44,8.777 A 5.514,5.514 0 0 1 6.122,7.416 3.922,3.922 0 0 0 5.613,8.09 6.128,6.128 0 0 0 5.876,9.181 1.261,1.261 0 0 1 6.44,8.777 Z" style="opacity:.55;fill:#f2f2f2"/><path id="path25351" d="m 7.785,10.826 a 1.254,1.254 0 0 1 -0.689,0.379 5.347,5.347 0 0 0 0.67,0.594 5.687,5.687 0 0 0 0.946,0.577 A 0.745,0.745 0 0 1 8.7,12.27 0.815,0.815 0 0 1 8.948,11.684 5.566,5.566 0 0 1 7.785,10.826 Z" style="opacity:.55;fill:#f2f2f2"/><path id="path25353" d="m 10.342,12.22 c 0,0.017 0,0.033 0,0.05 a 0.82,0.82 0 0 1 -0.234,0.573 6.412,6.412 0 0 0 1.576,0.113 3.888,3.888 0 0 0 0.532,-0.621 5.561,5.561 0 0 1 -0.6,0.033 5.453,5.453 0 0 1 -1.274,-0.148 z" style="opacity:.55;fill:#f2f2f2"/><path id="path25355" d="M 10.816,9.622 A 12.288,12.288 0 0 1 9.309,8.313 6.284,6.284 0 0 1 12.05,7.641 3.879,3.879 0 0 0 11.363,6.973 6.68,6.68 0 0 0 9.194,7.485 C 9.044,7.549 8.911,7.644 8.767,7.72 L 8.754,7.705 a 7.885,7.885 0 0 1 -0.917,-1.35 3.927,3.927 0 0 0 -0.5,0.194 8.282,8.282 0 0 0 0.957,1.434 5.641,5.641 0 0 0 -0.981,0.8 1.262,1.262 0 0 1 0.622,0.509 5.412,5.412 0 0 1 0.9,-0.7 12.741,12.741 0 0 0 1.7,1.488 0.856,0.856 0 0 1 0.281,-0.458 z" style="opacity:.55;fill:#f2f2f2"/><path id="path25357" d="m 12.709,10.746 -0.014,-0.008 -0.137,-0.074 -0.026,-0.014 -0.123,-0.068 -0.03,-0.017 -0.146,-0.083 a 0.819,0.819 0 0 1 -0.294,0.427 l 0.173,0.1 0.039,0.022 0.161,0.089 0.015,0.009 c 0.13,0.07 0.263,0.141 0.4,0.21 v 0 a 3.91,3.91 0 0 0 0.131,-0.514 z" style="opacity:.55;fill:#f2f2f2"/></g><circle id="circle25361" cx="6.864" cy="9.965" r="1.262" style="fill:#fff"/><circle id="circle25363" cx="9.524" cy="12.271" r=".82" style="fill:#fff"/></g></g></g><metadata id="metadata25370"/></svg>