<svg xmlns="http://www.w3.org/2000/svg" xmlns:svg="http://www.w3.org/2000/svg" id="svg25556" width="16" height="12.867" version="1.1" viewBox="0 0 16 12.867"><defs id="defs25535"><linearGradient id="f9735c41-4373-4adb-b2b2-792fb469daad" x1="9" x2="9" y1="15.432" y2="5.977" gradientTransform="translate(1,2.567985)" gradientUnits="userSpaceOnUse"><stop id="stop25526" offset="0" stop-color="#32bedd"/><stop id="stop25528" offset=".175" stop-color="#32caea"/><stop id="stop25530" offset=".41" stop-color="#32d2f2"/><stop id="stop25532" offset=".775" stop-color="#32d4f5"/></linearGradient></defs><title id="title25537">MsPortalFx.base.images-67</title><g id="e570f1c2-02c9-41ea-b129-22ed8e502359" transform="translate(-1,-2.567985)"><g id="g25551"><path id="path25539" d="M 1,5.977 H 17 V 14.9 a 0.535,0.535 0 0 1 -0.535,0.535 H 1.535 A 0.535,0.535 0 0 1 1,14.9 Z" style="fill:url(#f9735c41-4373-4adb-b2b2-792fb469daad)"/><path id="path25541" d="M 1.539,2.568 H 16.463 A 0.535,0.535 0 0 1 17,3.1 V 5.977 H 1 V 3.1 A 0.535,0.535 0 0 1 1.539,2.568 Z" style="fill:#0078d4"/><rect id="rect25543" width="11.499" height="1.35" x="3.252" y="3.58" rx=".263" style="fill:#f2f2f2"/><g id="g25549"><path id="path25545" d="M 6.611,13.469 8.666,7.923 A 0.27,0.27 0 0 0 8.413,7.56 H 7.136 A 0.269,0.269 0 0 0 6.884,7.736 l -2.055,5.546 a 0.269,0.269 0 0 0 0.252,0.362 h 1.277 a 0.27,0.27 0 0 0 0.253,-0.175 z" style="fill:#f2f2f2"/><path id="path25547" d="M 11.116,13.469 13.171,7.923 A 0.269,0.269 0 0 0 12.919,7.56 h -1.277 a 0.269,0.269 0 0 0 -0.253,0.176 l -2.055,5.546 a 0.269,0.269 0 0 0 0.253,0.362 h 1.277 a 0.269,0.269 0 0 0 0.252,-0.175 z" style="fill:#f2f2f2"/></g></g></g><metadata id="metadata25554"/></svg>