<svg xmlns="http://www.w3.org/2000/svg" xmlns:svg="http://www.w3.org/2000/svg" id="svg25885" width="14.37" height="17" version="1.1" viewBox="0 0 14.37 17"><defs id="defs25852"><linearGradient id="bc325d07-864b-4946-a0b7-6e17647feb1e" x1="-212.049" x2="-212.049" y1="722.745" y2="734.871" gradientTransform="matrix(0.707,0.707,0.707,-0.707,-355.725,672.349)" gradientUnits="userSpaceOnUse"><stop id="stop25844" offset="0" stop-color="#0078d4"/><stop id="stop25846" offset=".82" stop-color="#5ea0ef"/></linearGradient><clipPath id="a2d3a9ab-6b81-49cc-a6d0-1eb27e4d8e5e"><circle id="circle25849" cx="7.871" cy="6.563" r="6.063" style="fill:none"/></clipPath></defs><title id="title25854">MsPortalFx.base.images-68</title><g id="ae08251c-f90b-45c3-901b-bcb035722af4" transform="translate(-1.8079996,-0.5)"><g id="g25880"><path id="path25856" d="m 9.3,14.752 c 0,-0.154 -0.613,-0.154 -0.613,0 a 1.656,1.656 0 0 1 -1.636,1.8 h 3.882 A 1.655,1.655 0 0 1 9.3,14.752 Z" style="fill:#ef7100"/><path id="path25858" d="m 13.335,1.1 a 0.571,0.571 0 0 1 0.807,0 l 0.026,0.028 a 8.32,8.32 0 0 1 -11.736,11.73 0.57,0.57 0 0 1 -0.049,-0.8 l 0.025,-0.026 v 0 A 0.571,0.571 0 0 1 3.19,12 7.178,7.178 0 0 0 13.312,1.882 0.573,0.573 0 0 1 13.335,1.1 Z" style="fill:#f78d1e"/><path id="path25860" d="m 11.946,17.5 h -5.9 A 0.476,0.476 0 0 1 5.57,17.024 v 0 a 0.476,0.476 0 0 1 0.476,-0.476 h 5.9 a 0.476,0.476 0 0 1 0.475,0.476 v 0 A 0.476,0.476 0 0 1 11.946,17.5 Z" style="fill:#f78d1e"/><circle id="circle25862" cx="7.871" cy="6.563" r="6.063" style="fill:url(#bc325d07-864b-4946-a0b7-6e17647feb1e)"/><g id="g25878" clip-path="url(#a2d3a9ab-6b81-49cc-a6d0-1eb27e4d8e5e)"><path id="path25864" d="m 0.724,1.776 1.962,1.962 a 0.839,0.839 0 0 1 0,1.187 v 0 a 0.839,0.839 0 0 1 -1.187,0 L -0.463,2.963 a 0.839,0.839 0 0 1 0,-1.187 v 0 a 0.841,0.841 0 0 1 1.187,0 z" style="fill:#42e8ca"/><path id="path25866" d="m 6.7,5.389 v 0 a 0.839,0.839 0 0 1 0,1.187 v 0 a 0.841,0.841 0 0 1 -1.187,0 v 0 a 0.841,0.841 0 0 1 0,-1.187 v 0 a 0.839,0.839 0 0 1 1.187,0 z" style="fill:#42e8ca"/><path id="path25868" d="m 3.871,-1.974 3.286,3.286 a 1.407,1.407 0 0 1 0,1.989 v 0 a 1.407,1.407 0 0 1 -1.989,0 L 1.882,0.015 a 1.407,1.407 0 0 1 0,-1.989 v 0 a 1.407,1.407 0 0 1 1.989,0 z" style="fill:#42e8ca"/><rect id="rect25870" width="4.596" height="12.191" x="12.667" y="3.516" rx="2.297" transform="rotate(-45,14.96511,9.6112487)" style="fill:#42e8ca"/><path id="path25872" d="m 9.744,11.85 6.119,6.119 a 2.618,2.618 0 0 1 0,3.7 v 0 a 2.618,2.618 0 0 1 -3.7,0 L 6.041,15.554 a 2.619,2.619 0 0 1 0,-3.7 v 0 A 2.619,2.619 0 0 1 9.744,11.85 Z" style="fill:#42e8ca"/><path id="path25874" d="m 10.478,9.637 a 0.446,0.446 0 0 0 0.63,0 v 0 0 a 0.445,0.445 0 0 0 0,-0.63 v 0 l 5.04,5.039 -1.407,1.418" style="fill:#42e8ca"/><path id="path25876" d="m 10.487,9.646 1.468,1.468 a 0.606,0.606 0 0 1 0,0.856 v 0 a 0.606,0.606 0 0 1 -0.856,0 L 9.631,10.5 a 0.606,0.606 0 0 1 0,-0.856 v 0 a 0.606,0.606 0 0 1 0.856,0.002 z" style="fill:#42e8ca"/></g></g></g><metadata id="metadata25883"/></svg>