<svg xmlns="http://www.w3.org/2000/svg" xmlns:svg="http://www.w3.org/2000/svg" id="svg25957" width="14.37" height="17" version="1.1" viewBox="0 0 14.37 17"><defs id="defs25934"><linearGradient id="f97bfabb-698c-4f28-ad92-a76baa953a8b" x1="-223.179" x2="-223.179" y1="749.615" y2="761.741" gradientTransform="matrix(0.707,0.707,0.707,-0.707,-366.855,699.219)" gradientUnits="userSpaceOnUse"><stop id="stop25929" offset="0" stop-color="#b31b1b"/><stop id="stop25931" offset=".82" stop-color="#e62323"/></linearGradient></defs><title id="title25936">MsPortalFx.base.images-69</title><g id="a5521566-a820-402c-879d-299d720d1210" transform="translate(-1.8079996,-0.5)"><g id="g25952"><path id="path25938" d="m 9.3,14.752 c 0,-0.154 -0.613,-0.154 -0.613,0 a 1.656,1.656 0 0 1 -1.636,1.8 h 3.882 A 1.655,1.655 0 0 1 9.3,14.752 Z" style="fill:#999"/><path id="path25940" d="m 13.335,1.1 a 0.571,0.571 0 0 1 0.807,0 l 0.026,0.028 a 8.32,8.32 0 0 1 -11.736,11.73 0.57,0.57 0 0 1 -0.049,-0.8 l 0.025,-0.026 v 0 A 0.571,0.571 0 0 1 3.19,12 7.178,7.178 0 0 0 13.312,1.882 0.573,0.573 0 0 1 13.335,1.1 Z" style="fill:#a3a3a3"/><path id="path25942" d="m 11.946,17.5 h -5.9 A 0.476,0.476 0 0 1 5.57,17.024 v 0 a 0.476,0.476 0 0 1 0.476,-0.476 h 5.9 a 0.476,0.476 0 0 1 0.475,0.476 v 0 A 0.476,0.476 0 0 1 11.946,17.5 Z" style="fill:#a3a3a3"/><circle id="circle25944" cx="7.871" cy="6.563" r="6.063" style="fill:url(#f97bfabb-698c-4f28-ad92-a76baa953a8b)"/><g id="g25950"><path id="path25946" d="M 8.391,8.105 H 7.256 A 0.255,0.255 0 0 1 6.991,7.869 L 6.869,2.705 A 0.254,0.254 0 0 1 7.135,2.459 H 8.512 A 0.254,0.254 0 0 1 8.778,2.705 L 8.656,7.869 A 0.255,0.255 0 0 1 8.391,8.105 Z" style="fill:#f2f2f2"/><circle id="circle25948" cx="7.823" cy="9.647" r=".905" style="fill:#f2f2f2"/></g></g></g><metadata id="metadata25955"/></svg>