<svg xmlns="http://www.w3.org/2000/svg" xmlns:svg="http://www.w3.org/2000/svg" id="svg26046" width="14.37" height="17" version="1.1" viewBox="0 0 14.37 17"><defs id="defs26023"><linearGradient id="a688f580-ce26-4bab-99ad-74e6813bb8cb" x1="-234.309" x2="-234.309" y1="776.485" y2="788.611" gradientTransform="matrix(0.707,0.707,0.707,-0.707,-377.984,726.089)" gradientUnits="userSpaceOnUse"><stop id="stop26018" offset="0" stop-color="#5e9624"/><stop id="stop26020" offset=".82" stop-color="#76bc2d"/></linearGradient></defs><title id="title26025">MsPortalFx.base.images-70</title><g id="e5e21a0c-214a-4f21-9e9f-6b29445c78c6" transform="translate(-1.8079996,-0.5)"><g id="g26041"><path id="path26027" d="m 9.3,14.752 c 0,-0.154 -0.613,-0.154 -0.613,0 a 1.656,1.656 0 0 1 -1.636,1.8 h 3.882 A 1.655,1.655 0 0 1 9.3,14.752 Z" style="fill:#999"/><path id="path26029" d="m 13.335,1.1 a 0.571,0.571 0 0 1 0.807,0 l 0.026,0.028 a 8.32,8.32 0 0 1 -11.736,11.73 0.57,0.57 0 0 1 -0.049,-0.8 l 0.025,-0.026 v 0 A 0.571,0.571 0 0 1 3.19,12 7.178,7.178 0 0 0 13.312,1.882 0.573,0.573 0 0 1 13.335,1.1 Z" style="fill:#a3a3a3"/><path id="path26031" d="m 11.946,17.5 h -5.9 A 0.476,0.476 0 0 1 5.57,17.024 v 0 a 0.476,0.476 0 0 1 0.476,-0.476 h 5.9 a 0.476,0.476 0 0 1 0.475,0.476 v 0 A 0.476,0.476 0 0 1 11.946,17.5 Z" style="fill:#a3a3a3"/><circle id="circle26033" cx="7.871" cy="6.563" r="6.063" style="fill:url(#a688f580-ce26-4bab-99ad-74e6813bb8cb)"/><g id="g26039"><path id="path26035" d="M 5.093,5.875 H 5.881 A 0.243,0.243 0 0 1 6.124,6.118 V 9.247 A 0.243,0.243 0 0 1 5.881,9.49 H 5.336 A 0.243,0.243 0 0 1 5.093,9.247 Z" transform="rotate(135,5.6081801,7.6823444)" style="fill:#fff"/><path id="path26037" d="m 8.525,2.615 h 0.788 v 7.2 A 0.243,0.243 0 0 1 9.07,10.058 H 8.525 A 0.243,0.243 0 0 1 8.282,9.815 V 2.857 A 0.243,0.243 0 0 1 8.525,2.614 Z" transform="rotate(-135,8.7978569,6.3340945)" style="fill:#f2f2f2"/></g></g></g><metadata id="metadata26044"/></svg>