<svg xmlns="http://www.w3.org/2000/svg" xmlns:svg="http://www.w3.org/2000/svg" id="svg26152" width="14.37" height="17" version="1.1" viewBox="0 0 14.37 17"><defs id="defs26129"><linearGradient id="b4d65429-39a9-4d3c-85af-f8ad199f2004" x1="-245.439" x2="-245.439" y1="803.355" y2="815.481" gradientTransform="matrix(0.707,0.707,0.707,-0.707,-389.114,752.959)" gradientUnits="userSpaceOnUse"><stop id="stop26124" offset="0" stop-color="#ef7100"/><stop id="stop26126" offset=".82" stop-color="#f78d1e"/></linearGradient></defs><title id="title26131">MsPortalFx.base.images-71</title><g id="f116162d-f975-4c6c-81c1-198ce56565ec" transform="translate(-1.8079996,-0.5)"><g id="g26147"><path id="path26133" d="m 9.3,14.752 c 0,-0.154 -0.613,-0.154 -0.613,0 a 1.656,1.656 0 0 1 -1.636,1.8 h 3.882 A 1.655,1.655 0 0 1 9.3,14.752 Z" style="fill:#999"/><path id="path26135" d="m 13.335,1.1 a 0.571,0.571 0 0 1 0.807,0 l 0.026,0.028 a 8.32,8.32 0 0 1 -11.736,11.73 0.57,0.57 0 0 1 -0.049,-0.8 l 0.025,-0.026 v 0 A 0.571,0.571 0 0 1 3.19,12 7.178,7.178 0 0 0 13.312,1.882 0.573,0.573 0 0 1 13.335,1.1 Z" style="fill:#a3a3a3"/><path id="path26137" d="m 11.946,17.5 h -5.9 A 0.476,0.476 0 0 1 5.57,17.024 v 0 a 0.476,0.476 0 0 1 0.476,-0.476 h 5.9 a 0.476,0.476 0 0 1 0.475,0.476 v 0 A 0.476,0.476 0 0 1 11.946,17.5 Z" style="fill:#a3a3a3"/><circle id="circle26139" cx="7.871" cy="6.563" r="6.063" style="fill:url(#b4d65429-39a9-4d3c-85af-f8ad199f2004)"/><path id="path26141" d="m 4.15,9.515 h 7.562 A 0.293,0.293 0 0 0 11.963,9.072 L 8.183,2.717 a 0.293,0.293 0 0 0 -0.5,0 L 3.9,9.072 a 0.293,0.293 0 0 0 0.25,0.443 z" style="fill:#f2f2f2"/><path id="path26143" d="M 8.254,7.571 H 7.608 A 0.146,0.146 0 0 1 7.456,7.437 L 7.387,4.491 a 0.144,0.144 0 0 1 0.151,-0.14 h 0.786 a 0.144,0.144 0 0 1 0.151,0.14 L 8.406,7.437 A 0.146,0.146 0 0 1 8.254,7.571 Z" style="fill:#f78d1e"/><circle id="circle26145" cx="7.931" cy="8.451" r=".516" style="fill:#f78d1e"/></g></g><metadata id="metadata26150"/></svg>