<svg xmlns="http://www.w3.org/2000/svg" xmlns:svg="http://www.w3.org/2000/svg" id="svg27458" width="16.01" height="15.145" version="1.1" viewBox="0 0 16.01 15.145"><defs id="defs27445"><linearGradient id="be262aa0-1e96-4515-9b80-c7d70e614118" x1="9" x2="9" y1="16.573" y2="1.427" gradientTransform="translate(0.99555072,1.4281589)" gradientUnits="userSpaceOnUse"><stop id="stop27435" offset="0" stop-color="#b31b1b"/><stop id="stop27437" offset=".82" stop-color="#e62323"/></linearGradient><linearGradient id="b1eb80a0-ef92-42a3-af43-f22c07fe7d9c" x1="9" x2="9" y1="16.525" y2="1.427" gradientTransform="translate(0.99555072,1.4281589)" gradientUnits="userSpaceOnUse"><stop id="stop27440" offset="0" stop-color="#b31b1b"/><stop id="stop27442" offset=".82" stop-color="#e62323"/></linearGradient></defs><title id="title27447">MsPortalFx.base.images-73</title><g id="f1ad3e33-de4b-4fca-85f1-c9a05025345f" transform="translate(-0.99555072,-1.4281589)"><g id="g27453"><path id="path27449" d="m 9,16.573 c 7.7,-5.518 7.96,-8.737 8,-9.745 0.048,-1.409 -0.149,-5.1 -3.866,-5.386 A 4.023,4.023 0 0 0 9,4.132 4.023,4.023 0 0 0 4.871,1.442 C 1.154,1.733 0.957,5.419 1,6.828 c 0.035,1.008 0.294,4.227 8,9.745" style="fill:url(#be262aa0-1e96-4515-9b80-c7d70e614118)"/><path id="path27451" d="M 17,6.828 C 17.048,5.419 16.851,1.728 13.134,1.442 A 4.023,4.023 0 0 0 9,4.132 4.023,4.023 0 0 0 4.871,1.442 C 1.154,1.733 0.957,5.419 1,6.828 c 0.035,1.008 0.227,4.179 7.928,9.7" style="fill:url(#b1eb80a0-ef92-42a3-af43-f22c07fe7d9c)"/></g></g><metadata id="metadata27456"/></svg>