<svg xmlns="http://www.w3.org/2000/svg" xmlns:svg="http://www.w3.org/2000/svg" id="bf97f450-0d91-4db3-8ea1-010780a2af52" width="16.968" height="16.971" version="1.1" viewBox="0 0 16.968 16.971"><defs id="defs28085"><linearGradient id="fe22bed8-8e36-415d-8032-3026ad9e8503" x1="8.56" x2="8.56" y1="17.59" y2=".59" gradientUnits="userSpaceOnUse"><stop id="stop28076" offset="0" stop-color="#1988d9"/><stop id="stop28078" offset=".22" stop-color="#218ddc"/><stop id="stop28080" offset=".56" stop-color="#379ce5"/><stop id="stop28082" offset=".9" stop-color="#54aef0"/></linearGradient></defs><title id="title28087">Icon-general-5</title><path id="b3492ff9-55dd-4864-be78-9e79f3547897" d="M 13.713088,15.188401 A 8.5030877,8.5030877 0 0 1 3.2930876,1.7484011 l 0.09,-0.06 A 8.5,8.5 0 0 1 13.713088,15.188401" style="fill:url(#fe22bed8-8e36-415d-8032-3026ad9e8503)"/><path id="path28090" d="m 8.5030876,5.5484011 a 1.24,1.24 0 0 1 -0.89,-0.33 1,1 0 0 1 -0.34,-0.79 1,1 0 0 1 0.34,-0.79 1.31,1.31 0 0 1 0.89,-0.26 1.28,1.28 0 0 1 0.89,0.3 1,1 0 0 1 0.35,0.79 1,1 0 0 1 -0.35,0.8 1.24,1.24 0 0 1 -0.89,0.28 z m 0.64,8.0499999 h -1.31 a 0.42,0.42 0 0 1 -0.42,-0.42 V 7.0684011 a 0.42,0.42 0 0 1 0.42,-0.42 h 1.31 a 0.42,0.42 0 0 1 0.42,0.42 v 6.1099999 a 0.42,0.42 0 0 1 -0.42,0.42 z" style="fill:#fff"/><metadata id="metadata28092"/></svg>