<svg xmlns="http://www.w3.org/2000/svg" xmlns:svg="http://www.w3.org/2000/svg" id="svg28701" width="15.271" height="16" version="1.1" viewBox="0 0 15.271 16"><defs id="defs28680"><linearGradient id="b04c7825-41db-4c22-aba2-f5c44b816ed3" x1="3.565" x2="3.565" y1="17" y2="3.753" gradientTransform="translate(1.363,0.99996813)" gradientUnits="userSpaceOnUse"><stop id="stop28659" offset="0" stop-color="#fea11b"/><stop id="stop28661" offset=".127" stop-color="#feac19"/><stop id="stop28663" offset=".562" stop-color="#ffcb12"/><stop id="stop28665" offset=".804" stop-color="#ffd70f"/></linearGradient><linearGradient id="e3016781-9cad-4dda-b769-212e01557f4d" x1="9" x2="9" y1="17" y2="3.753" gradientTransform="translate(1.363,0.99996813)" gradientUnits="userSpaceOnUse"><stop id="stop28668" offset="0" stop-color="#5e9624"/><stop id="stop28670" offset=".546" stop-color="#6dad2a"/><stop id="stop28672" offset=".999" stop-color="#76bc2d"/></linearGradient><linearGradient id="a5967715-2146-4485-8c36-86a8b43a627b" x1="14.435" x2="14.435" y1="17" y2="3.753" gradientTransform="translate(1.363,0.99996813)" gradientUnits="userSpaceOnUse"><stop id="stop28675" offset="0" stop-color="#1b93eb"/><stop id="stop28677" offset="1" stop-color="#6bb9f2"/></linearGradient></defs><title id="title28682">MsPortalFx.base.images-65</title><g id="b24e240b-3208-4fba-a929-5634b14397d6" transform="translate(-1.363,-0.99996813)"><g id="g28696"><rect id="rect28684" width="4.396" height="13.247" x="1.367" y="3.753" rx=".517" style="fill:url(#b04c7825-41db-4c22-aba2-f5c44b816ed3)"/><rect id="rect28686" width="4.396" height="13.247" x="6.802" y="3.753" rx=".517" style="fill:url(#e3016781-9cad-4dda-b769-212e01557f4d)"/><rect id="rect28688" width="4.396" height="13.247" x="12.238" y="3.753" rx=".517" style="fill:url(#a5967715-2146-4485-8c36-86a8b43a627b)"/><path id="path28690" d="m 1.617,1 h 3.895 a 0.251,0.251 0 0 1 0.251,0.251 v 2.871 h -4.4 V 1.251 A 0.251,0.251 0 0 1 1.617,1 Z" style="fill:#faa21d"/><path id="path28692" d="m 7.053,1 h 3.894 a 0.251,0.251 0 0 1 0.251,0.251 V 4.122 H 6.8 V 1.251 A 0.251,0.251 0 0 1 7.053,1 Z" style="fill:#86d633"/><path id="path28694" d="m 12.488,1 h 3.894 a 0.251,0.251 0 0 1 0.251,0.251 v 2.871 h -4.4 V 1.251 A 0.251,0.251 0 0 1 12.488,1 Z" style="fill:#5ea0ef"/></g></g><metadata id="metadata28699"/></svg>