<svg xmlns="http://www.w3.org/2000/svg" xmlns:svg="http://www.w3.org/2000/svg" id="svg29095" width="17.252" height="17" version="1.1" viewBox="0 0 17.252 17"><defs id="defs29082"><linearGradient id="ad2da005-b666-4084-b9ed-8672246694b5" x1="8.668" x2="15.243" y1="-2.386" y2="15.46" gradientTransform="translate(0.37399902,0.49999327)" gradientUnits="userSpaceOnUse"><stop id="stop29077" offset="0" stop-color="#6bb9f2"/><stop id="stop29079" offset="1" stop-color="#1b93eb"/></linearGradient></defs><title id="title29084">MsPortalFx.base.images-66</title><g id="f8d21d2a-e99e-4d54-a274-9ca49dd933bb" transform="translate(-0.37399902,-0.49999327)"><g id="g29090"><path id="path29086" d="M 17.626,6.791 V 0.719 A 0.218,0.218 0 0 0 17.408,0.5 h -6.072 a 0.218,0.218 0 0 0 -0.155,0.373 l 1.673,1.673 0.111,0.111 a 0.219,0.219 0 0 1 0,0.309 l -7.321,7.321 a 0.217,0.217 0 0 0 0,0.309 l 1.886,1.887 a 0.219,0.219 0 0 0 0.309,0 L 15.16,5.162 a 0.218,0.218 0 0 1 0.31,0 l 0.111,0.111 1.672,1.672 a 0.218,0.218 0 0 0 0.373,-0.154 z" style="fill:url(#ad2da005-b666-4084-b9ed-8672246694b5)"/><path id="path29088" d="m 13.167,10.919 v 4.444 a 0.511,0.511 0 0 1 -0.511,0.511 H 2.51 A 0.51,0.51 0 0 1 2,15.363 V 5.785 A 0.51,0.51 0 0 1 2.51,5.274 h 5.084 a 0.28,0.28 0 0 0 0.28,-0.28 V 3.928 a 0.28,0.28 0 0 0 -0.28,-0.28 h -6.71 a 0.51,0.51 0 0 0 -0.51,0.511 v 12.83 a 0.51,0.51 0 0 0 0.51,0.511 h 13.4 a 0.511,0.511 0 0 0 0.511,-0.511 v -6.07 a 0.28,0.28 0 0 0 -0.28,-0.28 h -1.068 a 0.28,0.28 0 0 0 -0.28,0.28 z" style="fill:#b3b3b3"/></g></g><metadata id="metadata29093"/></svg>