<svg xmlns="http://www.w3.org/2000/svg" xmlns:svg="http://www.w3.org/2000/svg" id="svg30172" width="10.186" height="18" version="1.1" viewBox="0 0 10.186 18"><defs id="defs30156"><linearGradient id="a40543c1-03b8-4190-8346-b855075b3f0d" x1="7.863" x2="7.863" y2="12.81" gradientTransform="translate(2.7360001)" gradientUnits="userSpaceOnUse"><stop id="stop30149" offset="0" stop-color="#b77af4"/><stop id="stop30151" offset=".621" stop-color="#8c4fe4"/><stop id="stop30153" offset=".997" stop-color="#773adc"/></linearGradient></defs><title id="title30158">MsPortalFx.base.images-49</title><g id="e24f1216-e555-4a33-b1ed-d87b36f6ba1d" transform="translate(-2.7360001)"><g id="g30167"><circle id="a5eab3d8-3bb2-4f0d-b199-b7e448427ca9" cx="7.83" cy="12.908" r="2.228" style="fill:#32bedd"/><path id="path30161" d="m 7.83,16.491 a 3.584,3.584 0 1 1 3.583,-3.583 3.587,3.587 0 0 1 -3.583,3.583 z m 0,-6.558 A 2.975,2.975 0 1 0 10.8,12.908 2.978,2.978 0 0 0 7.83,9.933 Z" style="fill:#50e6ff"/><path id="path30163" d="M 7.83,18 A 5.093,5.093 0 1 1 12.922,12.908 5.1,5.1 0 0 1 7.83,18 Z m 0,-9.576 A 4.484,4.484 0 1 0 12.313,12.908 4.489,4.489 0 0 0 7.83,8.424 Z" style="fill:#9cebff"/><path id="path30165" d="M 7.863,0 A 3.894,3.894 0 0 0 4.092,4.063 c 0,1.772 2.249,5.922 3.274,8.413 a 0.535,0.535 0 0 0 0.992,0 c 1.023,-2.507 3.277,-6.7 3.277,-8.412 A 3.941,3.941 0 0 0 7.863,0 Z m 0,5.5 A 1.677,1.677 0 1 1 9.54,3.826 1.676,1.676 0 0 1 7.863,5.5 Z" style="fill:url(#a40543c1-03b8-4190-8346-b855075b3f0d)"/></g></g><metadata id="metadata30170"/></svg>