<svg xmlns="http://www.w3.org/2000/svg" xmlns:svg="http://www.w3.org/2000/svg" id="svg31427" width="16" height="12.869" version="1.1" viewBox="0 0 16 12.869"><defs id="defs31410"><linearGradient id="a005d9e9-7e29-4ef4-b995-a79dce2e9bf8" x1="9" x2="9" y1="15.427" y2="5.973" gradientTransform="translate(0.99999623,2.5629916)" gradientUnits="userSpaceOnUse"><stop id="stop31401" offset="0" stop-color="#32bedd"/><stop id="stop31403" offset=".175" stop-color="#32caea"/><stop id="stop31405" offset=".41" stop-color="#32d2f2"/><stop id="stop31407" offset=".775" stop-color="#32d4f5"/></linearGradient></defs><title id="title31412">MsPortalFx.base.images-60</title><g id="f12b48ce-114c-4425-96be-0112b3f7d9c3" transform="translate(-0.99999623,-2.5629916)"><g id="g31422"><path id="path31414" d="m 1,5.973 h 16 v 8.92 a 0.535,0.535 0 0 1 -0.535,0.535 H 1.535 A 0.535,0.535 0 0 1 1,14.893 Z" style="fill:url(#a005d9e9-7e29-4ef4-b995-a79dce2e9bf8)"/><path id="path31416" d="M 1.538,2.563 H 16.462 A 0.535,0.535 0 0 1 17,3.1 V 5.973 H 1 V 3.1 A 0.535,0.535 0 0 1 1.538,2.563 Z" style="fill:#198ab3"/><path id="path31418" d="m 1,5.973 h 4.194 v 9.455 H 1.536 A 0.532,0.532 0 0 1 1,14.895 Z" style="fill:#9cebff"/><path id="path31420" d="M 5.194,13.356 H 17 V 14.9 a 0.532,0.532 0 0 1 -0.532,0.532 H 5.194 Z" style="fill:#32bedd"/></g></g><metadata id="metadata31425"/></svg>