<svg xmlns="http://www.w3.org/2000/svg" xmlns:svg="http://www.w3.org/2000/svg" id="a400848c-c804-486a-8905-f23f1ce1f264" width="17.007" height="16.434" version="1.1" viewBox="0 0 17.007 16.434"><defs id="defs30963"><linearGradient id="fe3a1fdc-489c-4216-9288-95641230895c" x1="9" x2="9" y1="2.95" y2="6.34" gradientTransform="translate(0.49664319,0.80313708)" gradientUnits="userSpaceOnUse"><stop id="stop30953" offset="0" stop-color="#c69aeb"/><stop id="stop30955" offset="1" stop-color="#6f4bb2"/></linearGradient><linearGradient id="bef6728f-6d46-4a54-b219-6b3352c89329" x1="8.99" x2="8.99" y1="6.76" y2="9.22" gradientTransform="translate(0.49664319,0.80313708)" gradientUnits="userSpaceOnUse"><stop id="stop30958" offset="0" stop-color="#54aef0"/><stop id="stop30960" offset="1" stop-color="#1988d9"/></linearGradient></defs><title id="title30965">Icon-general-11</title><g id="g30999" transform="translate(-0.49664319,-0.80313708)"><polygon id="polygon30967" points="9 4.2 5.79 7.91 4.28 11.2 4.81 11.45 6.04 8.77 7.25 11.45 7.79 11.21 6.39 8.12 9 5.1 11.6 8.13 10.18 11.21 10.71 11.46 11.94 8.79 13.15 11.47 13.69 11.22 12.19 7.92" style="fill:#949494"/><circle id="circle30969" cx="9" cy="4.65" r="1.69" style="fill:url(#fe3a1fdc-489c-4216-9288-95641230895c)"/><path id="path30971" d="M 6,6.76 A 1.23,1.23 0 1 1 4.82,8 1.23,1.23 0 0 1 6,6.76 Z M 10.72,8 A 1.22,1.22 0 0 0 11.94,9.22 1.23,1.23 0 1 0 10.72,8 Z" style="fill:url(#bef6728f-6d46-4a54-b219-6b3352c89329)"/><g id="g30985"><g id="g30977"><circle id="circle30973" cx="4.54" cy="11.32" r=".97" style="fill:#37c2b1"/><circle id="circle30975" cx="7.52" cy="11.33" r=".97" style="fill:#37c2b1"/></g><g id="g30983"><circle id="circle30979" cx="10.44" cy="11.34" r=".97" style="fill:#37c2b1"/><circle id="circle30981" cx="13.42" cy="11.35" r=".97" style="fill:#37c2b1"/></g></g><path id="path30987" d="m 0.5,15.22 a 0.16,0.16 0 0 0 0.08,0.14 l 1.15,0.64 2,1.14 A 0.18,0.18 0 0 0 3.96,17.08 L 4.57,16 A 0.15,0.15 0 0 0 4.51,15.78 L 2.22,14.41 A 0.16,0.16 0 0 1 2.14,14.27 V 3.73 A 0.16,0.16 0 0 1 2.22,3.59 L 4.51,2.26 A 0.15,0.15 0 0 0 4.57,2 L 3.92,0.89 A 0.18,0.18 0 0 0 3.69,0.83 L 1.77,1.94 0.58,2.64 A 0.16,0.16 0 0 0 0.5,2.78 Z" style="fill:#949494"/><path id="path30989" d="M 4.57,2 3.92,0.89 A 0.18,0.18 0 0 0 3.75,0.81 H 3.67 L 1.75,1.94 0.56,2.64 a 0.1,0.1 0 0 0 -0.06,0 v 0 a 0.24,0.24 0 0 0 0,0.08 l 1.64,1 A 0.16,0.16 0 0 1 2.22,3.58 L 4.51,2.26 A 0.15,0.15 0 0 0 4.57,2 Z" style="fill:#a3a3a3"/><path id="path30991" d="m 4.57,16 -0.65,1.15 a 0.18,0.18 0 0 1 -0.17,0.08 0.12,0.12 0 0 1 -0.08,0 L 1.75,16.06 0.56,15.36 a 0.1,0.1 0 0 1 -0.06,0 v 0 a 0.24,0.24 0 0 1 0,-0.08 l 1.64,-1 a 0.16,0.16 0 0 0 0.08,0.14 l 2.29,1.33 A 0.16,0.16 0 0 1 4.57,16 Z" style="fill:#a3a3a3"/><path id="path30993" d="M 17.5,2.78 A 0.16,0.16 0 0 0 17.42,2.64 L 16.27,2 14.27,0.86 A 0.18,0.18 0 0 0 14.04,0.92 L 13.43,2 a 0.15,0.15 0 0 0 0.06,0.22 l 2.29,1.33 a 0.16,0.16 0 0 1 0.08,0.14 v 10.58 a 0.16,0.16 0 0 1 -0.08,0.14 l -2.29,1.33 a 0.15,0.15 0 0 0 -0.06,0.22 l 0.65,1.15 a 0.18,0.18 0 0 0 0.23,0.06 l 1.92,-1.11 1.19,-0.7 a 0.16,0.16 0 0 0 0.08,-0.14 z" style="fill:#949494"/><path id="path30995" d="m 13.43,16 0.65,1.15 a 0.18,0.18 0 0 0 0.17,0.08 h 0.08 l 1.92,-1.11 1.19,-0.7 a 0.1,0.1 0 0 0 0.06,0 v 0 a 0.24,0.24 0 0 0 0,-0.08 l -1.64,-1 a 0.16,0.16 0 0 1 -0.08,0.14 l -2.29,1.33 A 0.15,0.15 0 0 0 13.43,16 Z" style="fill:#a3a3a3"/><path id="path30997" d="m 13.43,2 0.65,-1.11 a 0.18,0.18 0 0 1 0.17,-0.08 0.12,0.12 0 0 1 0.08,0 l 1.92,1.11 1.19,0.7 a 0.1,0.1 0 0 1 0.06,0 v 0 a 0.24,0.24 0 0 1 0,0.08 l -1.64,1 A 0.16,0.16 0 0 0 15.78,3.56 L 13.49,2.26 A 0.16,0.16 0 0 1 13.43,2 Z" style="fill:#a3a3a3"/></g><metadata id="metadata31001"/></svg>