<svg xmlns="http://www.w3.org/2000/svg" xmlns:svg="http://www.w3.org/2000/svg" id="ace1255c-94e6-4d53-bb3a-34ece21d92fa" width="14.78" height="17.001" version="1.1" viewBox="0 0 14.78 17.001"><defs id="defs31853"><linearGradient id="a9aaf2bb-2b64-49fc-9aeb-39d687a60471" x1="7.63" x2="7.63" y1="15.34" y2="5.84" gradientUnits="userSpaceOnUse"><stop id="stop31842" offset="0" stop-color="#ccc"/><stop id="stop31844" offset=".15" stop-color="#dadada"/><stop id="stop31846" offset=".44" stop-color="#eee"/><stop id="stop31848" offset=".72" stop-color="#fbfbfb"/><stop id="stop31850" offset="1" stop-color="#fff"/></linearGradient></defs><title id="title31855">Icon-general-8</title><path id="f354248b-347f-4f34-a8b1-60412d94c898" d="m 13.55,4.2007853 h -1 V 17.000785 l 1,-1.93 z" style="fill:#50e6ff"/><path id="bf20c85f-cfbc-4e9f-9f35-5cecd5301485" d="m 13.55,15.060785 v 0 l -1,1.93 1,-0.8 1.23,-0.95 z" style="fill:#9cebff"/><path id="be80f902-4822-48d8-b1cc-57ee4a39e795" d="M 6.94,2.2907853 A 1.57,1.57 0 0 1 8.55,0.78078526 1.57,1.57 0 0 1 10.18,2.2907853 v 1.91 h 0.78 v -1.91 A 2.35,2.35 0 0 0 8.55,7.8525794e-4 2.35,2.35 0 0 0 6.15,2.2907853 v 1.91 h 0.78 z" style="fill:#a3a3a3"/><path id="bb07ca4b-ec49-44a9-9a8d-bb0f7a8be768" d="M 4.55,2.2907853 A 1.57,1.57 0 0 1 6.17,0.78078526 1.58,1.58 0 0 1 7.8,2.2907853 v 1.91 h 0.75 v -1.91 A 2.36,2.36 0 0 0 6.17,7.8525794e-4 2.35,2.35 0 0 0 3.77,2.2907853 v 1.91 h 0.78 z" style="fill:#767676"/><polygon id="polygon31861" points="1.45 16.58 1.83 4.77 13.92 4.77 13.92 17.57" transform="translate(-1.45,-0.56921474)" style="fill:#32bedd"/><polygon id="polygon31863" points="16.18 15.82 15.81 4.77 14.95 4.77 14.95 15.64" transform="translate(-1.45,-0.56921474)" style="fill:#32bedd"/><path id="path31865" d="m 10.74,11.740785 a 2.3,2.3 0 0 0 -1.79,-2.1799997 2.84,2.84 0 0 0 -2.66,-2.75 2.47,2.47 0 0 0 -2.54,1.62 2.3,2.3 0 0 0 -2.13,2.3099997 2.74,2.74 0 0 0 2.56,2.69 H 4.4 l 4.16,0.28 h 0.11 a 2,2 0 0 0 2.07,-1.97 z" style="fill:url(#a9aaf2bb-2b64-49fc-9aeb-39d687a60471)"/><metadata id="metadata31867"/></svg>