<svg xmlns="http://www.w3.org/2000/svg" xmlns:svg="http://www.w3.org/2000/svg" id="svg32493" width="17.635" height="17.601" version="1.1" viewBox="0 0 17.635 17.601"><defs id="defs32466"><linearGradient id="b122302a-f09e-4194-83f1-be587a2d78bd" x1="-655.236" x2="-637.632" y1="2848.852" y2="2879.398" gradientTransform="matrix(0.5,0.866,0.866,-0.5,-2152.188,1995.3977)" gradientUnits="userSpaceOnUse"><stop id="stop32439" offset="0" stop-color="#005ba1"/><stop id="stop32441" offset=".366" stop-color="#004e8f"/><stop id="stop32443" offset="1" stop-color="#003067"/></linearGradient><linearGradient id="a0826712-a32a-4db2-8ce4-ce349db35558" x1="-4132.03" x2="-4110.646" y1="-451.06" y2="-413.559" gradientTransform="matrix(-0.5,-0.866,-0.866,0.5,-2426.606,-3338.0113)" gradientUnits="userSpaceOnUse"><stop id="stop32446" offset="0" stop-color="#005ba1"/><stop id="stop32448" offset=".451" stop-color="#004685"/><stop id="stop32450" offset="1" stop-color="#003067"/></linearGradient><linearGradient id="bfb250ff-0c6e-4198-b82c-2afbc5fd923a" x1="5.986" x2="7.43" y1="506.861" y2="515.104" gradientTransform="matrix(1,0,0,-1,0.1829829,521.50472)" gradientUnits="userSpaceOnUse"><stop id="stop32453" offset=".26" stop-color="#50e6ff"/><stop id="stop32455" offset=".42" stop-color="#79eaff"/><stop id="stop32457" offset=".58" stop-color="#99edff"/><stop id="stop32459" offset=".733" stop-color="#b0efff"/><stop id="stop32461" offset=".876" stop-color="#bef1ff"/><stop id="stop32463" offset="1" stop-color="#c3f1ff"/></linearGradient></defs><g id="b4bf3201-4e06-4d9e-8474-3654b7929c12" transform="translate(-0.1829829,-0.19772365)"><g id="g32488"><g id="g32480"><path id="path32468" d="M 9.226,3.927 13.6,6.442 16.648,4.682 A 8.79,8.79 0 0 0 2.718,2.824 10.022,10.022 0 0 1 9.226,3.927 Z" style="fill:url(#b122302a-f09e-4194-83f1-be587a2d78bd)"/><path id="path32470" d="m 13.541,6.442 -0.069,6.034 3.168,0.851 A 8.793,8.793 0 0 0 11.4,0.536 10.454,10.454 0 0 1 13.541,6.442 Z" style="fill:#0078d4"/><path id="path32472" d="m 13.535,11.646 -4.552,2.63 0.071,3.5 a 8.8,8.8 0 0 0 8.764,-8.8 8.48,8.48 0 0 0 -0.288,-2.09 9.579,9.579 0 0 1 -3.995,4.76 z" style="fill:#5ea0ef"/><path id="path32474" d="m 8.983,14.276 -4.555,-2.63 -3.02,1.812 A 8.782,8.782 0 0 0 15.08,15.339 9.907,9.907 0 0 1 8.983,14.276 Z" style="fill:url(#a0826712-a32a-4db2-8ce4-ce349db35558)"/><path id="path32476" d="M 4.425,11.646 4.494,5.409 1.377,4.588 A 8.727,8.727 0 0 0 0.183,9 8.846,8.846 0 0 0 6.718,17.5 10.184,10.184 0 0 1 4.425,11.646 Z" style="fill:#0078d4"/><path id="path32478" d="m 4.583,6.3 4.4,-2.543 A 10.573,10.573 0 0 0 3.041,2.512 8.754,8.754 0 0 0 0.183,9 8.966,8.966 0 0 0 0.5,11.32 10.245,10.245 0 0 1 4.583,6.3 Z" style="fill:#5ea0ef"/></g><polygon id="polygon32482" points="8.98 3.757 4.425 6.386 4.425 11.646 8.98 14.276 13.535 11.646 13.535 6.386" style="fill:#c3f1ff"/><polygon id="polygon32484" points="4.425 11.646 4.425 6.404 8.986 9.071 8.986 14.276" style="fill:url(#bfb250ff-0c6e-4198-b82c-2afbc5fd923a)"/><polygon id="polygon32486" points="13.541 11.646 13.541 6.404 8.98 9.071 8.98 14.276" style="fill:#50e6ff"/></g></g><metadata id="metadata32491"/></svg>