<svg xmlns="http://www.w3.org/2000/svg" xmlns:svg="http://www.w3.org/2000/svg" id="svg34071" width="10.777" height="18" version="1.1" viewBox="0 0 10.777 18"><defs id="defs34046"><linearGradient id="b06c9384-33ad-4efe-952b-f07dd7280cd3" x1="9" x2="9" y1="22.81" y2="-2.491" gradientTransform="translate(3.612)" gradientUnits="userSpaceOnUse"><stop id="stop34028" offset="0" stop-color="#0078d4"/><stop id="stop34030" offset=".165" stop-color="#1c84dc"/><stop id="stop34032" offset=".378" stop-color="#3990e4"/><stop id="stop34034" offset=".59" stop-color="#4d99ea"/><stop id="stop34036" offset=".799" stop-color="#5a9eee"/><stop id="stop34038" offset="1" stop-color="#5ea0ef"/></linearGradient><linearGradient id="b7b1324f-a493-4cab-878a-b431174afdea" x1="9" x2="9" y1="15.982" y2="1.522" gradientTransform="translate(3.612)" gradientUnits="userSpaceOnUse"><stop id="stop34041" offset="0" stop-color="#d2ebff"/><stop id="stop34043" offset=".997" stop-color="#f0fffd"/></linearGradient></defs><title id="title34048">MsPortalFx.base.images-63</title><g id="e3ed6d7b-9877-4f9f-8f9b-9bc4f4055bee" transform="translate(-3.612)"><g id="g34066"><rect id="rect34050" width="10.777" height="18" x="3.612" y="0" rx=".419" style="fill:url(#b06c9384-33ad-4efe-952b-f07dd7280cd3)"/><rect id="rect34052" width="2.483" height=".333" x="7.758" y=".604" rx=".154" style="fill:#f2f2f2"/><rect id="rect34054" width="8.754" height="14.461" x="4.623" y="1.522" rx=".201" style="opacity:.9;fill:url(#b7b1324f-a493-4cab-878a-b431174afdea)"/><rect id="rect34056" width="1.204" height="1.028" x="8.398" y="16.58" rx=".286" style="fill:#f2f2f2"/><path id="path34058" d="m 11.4,2.892 v 3.584 a 0.192,0.192 0 0 1 -0.193,0.192 h -1.5 A 0.047,0.047 0 0 0 9.66,6.715 V 7.293 A 0.094,0.094 0 0 1 9.509,7.367 L 8.609,6.678 A 0.048,0.048 0 0 0 8.58,6.668 H 5.974 A 0.192,0.192 0 0 1 5.781,6.476 V 2.892 A 0.192,0.192 0 0 1 5.974,2.7 h 5.236 a 0.192,0.192 0 0 1 0.19,0.192 z" style="fill:#5ea0ef"/><rect id="rect34060" width="1.683" height="4.782" x="5.768" y="9.88" rx=".293" style="fill:#5ea0ef"/><rect id="rect34062" width="1.683" height="5.855" x="8.265" y="8.806" rx=".293" style="fill:#0078d4"/><rect id="rect34064" width="1.683" height="6.734" x="10.761" y="7.927" rx=".293" style="fill:#005ba1"/></g></g><metadata id="metadata34069"/></svg>