<svg xmlns="http://www.w3.org/2000/svg" xmlns:svg="http://www.w3.org/2000/svg" id="svg34939" width="11.596" height="18.002" version="1.1" viewBox="0 0 11.596 18.002"><defs id="defs34930"><radialGradient id="bf0e6238-d7a1-45b5-861c-8bbe56952eb1" cx="3.117" cy="-116.12" r="9.022" gradientTransform="matrix(1.013,0,0,0.789,9.046,100.65448)" gradientUnits="userSpaceOnUse"><stop id="stop34921" offset=".196" stop-color="#ffd70f"/><stop id="stop34923" offset=".438" stop-color="#ffcb12"/><stop id="stop34925" offset=".873" stop-color="#feac19"/><stop id="stop34927" offset="1" stop-color="#fea11b"/></radialGradient></defs><title id="title34932">MsPortalFx.base.images-37</title><g id="b6078d51-b129-4cd0-9a4d-e8ff551d4747" transform="translate(-3.202,0.00151521)"><path id="path34934" d="M 8.09,10.01 H 3.464 A 0.239,0.239 0 0 1 3.202,9.81 0.175,0.175 0 0 1 3.225,9.725 L 8.775,0.12 A 0.274,0.274 0 0 1 9.014,0 h 5.47 A 0.238,0.238 0 0 1 14.746,0.2 0.177,0.177 0 0 1 14.7,0.319 L 8.186,7.834 h 6.35 a 0.239,0.239 0 0 1 0.262,0.2 0.185,0.185 0 0 1 -0.067,0.137 L 4.175,17.788 c -0.1,0.051 -0.8,0.562 -0.458,-0.214 v 0 z" style="fill:url(#bf0e6238-d7a1-45b5-861c-8bbe56952eb1)"/></g><metadata id="metadata34937"/></svg>