<svg xmlns="http://www.w3.org/2000/svg" xmlns:svg="http://www.w3.org/2000/svg" id="svg35693" width="17" height="13.668" version="1.1" viewBox="0 0 17 13.668"><defs id="defs35674"><linearGradient id="a24f9983-911f-4df7-920f-f964c8c10f82" x1="9" x2="9" y1="15.834" y2="5.788" gradientTransform="translate(0.5,2.1659921)" gradientUnits="userSpaceOnUse"><stop id="stop35665" offset="0" stop-color="#32bedd"/><stop id="stop35667" offset=".175" stop-color="#32caea"/><stop id="stop35669" offset=".41" stop-color="#32d2f2"/><stop id="stop35671" offset=".775" stop-color="#32d4f5"/></linearGradient></defs><title id="title35676">MsPortalFx.base.images-10</title><g id="a7ef0482-71f2-4b7e-b916-b1c754245bf1" transform="translate(-0.5,-2.1659921)"><g id="g35688"><path id="path35678" d="m 0.5,5.788 h 17 v 9.478 a 0.568,0.568 0 0 1 -0.568,0.568 H 1.068 A 0.568,0.568 0 0 1 0.5,15.266 Z" style="fill:url(#a24f9983-911f-4df7-920f-f964c8c10f82)"/><path id="path35680" d="m 1.071,2.166 h 15.858 a 0.568,0.568 0 0 1 0.568,0.568 V 5.788 H 0.5 V 2.734 A 0.568,0.568 0 0 1 1.071,2.166 Z" style="fill:#0078d4"/><path id="path35682" d="M 4.292,7.153 H 4.815 A 0.167,0.167 0 0 1 4.982,7.32 v 3.858 A 0.335,0.335 0 0 1 4.647,11.513 H 4.125 V 7.321 A 0.167,0.167 0 0 1 4.292,7.154 Z" transform="rotate(-45.081,4.5529301,9.3334607)" style="fill:#f2f2f2"/><path id="path35684" d="M 4.32,9.647 H 4.843 A 0.167,0.167 0 0 1 5.01,9.814 v 4.131 H 4.488 A 0.335,0.335 0 0 1 4.153,13.61 V 9.81 A 0.167,0.167 0 0 1 4.32,9.643 Z" transform="rotate(-135.081,4.5815119,11.796673)" style="fill:#e6e6e6"/><rect id="rect35686" width="4.771" height="1.011" x="7.221" y="12.64" rx=".291" style="fill:#f2f2f2"/></g></g><metadata id="metadata35691"/></svg>