<svg xmlns="http://www.w3.org/2000/svg" xmlns:svg="http://www.w3.org/2000/svg" id="svg36286" width="18" height="17.444" version="1.1" viewBox="0 0 18 17.444"><title id="title36271">MsPortalFx.base.images-41</title><g id="f32485b0-f730-4ade-91ae-ae62edcf1e5e" transform="translate(0,-0.278)"><g id="g36281"><path id="path36273" d="m 13.022,16.764 c -2.09,-0.28 -2.055,-1.624 -2.045,-3.8 H 7.061 c 0.01,2.179 0.045,3.523 -2.046,3.8 a 1.066,1.066 0 0 0 -0.984,0.958 h 9.981 a 1.072,1.072 0 0 0 -0.99,-0.958 z" style="fill:#1f56a3"/><rect id="rect36275" width="18" height="12.747" x="0" y=".278" rx=".61" style="fill:#1490df"/><rect id="rect36277" width="15.901" height="10.576" x="1.037" y="1.265" rx=".305" style="fill:#fff"/><path id="path36279" d="m 12.079,4.654 a 0.153,0.153 0 0 0 -0.13,0.074 L 11.019,6.3 A 0.15,0.15 0 0 1 10.757,6.294 L 9.333,3.581 A 0.151,0.151 0 0 0 9.057,3.603 L 7.719,7.575 A 0.151,0.151 0 0 1 7.438,7.586 L 6.281,4.905 A 0.15,0.15 0 0 0 6.011,4.892 l -1.593,2.9 A 0.15,0.15 0 0 1 4.286,7.87 H 1.037 V 8.828 H 4.852 A 0.15,0.15 0 0 0 4.984,8.75 L 5.907,7.072 a 0.151,0.151 0 0 1 0.27,0.013 l 1.371,3.178 a 0.15,0.15 0 0 0 0.28,-0.011 L 9.25,6.031 A 0.15,0.15 0 0 1 9.525,6.009 l 1.182,2.25 a 0.151,0.151 0 0 0 0.263,0.007 l 1.53,-2.58 a 0.149,0.149 0 0 1 0.129,-0.074 h 4.314 V 4.654 Z" style="fill:#76bc2d"/></g></g><metadata id="metadata36284"/></svg>