<svg xmlns="http://www.w3.org/2000/svg" xmlns:svg="http://www.w3.org/2000/svg" id="svg36572" width="12.782" height="16.999" version="1.1" viewBox="0 0 12.782 16.999"><defs id="defs36547"><linearGradient id="bbea4008-b54f-481b-9ea1-2a2ddabf3b42" x1=".072" x2="12.822" y1="12.971" y2="12.971" gradientTransform="rotate(0.147,909.21727,2022.897)" gradientUnits="userSpaceOnUse"><stop id="stop36532" offset="0" stop-color="#005ba1"/><stop id="stop36534" offset=".068" stop-color="#0060a9"/><stop id="stop36536" offset=".356" stop-color="#0071c8"/><stop id="stop36538" offset=".517" stop-color="#0078d4"/><stop id="stop36540" offset=".642" stop-color="#0074cd"/><stop id="stop36542" offset=".82" stop-color="#006abb"/><stop id="stop36544" offset="1" stop-color="#005ba1"/></linearGradient></defs><title id="title36549">MsPortalFx.base.images-51</title><g id="bdd66f0d-1091-4867-9f64-cdf433204a8a" transform="translate(-2.609,-0.49994158)"><g id="g36567"><g id="g36559"><path id="path36551" d="M 9.01,5.145 C 5.489,5.136 2.638,4.089 2.641,2.806 L 2.609,15.161 c 0,1.272 2.8,2.312 6.282,2.338 h 0.087 c 3.521,0.009 6.378,-1.023 6.381,-2.306 L 15.391,2.838 C 15.388,4.122 12.531,5.154 9.01,5.145 Z" style="fill:url(#bbea4008-b54f-481b-9ea1-2a2ddabf3b42)"/><path id="path36553" d="m 15.391,2.839 c 0,1.282 -2.86,2.315 -6.381,2.306 C 5.489,5.136 2.638,4.089 2.641,2.806 2.644,1.523 5.5,0.491 9.022,0.5 c 3.522,0.009 6.372,1.056 6.369,2.339" style="fill:#e6e6e6"/><path id="path36555" d="M 13.9,2.647 C 13.9,3.463 11.708,4.118 9.01,4.111 6.312,4.104 4.127,3.438 4.129,2.622 4.131,1.806 6.321,1.151 9.02,1.158 c 2.699,0.007 4.885,0.673 4.883,1.489" style="fill:#50e6ff"/><path id="path36557" d="m 9.015,2.975 a 11.749,11.749 0 0 0 -3.872,0.55 11.336,11.336 0 0 0 3.87,0.586 11.343,11.343 0 0 0 3.872,-0.566 11.74,11.74 0 0 0 -3.87,-0.57 z" style="fill:#198ab3"/></g><g id="g36565"><path id="path36561" d="M 5.986,10.089 H 6.838 A 0.262,0.262 0 0 1 7.1,10.351 v 3.385 A 0.262,0.262 0 0 1 6.838,14 H 6.248 A 0.262,0.262 0 0 1 5.986,13.738 Z" transform="rotate(135,6.5434605,12.044311)" style="fill:#fff"/><path id="path36563" d="m 9.7,6.562 h 0.852 v 7.785 A 0.262,0.262 0 0 1 10.29,14.609 H 9.7 A 0.262,0.262 0 0 1 9.438,14.347 V 6.825 A 0.262,0.262 0 0 1 9.7,6.562 Z" transform="rotate(-135,9.9937503,10.585953)" style="fill:#f2f2f2"/></g></g></g><metadata id="metadata36570"/></svg>