<svg xmlns="http://www.w3.org/2000/svg" xmlns:svg="http://www.w3.org/2000/svg" id="bd1d72a3-1f46-41dd-9c1e-f197eed5bd13" width="17.479" height="17.479" version="1.1" viewBox="0 0 17.479 17.479"><defs id="defs36792"><linearGradient id="e5071660-aef6-4ef7-b2c3-5b03145c6e10" x1="8.47" x2="14.96" y1="2.89" y2="9.62" gradientTransform="translate(0.25922848,0.26188779)" gradientUnits="userSpaceOnUse"><stop id="stop36772" offset="0" stop-color="#dfa500"/><stop id="stop36774" offset=".28" stop-color="#efb700"/><stop id="stop36776" offset=".51" stop-color="#ffca00"/><stop id="stop36778" offset="1" stop-color="#e1a800"/></linearGradient><linearGradient id="ab9f452c-d59c-4813-b9db-ac7f1a29f09a" x1="6.86" x2="-.99" y1="11.19" y2="18.81" gradientTransform="translate(0.25922848,0.26188779)" gradientUnits="userSpaceOnUse"><stop id="stop36781" offset="0" stop-color="#faa21d"/><stop id="stop36783" offset=".24" stop-color="#f99d1a"/><stop id="stop36785" offset=".51" stop-color="#f69012"/><stop id="stop36787" offset=".8" stop-color="#f17905"/><stop id="stop36789" offset=".88" stop-color="#ef7100"/></linearGradient></defs><title id="title36794">Icon-general-10</title><g id="g36814" transform="translate(-0.25922848,-0.26188779)"><path id="path36796" d="M 4.07,10.44 A 5.66,5.66 0 0 0 1.07,9.3 0.28,0.28 0 0 1 0.8,8.89 5.35,5.35 0 0 1 2.31,7.18 4.87,4.87 0 0 1 6.71,6.33 1.67,1.67 0 0 1 7.33,6.6 Z" style="fill:#f78d1e"/><path id="path36798" d="m 7.7,14.06 3.84,-3.26 a 1.82,1.82 0 0 1 0.27,0.63 4.91,4.91 0 0 1 -0.86,4.4 A 5.21,5.21 0 0 1 9.24,17.31 0.28,0.28 0 0 1 8.83,17 5.73,5.73 0 0 0 7.7,14.06 Z" style="fill:#f78d1e"/><path id="path36800" d="M 17.38,0.27 A 24.27,24.27 0 0 0 4,10.31 L 7.69,14 A 24.27,24.27 0 0 0 17.73,0.62 0.29,0.29 0 0 0 17.38,0.27 Z" style="fill:#fcd116"/><path id="path36802" d="M 17.38,0.27 A 24.27,24.27 0 0 0 4,10.31 L 7.69,14 A 24.27,24.27 0 0 0 17.73,0.62 0.29,0.29 0 0 0 17.38,0.27 Z" style="fill:url(#e5071660-aef6-4ef7-b2c3-5b03145c6e10)"/><path id="path36804" d="M 17.38,0.27 A 22,22 0 0 0 12.93,2.1 l 3,3 a 22,22 0 0 0 1.8,-4.48 0.29,0.29 0 0 0 -0.35,-0.35 z" style="fill:#0078d4"/><path id="path36806" d="M 0.26,17.44 A 10.32,10.32 0 0 1 4,10.31 L 7.69,14 a 10.32,10.32 0 0 1 -7.13,3.74 0.28,0.28 0 0 1 -0.3,-0.3 z" style="fill:url(#ab9f452c-d59c-4813-b9db-ac7f1a29f09a)"/><circle id="circle36808" cx="11.42" cy="6.58" r="1.91" style="fill:#dfa500"/><circle id="circle36810" cx="11.42" cy="6.58" r="1.43" style="fill:#f2f2f2"/><path id="path36812" d="M 5.16,13.59 A 3,3 0 0 1 3.83,14.18 3.3,3.3 0 0 1 4.41,12.84 L 8,9.24 8.75,9.99 Z" style="fill:#d15900"/></g><metadata id="metadata36816"/></svg>