<svg xmlns="http://www.w3.org/2000/svg" xmlns:svg="http://www.w3.org/2000/svg" id="svg37244" width="17.226" height="17.001" version="1.1" viewBox="0 0 17.226 17.001"><defs id="defs37227"><linearGradient id="fb5d9d20-fc2c-4e2c-bffd-dc236176d8b2" x1="-6428.21" x2="-6428.21" y1="9646.124" y2="9617.899" gradientTransform="matrix(0.5,0,0,-0.5,3225.2438,4824.356)" gradientUnits="userSpaceOnUse"><stop id="stop37214" offset="0" stop-color="#5ea0ef"/><stop id="stop37216" offset=".178" stop-color="#589eed"/><stop id="stop37218" offset=".406" stop-color="#4897e9"/><stop id="stop37220" offset=".662" stop-color="#2e8ce1"/><stop id="stop37222" offset=".936" stop-color="#0a7cd7"/><stop id="stop37224" offset="1" stop-color="#0078d4"/></linearGradient></defs><title id="title37229">MsPortalFx.base.images-52</title><g id="a05a9809-540f-4ec8-9a73-07896b5e7f5c" transform="translate(-0.38775534,-0.5)"><g id="g37239"><path id="path37231" d="m 8.438,10.379 h 4.234 v 4.234 H 8.438 Z M 3.5,4.734 H 7.732 V 0.5 H 4.086 A 0.588,0.588 0 0 0 3.498,1.088 Z m 0.588,9.879 H 7.732 V 10.379 H 3.5 v 3.646 a 0.588,0.588 0 0 0 0.586,0.588 z M 3.5,9.674 H 7.732 V 5.44 H 3.5 Z m 9.88,4.939 h 3.646 a 0.588,0.588 0 0 0 0.588,-0.588 V 10.379 H 13.378 Z M 8.438,9.674 h 4.234 V 5.44 H 8.438 Z m 4.94,0 h 4.234 V 5.44 h -4.234 z m 0,-9.174 v 4.234 h 4.234 V 1.088 A 0.588,0.588 0 0 0 17.024,0.5 Z m -4.94,4.234 h 4.234 V 0.5 H 8.438 Z" style="fill:url(#fb5d9d20-fc2c-4e2c-bffd-dc236176d8b2)"/><rect id="rect37233" width="5.457" height="1.243" x="-.212" y="14.751" rx=".581" transform="rotate(-45,2.5165448,15.372613)" style="fill:#198ab3"/><circle id="circle37235" cx="5.959" cy="11.709" r="3.744" style="fill:#50e6ff"/><circle id="circle37237" cx="5.952" cy="11.642" r="2.94" style="fill:#fff"/></g></g><metadata id="metadata37242"/></svg>