<svg xmlns="http://www.w3.org/2000/svg" xmlns:svg="http://www.w3.org/2000/svg" id="svg40274" width="15.96" height="16" version="1.1" viewBox="0 0 15.96 16"><defs id="defs40247"><linearGradient id="eb168260-1d86-43d3-aaf9-b23d953b33e0" x1="9.777" x2="15.063" y1="-1.321" y2="13.028" gradientTransform="translate(1.02,0.99995454)" gradientUnits="userSpaceOnUse"><stop id="stop40242" offset="0" stop-color="#6bb9f2"/><stop id="stop40244" offset="1" stop-color="#1b93eb"/></linearGradient></defs><title id="title40249">MsPortalFx.base.images-54</title><g id="a66f5715-d52a-4ecb-a69d-9f467a01f67d" transform="translate(-1.02,-0.99995454)"><g id="g40269"><path id="path40251" d="M 16.98,6.058 V 1.176 A 0.176,0.176 0 0 0 16.8,1 h -4.878 a 0.175,0.175 0 0 0 -0.124,0.3 l 1.344,1.345 0.09,0.089 a 0.177,0.177 0 0 1 0,0.249 L 7.345,8.869 a 0.177,0.177 0 0 0 0,0.249 l 1.517,1.517 a 0.177,0.177 0 0 0 0.249,0 L 15,4.748 a 0.176,0.176 0 0 1 0.249,0 l 0.089,0.089 1.342,1.345 a 0.175,0.175 0 0 0 0.3,-0.124 z" style="fill:url(#eb168260-1d86-43d3-aaf9-b23d953b33e0)"/><path id="path40253" d="m 13.394,9.377 v 3.573 a 0.411,0.411 0 0 1 -0.41,0.411 H 4.826 A 0.41,0.41 0 0 1 4.416,12.95 V 5.25 A 0.41,0.41 0 0 1 4.826,4.84 H 8.914 A 0.225,0.225 0 0 0 9.139,4.615 V 3.756 A 0.225,0.225 0 0 0 8.914,3.531 h -5.4 a 0.411,0.411 0 0 0 -0.41,0.411 v 10.316 a 0.41,0.41 0 0 0 0.41,0.41 h 10.777 a 0.41,0.41 0 0 0 0.411,-0.41 V 9.377 A 0.225,0.225 0 0 0 14.476,9.152 h -0.857 a 0.225,0.225 0 0 0 -0.225,0.225 z" style="fill:#b3b3b3"/><rect id="rect40255" width="1.03" height="1.03" x="15.697" y="15.97" style="fill:#76bc2d"/><path id="path40257" d="M 14.647,17 H 13.6 v -1.03 h 1.05 z m -2.1,0 H 11.5 v -1.03 h 1.049 z m -2.1,0 H 9.4 v -1.03 h 1.05 z m -2.1,0 H 7.3 v -1.03 h 1.048 z m -2.1,0 H 5.2 v -1.03 h 1.05 z m -2.1,0 H 3.1 v -1.03 h 1.049 z" style="fill:#76bc2d"/><rect id="rect40259" width="1.03" height="1.03" x="1.02" y="15.97" style="fill:#76bc2d"/><path id="path40261" d="M 2.05,14.92 H 1.02 v -1.049 h 1.03 z m 0,-2.1 H 1.02 v -1.05 h 1.03 z m 0,-2.1 H 1.02 V 9.672 h 1.03 z m 0,-2.1 H 1.02 V 7.572 h 1.03 z m 0,-2.1 H 1.02 V 5.473 h 1.03 z m 0,-2.1 H 1.02 V 3.373 h 1.03 z" style="fill:#76bc2d"/><rect id="rect40263" width="1.03" height="1.03" x="1.02" y="1.294" style="fill:#76bc2d"/><path id="path40265" d="M 8.348,2.324 H 7.3 v -1.03 h 1.048 z m -2.1,0 H 5.2 v -1.03 h 1.05 z m -2.1,0 H 3.1 v -1.03 h 1.049 z" style="fill:#76bc2d"/><path id="path40267" d="M 16.726,14.92 H 15.7 v -1.049 h 1.029 z m 0,-2.1 H 15.7 v -1.05 h 1.029 z m 0,-2.1 H 15.7 V 9.672 h 1.029 z" style="fill:#76bc2d"/></g></g><metadata id="metadata40272"/></svg>