<svg xmlns="http://www.w3.org/2000/svg" xmlns:svg="http://www.w3.org/2000/svg" id="svg41227" width="17.923" height="18.002" version="1.1" viewBox="0 0 17.923 18.002"><defs id="defs41197"><radialGradient id="f571c5d6-de99-4bbc-a7d0-4fe2bcaab048" cx="16.858" cy="14.328" r="8.737" gradientTransform="matrix(0.944,0,0,0.944,-6.1734665,-5.281)" gradientUnits="userSpaceOnUse"><stop id="stop41175" offset=".183" stop-color="#5ea0ef"/><stop id="stop41177" offset=".555" stop-color="#5c9fee"/><stop id="stop41179" offset=".689" stop-color="#559ced"/><stop id="stop41181" offset=".785" stop-color="#4a97e9"/><stop id="stop41183" offset=".862" stop-color="#3990e4"/><stop id="stop41185" offset=".928" stop-color="#2387de"/><stop id="stop41187" offset=".985" stop-color="#087bd6"/><stop id="stop41189" offset="1" stop-color="#0078d4"/></radialGradient><radialGradient id="ff6ac4d5-bc3b-4adc-96b4-da47ceed5d8a" cx="17.97" cy="15.337" r="1.223" gradientTransform="matrix(0.943,0,0,0.943,-7.1644665,-6.199)" gradientUnits="userSpaceOnUse"><stop id="stop41192" offset="0" stop-color="#7f7f7f"/><stop id="stop41194" offset="1" stop-color="#5e5e5e"/></radialGradient></defs><title id="title41199">MsPortalFx.base.images-55</title><g id="bf8d6c30-e204-4d69-aa93-0327d1ed40ea" transform="translate(-0.03853351)"><g id="g41222"><g id="g41218"><circle id="circle41201" cx="9.71" cy="8.252" r="8.252" style="fill:url(#f571c5d6-de99-4bbc-a7d0-4fe2bcaab048)"/><circle id="circle41203" cx="9.742" cy="8.252" r="7.185" style="fill:#fff"/><rect id="a1e94b4f-fc64-477e-9999-492f9f751b22" width="1.231" height=".397" x="13.04" y="4.13" transform="rotate(-45,13.655934,4.3285267)" style="fill:#7a7a7a"/><rect id="ad20dc92-0a86-4689-95f8-9ceccd536110" width="1.231" height=".397" x="14.61" y="8.045" style="fill:#7a7a7a"/><rect id="f9d98cb7-61e1-4075-967a-f8f3f5881df6" width=".397" height="1.231" x="13.4" y="11.486" transform="rotate(-45,13.598525,12.101306)" style="fill:#7a7a7a"/><rect id="faa47355-63bb-4aaf-ba9c-236acad2e22d" width=".397" height="1.231" x="9.543" y="13.093" style="fill:#7a7a7a"/><rect id="a968e841-f0cc-4609-b322-a2f83d5260fa" width=".397" height="1.231" x="5.588" y="3.674" transform="rotate(-45,5.7866071,4.2891089)" style="fill:#7a7a7a"/><rect id="bc5dee4f-3cab-4e15-9110-4099c8602ab1" width="1.231" height=".397" x="5.231" y="11.939" transform="rotate(-45,5.846444,12.137324)" style="fill:#7a7a7a"/><rect id="ba3377d0-1219-4aa8-a9b3-123b1a014012" width="1.231" height=".397" x="3.565" y="8.045" style="fill:#7a7a7a"/><rect id="rect41212" width="1.107" height="6.326" x="9.237" y="2.172" rx=".505" style="fill:#7a7a7a"/><rect id="rect41214" width="1.105" height="3.961" x="10.722" y="7.822" rx=".504" transform="rotate(135,11.274037,9.8019342)" style="fill:#7a7a7a"/><circle id="circle41216" cx="9.747" cy="8.238" r="1.169" style="fill:url(#ff6ac4d5-bc3b-4adc-96b4-da47ceed5d8a)"/></g><path id="path41220" d="M 8.078,0.146 A 8.294,8.294 0 0 0 5.4,15.353 L 5.674,14.627 A 0.161,0.161 0 0 1 5.949,14.581 L 8.1,17.191 A 0.161,0.161 0 0 1 8,17.453 L 4.657,18 A 0.162,0.162 0 0 1 4.48,17.784 L 4.88,16.71 A 9.719,9.719 0 0 1 0.373,10.953 8.462,8.462 0 0 1 8.078,0.146 Z" style="fill:#86d633"/></g></g><metadata id="metadata41225"/></svg>