<svg xmlns="http://www.w3.org/2000/svg" xmlns:svg="http://www.w3.org/2000/svg" id="svg43833" width="16.886" height="17.001" version="1.1" viewBox="0 0 16.886 17.001"><defs id="defs43794"><linearGradient id="b50cf5f1-c6e1-4f11-b8cc-ac5883e58b03" x1="5.759" x2="5.759" y1=".5" y2="16.523" gradientTransform="translate(0.56,0.49937382)" gradientUnits="userSpaceOnUse"><stop id="stop43774" offset="0" stop-color="#b3b2b3"/><stop id="stop43776" offset=".375" stop-color="#afaeaf"/><stop id="stop43778" offset=".763" stop-color="#a2a2a2"/><stop id="stop43780" offset="1" stop-color="#979797"/></linearGradient><linearGradient id="e6a4aefe-099f-4820-80ab-37d0a9752ce4" x1="11.676" x2="11.676" y1="17.5" y2="8.901" gradientTransform="translate(0.56,0.49937382)" gradientUnits="userSpaceOnUse"><stop id="stop43783" offset="0" stop-color="#0078d4"/><stop id="stop43785" offset=".156" stop-color="#1380da"/><stop id="stop43787" offset=".528" stop-color="#3c91e5"/><stop id="stop43789" offset=".822" stop-color="#559cec"/><stop id="stop43791" offset="1" stop-color="#5ea0ef"/></linearGradient></defs><title id="title43796">MsPortalFx.base.images-57</title><g id="abb598c4-c86a-468d-9987-3d53df2d9db9" transform="translate(-0.56,-0.49937382)"><g id="g43828"><path id="path43798" d="m 10.96,15.98 a 0.574,0.574 0 0 1 -0.6,0.543 H 1.16 A 0.574,0.574 0 0 1 0.56,15.98 V 1.043 A 0.574,0.574 0 0 1 1.158,0.5 h 9.2 a 0.574,0.574 0 0 1 0.6,0.543 z" style="fill:url(#b50cf5f1-c6e1-4f11-b8cc-ac5883e58b03)"/><path id="path43800" d="M 2.086,7.35 A 1.193,1.193 0 0 1 3.217,6.1 h 5.177 a 1.193,1.193 0 0 1 1.131,1.25 v 0 A 1.193,1.193 0 0 1 8.394,8.6 H 3.217 A 1.193,1.193 0 0 1 2.086,7.35 Z" style="fill:#003067"/><path id="path43802" d="M 2.086,3.649 A 1.193,1.193 0 0 1 3.217,2.4 h 5.177 a 1.193,1.193 0 0 1 1.131,1.249 v 0 A 1.193,1.193 0 0 1 8.394,4.895 H 3.217 A 1.193,1.193 0 0 1 2.086,3.649 Z" style="fill:#003067"/><circle id="circle43804" cx="3.542" cy="3.649" r=".836" style="fill:#50e6ff"/><circle id="circle43806" cx="3.542" cy="7.35" r=".836" style="fill:#50e6ff"/><path id="path43808" d="M 14.849,10.484 11.676,8.9 l -3.288,1.584 -1.2,2.35 v 4.381 A 0.286,0.286 0 0 0 7.474,17.5 h 8.405 a 0.286,0.286 0 0 0 0.286,-0.285 v -4.381 z" style="fill:url(#e6a4aefe-099f-4820-80ab-37d0a9752ce4)"/><path id="path43810" d="m 6.481,14.1 a 0.438,0.438 0 0 1 -0.4,-0.62 l 1.41,-3.08 a 0.439,0.439 0 0 1 0.191,-0.2 l 3.854,-2.073 a 0.438,0.438 0 0 1 0.42,0 l 3.721,2.073 a 0.434,0.434 0 0 1 0.178,0.187 l 1.545,3.078 a 0.43737513,0.43737513 0 1 1 -0.782,0.392 L 15.133,10.9 11.739,9.01 8.226,10.9 6.879,13.843 A 0.438,0.438 0 0 1 6.481,14.1 Z" style="fill:#50e6ff"/><rect id="rect43812" width="1.787" height="1.871" x="10.742" y="11.41" rx=".285" style="fill:#005ba1"/><g id="g43826"><path id="path43814" d="m 11.635,15.94 1.728,-1.157 a 0.283,0.283 0 0 0 -0.16,-0.049 h -3.136 a 0.285,0.285 0 0 0 -0.16,0.049 z" style="fill:#005ba1"/><polygon id="polygon43816" points="11.899 16.117 13.488 17.18 13.488 15.053" style="fill:#005ba1"/><polygon id="polygon43818" points="9.782 17.18 11.371 16.117 9.782 15.053" style="fill:#005ba1"/><polygon id="polygon43820" points="13.488 17.479 13.475 17.5 13.488 17.5" style="fill:#005ba1"/><polygon id="polygon43822" points="9.796 17.5 9.782 17.479 9.782 17.5" style="fill:#005ba1"/><polygon id="polygon43824" points="11.635 16.294 9.833 17.5 13.437 17.5" style="fill:#005ba1"/></g></g></g><metadata id="metadata43831"/></svg>