<svg xmlns="http://www.w3.org/2000/svg" xmlns:svg="http://www.w3.org/2000/svg" id="svg45963" width="17" height="15.512" version="1.1" viewBox="0 0 17 15.512"><defs id="defs45944"><linearGradient id="b7e818fc-7d3f-4e66-aeef-4fd721e36265" x1="9" x2="9" y1="13.333" y2="1.244" gradientTransform="translate(0.5,1.244)" gradientUnits="userSpaceOnUse"><stop id="stop45933" offset="0" stop-color="#0078d4"/><stop id="stop45935" offset=".156" stop-color="#1380da"/><stop id="stop45937" offset=".528" stop-color="#3c91e5"/><stop id="stop45939" offset=".822" stop-color="#559cec"/><stop id="stop45941" offset="1" stop-color="#5ea0ef"/></linearGradient></defs><title id="title45946">MsPortalFx.base.images-36</title><g id="be136587-6678-4499-b6cd-788b4eed2774" transform="translate(-0.5,-1.244)"><g id="g45958"><path id="path45948" d="M 17.5,13.333 H 0.5 L 1.683,2.412 a 1.308,1.308 0 0 1 1.3,-1.168 h 12.033 a 1.308,1.308 0 0 1 1.3,1.168 z" style="fill:url(#b7e818fc-7d3f-4e66-aeef-4fd721e36265)"/><path id="path45950" d="m 0.5,13.333 h 17 v 2.114 a 1.309,1.309 0 0 1 -1.309,1.309 H 1.809 A 1.309,1.309 0 0 1 0.5,15.447 Z" style="fill:#5ea0ef"/><path id="path45952" d="M 15.028,11.835 H 2.972 A 0.328,0.328 0 0 1 2.646,11.472 L 3.56,3.034 A 0.327,0.327 0 0 1 3.885,2.742 h 10.23 a 0.327,0.327 0 0 1 0.325,0.292 l 0.914,8.438 a 0.328,0.328 0 0 1 -0.326,0.363 z" style="fill:#f2f2f2"/><path id="path45954" d="M 13.691,15.294 V 14.5 A 0.294,0.294 0 0 0 13.397,14.206 H 13.362 A 0.294,0.294 0 0 0 13.068,14.5 v 0.753 H 9.221 V 14.5 A 0.294,0.294 0 0 0 8.927,14.206 H 8.892 A 0.294,0.294 0 0 0 8.6,14.5 v 0.753 H 4.542 V 14.51 A 0.294,0.294 0 0 0 4.248,14.216 H 4.213 A 0.294,0.294 0 0 0 3.919,14.51 v 0.79 a 0.588,0.588 0 0 0 0.588,0.588 h 0.035 l 8.562,-0.01 a 0.587,0.587 0 0 0 0.587,-0.584 z" style="fill:#f2f2f2"/><path id="path45956" d="M 8.579,7.584 H 6.441 C 6.374,7.584 6.32,7.551 6.32,7.51 A 0.05,0.05 0 0 1 6.331,7.48 L 8.9,3.985 A 0.14,0.14 0 0 1 9.01,3.942 h 2.529 c 0.067,0 0.121,0.033 0.121,0.074 A 0.057,0.057 0 0 1 11.639,4.058 L 8.624,6.793 h 2.935 c 0.067,0 0.121,0.033 0.121,0.074 a 0.064,0.064 0 0 1 -0.031,0.05 l -4.88,3.5 C 6.724,10.436 6.398,10.622 6.558,10.339 v 0 z" style="fill:#5ea0ef"/></g></g><metadata id="metadata45961"/></svg>