<svg xmlns="http://www.w3.org/2000/svg" xmlns:svg="http://www.w3.org/2000/svg" id="bc18bade-5481-447e-a959-659d72346474" width="11.247" height="18.031" version="1.1" viewBox="0 0 11.247 18.031"><defs id="defs48326"><radialGradient id="a445c717-9d75-44c7-ba6b-0d8f2383e560" cx="-36.63" cy="17.12" r="11.18" gradientTransform="matrix(0.94,0,0,0.94,41.88,-7.4)" gradientUnits="userSpaceOnUse"><stop id="stop48317" offset=".27" stop-color="#ffd70f"/><stop id="stop48319" offset=".49" stop-color="#ffcb12"/><stop id="stop48321" offset=".88" stop-color="#feac19"/><stop id="stop48323" offset="1" stop-color="#fea11b"/></radialGradient></defs><title id="title48328">Icon-general-2</title><path id="e3d1e58c-f78e-4fb5-9857-0c9331da9979" d="m 10.639404,7.1067278 a 2.07,2.07 0 0 0 0,-2.93 v 0 L 7.0794045,0.60672783 a 2.06,2.06 0 0 0 -2.92,0 v 0 L 0.59940448,4.1767278 a 2.09,2.09 0 0 0 0,2.93 L 3.5994045,10.106728 a 0.61,0.61 0 0 1 0.17,0.41 v 5.52 a 0.7,0.7 0 0 0 0.2,0.5 l 1.35,1.35 a 0.45,0.45 0 0 0 0.66,0 l 1.31,-1.31 v 0 l 0.77,-0.77 a 0.26,0.26 0 0 0 0,-0.38 l -0.55,-0.56 a 0.29,0.29 0 0 1 0,-0.42 l 0.55,-0.56 a 0.26,0.26 0 0 0 0,-0.38 l -0.58,-0.59 a 0.28,0.28 0 0 1 0,-0.41 l 0.6,-0.59 a 0.26,0.26 0 0 0 0,-0.38 l -0.77,-0.78 v -0.28 z m -4.9999995,-5.64 a 1.18,1.18 0 1 1 -1.19,1.18 1.17,1.17 0 0 1 1.17,-1.18 z" style="fill:url(#a445c717-9d75-44c7-ba6b-0d8f2383e560)"/><path id="a21a8f7a-61cc-4035-8449-e5c8fe4d4d5e" d="m 4.6994045,16.126728 v 0 a 0.25,0.25 0 0 0 0.38,-0.21 v -4.45 a 0.27,0.27 0 0 0 -0.11,-0.22 v 0 a 0.25,0.25 0 0 0 -0.39,0.22 v 4.45 a 0.27,0.27 0 0 0 0.12,0.21 z" style="opacity:.75;fill:#ff9300"/><rect id="ecd3189c-fb1e-4a0e-a2b6-ba2f11dda484" width="5.86" height=".69" x="2.769" y="5.367" rx=".32" style="opacity:.75;fill:#ff9300"/><rect id="a1949a3c-4818-4bd1-b236-0d970b92fc62" width="5.86" height=".69" x="2.769" y="6.487" rx=".32" style="opacity:.75;fill:#ff9300"/><metadata id="metadata48334"/></svg>