<svg xmlns="http://www.w3.org/2000/svg" xmlns:svg="http://www.w3.org/2000/svg" id="svg50301" width="17" height="14.863" version="1.1" viewBox="0 0 17 14.863"><defs id="defs50280"><linearGradient id="a1711304-680d-4c8b-88a3-f1ba4b9a6455" x1="9" x2="9" y1="16.431" y2="4.559" gradientTransform="translate(0.5,1.5684412)" gradientUnits="userSpaceOnUse"><stop id="stop50269" offset="0" stop-color="#0078d4"/><stop id="stop50271" offset=".156" stop-color="#1380da"/><stop id="stop50273" offset=".528" stop-color="#3c91e5"/><stop id="stop50275" offset=".822" stop-color="#559cec"/><stop id="stop50277" offset="1" stop-color="#5ea0ef"/></linearGradient></defs><title id="title50282">MsPortalFx.base.images-78</title><g id="bb1c4aae-a407-4f6f-98e2-81891d0404e1" transform="translate(-0.5,-1.5684412)"><g id="g50296"><path id="path50284" d="m 13.135,4.659 h -0.85 V 2.422 a 0.1,0.1 0 0 0 -0.026,0 H 5.845 a 0.093,0.093 0 0 0 -0.026,0 v 2.237 h -0.85 v -2.28 a 0.846,0.846 0 0 1 0.876,-0.81 h 6.414 a 0.846,0.846 0 0 1 0.876,0.81 z" style="fill:#a3a3a3"/><rect id="rect50286" width="17" height="11.872" x=".5" y="4.559" rx=".567" style="fill:url(#a1711304-680d-4c8b-88a3-f1ba4b9a6455)"/><rect id="rect50288" width="17" height="1.311" x=".5" y="7.594" style="fill:#9cebff"/><path id="path50290" d="M 6.617,8.905 H 11.5 v 1.531 a 0.281,0.281 0 0 1 -0.281,0.281 H 6.9 A 0.281,0.281 0 0 1 6.619,10.436 V 8.905 Z" style="fill:#005ba1"/><polygon id="polygon50292" points="5.144 15.378 6.015 12.662 .5 10.894 .5 13.889" style="fill:#83b9f9"/><path id="path50294" d="m 17.5,10.745 a 2.718,2.718 0 1 0 0,4.837 z" style="fill:#5ea0ef"/></g></g><metadata id="metadata50299"/></svg>