<svg xmlns="http://www.w3.org/2000/svg" xmlns:svg="http://www.w3.org/2000/svg" id="svg50670" width="16" height="15.385" version="1.1" viewBox="0 0 16 15.385"><defs id="defs50653"><linearGradient id="e5eb8d49-f596-43cc-8882-1dde4f1785ce" x1="7.849" x2="7.849" y1="12.323" y2="4.229" gradientTransform="translate(1,1.3099956)" gradientUnits="userSpaceOnUse"><stop id="stop50637" offset="0" stop-color="#0078d4"/><stop id="stop50639" offset=".502" stop-color="#4093e6"/><stop id="stop50641" offset=".775" stop-color="#5ea0ef"/></linearGradient><linearGradient id="b27ee86e-b59d-4418-8747-06a34580fa30" x1="10.151" x2="10.151" y1="16.69" y2="8.595" gradientTransform="translate(1,1.3099956)" gradientUnits="userSpaceOnUse"><stop id="stop50644" offset="0" stop-color="#32bedd"/><stop id="stop50646" offset=".175" stop-color="#32caea"/><stop id="stop50648" offset=".41" stop-color="#32d2f2"/><stop id="stop50650" offset=".775" stop-color="#32d4f5"/></linearGradient></defs><title id="title50655">MsPortalFx.base.images-19</title><g id="bc5e6cd2-d956-42f3-a793-ab65f89250a4" transform="translate(-1,-1.3099956)"><g id="g50665"><path id="path50657" d="m 1,4.229 h 13.7 v 7.637 a 0.458,0.458 0 0 1 -0.458,0.458 H 1.458 A 0.458,0.458 0 0 1 1,11.866 Z" style="fill:url(#e5eb8d49-f596-43cc-8882-1dde4f1785ce)"/><path id="path50659" d="m 1.46,1.31 h 12.777 a 0.458,0.458 0 0 1 0.458,0.458 V 4.229 H 1 V 1.768 A 0.458,0.458 0 0 1 1.46,1.31 Z" style="fill:#0078d4"/><path id="path50661" d="M 3.3,8.6 H 17 v 7.637 a 0.458,0.458 0 0 1 -0.458,0.458 H 3.76 A 0.458,0.458 0 0 1 3.302,16.237 V 8.6 Z" style="fill:url(#b27ee86e-b59d-4418-8747-06a34580fa30)"/><path id="path50663" d="M 3.763,5.677 H 16.54 A 0.458,0.458 0 0 1 17,6.134 V 8.6 H 3.3 V 6.134 A 0.458,0.458 0 0 1 3.763,5.677 Z" style="fill:#198ab3"/></g></g><metadata id="metadata50668"/></svg>