<svg xmlns="http://www.w3.org/2000/svg" xmlns:svg="http://www.w3.org/2000/svg" id="svg51053" width="15.276" height="16.999" version="1.1" viewBox="0 0 15.276 16.999"><defs id="defs51030"><linearGradient id="a7378179-50f3-45ab-8197-d359c8bd30ce" x1="8.929" x2="8.929" y1="7.745" y2=".5" gradientTransform="translate(1.362,0.50095535)" gradientUnits="userSpaceOnUse"><stop id="stop51023" offset="0" stop-color="#37c2b1"/><stop id="stop51025" offset=".565" stop-color="#3fddc3"/><stop id="stop51027" offset=".908" stop-color="#42e8ca"/></linearGradient></defs><title id="title51032">MsPortalFx.base.images-50</title><g id="bf6945d2-ac27-4d06-8533-06841ee98173" transform="translate(-1.362,-0.50095535)"><g id="g51048"><path id="path51034" d="m 15.335,11.969 h 1.124 a 0.179,0.179 0 0 1 0.179,0.179 v 3.86 h -1.482 v -3.86 a 0.179,0.179 0 0 1 0.179,-0.179 z" style="fill:#767676"/><path id="path51036" d="m 1.542,12.066 h 1.172 a 0.18,0.18 0 0 1 0.18,0.18 v 3.763 H 1.362 v -3.764 a 0.18,0.18 0 0 1 0.18,-0.179 z" style="fill:#767676"/><path id="path51038" d="m 8.741,9.116 h 1 v 15.276 h -1 A 0.487,0.487 0 0 1 8.254,23.905 V 9.6 A 0.487,0.487 0 0 1 8.741,9.116 Z" transform="rotate(-90,9,16.754)" style="fill:#949494"/><rect id="rect51040" width="2.879" height="7.754" x="3.708" y="7.275" rx=".375" style="fill:#0078d4"/><rect id="rect51042" width="2.879" height="7.754" x="7.55" y="7.275" rx=".375" style="fill:#0078d4"/><rect id="rect51044" width="2.879" height="7.754" x="11.391" y="7.275" rx=".375" style="fill:#37c2b1"/><path id="path51046" d="M 14.1,3.52 11.129,0.545 A 0.152,0.152 0 0 0 10.87,0.652 V 2.386 C 7.289,2.386 3.708,4.299 3.708,7.745 4.22,6.977 6.778,4.934 10.87,4.934 V 6.6 a 0.152,0.152 0 0 0 0.259,0.107 L 14.1,3.734 a 0.15,0.15 0 0 0 0,-0.214 z" style="fill:url(#a7378179-50f3-45ab-8197-d359c8bd30ce)"/></g></g><metadata id="metadata51051"/></svg>