<svg xmlns="http://www.w3.org/2000/svg" xmlns:svg="http://www.w3.org/2000/svg" id="svg52220" width="17.002" height="17.008" version="1.1" viewBox="0 0 17.002 17.008"><defs id="defs52176"><radialGradient id="e0873f90-9727-41f1-a8db-358a5d926595" cx="1427.09" cy="3357.234" r="20.684" gradientTransform="matrix(0.15,0,0,0.15,-204.64391,-494.091)" gradientUnits="userSpaceOnUse"><stop id="stop52157" offset=".183" stop-color="#5ea0ef"/><stop id="stop52159" offset="1" stop-color="#0078d4"/></radialGradient><linearGradient id="a220ab4b-9dd7-458a-877f-d2c6671334ef" x1="7.243" x2="7.232" y1="9.904" y2="8.458" gradientTransform="translate(0.49809299,0.50000306)" gradientUnits="userSpaceOnUse"><stop id="stop52162" offset="0" stop-color="#ccc"/><stop id="stop52164" offset=".123" stop-color="#d7d7d7"/><stop id="stop52166" offset="1" stop-color="#fcfcfc"/></linearGradient><linearGradient id="e3e27ad1-5409-4546-b3c1-4f82da736add" x1="9.337" x2="9.337" y1="11.349" y2="10.053" gradientTransform="translate(0.49809299,0.50000306)" gradientUnits="userSpaceOnUse"><stop id="stop52169" offset="0" stop-color="#ccc"/><stop id="stop52171" offset=".123" stop-color="#d7d7d7"/><stop id="stop52173" offset="1" stop-color="#fcfcfc"/></linearGradient></defs><title id="title52178">MsPortalFx.base.images-42</title><g id="a0e97786-3893-49e7-9841-ca512e5c23a0" transform="translate(-0.49809299,-0.50000306)"><g id="g52184"><path id="path52180" d="M 3.236,9 C 3.083,9.233 2.936,9.465 2.8,9.7 A 21.85,21.85 0 0 0 5.312,12.692 21.986,21.986 0 0 0 8.3,15.2 Q 8.648,14.993 9,14.762 A 20.494,20.494 0 0 1 5.835,12.162 20.56,20.56 0 0 1 3.236,9 Z" style="fill:#b3b3b3"/><path id="path52182" d="M 1.894,1.893 A 2.571,2.571 0 0 1 3.768,1.245 6.9,6.9 0 0 1 6.087,1.714 13.289,13.289 0 0 1 8.318,2.794 Q 8.659,2.56 9,2.346 A 14.426,14.426 0 0 0 6.34,1.019 C 4.159,0.223 2.394,0.347 1.371,1.37 -0.116,2.858 0.362,5.846 2.339,9 2.484,8.769 2.639,8.537 2.8,8.3 1.187,5.591 0.731,3.056 1.894,1.893 Z" style="fill:#b3b3b3"/></g><path id="path52186" d="M 3.77,17.5 A 3.28,3.28 0 0 1 1.37,16.629 C -0.7,14.56 1.035,9.589 5.312,5.311 A 18.318,18.318 0 0 1 11.66,1.02 c 2.181,-0.8 3.946,-0.672 4.969,0.35 2.068,2.068 0.336,7.039 -3.941,11.317 C 9.632,15.742 6.222,17.5 3.77,17.5 Z M 14.232,1.245 A 6.9,6.9 0 0 0 11.913,1.714 17.572,17.572 0 0 0 5.835,5.834 C 1.983,9.686 0.178,14.389 1.894,16.105 3.61,17.821 8.313,16.016 12.165,12.164 16.017,8.312 17.822,3.608 16.106,1.893 v 0 A 2.571,2.571 0 0 0 14.232,1.245 Z" style="fill:#5ea0ef"/><polygon id="polygon52188" points="2.938 9.892 2.096 8.599 2.8 8.303 3.492 9.375" style="fill:#b3b3b3"/><path id="path52190" d="M 15.05,8.107 A 21.862,21.862 0 0 0 12.688,5.307 21.737,21.737 0 0 0 9.682,2.794 C 9.455,2.93 9.227,3.074 9,3.225 a 20.682,20.682 0 0 1 3.165,2.609 20.548,20.548 0 0 1 2.4,2.877 L 15.2,9.7 c 1.613,2.712 2.069,5.247 0.906,6.41 -1.163,1.163 -3.7,0.707 -6.41,-0.905 -0.232,0.161 -0.465,0.314 -0.7,0.459 a 10.449,10.449 0 0 0 5.23,1.84 3.28,3.28 0 0 0 2.4,-0.871 c 1.439,-1.44 1.024,-4.287 -0.8,-7.327 L 15.835,9.301 15.719,9.119 C 15.695,9.08 15.677,9.043 15.653,9.004 V 9.01 Z" style="fill:#b3b3b3"/><path id="f6bf6f73-b30e-432d-b132-2c5684ec9a90" d="m 10.824,11.448 a 3.1004032,3.1004032 0 1 1 -3.8,-4.9 L 7.055,6.524 a 3.102248,3.102248 0 0 1 3.771,4.927" style="fill:url(#e0873f90-9727-41f1-a8db-358a5d926595)"/><circle id="circle52193" cx="7.235" cy="8.88" r=".997" style="fill:url(#a220ab4b-9dd7-458a-877f-d2c6671334ef)"/><circle id="circle52195" cx="9.337" cy="10.701" r=".648" style="fill:url(#e3e27ad1-5409-4546-b3c1-4f82da736add)"/><circle id="circle52197" cx="10.814" cy="9.094" r=".688" style="fill:#fff"/><g id="g52211"><path id="path52199" d="m 6.238,10.555 a 3.615,3.615 0 0 0 0.227,0.336 3.056,3.056 0 0 0 0.2,0.237 A 6.506,6.506 0 0 1 7.06,9.862 0.99,0.99 0 0 1 6.54,9.597 7.07,7.07 0 0 0 6.238,10.555 Z" style="opacity:.55;fill:#f2f2f2"/><path id="path52201" d="M 6.9,7.942 A 4.356,4.356 0 0 1 6.648,6.867 3.071,3.071 0 0 0 6.248,7.399 4.836,4.836 0 0 0 6.456,8.261 0.989,0.989 0 0 1 6.9,7.942 Z" style="opacity:.55;fill:#f2f2f2"/><path id="path52203" d="m 7.963,9.56 a 0.99,0.99 0 0 1 -0.545,0.3 4.362,4.362 0 0 0 0.53,0.469 4.593,4.593 0 0 0 0.747,0.456 0.772,0.772 0 0 1 -0.006,-0.084 0.645,0.645 0 0 1 0.2,-0.463 A 4.359,4.359 0 0 1 7.963,9.56 Z" style="opacity:.55;fill:#f2f2f2"/><path id="path52205" d="m 9.983,10.661 c 0,0.014 0,0.027 0,0.04 a 0.644,0.644 0 0 1 -0.185,0.453 5.093,5.093 0 0 0 1.246,0.089 3.122,3.122 0 0 0 0.42,-0.491 4.49,4.49 0 0 1 -0.478,0.027 4.333,4.333 0 0 1 -1.003,-0.118 z" style="opacity:.55;fill:#f2f2f2"/><path id="path52207" d="M 10.358,8.609 A 9.631,9.631 0 0 1 9.167,7.575 4.965,4.965 0 0 1 11.332,7.044 3.044,3.044 0 0 0 10.79,6.516 5.28,5.28 0 0 0 9.076,6.921 C 8.957,6.971 8.853,7.046 8.739,7.107 L 8.729,7.1 A 6.128,6.128 0 0 1 8.005,6.033 3.142,3.142 0 0 0 7.605,6.186 6.423,6.423 0 0 0 8.361,7.319 4.546,4.546 0 0 0 7.586,7.953 0.994,0.994 0 0 1 8.077,8.353 4.309,4.309 0 0 1 8.79,7.8 9.98,9.98 0 0 0 10.134,8.97 0.674,0.674 0 0 1 10.358,8.609 Z" style="opacity:.55;fill:#f2f2f2"/><path id="path52209" d="M 11.853,9.5 11.841,9.494 11.733,9.435 11.713,9.424 11.613,9.37 11.589,9.357 11.474,9.291 a 0.656,0.656 0 0 1 -0.232,0.338 l 0.136,0.078 0.031,0.017 0.127,0.071 0.012,0.007 c 0.1,0.055 0.208,0.111 0.315,0.166 v 0 a 3.153,3.153 0 0 0 0.1,-0.407 z" style="opacity:.55;fill:#f2f2f2"/></g><circle id="circle52213" cx="7.235" cy="8.88" r=".997" style="fill:#fff"/><circle id="circle52215" cx="9.337" cy="10.701" r=".648" style="fill:#fff"/></g><metadata id="metadata52218"/></svg>