<svg xmlns="http://www.w3.org/2000/svg" xmlns:svg="http://www.w3.org/2000/svg" id="svg52374" width="16.332" height="18.002" version="1.1" viewBox="0 0 16.332 18.002"><defs id="defs52357"><linearGradient id="f1d663a9-64c8-43fb-a40f-a24a6c8f7510" x1="9" x2="9" y1="11.576" gradientTransform="translate(0.834,-0.00222021)" gradientUnits="userSpaceOnUse"><stop id="stop52346" offset="0" stop-color="#0078d4"/><stop id="stop52348" offset=".156" stop-color="#1380da"/><stop id="stop52350" offset=".528" stop-color="#3c91e5"/><stop id="stop52352" offset=".822" stop-color="#559cec"/><stop id="stop52354" offset="1" stop-color="#5ea0ef"/></linearGradient></defs><title id="title52359">MsPortalFx.base.images-43</title><g id="e1d66782-0311-4f04-9e41-92ce22baac72" transform="translate(-0.834,0.00222021)"><g id="g52369"><path id="path52361" d="M 17.166,7.95 A 3.669,3.669 0 0 0 13.981,4.423 4.624,4.624 0 0 0 9.218,0 4.745,4.745 0 0 0 4.683,3.092 4.379,4.379 0 0 0 0.834,7.305 a 4.444,4.444 0 0 0 4.6,4.271 c 0.136,0 0.271,-0.007 0.405,-0.018 h 7.447 a 0.749,0.749 0 0 0 0.2,-0.029 3.713,3.713 0 0 0 3.68,-3.579 z" style="fill:url(#f1d663a9-64c8-43fb-a40f-a24a6c8f7510)"/><rect id="rect52363" width="14.908" height="1.078" x="1.929" y="12.68" rx=".539" style="fill:#198ab3"/><rect id="rect52365" width="11.143" height="1.078" x="1.929" y="14.793" rx=".466" style="fill:#32bedd"/><rect id="rect52367" width="8.935" height="1.109" x="1.929" y="16.891" rx=".423" style="fill:#50e6ff"/></g></g><metadata id="metadata52372"/></svg>