<svg xmlns="http://www.w3.org/2000/svg" xmlns:svg="http://www.w3.org/2000/svg" id="svg52600" width="17.554" height="18" version="1.1" viewBox="0 0 17.554 18"><defs id="defs52579"><linearGradient id="e4fe130c-1194-40d1-b5a4-e2bb47010cb4" x1="2.624" x2="2.624" y1="15.969" y2="11.167" gradientTransform="translate(0.223)" gradientUnits="userSpaceOnUse"><stop id="stop52558" offset="0" stop-color="#76bc2d"/><stop id="stop52560" offset=".601" stop-color="#81ce31"/><stop id="stop52562" offset=".822" stop-color="#86d633"/></linearGradient><linearGradient id="ac1aac1d-90a5-47ab-b231-bd8d57cff665" x1="9.026" x2="9.026" y1="18" y2="13.198" gradientTransform="translate(0.223)" gradientUnits="userSpaceOnUse"><stop id="stop52565" offset="0" stop-color="#76bc2d"/><stop id="stop52567" offset=".601" stop-color="#81ce31"/><stop id="stop52569" offset=".822" stop-color="#86d633"/></linearGradient><linearGradient id="fb43c81d-62cd-430c-b971-97ce3b11776c" x1="15.376" x2="15.376" y1="16.001" y2="11.199" gradientTransform="translate(0.223)" gradientUnits="userSpaceOnUse"><stop id="stop52572" offset="0" stop-color="#76bc2d"/><stop id="stop52574" offset=".601" stop-color="#81ce31"/><stop id="stop52576" offset=".822" stop-color="#86d633"/></linearGradient></defs><title id="title52581">MsPortalFx.base.images-46</title><g id="aac33089-9c97-4591-a4d0-bf17c24367ba" transform="translate(-0.223)"><g id="g52595"><path id="path52583" d="M 15.509,7.868 H 10.052 A 0.293,0.293 0 0 1 9.759,7.575 V 5.491 H 8.293 V 7.575 A 0.294,0.294 0 0 1 8,7.868 H 2.479 A 0.587,0.587 0 0 0 1.892,8.455 v 2.7 h 1.466 v -1.5 A 0.294,0.294 0 0 1 3.652,9.362 H 8.293 V 13.28 H 9.759 V 9.368 h 4.577 a 0.293,0.293 0 0 1 0.293,0.293 v 1.53 H 16.1 V 8.455 A 0.587,0.587 0 0 0 15.509,7.868 Z" style="fill:#50e6ff"/><rect id="rect52585" width="5.881" height="5.881" x="6.029" y="0" rx=".532" style="fill:#0078d4"/><rect id="rect52587" width="3.622" height="3.622" x="7.158" y="1.13" rx=".328" style="fill:#fff"/><rect id="rect52589" width="4.802" height="4.802" x=".223" y="11.167" rx=".435" style="fill:url(#e4fe130c-1194-40d1-b5a4-e2bb47010cb4)"/><rect id="rect52591" width="4.802" height="4.802" x="6.624" y="13.198" rx=".435" style="fill:url(#ac1aac1d-90a5-47ab-b231-bd8d57cff665)"/><rect id="rect52593" width="4.802" height="4.802" x="12.975" y="11.199" rx=".435" style="fill:url(#fb43c81d-62cd-430c-b971-97ce3b11776c)"/></g></g><metadata id="metadata52598"/></svg>