<svg xmlns="http://www.w3.org/2000/svg" xmlns:svg="http://www.w3.org/2000/svg" id="svg52500" width="15.63" height="17.003" version="1.1" viewBox="0 0 15.63 17.003"><defs id="defs52473"><linearGradient id="bf27f400-3b83-4dfa-9afd-dbfe78240842" x1="8.881" x2="8.881" y1="17.5" y2="2.093" gradientTransform="translate(1.1849999,0.49650682)" gradientUnits="userSpaceOnUse"><stop id="stop52468" offset="0" stop-color="#0078d4"/><stop id="stop52470" offset=".817" stop-color="#5ea0ef"/></linearGradient></defs><title id="title52475">MsPortalFx.base.images-45</title><g id="ec8922f1-4baf-49ec-b516-cec52695ceb5" transform="translate(-1.1849999,-0.49650682)"><g id="g52495"><path id="path52477" d="M 2.659,2.109 3.87,0.7 A 0.591,0.591 0 0 1 4.314,0.5 h 11.613 a 0.813,0.813 0 0 1 0.888,0.831 v 14.5 a 0.59,0.59 0 0 1 -0.192,0.435 l -1.308,1.191 H 3.444 l -0.8,-0.337 z" style="fill:#005ba1"/><path id="path52479" d="M 3.633,2.1 4.375,1.254 A 0.521,0.521 0 0 1 4.768,1.075 h 10.846 a 0.522,0.522 0 0 1 0.522,0.522 v 13.786 a 0.521,0.521 0 0 1 -0.171,0.386 l -1.158,1.055 z" style="fill:#fff"/><path id="path52481" d="M 14.736,2.093 H 2.7 A 0.056,0.056 0 0 0 2.644,2.149 V 17.115 A 0.385,0.385 0 0 0 3.029,17.5 h 11.71 a 0.385,0.385 0 0 0 0.385,-0.385 V 2.478 A 0.386,0.386 0 0 0 14.736,2.093 Z" style="fill:url(#bf27f400-3b83-4dfa-9afd-dbfe78240842)"/><rect id="rect52483" width="6.005" height="2.382" x="6.028" y="6.2" rx=".27" style="fill:#fff"/><rect id="rect52485" width="2.448" height="1.441" x="1.185" y="3.608" rx=".59" style="fill:#005ba1"/><rect id="rect52487" width="2.448" height="1.441" x="1.185" y="6.346" rx=".59" style="fill:#005ba1"/><rect id="rect52489" width="2.448" height="1.441" x="1.185" y="9.084" rx=".59" style="fill:#005ba1"/><rect id="rect52491" width="2.448" height="1.441" x="1.185" y="11.821" rx=".59" style="fill:#005ba1"/><rect id="rect52493" width="2.448" height="1.441" x="1.185" y="14.559" rx=".59" style="fill:#005ba1"/></g></g><metadata id="metadata52498"/></svg>