<svg xmlns="http://www.w3.org/2000/svg" xmlns:svg="http://www.w3.org/2000/svg" id="a5e980e2-fe6c-4b4b-bd88-a9c235de5a4d" width="17.635" height="17.6" version="1.1" viewBox="0 0 17.635 17.6"><defs id="defs76158"><linearGradient id="af3748e9-b70c-45be-94d6-553fb78dc833" x1="-481.386" x2="-463.782" y1="-747.701" y2="-778.247" gradientTransform="matrix(0.5,0.866,-0.866,0.5,-419.48201,794.28032)" gradientUnits="userSpaceOnUse"><stop id="stop76131" offset="0" stop-color="#005ba1"/><stop id="stop76133" offset=".366" stop-color="#004e8f"/><stop id="stop76135" offset="1" stop-color="#003067"/></linearGradient><linearGradient id="bccb774a-3f0f-4cfb-8caf-da5943d5aaf7" x1="-1395.588" x2="-1374.204" y1="671.239" y2="633.738" gradientTransform="matrix(-0.5,-0.866,0.866,-0.5,-1249.026,-858.19568)" gradientUnits="userSpaceOnUse"><stop id="stop76138" offset="0" stop-color="#005ba1"/><stop id="stop76140" offset=".451" stop-color="#004685"/><stop id="stop76142" offset="1" stop-color="#003067"/></linearGradient><linearGradient id="ecd98112-5cbf-4c9b-800a-df61d86f7d77" x1="6.003" x2="7.447" y1="14.447" y2="6.204" gradientTransform="translate(0.19998621,0.20031567)" gradientUnits="userSpaceOnUse"><stop id="stop76145" offset=".26" stop-color="#50e6ff"/><stop id="stop76147" offset=".42" stop-color="#79eaff"/><stop id="stop76149" offset=".58" stop-color="#99edff"/><stop id="stop76151" offset=".733" stop-color="#b0efff"/><stop id="stop76153" offset=".876" stop-color="#bef1ff"/><stop id="stop76155" offset="1" stop-color="#c3f1ff"/></linearGradient></defs><g id="g76172" transform="translate(-0.19998621,-0.20031567)"><path id="path76160" d="m 9.243,3.927 4.372,2.515 3.048,-1.76 A 8.792,8.792 0 0 0 2.735,2.824 10.019,10.019 0 0 1 9.243,3.927 Z" style="fill:url(#af3748e9-b70c-45be-94d6-553fb78dc833)"/><path id="path76162" d="m 13.558,6.442 -0.069,6.034 3.168,0.851 A 8.792,8.792 0 0 0 11.415,0.536 10.442,10.442 0 0 1 13.558,6.442 Z" style="fill:#0078d4"/><path id="path76164" d="M 13.552,11.646 9,14.276 l 0.071,3.5 a 8.8,8.8 0 0 0 8.764,-8.8 8.432,8.432 0 0 0 -0.288,-2.09 9.573,9.573 0 0 1 -3.995,4.76 z" style="fill:#5ea0ef"/><path id="path76166" d="m 9,14.276 -4.555,-2.63 -3.02,1.812 A 8.78,8.78 0 0 0 15.097,15.339 9.908,9.908 0 0 1 9,14.276 Z" style="fill:url(#bccb774a-3f0f-4cfb-8caf-da5943d5aaf7)"/><path id="path76168" d="M 4.442,11.646 4.511,5.409 1.394,4.588 A 8.744,8.744 0 0 0 0.2,9 8.847,8.847 0 0 0 6.735,17.5 10.191,10.191 0 0 1 4.442,11.646 Z" style="fill:#0078d4"/><path id="path76170" d="M 4.6,6.3 9,3.757 A 10.579,10.579 0 0 0 3.058,2.512 8.758,8.758 0 0 0 0.2,9 9.013,9.013 0 0 0 0.514,11.32 10.25,10.25 0 0 1 4.6,6.3 Z" style="fill:#5ea0ef"/></g><polygon id="polygon76174" points="8.997 3.757 4.442 6.386 4.442 11.646 8.997 14.276 13.552 11.646 13.552 6.386" transform="translate(-0.19998621,-0.20031567)" style="fill:#c3f1ff"/><polygon id="polygon76176" points="4.442 11.646 4.442 6.404 9.003 9.071 9.003 14.276" transform="translate(-0.19998621,-0.20031567)" style="fill:url(#ecd98112-5cbf-4c9b-800a-df61d86f7d77)"/><polygon id="polygon76178" points="13.558 11.646 13.558 6.404 8.997 9.071 8.997 14.276" transform="translate(-0.19998621,-0.20031567)" style="fill:#50e6ff"/><metadata id="metadata76180"/></svg>