<svg xmlns="http://www.w3.org/2000/svg" xmlns:svg="http://www.w3.org/2000/svg" id="afcc3783-7378-4497-bf15-72c20633bf21" width="18" height="13.075" version="1.1" viewBox="0 0 18 13.075"><defs id="defs3927"><linearGradient id="b82da118-993d-4c39-803c-c36675d35ebf" x1="8.99" x2="8.99" y1="16.61" y2="-1.27" gradientUnits="userSpaceOnUse"><stop id="stop3916" offset="0" stop-color="#0078d4"/><stop id="stop3918" offset=".16" stop-color="#1380da"/><stop id="stop3920" offset=".53" stop-color="#3c91e5"/><stop id="stop3922" offset=".82" stop-color="#559cec"/><stop id="stop3924" offset="1" stop-color="#5ea0ef"/></linearGradient></defs><title id="title3929">Icon-compute-30</title><path id="path3931" d="m 18,9.0012176 a 4.11,4.11 0 0 0 -3.51,-4 5.14,5.14 0 0 0 -5.25,-4.99999997 5.26,5.26 0 0 0 -5,3.46999997 4.87,4.87 0 0 0 -4.24,4.8 4.94,4.94 0 0 0 5.07,4.8000004 h 0.44 8.21 a 1.46,1.46 0 0 0 0.22,0 A 4.13,4.13 0 0 0 18,9.0012176 Z" style="fill:url(#b82da118-993d-4c39-803c-c36675d35ebf)"/><circle id="circle3933" cx="5.24" cy="8.101" r=".71" style="fill:#e3e3e3"/><path id="path3935" d="m 7.74,8.3712176 v -0.57 H 7.66 l -0.61,-0.2 -0.16,-0.39 0.31,-0.66 -0.4,-0.4 H 6.72 l -0.57,0.3 -0.39,-0.16 -0.25,-0.69 H 4.94 v 0.08 l -0.2,0.61 -0.42,0.16 -0.65,-0.31 -0.4,0.4 v 0.08 l 0.29,0.57 -0.16,0.39 -0.7,0.25 v 0.62 h 0.08 l 0.61,0.2 0.16,0.39 -0.31,0.66 0.4,0.4000004 h 0.08 l 0.57,-0.2900004 0.39,0.16 0.25,0.6900004 H 5.5 v -0.08 l 0.2,-0.6100004 0.39,-0.16 0.66,0.3100004 0.4,-0.4000004 v -0.08 l -0.29,-0.57 0.16,-0.39 z m -2.5,0.83 a 1.1,1.1 0 1 1 1.1,-1.1 1.09,1.09 0 0 1 -1.1,1.1 z" style="fill:#fff"/><circle id="circle3937" cx="10" cy="5.041" r=".84" style="fill:#e3e3e3"/><path id="path3939" d="m 13,5.3612176 v -0.68 h -0.09 l -0.74,-0.23 -0.17,-0.51 0.37,-0.8 -0.48,-0.48 H 11.8 l -0.69,0.35 -0.46,-0.19 -0.3,-0.83 H 9.64 v 0.1 l -0.24,0.73 -0.47,0.19 -0.78,-0.37 -0.48,0.48 0.05,0.09 0.28,0.74 -0.16,0.5 -0.84,0.27 v 0.73 h 0.1 l 0.73,0.24 0.17,0.45 -0.37,0.8 0.5,0.51 0.1,-0.05 0.68,-0.35 0.47,0.19 0.3,0.83 h 0.68 v -0.1 l 0.24,-0.73 0.47,-0.19 0.79,0.37 0.48,-0.48 -0.05,-0.09 -0.29,-0.72 0.19,-0.47 z m -3,1 a 1.32,1.32 0 1 1 1.32,-1.32 1.31,1.31 0 0 1 -1.32,1.32 z" style="fill:#fff"/><metadata id="metadata3941"/></svg>