<svg xmlns="http://www.w3.org/2000/svg" xmlns:svg="http://www.w3.org/2000/svg" xmlns:xlink="http://www.w3.org/1999/xlink" id="ea317b31-b31a-44fd-a7c4-260774575363" width="15.04" height="14.67" version="1.1" viewBox="0 0 15.04 14.67"><defs id="defs4934"><linearGradient id="a3aecb5c-11f5-4ece-99f7-9672f3236156" x1="15.35" x2="15.37" y1="13.41" y2="13.41" gradientUnits="userSpaceOnUse"><stop id="stop4896" offset="0" stop-color="#0078d4"/><stop id="stop4898" offset=".14" stop-color="#1782da"/><stop id="stop4900" offset=".37" stop-color="#368fe3"/><stop id="stop4902" offset=".59" stop-color="#4c98ea"/><stop id="stop4904" offset=".8" stop-color="#599eee"/><stop id="stop4906" offset=".99" stop-color="#5ea0ef"/></linearGradient><linearGradient id="b4dfb3ab-25fe-416c-a6fa-f33fcfbf22dc" x1="5.51" x2="12.94" y1="802.5" y2="810.58" gradientTransform="matrix(1,0,0,1.59,-3.8146973e-8,-1278.76)" gradientUnits="userSpaceOnUse"><stop id="stop4909" offset="0" stop-color="#0078d4"/><stop id="stop4911" offset=".02" stop-color="#0d7ed8"/><stop id="stop4913" offset=".08" stop-color="#2b8ae0"/><stop id="stop4915" offset=".15" stop-color="#4194e7"/><stop id="stop4917" offset=".22" stop-color="#519beb"/><stop id="stop4919" offset=".29" stop-color="#5b9fee"/><stop id="stop4921" offset=".4" stop-color="#5ea0ef"/><stop id="stop4923" offset=".55" stop-color="#5b9fee"/><stop id="stop4925" offset=".68" stop-color="#509aeb"/><stop id="stop4927" offset=".8" stop-color="#3f92e6"/><stop id="stop4929" offset=".91" stop-color="#2688df"/><stop id="stop4931" offset=".99" stop-color="#127fd9"/></linearGradient><linearGradient id="linearGradient4959" x1="15.35" x2="15.37" y1="13.41" y2="13.41" gradientUnits="userSpaceOnUse" xlink:href="#a3aecb5c-11f5-4ece-99f7-9672f3236156"/><linearGradient id="linearGradient4961" x1="15.35" x2="15.37" y1="13.41" y2="13.41" gradientUnits="userSpaceOnUse" xlink:href="#a3aecb5c-11f5-4ece-99f7-9672f3236156"/></defs><title id="title4936">Icon-compute-32</title><ellipse id="ellipse4938" cx="7.5" cy="9.91" rx="7.5" ry="3.08" style="fill:#76bc2d"/><ellipse id="ellipse4940" cx="7.69" cy="9.88" rx="2.49" ry=".68" style="fill:#5e9624"/><path id="path4942" d="M 13.89,11.49 Z" style="fill:url(#linearGradient4959)"/><ellipse id="ellipse4944" cx="7.5" cy="3.08" rx="7.5" ry="3.08" style="fill:url(#b4dfb3ab-25fe-416c-a6fa-f33fcfbf22dc)"/><ellipse id="ellipse4946" cx="7.69" cy="3.04" rx="2.49" ry=".68" style="fill:#005ba1"/><path id="path4948" d="m 7.54,12.93 c 4.15,0 7.5,-1.38 7.5,-3.0799998 v 0 1.8199998 0 c -0.14,1.65 -3.44,3 -7.5,3 -4.06,0 -7.50000004,-1.38 -7.50000004,-3.08 V 9.8500002 C -3.8146973e-8,11.55 3.36,12.93 7.54,12.93 Z" style="fill:#5e9624"/><path id="path4950" d="M 13.89,11.49 Z" style="fill:url(#linearGradient4961)"/><path id="path4952" d="m 7.54,6.0900002 c 4.15,0 7.5,-1.38 7.5,-3.08 v 0 1.82 0 c -0.14,1.65 -3.44,3 -7.5,3 -4.06,0 -7.50000004,-1.38 -7.50000004,-3.08 v -1.74 c -0.03999999814697,1.7 3.32000004,3.08 7.50000004,3.08 z" style="fill:#0078d4"/><metadata id="metadata4954"/></svg>