<svg xmlns="http://www.w3.org/2000/svg" xmlns:svg="http://www.w3.org/2000/svg" xmlns:xlink="http://www.w3.org/1999/xlink" id="ea317b31-b31a-44fd-a7c4-260774575363" width="15.04" height="14.67" version="1.1" viewBox="0 0 15.04 14.67"><defs id="defs5287"><linearGradient id="a3aecb5c-11f5-4ece-99f7-9672f3236156" x1="15.35" x2="15.37" y1="13.41" y2="13.41" gradientUnits="userSpaceOnUse"><stop id="stop5249" offset="0" stop-color="#0078d4"/><stop id="stop5251" offset=".14" stop-color="#1782da"/><stop id="stop5253" offset=".37" stop-color="#368fe3"/><stop id="stop5255" offset=".59" stop-color="#4c98ea"/><stop id="stop5257" offset=".8" stop-color="#599eee"/><stop id="stop5259" offset=".99" stop-color="#5ea0ef"/></linearGradient><linearGradient id="b4dfb3ab-25fe-416c-a6fa-f33fcfbf22dc" x1="5.51" x2="12.94" y1="802.5" y2="810.58" gradientTransform="matrix(1,0,0,1.59,-3.8146973e-8,-1278.76)" gradientUnits="userSpaceOnUse"><stop id="stop5262" offset="0" stop-color="#0078d4"/><stop id="stop5264" offset=".02" stop-color="#0d7ed8"/><stop id="stop5266" offset=".08" stop-color="#2b8ae0"/><stop id="stop5268" offset=".15" stop-color="#4194e7"/><stop id="stop5270" offset=".22" stop-color="#519beb"/><stop id="stop5272" offset=".29" stop-color="#5b9fee"/><stop id="stop5274" offset=".4" stop-color="#5ea0ef"/><stop id="stop5276" offset=".55" stop-color="#5b9fee"/><stop id="stop5278" offset=".68" stop-color="#509aeb"/><stop id="stop5280" offset=".8" stop-color="#3f92e6"/><stop id="stop5282" offset=".91" stop-color="#2688df"/><stop id="stop5284" offset=".99" stop-color="#127fd9"/></linearGradient><linearGradient id="linearGradient5312" x1="15.35" x2="15.37" y1="13.41" y2="13.41" gradientUnits="userSpaceOnUse" xlink:href="#a3aecb5c-11f5-4ece-99f7-9672f3236156"/><linearGradient id="linearGradient5314" x1="15.35" x2="15.37" y1="13.41" y2="13.41" gradientUnits="userSpaceOnUse" xlink:href="#a3aecb5c-11f5-4ece-99f7-9672f3236156"/></defs><title id="title5289">Icon-compute-32</title><ellipse id="ellipse5291" cx="7.5" cy="9.91" rx="7.5" ry="3.08" style="fill:#76bc2d"/><ellipse id="ellipse5293" cx="7.69" cy="9.88" rx="2.49" ry=".68" style="fill:#5e9624"/><path id="path5295" d="M 13.89,11.49 Z" style="fill:url(#linearGradient5312)"/><ellipse id="ellipse5297" cx="7.5" cy="3.08" rx="7.5" ry="3.08" style="fill:url(#b4dfb3ab-25fe-416c-a6fa-f33fcfbf22dc)"/><ellipse id="ellipse5299" cx="7.69" cy="3.04" rx="2.49" ry=".68" style="fill:#005ba1"/><path id="path5301" d="m 7.54,12.93 c 4.15,0 7.5,-1.38 7.5,-3.0799998 v 0 1.8199998 0 c -0.14,1.65 -3.44,3 -7.5,3 -4.06,0 -7.50000004,-1.38 -7.50000004,-3.08 V 9.8500002 C -3.8146973e-8,11.55 3.36,12.93 7.54,12.93 Z" style="fill:#5e9624"/><path id="path5303" d="M 13.89,11.49 Z" style="fill:url(#linearGradient5314)"/><path id="path5305" d="m 7.54,6.0900002 c 4.15,0 7.5,-1.38 7.5,-3.08 v 0 1.82 0 c -0.14,1.65 -3.44,3 -7.5,3 -4.06,0 -7.50000004,-1.38 -7.50000004,-3.08 v -1.74 c -0.03999999814697,1.7 3.32000004,3.08 7.50000004,3.08 z" style="fill:#0078d4"/><metadata id="metadata5307"/></svg>