<svg xmlns="http://www.w3.org/2000/svg" xmlns:svg="http://www.w3.org/2000/svg" xmlns:xlink="http://www.w3.org/1999/xlink" id="b5aac633-5e4e-4ba3-b79d-874030b01628" width="17.34" height="18.001" version="1.1" viewBox="0 0 17.34 18.001"><defs id="defs5647"><linearGradient id="f5aba28d-a61e-4c5e-a881-77250d6754cf" x1="14.18" x2="14.2" y1="12.41" y2="12.41" gradientUnits="userSpaceOnUse"><stop id="stop5627" offset="0" stop-color="#0078d4"/><stop id="stop5629" offset=".14" stop-color="#1782da"/><stop id="stop5631" offset=".37" stop-color="#368fe3"/><stop id="stop5633" offset=".59" stop-color="#4c98ea"/><stop id="stop5635" offset=".8" stop-color="#599eee"/><stop id="stop5637" offset=".99" stop-color="#5ea0ef"/></linearGradient><linearGradient id="bdc9aa5d-e4d2-4d75-91df-453ede2d7944" x1="9.01" x2="9.01" y1="11.69" y2="2.48" gradientUnits="userSpaceOnUse"><stop id="stop5640" offset="0" stop-color="#0078d4"/><stop id="stop5642" offset=".54" stop-color="#358ee3"/><stop id="stop5644" offset="1" stop-color="#5ea0ef"/></linearGradient><linearGradient id="linearGradient5680" x1="14.18" x2="14.2" y1="12.41" y2="12.41" gradientUnits="userSpaceOnUse" xlink:href="#f5aba28d-a61e-4c5e-a881-77250d6754cf"/><linearGradient id="linearGradient5682" x1="14.18" x2="14.2" y1="12.41" y2="12.41" gradientUnits="userSpaceOnUse" xlink:href="#f5aba28d-a61e-4c5e-a881-77250d6754cf"/></defs><title id="title5649">Icon-compute-26</title><ellipse id="ellipse5651" cx="8.72" cy="11.001" rx="6.07" ry="2.49" style="fill:#76bc2d"/><ellipse id="ellipse5653" cx="8.87" cy="10.981" rx="2.02" ry=".55" style="fill:#5e9624"/><path id="path5655" d="M 13.890092,12.281358 Z" style="fill:url(#linearGradient5680)"/><ellipse id="ellipse5657" cx="8.72" cy="5.471" rx="6.07" ry="2.49" style="fill:url(#bdc9aa5d-e4d2-4d75-91df-453ede2d7944)"/><ellipse id="ellipse5659" cx="8.87" cy="5.441" rx="2.02" ry=".55" style="fill:#005ba1"/><path id="path5661" d="M 3.6000923,0.0013576 H 0.60009232 a 0.58,0.58 0 0 0 -0.599999999163,0.59 v 3 a 0.29,0.29 0 0 0 0.289999999163,0.29 h 0.33 a 0.29,0.29 0 0 0 0.3,-0.29 v -2.71 H 3.6000923 a 0.29,0.29 0 0 0 0.3,-0.29 v -0.29 a 0.29,0.29 0 0 0 -0.3,-0.3 z" style="fill:#949494"/><path id="path5663" d="m 16.710092,0.0013576 h -3 a 0.3,0.3 0 0 0 -0.3,0.3 v 0.32 a 0.3,0.3 0 0 0 0.3,0.26 h 2.69 v 2.7 a 0.29,0.29 0 0 0 0.31,0.3 h 0.33 a 0.29,0.29 0 0 0 0.3,-0.29 v -3 0 a 0.59,0.59 0 0 0 -0.63,-0.59 z" style="fill:#949494"/><path id="path5665" d="M 3.6000923,17.091358 H 0.92009232 v -2.7 a 0.29,0.29 0 0 0 -0.3,-0.29 h -0.33 a 0.29,0.29 0 0 0 -0.289999999163,0.29 v 3 0 a 0.58,0.58 0 0 0 0.579999999163,0.59 H 3.5800923 a 0.29,0.29 0 0 0 0.3,-0.29 v -0.32 a 0.3,0.3 0 0 0 -0.28,-0.28 z" style="fill:#949494"/><path id="path5667" d="m 17.000092,14.101358 h -0.29 a 0.29,0.29 0 0 0 -0.29,0.29 v 2.7 h -2.71 a 0.31,0.31 0 0 0 -0.3,0.3 v 0.32 a 0.3,0.3 0 0 0 0.3,0.29 h 3 a 0.59,0.59 0 0 0 0.59,-0.59 v -3 a 0.29,0.29 0 0 0 -0.3,-0.31 z" style="fill:#949494"/><path id="path5669" d="m 8.7100923,13.441358 c 3.3499997,0 6.0699997,-1.11 6.0699997,-2.49 v 0 1.47 0 c -0.07,1.34 -2.78,2.46 -6.0699997,2.46 -3.29,0 -6.07,-1.12 -6.07,-2.49 v -1.44 c 0.01,1.38 2.73,2.49 6.07,2.49 z" style="fill:#5e9624"/><path id="path5671" d="M 13.890092,12.281358 Z" style="fill:url(#linearGradient5682)"/><path id="path5673" d="m 8.7100923,7.8813576 c 3.3499997,0 6.0699997,-1.12 6.0699997,-2.49 v 0 1.49 0 c -0.07,1.35 -2.78,2.42 -6.0699997,2.42 -3.29,0 -6.06,-1.12 -6.06,-2.5 v -1.38 c 0,1.37 2.72,2.46 6.06,2.46 z" style="fill:#0078d4"/><metadata id="metadata5675"/></svg>