<svg xmlns="http://www.w3.org/2000/svg" xmlns:svg="http://www.w3.org/2000/svg" id="a2c88306-fa03-4e5b-b192-401f0b77808b" width="17.882" height="15.953" version="1.1" viewBox="0 0 17.882 15.953"><defs id="defs6017"><linearGradient id="b403aca7-f387-4434-96b4-ae157edc835f" x1="-175.993" x2="-175.993" y1="-343.723" y2="-359.232" gradientTransform="matrix(1.156,0,0,1.029,212.573,370.548)" gradientUnits="userSpaceOnUse"><stop id="stop6006" offset="0" stop-color="#fea11b"/><stop id="stop6008" offset=".284" stop-color="#fea51a"/><stop id="stop6010" offset=".547" stop-color="#feb018"/><stop id="stop6012" offset=".8" stop-color="#ffc314"/><stop id="stop6014" offset="1" stop-color="#ffd70f"/></linearGradient></defs><title id="title6019">Icon-compute-29</title><g id="g6025" transform="translate(-0.0582445,-1.0238594)"><path id="path6021" d="M 2.37,7.475 H 3.2 A 0.267,0.267 0 0 1 3.467,7.742 V 13.89 A 0.533,0.533 0 0 1 2.934,14.423 H 2.1 V 7.741 A 0.267,0.267 0 0 1 2.367,7.474 Z" transform="rotate(134.919,2.7868622,10.947965)" style="fill:#50e6ff"/><path id="path6023" d="M 2.325,3.6 H 3.158 A 0.267,0.267 0 0 1 3.425,3.867 V 10.45 H 2.591 A 0.533,0.533 0 0 1 2.058,9.917 V 3.865 A 0.267,0.267 0 0 1 2.325,3.6 Z" transform="rotate(44.919,2.7416142,7.0226503)" style="fill:#1490df"/></g><g id="g6031" transform="translate(-0.0582445,-1.0238594)"><path id="path6027" d="m 14.53,7.475 h 0.833 a 0.533,0.533 0 0 1 0.533,0.533 v 6.148 a 0.267,0.267 0 0 1 -0.267,0.267 H 14.8 A 0.267,0.267 0 0 1 14.533,14.156 V 7.475 Z" transform="rotate(45.081,15.21299,10.947518)" style="fill:#50e6ff"/><path id="path6029" d="m 15.108,3.6 h 0.833 v 6.583 A 0.267,0.267 0 0 1 15.674,10.45 H 14.841 A 0.267,0.267 0 0 1 14.574,10.183 V 4.131 a 0.533,0.533 0 0 1 0.533,-0.533 z" transform="rotate(135.081,15.258421,7.0230251)" style="fill:#1490df"/></g><path id="path6033" d="m 8.4007555,8.8761406 h -3.589 a 0.193,0.193 0 0 1 -0.2,-0.181 0.166,0.166 0 0 1 0.018,-0.075 l 4.303,-8.51400003 a 0.206,0.206 0 0 1 0.186,-0.10600000328 h 4.2450005 a 0.193,0.193 0 0 1 0.2,0.18100000328 0.165,0.165 0 0 1 -0.035,0.1 L 8.4757555,6.9421406 h 4.9280005 a 0.193,0.193 0 0 1 0.2,0.181 0.176,0.176 0 0 1 -0.052,0.122 L 5.3627555,15.764141 c -0.077,0.046 -0.624,0.5 -0.356,-0.189 v 0 z" style="fill:url(#b403aca7-f387-4434-96b4-ae157edc835f)"/><metadata id="metadata6035"/></svg>