<svg xmlns="http://www.w3.org/2000/svg" xmlns:svg="http://www.w3.org/2000/svg" id="af6a2c42-bd48-4857-a479-aecf8b3de4f6" width="18.08" height="15.9" version="1.1" viewBox="0 0 18.08 15.9"><defs id="defs7900"><linearGradient id="b70c9cf1-bab8-47e0-bbdb-ce1cd664d268" x1="2.94" x2="8.67" y1="3.74" y2="3.74" gradientTransform="translate(0,1.22)" gradientUnits="userSpaceOnUse"><stop id="stop7865" offset="0" stop-color="#b77af4"/><stop id="stop7867" offset="1" stop-color="#773adc"/></linearGradient><linearGradient id="beb69953-bd96-4515-8843-ac12546af936" x1="9.13" x2="14.85" y1="3.79" y2="3.79" gradientTransform="translate(0,1.22)" gradientUnits="userSpaceOnUse"><stop id="stop7870" offset="0" stop-color="#b77af4"/><stop id="stop7872" offset="1" stop-color="#773adc"/></linearGradient><linearGradient id="a39c76e8-547e-4eb4-bc25-d81c0f8cda62" x1=".01" x2="5.73" y1="9.12" y2="9.12" gradientTransform="translate(0,1.22)" gradientUnits="userSpaceOnUse"><stop id="stop7875" offset="0" stop-color="#b77af4"/><stop id="stop7877" offset="1" stop-color="#773adc"/></linearGradient><linearGradient id="f0a2a491-17dc-4bb8-bbfc-ee58a5cf47da" x1="6.18" x2="11.9" y1="9.08" y2="9.08" gradientTransform="translate(0,1.22)" gradientUnits="userSpaceOnUse"><stop id="stop7880" offset="0" stop-color="#b77af4"/><stop id="stop7882" offset="1" stop-color="#773adc"/></linearGradient><linearGradient id="efc6a56d-8585-417d-931a-1dac2114ccd0" x1="12.35" x2="18.08" y1="9.13" y2="9.13" gradientTransform="translate(0,1.22)" gradientUnits="userSpaceOnUse"><stop id="stop7885" offset="0" stop-color="#b77af4"/><stop id="stop7887" offset="1" stop-color="#773adc"/></linearGradient><linearGradient id="e399aa93-341f-4df2-9c02-603b82b484c2" x1="2.87" x2="8.6" y1="14.56" y2="14.56" gradientTransform="translate(0,1.22)" gradientUnits="userSpaceOnUse"><stop id="stop7890" offset="0" stop-color="#b77af4"/><stop id="stop7892" offset="1" stop-color="#773adc"/></linearGradient><linearGradient id="a152bba0-ba2b-483a-b8c1-0ae7de355990" x1="9.05" x2="14.78" y1="14.6" y2="14.6" gradientTransform="translate(0,1.22)" gradientUnits="userSpaceOnUse"><stop id="stop7895" offset="0" stop-color="#b77af4"/><stop id="stop7897" offset="1" stop-color="#773adc"/></linearGradient></defs><title id="title7902">Icon-compute-23</title><polygon id="polygon7904" points="2.94 5.65 5.8 6.26 8.67 5.11 8.67 2.2 5.8 1.22 2.94 1.75" transform="translate(0,-1.22)" style="fill:url(#b70c9cf1-bab8-47e0-bbdb-ce1cd664d268)"/><path id="path7906" d="M 5.91,4.98 8.53,3.92 A 0.2,0.2 0 0 0 8.65,3.78 V 1.14 A 0.21,0.21 0 0 0 8.52,0.96 L 5.87,0.06 H 5.75 L 3.15,0.54 A 0.2,0.2 0 0 0 3,0.72 V 4.25 A 0.19,0.19 0 0 0 3.15,4.44 L 5.78,4.99 A 0.32,0.32 0 0 0 5.91,4.98 Z" style="fill:none"/><path id="path7908" d="m 2.94,0.53 v 3.9 l 2.89,0.61 v -5 z M 4.16,4.13 3.35,3.97 v -3 L 4.16,0.84 Z M 5.42,4.36 4.49,4.21 V 0.78 L 5.42,0.62 Z" style="fill:#341a6e"/><polygon id="polygon7910" points="9.13 5.7 11.99 6.31 14.85 5.15 14.85 2.25 11.99 1.27 9.13 1.8" transform="translate(0,-1.22)" style="fill:url(#beb69953-bd96-4515-8843-ac12546af936)"/><path id="path7912" d="m 9.13,0.58 v 3.9 L 12,5.09 v -5 z m 1.21,3.6 -0.81,-0.16 v -3 L 10.34,0.89 Z M 11.6,4.41 10.67,4.26 V 0.83 L 11.6,0.66 Z" style="fill:#341a6e"/><polygon id="polygon7914" points=".01 11.03 2.87 11.64 5.74 10.49 5.74 7.58 2.87 6.6 .01 7.13" transform="translate(0,-1.22)" style="fill:url(#a39c76e8-547e-4eb4-bc25-d81c0f8cda62)"/><path id="path7916" d="m 0,5.91 v 3.87 l 2.89,0.61 v -5 z M 1.21,9.52 0.4,9.35 v -3 L 1.21,6.21 Z M 2.48,9.78 1.55,9.63 V 6.16 L 2.48,6 Z" style="fill:#341a6e"/><polygon id="polygon7918" points="6.18 10.99 9.04 11.61 11.9 10.45 11.9 7.54 9.04 6.56 6.18 7.09" transform="translate(0,-1.22)" style="fill:url(#f0a2a491-17dc-4bb8-bbfc-ee58a5cf47da)"/><path id="path7920" d="m 6.18,5.87 v 3.91 l 2.88,0.61 v -5 z M 7.39,9.48 6.58,9.31 v -3 L 7.39,6.17 Z M 8.65,9.7 7.72,9.55 V 6.12 L 8.65,5.96 Z" style="fill:#341a6e"/><polygon id="polygon7922" points="12.35 11.04 15.21 11.65 18.08 10.5 18.08 7.59 15.21 6.61 12.35 7.14" transform="translate(0,-1.22)" style="fill:url(#efc6a56d-8585-417d-931a-1dac2114ccd0)"/><path id="path7924" d="m 12.35,5.92 v 3.86 l 2.89,0.61 v -5 z m 1.22,3.61 -0.81,-0.17 v -3 L 13.57,6.22 Z M 14.83,9.75 13.9,9.6 V 6.17 l 0.93,-0.16 z" style="fill:#341a6e"/><polygon id="polygon7926" points="2.87 16.46 5.73 17.08 8.6 15.92 8.6 13.02 5.73 12.04 2.87 12.56" transform="translate(0,-1.22)" style="fill:url(#e399aa93-341f-4df2-9c02-603b82b484c2)"/><path id="path7928" d="m 5.84,15.78 2.61,-1 A 0.18,0.18 0 0 0 8.57,14.6 V 12 A 0.2,0.2 0 0 0 8.44,11.78 L 5.8,10.88 a 0.17,0.17 0 0 0 -0.12,0 l -2.6,0.47 a 0.19,0.19 0 0 0 -0.16,0.19 v 3.54 a 0.19,0.19 0 0 0 0.15,0.19 l 2.63,0.51 a 0.23,0.23 0 0 0 0.14,0 z" style="fill:none"/><path id="path7930" d="m 2.87,11.34 v 3.9 l 2.89,0.62 v -5.08 z m 1.22,3.61 -0.81,-0.17 v -3 l 0.81,-0.14 z m 1.26,0.23 -0.93,-0.15 v -3.44 l 0.93,-0.16 z" style="fill:#341a6e"/><polygon id="polygon7932" points="9.05 16.51 11.91 17.12 14.78 15.97 14.78 13.06 11.91 12.08 9.05 12.61" transform="translate(0,-1.22)" style="fill:url(#a152bba0-ba2b-483a-b8c1-0ae7de355990)"/><path id="path7934" d="m 9.05,11.39 v 3.9 l 2.89,0.61 v -5 z M 10.27,15 9.46,14.83 v -3 l 0.81,-0.14 z m 1.26,0.22 -0.93,-0.15 v -3.43 l 0.93,-0.16 z" style="fill:#341a6e"/><metadata id="metadata7936"/></svg>