<svg xmlns="http://www.w3.org/2000/svg" xmlns:svg="http://www.w3.org/2000/svg" id="b189dd31-f678-493f-b388-049997db3b0e" width="18" height="16.63" version="1.1" viewBox="0 0 18 16.63"><defs id="defs8707"><linearGradient id="add877bb-eba5-4f6c-85e2-a20ca8b1f954" x1="8.83" x2="8.83" y1="12.87" y2=".87" gradientUnits="userSpaceOnUse"><stop id="stop8697" offset="0" stop-color="#0078d4"/><stop id="stop8699" offset=".82" stop-color="#5ea0ef"/></linearGradient><linearGradient id="abfd55c2-f4e9-4954-8f01-2256c47fcbfe" x1="8.83" x2="8.83" y1="17.5" y2="12.87" gradientUnits="userSpaceOnUse"><stop id="stop8702" offset="0" stop-color="#1490df"/><stop id="stop8704" offset=".98" stop-color="#1f56a3"/></linearGradient></defs><title id="title8709">Icon-compute-27</title><rect id="rect8711" width="18" height="12" x="0" y="0" rx=".6" style="fill:url(#add877bb-eba5-4f6c-85e2-a20ca8b1f954)"/><rect id="rect8713" width="16" height="10" x="1" y="1" rx=".33" style="fill:#fff"/><polygon id="polygon8715" points="8.83 10.37 8.83 6.87 11.83 5.12 11.83 8.61" transform="translate(0.17,-0.87)" style="fill:#0078d4"/><polygon id="polygon8717" points="5.83 5.12 8.83 3.37 11.83 5.12 8.83 6.88" transform="translate(0.17,-0.87)" style="fill:#83b9f9"/><polygon id="polygon8719" points="5.83 8.61 5.83 5.12 8.83 6.88 8.83 10.37" transform="translate(0.17,-0.87)" style="fill:#5ea0ef"/><polygon id="polygon8721" points="8.83 10.37 5.83 8.61 8.83 6.87" transform="translate(0.17,-0.87)" style="opacity:.2;fill:#83b9f9"/><polygon id="polygon8723" points="8.83 10.37 11.83 8.61 8.83 6.87" transform="translate(0.17,-0.87)" style="opacity:.2;fill:#5ea0ef"/><path id="path8725" d="M 12.61,15.63 C 10.83,15.35 10.76,14.07 10.76,12 H 7.23 c 0,2.07 -0.06,3.35 -1.84,3.63 a 1,1 0 0 0 -0.89,1 h 9 a 1,1 0 0 0 -0.89,-1 z" style="fill:url(#abfd55c2-f4e9-4954-8f01-2256c47fcbfe)"/><path id="path8727" d="M 5.27,1.7 H 2.79 a 0.59,0.59 0 0 0 -0.6,0.59 v 2.48 a 0.3,0.3 0 0 0 0.3,0.3 h 0.2 a 0.3,0.3 0 0 0 0.3,-0.3 V 2.48 h 2.28 a 0.3,0.3 0 0 0 0.3,-0.3 V 1.99 A 0.3,0.3 0 0 0 5.27,1.7 Z" style="fill:#5ea0ef"/><path id="path8729" d="M 5.27,9.5 H 2.98 V 7.22 A 0.3,0.3 0 0 0 2.68,6.92 H 2.49 a 0.3,0.3 0 0 0 -0.3,0.3 V 9.7 a 0.59,0.59 0 0 0 0.6,0.59 H 5.27 A 0.3,0.3 0 0 0 5.57,10 V 9.8 A 0.3,0.3 0 0 0 5.27,9.5 Z" style="fill:#5ea0ef"/><path id="path8731" d="m 15.17,1.72 h -2.44 a 0.29,0.29 0 0 0 -0.3,0.3 v 0.19 a 0.29,0.29 0 0 0 0.3,0.29 h 2.28 v 2.3 a 0.29,0.29 0 0 0 0.3,0.29 h 0.2 A 0.29,0.29 0 0 0 15.8,4.8 V 2.32 a 0.59,0.59 0 0 0 -0.63,-0.6 z" style="fill:#5ea0ef"/><path id="path8733" d="m 15.51,6.94 h -0.19 a 0.3,0.3 0 0 0 -0.3,0.3 v 2.28 h -2.29 a 0.29,0.29 0 0 0 -0.3,0.3 v 0.2 a 0.3,0.3 0 0 0 0.3,0.3 h 2.44 a 0.59,0.59 0 0 0 0.59,-0.6 V 7.24 a 0.3,0.3 0 0 0 -0.25,-0.3 z" style="fill:#5ea0ef"/><metadata id="metadata8735"/></svg>