<svg xmlns="http://www.w3.org/2000/svg" xmlns:svg="http://www.w3.org/2000/svg" id="e887b19d-8fdd-48fe-a67e-f86d20cca434" width="17.54" height="16.76" version="1.1" viewBox="0 0 17.54 16.76"><defs id="defs9043"><linearGradient id="a116d8d6-6f2d-4ed7-b0bf-e3b4f053bb39" x1="2525.57" x2="2525.544" y1="-412.026" y2="-402.136" gradientTransform="matrix(0.5,0.001,0.001,-0.5,-1257.171,-191.917)" gradientUnits="userSpaceOnUse"><stop id="stop9018" offset="0" stop-color="#ef7100"/><stop id="stop9020" offset="1" stop-color="#faa21d"/></linearGradient><linearGradient id="ba80b0e0-7012-4f27-b08f-9ea64784ace3" x1="12.79" x2="12.79" y1="17.38" y2="12.44" gradientUnits="userSpaceOnUse"><stop id="stop9023" offset="0" stop-color="#ef7100"/><stop id="stop9025" offset="1" stop-color="#faa21d"/></linearGradient><linearGradient id="a946587f-c511-47b7-914a-0a734f8d64d7" x1="15.3" x2="15.3" y1="9.98" y2="5.04" gradientUnits="userSpaceOnUse"><stop id="stop9028" offset="0" stop-color="#ef7100"/><stop id="stop9030" offset="1" stop-color="#faa21d"/></linearGradient><linearGradient id="f2de30ee-07c3-4e10-ac30-e581c2e8ce50" x1="2.7" x2="2.7" y1="9.98" y2="5.04" gradientUnits="userSpaceOnUse"><stop id="stop9033" offset="0" stop-color="#ef7100"/><stop id="stop9035" offset="1" stop-color="#faa21d"/></linearGradient><linearGradient id="fddbf243-2b2d-4e50-b263-924d85a1b87c" x1="9" x2="9" y1="5.56" y2=".62" gradientUnits="userSpaceOnUse"><stop id="stop9038" offset="0" stop-color="#ef7100"/><stop id="stop9040" offset="1" stop-color="#faa21d"/></linearGradient></defs><path id="path9045" d="m 15.77,6.5800001 -5.76,-4.11 v 0 l -1.24,-0.91 v 0 l -1.22,0.9 v 0 l -5.78,4.12 v 0 L 4.02,13.38 v 0 l 0.47,1.44 h 8.6 l 0.45,-1.44 v 0 l 2.23,-6.7499999 v 0 z M 5.53,13.38 l -2,-6.2199999 5.24,-3.78 5.28,3.79 -2,6.2199999 z" style="fill:#e27908"/><circle id="circle9047" cx="4.84" cy="14.29" r="2.47" style="fill:url(#a116d8d6-6f2d-4ed7-b0bf-e3b4f053bb39)"/><circle id="circle9049" cx="12.56" cy="14.29" r="2.47" style="fill:url(#ba80b0e0-7012-4f27-b08f-9ea64784ace3)"/><circle id="circle9051" cx="15.07" cy="6.89" r="2.47" style="fill:url(#a946587f-c511-47b7-914a-0a734f8d64d7)"/><circle id="circle9053" cx="2.47" cy="6.89" r="2.47" style="fill:url(#f2de30ee-07c3-4e10-ac30-e581c2e8ce50)"/><circle id="circle9055" cx="8.77" cy="2.47" r="2.47" style="fill:url(#fddbf243-2b2d-4e50-b263-924d85a1b87c)"/><metadata id="metadata9057"/></svg>