<svg xmlns="http://www.w3.org/2000/svg" xmlns:svg="http://www.w3.org/2000/svg" id="b477a1e6-3b3d-43e7-938b-88464f2dd176" width="16.87" height="16.87" version="1.1" viewBox="0 0 16.87 16.87"><defs id="defs9351"><linearGradient id="bc25fd79-1e91-4c2f-8691-1f9665f6d0dc" x1="9" x2="9" y1="17.44" y2="11.44" gradientTransform="translate(0.56,0.56)" gradientUnits="userSpaceOnUse"><stop id="stop9346" offset="0" stop-color="#0078d4"/><stop id="stop9348" offset=".82" stop-color="#5ea0ef"/></linearGradient></defs><title id="title9353">Icon-compute-39</title><g id="g9377" transform="translate(-0.56,-0.56)"><rect id="rect9355" width="9.97" height="12.48" x="5.62" y=".56" rx=".42" style="fill:#005ba1"/><rect id="rect9357" width="9.97" height="12.48" x="4.11" y="1.91" rx=".42" style="fill:#0078d4"/><rect id="rect9359" width="9.97" height="12.48" x="2.58" y="3.27" rx=".42" style="fill:#32bedd"/><g id="g9371"><polygon id="polygon9361" points="7.57 12.08 7.57 8.69 10.48 6.99 10.48 10.38" style="fill:#50e6ff"/><polygon id="polygon9363" points="4.66 6.99 7.57 5.29 10.48 6.99 7.57 8.7" style="fill:#c3f1ff"/><polygon id="polygon9365" points="4.66 10.38 4.66 6.99 7.57 8.7 7.57 12.08" style="fill:#9cebff"/><polygon id="polygon9367" points="7.57 12.08 4.66 10.38 7.57 8.69" style="fill:#c3f1ff"/><polygon id="polygon9369" points="7.57 12.08 10.48 10.38 7.57 8.69" style="fill:#9cebff"/></g><rect id="rect9373" width="16.87" height="5.99" x=".56" y="11.44" rx=".56" style="fill:url(#bc25fd79-1e91-4c2f-8691-1f9665f6d0dc)"/><rect id="rect9375" width="4.81" height=".87" x="6.6" y="12.92" rx=".43" style="fill:#f2f2f2"/></g><metadata id="metadata9379"/></svg>