<svg xmlns="http://www.w3.org/2000/svg" xmlns:svg="http://www.w3.org/2000/svg" id="fd454f1c-5506-44b8-874e-8814b8b2f70b" width="18" height="16.63" version="1.1" viewBox="0 0 18 16.63"><defs id="defs9590"><linearGradient id="f34d9569-2bd0-4002-8f16-3d01d8106cb5" x1="8.88" x2="8.88" y1="12.21" y2=".21" gradientUnits="userSpaceOnUse"><stop id="stop9580" offset="0" stop-color="#0078d4"/><stop id="stop9582" offset=".82" stop-color="#5ea0ef"/></linearGradient><linearGradient id="bdb45a0b-eb58-4970-a60a-fb2ce314f866" x1="8.88" x2="8.88" y1="16.84" y2="12.21" gradientUnits="userSpaceOnUse"><stop id="stop9585" offset=".15" stop-color="#ccc"/><stop id="stop9587" offset="1" stop-color="#707070"/></linearGradient></defs><title id="title9592">Icon-compute-21</title><rect id="rect9594" width="18" height="12" x="0" y="0" rx=".6" style="fill:url(#f34d9569-2bd0-4002-8f16-3d01d8106cb5)"/><polygon id="polygon9596" points="8.88 9.71 8.88 6.21 11.88 4.46 11.88 7.95" transform="translate(0.12,-0.20999999)" style="fill:#50e6ff"/><polygon id="polygon9598" points="5.88 4.46 8.88 2.71 11.88 4.46 8.88 6.22" transform="translate(0.12,-0.20999999)" style="fill:#c3f1ff"/><polygon id="polygon9600" points="5.88 7.95 5.88 4.46 8.88 6.22 8.88 9.71" transform="translate(0.12,-0.20999999)" style="fill:#9cebff"/><polygon id="polygon9602" points="8.88 9.71 5.88 7.95 8.88 6.21" transform="translate(0.12,-0.20999999)" style="fill:#c3f1ff"/><polygon id="polygon9604" points="8.88 9.71 11.88 7.95 8.88 6.21" transform="translate(0.12,-0.20999999)" style="fill:#9cebff"/><path id="path9606" d="M 12.61,15.63 C 10.83,15.35 10.76,14.07 10.76,12 H 7.23 c 0,2.07 -0.06,3.35 -1.84,3.63 a 1,1 0 0 0 -0.89,1 h 9 a 1,1 0 0 0 -0.89,-1 z" style="fill:url(#bdb45a0b-eb58-4970-a60a-fb2ce314f866)"/><metadata id="metadata9608"/></svg>