<svg xmlns="http://www.w3.org/2000/svg" xmlns:svg="http://www.w3.org/2000/svg" id="a2157f88-f641-4f7d-abc7-f40ccf5cf69a" width="17" height="17" version="1.1" viewBox="0 0 17 17"><defs id="defs10077"><linearGradient id="b816c8ea-05a2-41fb-ba99-96d84599c9f4" x1="12.74" x2="12.74" y1="15.28" y2="8.52" gradientUnits="userSpaceOnUse"><stop id="stop10067" offset="0" stop-color="#0078d4"/><stop id="stop10069" offset=".82" stop-color="#5ea0ef"/></linearGradient><linearGradient id="ab373d88-41af-4fc3-b172-d4489f9107a0" x1="12.74" x2="12.74" y1="17.89" y2="15.28" gradientUnits="userSpaceOnUse"><stop id="stop10072" offset=".15" stop-color="#ccc"/><stop id="stop10074" offset="1" stop-color="#707070"/></linearGradient></defs><title id="title10079">Icon-compute-34</title><rect id="rect10081" width="10.11" height="6.75" x="0" y="0" rx=".34" style="fill:#005ba1"/><polygon id="polygon10083" points="5.85 6.23 5.85 4.27 7.53 3.28 7.53 5.25" transform="translate(-0.79000002,-0.88999999)" style="fill:#50e6ff"/><polygon id="polygon10085" points="4.16 3.28 5.85 2.29 7.53 3.28 5.85 4.27" transform="translate(-0.79000002,-0.88999999)" style="fill:#c3f1ff"/><polygon id="polygon10087" points="4.16 5.25 4.16 3.28 5.85 4.27 5.85 6.23" transform="translate(-0.79000002,-0.88999999)" style="fill:#9cebff"/><rect id="rect10089" width="10.11" height="6.75" x="3.97" y="3.87" rx=".34" style="fill:#0078d4"/><polygon id="polygon10091" points="9.82 10.11 9.82 8.14 11.5 7.16 11.5 9.12" transform="translate(-0.79000002,-0.88999999)" style="fill:#50e6ff"/><polygon id="polygon10093" points="8.13 7.16 9.82 6.17 11.5 7.16 9.82 8.14" transform="translate(-0.79000002,-0.88999999)" style="fill:#c3f1ff"/><polygon id="polygon10095" points="8.13 9.12 8.13 7.16 9.82 8.14 9.82 10.11" transform="translate(-0.79000002,-0.88999999)" style="fill:#9cebff"/><rect id="rect10097" width="10.11" height="6.75" x="6.89" y="7.63" rx=".34" style="fill:url(#b816c8ea-05a2-41fb-ba99-96d84599c9f4)"/><polygon id="polygon10099" points="12.74 13.87 12.74 11.9 14.42 10.92 14.42 12.88" transform="translate(-0.79000002,-0.88999999)" style="fill:#50e6ff"/><polygon id="polygon10101" points="11.05 10.92 12.74 9.93 14.42 10.92 12.74 11.91" transform="translate(-0.79000002,-0.88999999)" style="fill:#c3f1ff"/><polygon id="polygon10103" points="11.05 12.88 11.05 10.92 12.74 11.91 12.74 13.87" transform="translate(-0.79000002,-0.88999999)" style="fill:#9cebff"/><polygon id="polygon10105" points="12.74 13.87 11.05 12.88 12.74 11.9" transform="translate(-0.79000002,-0.88999999)" style="fill:#c3f1ff"/><polygon id="polygon10107" points="12.74 13.87 14.42 12.88 12.74 11.9" transform="translate(-0.79000002,-0.88999999)" style="fill:#9cebff"/><path id="path10109" d="m 13.97,16.43 c -1,-0.16 -1,-0.88 -1,-2 h -2 c 0,1.16 0,1.88 -1,2 A 0.59,0.59 0 0 0 9.47,17 h 5 a 0.59,0.59 0 0 0 -0.5,-0.57 z" style="fill:url(#ab373d88-41af-4fc3-b172-d4489f9107a0)"/><metadata id="metadata10111"/></svg>