<svg xmlns="http://www.w3.org/2000/svg" xmlns:svg="http://www.w3.org/2000/svg" id="a6df9393-2bd7-4ac4-ba06-ab5f16ff5923" width="17" height="12.97" version="1.1" viewBox="0 0 17 12.97"><defs id="defs5188"><linearGradient id="fd591b35-0e01-4610-a025-8e017443b6ca" x1="3.96" x2="3.96" y1="2.52" y2="7.82" gradientUnits="userSpaceOnUse"><stop id="stop5173" offset="0" stop-color="#32d4f5"/><stop id="stop5175" offset="1" stop-color="#198ab3"/></linearGradient><linearGradient id="bded69e0-afb1-4c25-aa81-a799bd12553b" x1="14.04" x2="14.04" y1="5.58" y2="10.89" gradientUnits="userSpaceOnUse"><stop id="stop5178" offset="0" stop-color="#32d4f5"/><stop id="stop5180" offset="1" stop-color="#198ab3"/></linearGradient><linearGradient id="f25b6c72-365d-4ac2-a15c-1cace994f1e6" x1="5.29" x2="5.29" y1="10.18" y2="15.48" gradientUnits="userSpaceOnUse"><stop id="stop5183" offset="0" stop-color="#32d4f5"/><stop id="stop5185" offset="1" stop-color="#198ab3"/></linearGradient></defs><title id="title5190">Icon-analytics-148</title><rect id="rect5192" width="6.92" height="5.31" x="0" y="0" rx=".28" style="fill:url(#fd591b35-0e01-4610-a025-8e017443b6ca)"/><rect id="rect5194" width="6.92" height="5.31" x="10.08" y="3.06" rx=".28" style="fill:url(#bded69e0-afb1-4c25-aa81-a799bd12553b)"/><rect id="rect5196" width="6.92" height="5.31" x="1.32" y="7.66" rx=".42" style="fill:url(#f25b6c72-365d-4ac2-a15c-1cace994f1e6)"/><path id="path5198" d="M 12.65,6.4 12.88,5.76 4.32,2.61 4.09,3.24 Z M 13.18,6.31 12.86,5.71 4.79,9.96 5.1,10.56 Z M 4.5,10.85 5.17,10.73 3.81,3.02 3.14,3.14 Z" style="fill:#773adc"/><circle id="circle5200" cx="8.364" cy="12.077" r="1.08" transform="rotate(-32.41)" style="fill:#fff"/><circle id="circle5202" cx="1.503" cy="4.096" r="1.08" transform="rotate(-32.41)" style="fill:#fff"/><circle id="circle5204" cx="-1.478" cy="11.27" r="1.08" transform="rotate(-32.41)" style="fill:#fff"/><metadata id="metadata5206"/></svg>