<svg xmlns="http://www.w3.org/2000/svg" xmlns:svg="http://www.w3.org/2000/svg" id="e2354665-da3e-47da-bdbf-c0a061b5d0b5" width="16.964" height="17.508" data-name="Layer 1" version="1.1" viewBox="0 0 16.964 17.508"><defs id="defs56102"><linearGradient id="a2ce308d-2865-4d56-bfb4-da21e9e9e552" x1="8.992" x2="8.992" y1="16.975" y2=".242" gradientUnits="userSpaceOnUse"><stop id="stop56095" offset="0" stop-color="#b3b2b3"/><stop id="stop56097" offset=".31" stop-color="#9e9e9e"/><stop id="stop56099" offset=".54" stop-color="#949494"/></linearGradient></defs><g id="g56114" transform="translate(-0.50987234,-0.24214895)"><circle id="circle56104" cx="10.1" cy="8.05" r="1.43" style="fill:#fff"/><circle id="circle56106" cx="12.5" cy="12.31" r="1.12" style="fill:#fff"/><circle id="circle56108" cx="8.04" cy="11.54" r=".97" style="fill:#fff"/><circle id="circle56110" cx="7.35" cy="4.18" r="1.2" style="fill:#fff"/><circle id="circle56112" cx="4.13" cy="8.59" r=".97" style="fill:#fff"/></g><path id="path56116" d="m 12.250128,11.837851 -2.4200003,-4.23 -0.24,0.13 0.2,-0.14 -2.74,-3.9 -0.5,0.36 2.43,3.45 -5.38,0.45 0.05,0.62 5.33,-0.45 -1.77,2.94 0.53,0.32 1.82,-3.02 2.1600003,3.77 0.54,-0.3 z" style="fill:#989898"/><g id="g56128" transform="translate(-0.50987234,-0.24214895)"><circle id="circle56118" cx="10.09" cy="8.06" r="1.42" style="fill:#32bedd"/><circle id="circle56120" cx="7.35" cy="4.18" r="1.2" style="fill:#32bedd"/><circle id="circle56122" cx="4.13" cy="8.59" r=".97" style="fill:#32bedd"/><circle id="circle56124" cx="8.04" cy="11.54" r=".97" style="fill:#32bedd"/><circle id="circle56126" cx="12.5" cy="12.31" r="1.12" style="fill:#32bedd"/></g><circle id="circle56130" cx="14.54" cy="3.608" r="1.42" style="fill:#198ab3"/><circle id="circle56132" cx="2.66" cy="3.608" r="1.42" style="fill:#198ab3"/><circle id="circle56134" cx="8.5" cy="16.088" r="1.42" style="fill:#198ab3"/><path id="path56136" d="m 4.4301277,2.877851 a 6.881,6.881 0 0 1 8.2900003,0.12 1.918,1.918 0 0 1 1,-1.15 8.431,8.431 0 0 0 -10.4200003,-0.09 1.941,1.941 0 0 1 1.13,1.12 z m 11.6600003,1.88 a 1.91,1.91 0 0 1 -1.34,0.76 6.842,6.842 0 0 1 0.67,3 6.92,6.92 0 0 1 -5.22,6.7 1.871,1.871 0 0 1 0.24,0.91 1.765,1.765 0 0 1 -0.13,0.65 8.45,8.45 0 0 0 5.77,-12.02 z m -9.5000003,11.32 a 1.95,1.95 0 0 1 0.23,-0.9 6.909,6.909 0 0 1 -4.56,-9.69 2,2 0 0 1 -1,-0.53 1.676,1.676 0 0 1 -0.30000004,-0.4 8.47,8.47 0 0 0 5.74000004,12.2 1.926,1.926 0 0 1 -0.12,-0.68 z" style="fill:url(#a2ce308d-2865-4d56-bfb4-da21e9e9e552)"/><metadata id="metadata56138"/></svg>