<svg xmlns="http://www.w3.org/2000/svg" xmlns:svg="http://www.w3.org/2000/svg" id="e5cb9f87-7b25-4ce4-8df5-8cd66afecc6d" width="17" height="14.158" version="1.1" viewBox="0 0 17 14.158"><defs id="defs56998"><linearGradient id="bd9b1662-9bee-4ea8-9cee-787e4ccd4f18" x1="9" x2="9" y1=".81" y2="21.28" gradientTransform="translate(0.49999999,1.9199138)" gradientUnits="userSpaceOnUse"><stop id="stop56989" offset="0" stop-color="#ffd70f"/><stop id="stop56991" offset=".34" stop-color="#eeb309"/><stop id="stop56993" offset=".77" stop-color="#dc8c03"/><stop id="stop56995" offset="1" stop-color="#d57d01"/></linearGradient></defs><title id="title57000">Icon-web-45</title><g id="g57010" transform="translate(-0.49999999,-1.9199138)"><g id="g57008"><path id="path57002" d="m 17.5,2.5 v 10.83 a 0.58,0.58 0 0 1 -0.59,0.58 h -4.52 a 0.14,0.14 0 0 0 -0.14,0.14 V 15.8 A 0.28,0.28 0 0 1 11.8,16.02 L 9.08,13.94 H 8.99 1.09 A 0.58,0.58 0 0 1 0.5,13.36 V 2.5 A 0.58,0.58 0 0 1 1.09,1.92 H 16.91 A 0.58,0.58 0 0 1 17.5,2.5 Z" style="fill:url(#bd9b1662-9bee-4ea8-9cee-787e4ccd4f18)"/><path id="path57004" d="m 2.05,9 3,2.52 A 0.29,0.29 0 0 0 5.52,11.3 V 10.2 H 17.48 V 8.5 H 2.23 A 0.29,0.29 0 0 0 2.05,9 Z" style="fill:#ffe452"/><path id="path57006" d="M 16.24,6.46 13.13,3.94 a 0.29,0.29 0 0 0 -0.47,0.22 v 1.1 H 0.5 V 7 h 15.56 a 0.29,0.29 0 0 0 0.18,-0.54 z" style="fill:#fff"/></g></g><metadata id="metadata57012"/></svg>