<svg xmlns="http://www.w3.org/2000/svg" xmlns:svg="http://www.w3.org/2000/svg" id="f94984c6-afd2-49c1-8e91-2e2f964b8124" width="17.439" height="17.833" version="1.1" viewBox="0 0 17.439 17.833"><defs id="defs57196"><linearGradient id="a318d17a-947d-498f-80c1-0e0bae8f5723" x1="8.999" x2="8.999" y1="-3108.081" y2="-3125.919" gradientTransform="matrix(1,0,0,-1,0.28200002,-3107.917)" gradientUnits="userSpaceOnUse"><stop id="stop57187" offset="0" stop-color="#b3b2b3"/><stop id="stop57189" offset=".216" stop-color="#afaeaf"/><stop id="stop57191" offset=".44" stop-color="#a2a2a2"/><stop id="stop57193" offset=".577" stop-color="#979797"/></linearGradient></defs><g id="a96c4dc0-0b65-4066-a8fa-5efc74b0b38e" transform="translate(-0.28200002,-0.08303109)"><path id="path57198" d="m 0.407,6.621 a 8.914,8.914 0 0 1 17.183,0 h -1.7 a 7.293,7.293 0 0 0 -13.789,0 z m 15.451,4.863 a 7.295,7.295 0 0 1 -13.718,0 H 0.437 a 8.914,8.914 0 0 0 17.123,0 z" style="fill:url(#a318d17a-947d-498f-80c1-0e0bae8f5723)"/><path id="path57200" d="M 9.64,13.141 7.5,8.33 6.6,9.885 H 1.093 a 0.811,0.811 0 0 1 0,-1.622 h 4.573 l 2.025,-3.5 2.332,5.246 1.377,-1.763 5.51,0.012 a 0.811,0.811 0 0 1 0,1.622 v 0 L 12.194,9.869 Z" style="fill:#50e6ff"/></g><metadata id="metadata57203"/></svg>