<svg xmlns="http://www.w3.org/2000/svg" xmlns:svg="http://www.w3.org/2000/svg" id="acac5a34-a032-49f9-9397-37f4f1b4ae9a" width="16.994" height="16.994" version="1.1" viewBox="0 0 16.994 16.994"><defs id="defs63243"><linearGradient id="f6d5399b-a5cb-4c09-96cc-9e3bb1af2386" x1="9" x2="9" y1="19.25" y2="-.46" gradientTransform="rotate(45,0.00354733,-0.00354732)" gradientUnits="userSpaceOnUse"><stop id="stop63224" offset="0" stop-color="#5e9624"/><stop id="stop63226" offset=".55" stop-color="#6dad2a"/><stop id="stop63228" offset="1" stop-color="#76bc2d"/></linearGradient><linearGradient id="a43242a2-4d95-4f6d-8870-2702ceb6aebc" x1="7.54" x2="7.53" y1="6.44" y2="5.18" gradientUnits="userSpaceOnUse"><stop id="stop63231" offset="0" stop-color="#ccc"/><stop id="stop63233" offset=".12" stop-color="#d7d7d7"/><stop id="stop63235" offset=".42" stop-color="#ebebeb"/><stop id="stop63237" offset=".72" stop-color="#f8f8f8"/><stop id="stop63239" offset="1" stop-color="#fcfcfc"/></linearGradient><linearGradient id="eedce6dd-706a-43c4-ac66-66b73578221d" x1="19.283" x2="19.283" y1="15.183" y2="13.928" gradientUnits="userSpaceOnUse" href="#a43242a2-4d95-4f6d-8870-2702ceb6aebc"/></defs><rect id="rect63245" width="12.35" height="12.35" x="-6.175" y="5.842" rx=".57" transform="rotate(-45)" style="fill:url(#f6d5399b-a5cb-4c09-96cc-9e3bb1af2386)"/><g id="g63253" transform="translate(-0.49366538,-0.50281421)"><path id="path63247" d="m 10.89,10.51 h 2.84 a 0.11,0.11 0 0 0 0.1,-0.11 V 7.57 A 0.1,0.1 0 0 0 13.65,7.5 l -0.78,0.78 v 0.05 a 0.1,0.1 0 0 1 -0.14,0 L 9.26,4.91 a 0.1,0.1 0 0 0 -0.14,0 L 8.24,5.79 a 0.11,0.11 0 0 0 0,0.15 l 3.41,3.41 a 0.11,0.11 0 0 1 0,0.15 l -0.05,0.05 -0.78,0.78 a 0.11,0.11 0 0 0 0.07,0.18 z" style="fill:#fff"/><path id="path63249" d="M 6.92,10.51 H 4.08 A 0.11,0.11 0 0 1 4,10.4 V 7.57 A 0.1,0.1 0 0 1 4.17,7.5 l 0.79,0.78 v 0.05 a 0.1,0.1 0 0 0 0.14,0 L 8.55,4.91 a 0.1,0.1 0 0 1 0.14,0 l 0.88,0.88 a 0.11,0.11 0 0 1 0,0.15 L 6.16,9.35 a 0.11,0.11 0 0 0 0,0.15 v 0.05 l 0.78,0.78 a 0.11,0.11 0 0 1 -0.02,0.18 z" style="fill:#fff"/><path id="path63251" d="m 6.82,13.07 2,2 a 0.1,0.1 0 0 0 0.14,0 l 2,-2 A 0.1,0.1 0 0 0 10.89,12.9 H 9.72 A 0.11,0.11 0 0 1 9.62,12.8 V 8 A 0.1,0.1 0 0 0 9.52,7.89 H 8.28 A 0.11,0.11 0 0 0 8.17,8 v 4.8 a 0.1,0.1 0 0 1 -0.1,0.1 H 6.89 a 0.1,0.1 0 0 0 -0.07,0.17 z" style="fill:#fff"/></g><path id="ac0a9c0c-2e8c-4843-b02b-2fadf76b27d0" d="m 10.156335,7.2771858 a 2.71,2.71 0 0 1 -3.3200004,-4.28 v 0 a 2.71,2.71 0 0 1 3.2900004,4.3" style="fill:#0078d4"/><circle id="circle63256" cx="7.036" cy="5.047" r=".87" style="fill:url(#a43242a2-4d95-4f6d-8870-2702ceb6aebc)"/><g id="g63266" transform="translate(-0.49366538,-0.50281421)"><path id="path63258" d="M 6.67,7 6.86,7.3 7,7.5 A 5.94,5.94 0 0 1 7.34,6.4 0.85,0.85 0 0 1 6.89,6.17 6.71,6.71 0 0 0 6.67,7 Z" style="opacity:.55;fill:#f2f2f2"/><path id="path63260" d="M 7.24,4.73 A 4,4 0 0 1 7,3.8 2.48,2.48 0 0 0 6.66,4.26 3.51,3.51 0 0 0 6.86,5 1,1 0 0 1 7.24,4.73 Z" style="opacity:.55;fill:#f2f2f2"/><path id="path63262" d="M 8.17,6.14 A 0.87,0.87 0 0 1 7.69,6.4 4.62,4.62 0 0 0 8.15,6.81 4.14,4.14 0 0 0 8.8,7.2 V 7.13 A 0.53,0.53 0 0 1 9,6.73 3.6,3.6 0 0 1 8.17,6.14 Z" style="opacity:.55;fill:#f2f2f2"/><path id="path63264" d="M 10.79,7.2 A 4.14,4.14 0 0 1 9.92,7.1 v 0 a 0.55,0.55 0 0 1 -0.16,0.39 3.84,3.84 0 0 0 1.08,0.08 2.93,2.93 0 0 0 0.37,-0.42 z" style="opacity:.55;fill:#f2f2f2"/></g><circle id="circle63268" cx="8.866" cy="6.627" r=".56" style="fill:url(#eedce6dd-706a-43c4-ac66-66b73578221d)"/><circle id="circle63270" cx="10.146" cy="5.237" r=".6" style="fill:#f2f2f2"/><g id="g63276" transform="translate(-0.49366538,-0.50281421)"><path id="path63272" d="M 9.21,4.42 A 4.29,4.29 0 0 1 11.09,4 2.24,2.24 0 0 0 10.62,3.55 4.5,4.5 0 0 0 9.13,3.9 c -0.1,0 -0.19,0.11 -0.29,0.16 v 0 A 5.85,5.85 0 0 1 8.21,3.13 L 7.87,3.26 a 5.35,5.35 0 0 0 0.65,1 3.92,3.92 0 0 0 -0.67,0.55 0.87,0.87 0 0 1 0.43,0.35 3.29,3.29 0 0 1 0.61,-0.48 9.16,9.16 0 0 0 1.17,1 0.57,0.57 0 0 1 0.2,-0.32 8.44,8.44 0 0 1 -1.05,-0.94 z" style="opacity:.55;fill:#f2f2f2"/><path id="path63274" d="m 11.55,6.09 v 0 h -0.1 v 0 h -0.08 v 0 l -0.1,-0.06 a 0.61,0.61 0 0 1 -0.2,0.3 l 0.12,0.07 v 0 l 0.11,0.06 v 0 l 0.28,0.14 v 0 a 3.58,3.58 0 0 0 0.09,-0.35 z" style="opacity:.55;fill:#f2f2f2"/></g><circle id="circle63278" cx="7.036" cy="5.047" r=".87" style="fill:#f2f2f2"/><circle id="circle63280" cx="8.866" cy="6.627" r=".56" style="fill:#f2f2f2"/><metadata id="metadata63282"/></svg>