<svg xmlns="http://www.w3.org/2000/svg" xmlns:svg="http://www.w3.org/2000/svg" id="f8cc67b6-88d2-4d65-b9d4-0887e04d1f38" width="17" height="17" version="1.1" viewBox="0 0 17 17"><defs id="defs63630"><radialGradient id="b1cd44f2-d62b-4753-a859-aa68f089cdca" cx="46.42" cy="43.21" r="9" gradientTransform="matrix(0.94,0,0,0.94,-34.84,-31.81)" gradientUnits="userSpaceOnUse"><stop id="stop63607" offset=".18" stop-color="#5ea0ef"/><stop id="stop63609" offset=".56" stop-color="#5c9fee"/><stop id="stop63611" offset=".69" stop-color="#559ced"/><stop id="stop63613" offset=".78" stop-color="#4a97e9"/><stop id="stop63615" offset=".86" stop-color="#3990e4"/><stop id="stop63617" offset=".93" stop-color="#2387de"/><stop id="stop63619" offset=".99" stop-color="#087bd6"/><stop id="stop63621" offset="1" stop-color="#0078d4"/></radialGradient><clipPath id="f0c68de7-8aac-4038-bd4b-8e0fb8fab5fc"><path id="path63624" d="M 10.58,8.34 13,10.92 a 0.22,0.22 0 0 1 0,0.3 l -0.47,0.49 a 0.2,0.2 0 0 1 -0.3,0 v 0 L 9,8.34 A 0.22,0.22 0 0 1 9,8 l 3.15,-3.32 a 0.2,0.2 0 0 1 0.3,0 v 0 l 0.47,0.49 a 0.23,0.23 0 0 1 0,0.31 L 10.58,8 a 0.22,0.22 0 0 0 0,0.34 z" style="fill:none"/></clipPath><clipPath id="e1eb0374-eab6-40b9-91d8-e8a5f1c9b58a"><path id="path63627" d="m 7.11,9.91 -2.43,2.57 a 0.23,0.23 0 0 0 0,0.31 l 0.47,0.49 a 0.2,0.2 0 0 0 0.3,0 v 0 l 3.2,-3.37 a 0.22,0.22 0 0 0 0,-0.3 L 5.5,6.29 a 0.2,0.2 0 0 0 -0.3,0 v 0 L 4.73,6.78 a 0.22,0.22 0 0 0 0,0.3 l 2.38,2.53 a 0.2,0.2 0 0 1 0,0.3 z" style="fill:none"/></clipPath></defs><title id="title63632">Icon-networking-81</title><circle id="circle63634" cx="8.5" cy="8.5" r="8.5" style="fill:url(#b1cd44f2-d62b-4753-a859-aa68f089cdca)"/><circle id="circle63636" cx="8.5" cy="8.5" r="7.4" style="fill:#fff"/><g id="g63642" clip-path="url(#f0c68de7-8aac-4038-bd4b-8e0fb8fab5fc)" transform="translate(-0.5,-0.5)"><polygon id="polygon63638" points="12.39 11.87 8.89 8.19 12.34 4.56 13.11 5.36 10.43 8.19 13.16 11.07" style="fill:#5e9624"/><polygon id="polygon63640" points="9.67 8.99 12.39 11.87 13.16 11.07 10.43 8.19" style="fill:#86d633"/></g><g id="g63648" clip-path="url(#e1eb0374-eab6-40b9-91d8-e8a5f1c9b58a)" transform="translate(-0.5,-0.5)"><polygon id="polygon63644" points="5.3 13.44 8.8 9.76 5.35 6.13 4.58 6.93 7.26 9.76 4.54 12.64" style="fill:#5e9624"/><polygon id="polygon63646" points="8.02 10.56 5.3 13.44 4.54 12.64 7.26 9.76" style="fill:#86d633"/></g><metadata id="metadata63650"/></svg>