<svg xmlns="http://www.w3.org/2000/svg" xmlns:svg="http://www.w3.org/2000/svg" id="af463d32-ec10-44d9-a607-ebad6378a52b" width="18" height="15.222" version="1.1" viewBox="0 0 18 15.222"><defs id="defs64322"><linearGradient id="b012de7b-7a0e-4618-9fec-703622e3e8c3" x1="9" x2="9" y1="14.14" y2="1.38" gradientUnits="userSpaceOnUse"><stop id="stop64317" offset="0" stop-color="#0078d4"/><stop id="stop64319" offset=".82" stop-color="#5ea0ef"/></linearGradient></defs><title id="title64324">Icon-networking-84</title><path id="path64326" d="m 18,8.7623585 a 4.06,4.06 0 0 0 -3.51,-3.89 5.1,5.1 0 0 0 -5.25,-4.87000004 5.23,5.23 0 0 0 -5,3.41000004 4.82,4.82 0 0 0 -4.24,4.64 4.9,4.9 0 0 0 5.07,4.7099995 h 0.44 8.21 a 1.46,1.46 0 0 0 0.22,0 A 4.1,4.1 0 0 0 18,8.7623585 Z" style="fill:url(#b012de7b-7a0e-4618-9fec-703622e3e8c3)"/><path id="path64328" d="m 14.29,9.8123585 a 0.42,0.42 0 0 0 -0.42,-0.41 H 4.13 a 0.42,0.42 0 0 0 -0.42,0.41 v 4.9999995 a 0.42,0.42 0 0 0 0.42,0.41 h 9.74 a 0.42,0.42 0 0 0 0.42,-0.41 z" style="fill:#821010"/><rect id="rect64330" width="2.87" height="1.27" x="4.3" y="9.982" style="fill:#e62323"/><rect id="rect64332" width="2.87" height="1.27" x="7.6" y="9.982" style="fill:#ff7381"/><rect id="rect64334" width="2.87" height="1.27" x="10.9" y="9.982" style="fill:#e62323"/><rect id="rect64336" width="1.19" height="1.27" x="4.3" y="11.682" style="fill:#e62323"/><rect id="rect64338" width="1.19" height="1.27" x="12.58" y="11.682" style="fill:#ff7381"/><rect id="rect64340" width="2.87" height="1.27" x="5.92" y="11.682" style="fill:#ff7381"/><rect id="rect64342" width="2.87" height="1.27" x="9.23" y="11.682" style="fill:#e62323"/><rect id="rect64344" width="2.87" height="1.27" x="4.3" y="13.382" style="fill:#e62323"/><rect id="rect64346" width="2.87" height="1.27" x="7.6" y="13.382" style="fill:#ff7381"/><rect id="rect64348" width="2.87" height="1.27" x="10.9" y="13.382" style="fill:#e62323"/><metadata id="metadata64350"/></svg>