<svg xmlns="http://www.w3.org/2000/svg" xmlns:svg="http://www.w3.org/2000/svg" id="b9c24df5-e0dd-4838-a385-7c11c2d34304" width="18" height="15.862" version="1.1" viewBox="0 0 18 15.862"><defs id="defs64525"><linearGradient id="aa2ee697-e8d1-4da1-a8c5-64c8ebbb74cf" x1="9" x2="9" y1="13.83" y2="1.07" gradientUnits="userSpaceOnUse"><stop id="stop64520" offset="0" stop-color="#0078d4"/><stop id="stop64522" offset=".82" stop-color="#5ea0ef"/></linearGradient></defs><title id="title64527">Icon-networking-73</title><path id="path64529" d="m 18,8.7622883 a 4,4 0 0 0 -3.51,-3.83 5.1,5.1 0 0 0 -5.25,-4.93000003 5.23,5.23 0 0 0 -5,3.41000003 4.83,4.83 0 0 0 -4.24,4.64 4.9,4.9 0 0 0 5.07,4.7099997 h 0.44 8.21 a 0.78,0.78 0 0 0 0.22,0 A 4.09,4.09 0 0 0 18,8.7622883 Z" style="fill:url(#aa2ee697-e8d1-4da1-a8c5-64c8ebbb74cf)"/><path id="f0276135-0079-4897-a518-21eb63472c16" d="m 6.63,5.7522883 h 5.06 V 12.752288 H 6.63 Z" style="fill:#f2f2f2"/><path id="e528878d-2ed7-4392-94e6-99c6fc971bcb" d="m 12.61,5.3022883 -3.49,-2 a 0.25,0.25 0 0 0 -0.31,0.15 c 0,0 0,0.06 0,0.08 V 15.612288 a 0.25,0.25 0 0 0 0.24,0.25 h 0.08 l 3.49,-2.06 a 0.25,0.25 0 0 0 0.17,-0.23 V 5.5722883 a 0.26,0.26 0 0 0 -0.18,-0.27 z" style="fill:#50e6ff"/><metadata id="metadata64533"/></svg>