<svg xmlns="http://www.w3.org/2000/svg" xmlns:svg="http://www.w3.org/2000/svg" id="svg64788" width="17" height="13.222" version="1.1" viewBox="0 0 17 13.222"><defs id="defs64753"><linearGradient id="f739297d-1dff-4878-8e69-be6860163e71" x1="12.726" x2="12.726" y1="2199.244" y2="2193.605" gradientTransform="translate(0.5,-2181.253)" gradientUnits="userSpaceOnUse"><stop id="stop64744" offset="0" stop-color="#32bedd"/><stop id="stop64746" offset=".18" stop-color="#32caea"/><stop id="stop64748" offset=".41" stop-color="#32d2f2"/><stop id="stop64750" offset=".78" stop-color="#32d4f5"/></linearGradient></defs><g id="aaa7102a-579e-4074-9dfb-2c1893535ac2" transform="translate(-0.5,-2.389)"><g id="g64783"><path id="path64755" d="m 0.5,4.429 h 9.548 V 9.756 A 0.321,0.321 0 0 1 9.727,10.077 H 0.821 A 0.321,0.321 0 0 1 0.5,9.756 v 0 z" style="fill:#83b9f9"/><path id="path64757" d="m 0.821,2.389 h 8.906 a 0.321,0.321 0 0 1 0.321,0.321 v 0 1.719 H 0.5 V 2.71 A 0.321,0.321 0 0 1 0.821,2.389 Z" style="fill:#1f56a3"/><rect id="rect64759" width="6.979" height=".822" x="1.784" y="3.003" rx=".161" style="fill:#f2f2f2"/><path id="path64761" d="m 4.221,7.187 h 9.558 v 5.326 a 0.321,0.321 0 0 1 -0.321,0.321 H 4.542 A 0.321,0.321 0 0 1 4.221,12.513 v 0 z" style="fill:#83b9f9"/><path id="path64763" d="m 4.542,5.156 h 8.906 a 0.321,0.321 0 0 1 0.321,0.321 v 0 1.71 H 4.231 V 5.477 A 0.321,0.321 0 0 1 4.542,5.156 Z" style="fill:#1f56a3"/><rect id="rect64765" width="6.979" height=".822" x="5.506" y="5.77" rx=".161" style="fill:#f2f2f2"/><g id="g64781"><path id="path64767" d="M 7.952,9.963 H 17.5 v 5.327 a 0.321,0.321 0 0 1 -0.321,0.321 H 8.273 A 0.321,0.321 0 0 1 7.952,15.29 v 0 z" style="fill:url(#f739297d-1dff-4878-8e69-be6860163e71)"/><path id="path64769" d="m 8.273,7.923 h 8.906 A 0.321,0.321 0 0 1 17.5,8.244 V 9.963 H 7.952 V 8.244 A 0.321,0.321 0 0 1 8.273,7.923 Z" style="fill:#0078d4"/><g id="g64777"><circle id="circle64771" cx="14.874" cy="12.438" r=".774" style="fill:#0078d4"/><circle id="circle64773" cx="12.759" cy="12.438" r=".774" style="fill:#0078d4"/><circle id="circle64775" cx="10.577" cy="12.438" r=".774" style="fill:#0078d4"/></g><rect id="rect64779" width="6.979" height=".822" x="9.236" y="8.537" rx=".161" style="fill:#f2f2f2"/></g></g></g><metadata id="metadata64786"/></svg>