<svg xmlns="http://www.w3.org/2000/svg" xmlns:svg="http://www.w3.org/2000/svg" id="e1e71e29-065a-46f7-ad4b-52af36a0bfcb" width="18.003" height="18.003" version="1.1" viewBox="0 0 18.003 18.003"><defs id="defs65009"><linearGradient id="ef84663a-a7b6-46a7-a275-1e419f5eae62" x1="9" x2="9" y1="19.85" y2="-1.02" gradientUnits="userSpaceOnUse"><stop id="stop65002" offset="0" stop-color="#5e9624"/><stop id="stop65004" offset=".02" stop-color="#5f9724"/><stop id="stop65006" offset="1" stop-color="#76bc2d"/></linearGradient></defs><title id="title65011">Icon-networking-62</title><path id="path65013" d="M 0.18155048,8.5715505 8.5715505,0.18155048 a 0.6,0.6 0 0 1 0.86,0 L 17.82155,8.5715505 a 0.6,0.6 0 0 1 0,0.86 L 9.4215505,17.83155 a 0.6,0.6 0 0 1 -0.84,0 L 0.18155048,9.4315505 a 0.6,0.6 0 0 1 0,-0.86 z" style="fill:url(#ef84663a-a7b6-46a7-a275-1e419f5eae62)"/><path id="path65015" d="m 11.20155,4.0015505 -2.1199995,-2.11 a 0.12,0.12 0 0 0 -0.16,0 l -2.12,2.11 a 0.1,0.1 0 0 0 0.08,0.18 h 1.24 a 0.11,0.11 0 0 1 0.11,0.11 v 2 a 0.11,0.11 0 0 0 0.11,0.11 h 1.32 a 0.11,0.11 0 0 0 0.11,-0.11 v -2 a 0.11,0.11 0 0 1 0.11,-0.11 H 11.12155 a 0.1,0.1 0 0 0 0.08,-0.18 z" style="fill:#b4ec36"/><path id="path65017" d="m 4.0015505,6.6115505 -2.1,2.13 a 0.11,0.11 0 0 0 0,0.15 l 2.1,2.1099995 a 0.11,0.11 0 0 0 0.19,-0.08 V 9.6915505 a 0.11,0.11 0 0 1 0.11,-0.11 h 2 a 0.1,0.1 0 0 0 0.1,-0.11 v -1.32 a 0.1,0.1 0 0 0 -0.07,-0.15 h -2 a 0.1,0.1 0 0 1 -0.11,-0.1 v -1.21 a 0.117047,0.117047 0 0 0 -0.22,-0.08 z" style="fill:#b4ec36"/><path id="path65019" d="m 14.08155,11.00155 2.13,-2.1199995 a 0.11,0.11 0 0 0 0,-0.15 l -2.13,-2.12 a 0.11,0.11 0 0 0 -0.18,0.08 v 1.25 a 0.1,0.1 0 0 1 -0.11,0.1 h -2 a 0.1,0.1 0 0 0 -0.1,0.11 v 1.32 a 0.1,0.1 0 0 0 0.1,0.11 h 2 a 0.11,0.11 0 0 1 0.11,0.11 V 10.93155 a 0.11,0.11 0 0 0 0.18,0.07 z" style="fill:#b4ec36"/><path id="path65021" d="M 11.79155,9.0015505 A 2.79,2.79 0 1 0 8.2515505,11.67155 v 0.95 a 1.71,1.71 0 1 0 1.57,0 v -1 A 2.77,2.77 0 0 0 11.79155,9.0015505 Z" style="fill:#fff"/><circle id="e99c3387-15c3-4f28-bd4b-cb209b430e06" cx="9.012" cy="8.992" r="1.62" style="fill:#5ea0ef"/><metadata id="metadata65024"/></svg>