<svg xmlns="http://www.w3.org/2000/svg" xmlns:svg="http://www.w3.org/2000/svg" id="b8a38613-92d9-40bd-9920-20dea78733ab" width="17.745" height="17.745" version="1.1" viewBox="0 0 17.745 17.745"><defs id="defs65218"><linearGradient id="bb278f11-acc5-4f81-a956-3c7e2103f9e0" x1="9" x2="9" y1="18.17" y2="1.506" gradientTransform="rotate(45,8.7827707,9.089194)" gradientUnits="userSpaceOnUse"><stop id="stop65211" offset="0" stop-color="#238ab0"/><stop id="stop65213" offset=".109" stop-color="#2da4c8"/><stop id="stop65215" offset=".775" stop-color="#3ed3f2"/></linearGradient></defs><g id="g65236" transform="translate(-0.12674981,-0.12753514)"><rect id="rect65220" width="12.893" height="12.893" x="2.553" y="2.553" rx=".591" transform="rotate(-45,8.999961,9.0000941)" style="fill:url(#bb278f11-acc5-4f81-a956-3c7e2103f9e0)"/><polygon id="polygon65222" points="13.734 8.33 10.877 8.33 10.877 9.85 12.158 9.85 8.94 13.069 5.721 9.85 7.023 9.85 7.023 8.33 3.885 8.33 3.885 9.85 4.004 9.85 3.788 10.067 8.286 14.565 8.94 13.912 9.593 14.565 14.092 10.067 13.734 9.709" style="fill:#9cebff"/><g id="g65228"><ellipse id="e7444779-97d4-41c0-b615-8f20dff7b430" cx="3.977" cy="9.09" rx="1.577" ry="1.585" transform="rotate(-45.121,3.9765883,9.0907054)" style="fill:#fff"/><ellipse id="f49a3027-2a70-4956-8377-b9fde0692268" cx="3.977" cy="9.09" rx=".896" ry=".905" transform="rotate(-45.061,3.9763194,9.0902711)" style="fill:#86d633"/><ellipse id="a1afee39-6bd9-4799-a876-a587d30d68e2" cx="14.014" cy="9.09" rx="1.577" ry="1.585" transform="rotate(-45.121,14.014661,9.090831)" style="fill:#fff"/><ellipse id="e3be4992-7cb5-4729-a727-b6df3846a260" cx="14.014" cy="9.09" rx=".896" ry=".905" transform="rotate(-45.061,14.015122,9.0900713)" style="fill:#86d633"/></g><g id="g65234"><path id="path65230" d="m 11.04,4.806 -2,-2 a 0.15,0.15 0 0 0 -0.213,0 l -2,2 A 0.15,0.15 0 0 0 6.933,5.063 H 8.068 A 0.107,0.107 0 0 1 8.175,5.17 V 15.433 H 9.7 V 5.17 A 0.107,0.107 0 0 1 9.8,5.063 h 1.131 A 0.15,0.15 0 0 0 11.04,4.806 Z" style="fill:#fff"/><ellipse id="b39a4da1-83b2-4022-9206-dc01785cf428" cx="8.935" cy="14.139" rx="1.577" ry="1.585" transform="rotate(-45.121,8.9356423,14.138538)" style="fill:#fff"/><ellipse id="fc8023b8-202d-4292-8ba0-f1db060a36ef" cx="8.935" cy="14.139" rx=".896" ry=".905" transform="rotate(-45.061,8.9358405,14.138373)" style="fill:#86d633"/></g></g><metadata id="metadata65238"/></svg>