<svg xmlns="http://www.w3.org/2000/svg" xmlns:svg="http://www.w3.org/2000/svg" id="aca4def4-7046-48a7-83fb-780b9f6d65ac" width="16.92" height="16.99" version="1.1" viewBox="0 0 16.92 16.99"><defs id="defs66103"><radialGradient id="ec945175-c80b-46fd-89db-7eac10420933" cx="6.61" cy="45.13" r="6.4" gradientTransform="matrix(0.94,0,0,0.94,5.04,-35.89)" gradientUnits="userSpaceOnUse"><stop id="stop66088" offset="0" stop-color="#5ea0ef"/><stop id="stop66090" offset=".28" stop-color="#5b9fee"/><stop id="stop66092" offset=".47" stop-color="#529bec"/><stop id="stop66094" offset=".64" stop-color="#4394e7"/><stop id="stop66096" offset=".79" stop-color="#2d8be1"/><stop id="stop66098" offset=".93" stop-color="#117fd9"/><stop id="stop66100" offset="1" stop-color="#0078d4"/></radialGradient></defs><title id="title66105">Icon-networking-66</title><rect id="rect66107" width="5.89" height="1.34" x="-11.712" y="11.344" rx=".63" transform="rotate(-45)" style="fill:#198ab3"/><path id="path66109" d="m 16.501423,3.8428049 a 6.44,6.44 0 0 0 -0.75,-1.35 6.24,6.24 0 0 0 -8.7399998,-1.24 l -0.06,0.05 a 6.18,6.18 0 0 0 -2.21,3.33 c 0,0.22 -0.1,0.44 -0.13,0.66 a 6.25,6.25 0 0 0 1.89,5.4600001 v 0 a 2.09,2.09 0 0 0 0.22,0.2 v 0 l 0.22,0.18 v 0 a 5.76,5.76 0 0 0 0.94,0.6 l 0.1,0.06 0.17,0.07 0.14,0.07 0.15,0.06 0.16,0.06 0.14,0.05 0.2,0.06 h 0.11 l 0.29,0.08 v 0 l 0.32,0.07 h 0.08 a 1.9,1.9 0 0 0 0.25,0 h 0.1 1.07 0.23 v 0 h 0.12 a 5.1,5.1 0 0 0 0.76,-0.15 v 0 a 6.2,6.2 0 0 0 2.21,-1.1 6.36,6.36 0 0 0 1.13,-1.1300001 6.28,6.28 0 0 0 0.89,-6.09 z m -1.45,-0.93 h -1.22 a 5.92,5.92 0 0 0 -0.88,-1.66 5.34,5.34 0 0 1 2.13,1.66 z m -3.91,-2.00000003 a 3.27,3.27 0 0 1 1.8,2.00000003 h -1.8 z m 0,2.84000003 h 2.07 a 9.23,9.23 0 0 1 0.33,2.11 h -2.4 z m 0,2.91 h 2.4 a 9.23,9.23 0 0 1 -0.33,2.12 h -2.04 v -2.16 z m -3.1199998,-1.43 a 8.73,8.73 0 0 1 0.28,-1.52 h 2.0699998 v 2.11 H 7.9814232 c 0.01,-0.2 0.02,-0.4 0.04,-0.59 z M 10.371423,0.87280487 V 2.8728049 H 8.5814232 A 3.23,3.23 0 0 1 10.371423,0.87280487 Z M 7.4414232,1.9328049 v 0 a 5.83,5.83 0 0 1 1.1,-0.64 6.12,6.12 0 0 0 -0.88,1.67 h -1.16 a 5.68,5.68 0 0 1 0.94,-1.03 z m -1.49,1.78 h 1.55 a 9.11,9.11 0 0 0 -0.24,1.34 c 0,0.25 -0.05,0.51 -0.05,0.77 h -1.86 a 6.46,6.46 0 0 1 0.15,-0.75 6,6 0 0 1 0.45,-1.36 z m -0.6,2.91 h 1.83 a 9.35,9.35 0 0 0 0.32,2.12 h -1.55 a 5.36,5.36 0 0 1 -0.6,-2.12 z m 1.15,2.94 v 0 h 1.21 a 5.92,5.92 0 0 0 0.88,1.6600001 5.31,5.31 0 0 1 -2.09,-1.6600001 z M 10.391423,11.562805 A 3.23,3.23 0 0 1 8.6014232,9.5628049 h 1.7899998 z m 0,-2.8400001 H 8.3014232 a 9.24,9.24 0 0 1 -0.32,-2.12 h 2.3899998 v 2.14 z m 1.53,2.4200001 a 2,2 0 0 1 -0.73,0.42 V 9.5628049 h 1.8 a 4.44,4.44 0 0 1 -1.09,1.6000001 z m 2.18,-0.65 v 0 a 5.19,5.19 0 0 1 -1.15,0.68 5.92,5.92 0 0 0 0.88,-1.6600001 h 1.25 a 5.35,5.35 0 0 1 -0.98,0.9800001 z m 1.48,-1.7800001 h -1.5 a 10.64,10.64 0 0 0 0.29,-2.12 h 1.81 a 5.27,5.27 0 0 1 -0.6,2.15 z m -1.21,-2.89 a 10.64,10.64 0 0 0 -0.29,-2.11 h 1.51 a 5.54,5.54 0 0 1 0.6,2.11 z" style="fill:url(#ec945175-c80b-46fd-89db-7eac10420933)"/><circle id="circle66111" cx="5.861" cy="10.433" r="4.04" style="fill:#50e6ff"/><circle id="circle66113" cx="5.851" cy="10.363" r="3.17" style="fill:#fff"/><path id="path66115" d="m 4.2214232,10.432805 0.8,1.86 0.81,-2.3900001 0.67,1.3600001 0.83,-1.4000001 h 1.29 a 3.57,3.57 0 0 0 -0.12,-0.47 h -1.39 l -0.54,0.9100001 -0.83,-1.5800001 -0.77,2.2700001 -0.7,-1.6100001 -0.86,1.5700001 h -0.46 a 2.57,2.57 0 0 0 0.15,0.47 h 0.58 z" style="fill:#76bc2d"/><metadata id="metadata66117"/></svg>