<svg xmlns="http://www.w3.org/2000/svg" xmlns:svg="http://www.w3.org/2000/svg" id="e0050721-e8d8-4c79-ae50-d8fc2871d932" width="17" height="15" version="1.1" viewBox="0 0 17 15"><defs id="defs65512"><linearGradient id="fcad3287-b71c-44fa-971a-6a18bcf384a0" x1="9.01" x2="9.01" y1="16.5" y2="1.5" gradientUnits="userSpaceOnUse"><stop id="stop65503" offset="0" stop-color="#5e9641"/><stop id="stop65505" offset=".34" stop-color="#6baa42"/><stop id="stop65507" offset=".67" stop-color="#73b743"/><stop id="stop65509" offset="1" stop-color="#76bb43"/></linearGradient></defs><title id="title65514">Icon-networking-80</title><path id="path65516" d="m 15.39,1.41 h 1.27 A 0.34,0.34 0 0 1 17,1.75 v 3.5 a 0.34,0.34 0 0 1 -0.34,0.34 h -1.27 z" style="fill:#ffca00"/><path id="path65518" d="m 15.39,7.5 h 1.27 A 0.34,0.34 0 0 1 17,7.84 v 5.86 a 0.34,0.34 0 0 1 -0.34,0.34 h -1.27 z" style="fill:#ffca00"/><rect id="rect65520" width="13.76" height="15" x="1.63" y="0" rx=".69" style="fill:url(#fcad3287-b71c-44fa-971a-6a18bcf384a0)"/><path id="path65522" d="M 5.4,11.4 H 4.69 A 0.2,0.2 0 0 1 4.5,11.19 V 2.84 A 0.19,0.19 0 0 1 4.69,2.64 H 6.62 A 0.19,0.19 0 0 1 6.81,2.84 0.2,0.2 0 0 1 6.62,3.05 H 4.88 v 7.93 H 5.4 A 0.2,0.2 0 0 1 5.59,11.19 0.21,0.21 0 0 1 5.4,11.4 Z" style="fill:#b4ec36"/><path id="path65524" d="M 5.5,12.42 H 3.9 A 0.2,0.2 0 0 1 3.71,12.21 L 3.58,1.88 A 0.2,0.2 0 0 1 3.64,1.73 0.16,0.16 0 0 1 3.77,1.67 H 6.62 V 2.08 H 3.97 L 4.09,12 H 5.5 Z" style="fill:#b4ec36"/><path id="path65526" d="M 11.5,11.5 H 9.91 A 0.19,0.19 0 0 1 9.77,11.43 0.18,0.18 0 0 1 9.71,11.29 V 6.4 A 0.19,0.19 0 0 1 9.9,6.2 h 0.91 V 3.95 h 0.38 V 6.39 A 0.2,0.2 0 0 1 11.01,6.6 H 10.1 v 4.42 h 1.4 z" style="fill:#b4ec36"/><rect id="rect65528" width="6.14" height="3.11" x="6.57" y=".79" rx=".26" style="fill:#365615"/><rect id="rect65530" width="4.9" height="1.09" x="9.29" y="-8.35" rx=".26" transform="rotate(90)" style="fill:#365615"/><rect id="rect65532" width="4.9" height="1.09" x="9.31" y="-6.49" rx=".26" transform="rotate(90)" style="fill:#365615"/><rect id="rect65534" width="4.9" height="1.09" x="9.31" y="-12.47" rx=".26" transform="rotate(90)" style="fill:#f2f2f2"/><ellipse id="ellipse65536" cx="7.61" cy="6.56" rx="1.04" ry="1.12" style="fill:#f2f2f2"/><path id="path65538" d="M 1.61,10.75 H 0.34 A 0.34,0.34 0 0 1 0,10.45 L 0,4.59 A 0.34,0.34 0 0 1 0.34,4.25 h 1.27 z" style="fill:#3b3b3b"/><metadata id="metadata65540"/></svg>