<svg xmlns="http://www.w3.org/2000/svg" xmlns:svg="http://www.w3.org/2000/svg" id="b75943ba-1a3f-485d-b45d-3fee00ed7e5e" width="14.72" height="17.998" version="1.1" viewBox="0 0 14.72 17.998"><defs id="defs65790"><linearGradient id="fe5ce43f-2823-4617-bb54-57df9e778372" x1="9.01" x2="9.01" y1=".75" y2="17.25" gradientUnits="userSpaceOnUse"><stop id="stop65779" offset="0" stop-color="#5ea0ef"/><stop id="stop65781" offset=".18" stop-color="#559cec"/><stop id="stop65783" offset=".47" stop-color="#3c91e5"/><stop id="stop65785" offset=".84" stop-color="#1380da"/><stop id="stop65787" offset="1" stop-color="#0078d4"/></linearGradient></defs><title id="title65792">Icon-networking-67</title><path id="path65794" d="m 14.72,8.4 c 0,4.84 -5.85,8.74 -7.12,9.53 a 0.46,0.46 0 0 1 -0.48,0 C 5.85,17.14 1.2845085e-8,13.24 1.2845085e-8,8.4 V 2.58 A 0.46,0.46 0 0 1 0.45000001,2.12 C 5,2 3.95,0 7.36,0 c 3.41,0 2.36,2 6.91,2.12 a 0.46,0.46 0 0 1 0.45,0.46 z" style="fill:#0078d4"/><path id="path65796" d="m 14.11,8.45 c 0,4.44 -5.36,8 -6.53,8.74 a 0.43,0.43 0 0 1 -0.44,0 C 5.97,16.47 0.61000001,12.89 0.61000001,8.45 V 3.11 A 0.42,0.42 0 0 1 1.02,2.69 C 5.19,2.58 4.23,0.75 7.36,0.75 c 3.13,0 2.17,1.83 6.34,1.94 a 0.42,0.42 0 0 1 0.41,0.42 z" style="fill:#6bb9f2"/><path id="path65798" d="M 7.36,9 V 0.75 c 3.13,0 2.17,1.83 6.34,1.94 a 0.43,0.43 0 0 1 0.41,0.43 v 5.34 a 4.89,4.89 0 0 1 0,0.54 z m 0,0 H 0.64000001 C 1.04,13.18 6.02,16.5 7.14,17.19 a 0.39,0.39 0 0 0 0.18,0.06 h 0.04 z" style="fill:url(#fe5ce43f-2823-4617-bb54-57df9e778372)"/><path id="path65800" d="M 1.02,2.69 C 5.19,2.58 4.23,0.75 7.36,0.75 V 9 H 0.64000001 a 4.89,4.89 0 0 1 0,-0.54 V 3.12 A 0.43,0.43 0 0 1 1.02,2.69 Z" style="fill:#50e6ff"/><path id="path65802" d="M 14.08,9 H 7.36 v 8.25 0 A 0.39,0.39 0 0 0 7.54,17.19 C 8.7,16.5 13.68,13.18 14.08,9 Z" style="fill:#50e6ff"/><metadata id="metadata65804"/></svg>