<svg xmlns="http://www.w3.org/2000/svg" xmlns:svg="http://www.w3.org/2000/svg" id="b8d97b58-1e1f-4258-85c4-83e06e63fbe2" width="48.099" height="44.624" version="1.1" viewBox="0 0 48.099 44.624"><defs id="defs66437"><linearGradient id="f7395fd8-aa17-4d4b-84f4-be3619cc5bc0" x1="21.523" x2="21.523" y1="25" y2="13" gradientTransform="matrix(1,0,0,-1,0.95045551,52.1)" gradientUnits="userSpaceOnUse"><stop id="stop66409" offset=".23" stop-color="#5ea0ef"/><stop id="stop66411" offset=".32" stop-color="#5b9fee"/><stop id="stop66413" offset=".48" stop-color="#509aeb"/><stop id="stop66415" offset=".57" stop-color="#3f92e6"/><stop id="stop66417" offset=".75" stop-color="#2688df"/><stop id="stop66419" offset=".93" stop-color="#127fd9"/></linearGradient><linearGradient id="a403e3d9-5b3b-4869-9cea-1d3afbc72355" x1="27.477" x2="27.477" y1="20" y2="8" gradientTransform="matrix(1,0,0,-1,0.95045551,52.1)" gradientUnits="userSpaceOnUse"><stop id="stop66422" offset=".02" stop-color="#5ea0ef"/><stop id="stop66424" offset=".14" stop-color="#5b9fee"/><stop id="stop66426" offset=".23" stop-color="#5b9fee"/><stop id="stop66428" offset=".34" stop-color="#509aeb"/><stop id="stop66430" offset=".44" stop-color="#3f92e6"/><stop id="stop66432" offset=".63" stop-color="#2688df"/><stop id="stop66434" offset=".93" stop-color="#127fd9"/></linearGradient></defs><g id="g66455" transform="translate(-0.95045551,-2.1)"><path id="path66439" d="m 23,7.1 h 3 V 26 h -3 z" style="fill:#7a7a7a"/><path id="path66441" d="M 28.9,6.5 A 4.4,4.4 0 1 1 24.5,2.1 4.4,4.4 0 0 1 28.9,6.5 Z" style="fill:#1490df"/><path id="path66443" d="m 23.9,25 h -4.8 a 6,6 0 0 0 -0.93,11.92 6.427,6.427 0 0 1 0.06,-2.23 3.79,3.79 0 0 1 0.87,-7.49 h 4.8 a 3.8,3.8 0 1 1 0,7.6 h -1.32 a 2.865,2.865 0 0 0 -0.28,1.2 2.783,2.783 0 0 0 0.19,1 h 1.41 a 6,6 0 0 0 0,-12 z" style="fill:url(#f7395fd8-aa17-4d4b-84f4-be3619cc5bc0)"/><path id="path66445" d="M 30.83,30.08 A 6.91,6.91 0 0 1 30.9,31 6.266,6.266 0 0 1 30.77,32.31 3.79,3.79 0 0 1 29.9,39.8 h -4.8 a 3.8,3.8 0 0 1 0,-7.6 h 1.32 A 2.816,2.816 0 0 0 26.7,31 2.783,2.783 0 0 0 26.51,30 H 25.1 a 6,6 0 0 0 0,12 h 4.8 a 6,6 0 0 0 0.93,-11.92 z" style="fill:url(#a403e3d9-5b3b-4869-9cea-1d3afbc72355)"/><path id="path66447" d="m 15.86,44.52 -1.1,1.11 a 0.751,0.751 0 0 1 -1.06,0 L 1.39,33.35 a 1.51,1.51 0 0 1 0,-2.13 l 1.11,-1.1 13.36,13.34 a 0.739,0.739 0 0 1 0.014,1.046 z" style="fill:#50e6ff"/><path id="path66449" d="m 14.53,19.12 1.23,1.23 a 0.751,0.751 0 0 1 0,1.06 L 2.62,34.59 1.39,33.37 a 1.51,1.51 0 0 1 0,-2.13 L 13.47,19.12 a 0.751,0.751 0 0 1 1.06,0 z" style="fill:#1490df"/><path id="path66451" d="M 34.13,45.39 A 0.739,0.739 0 0 1 34.116,44.344 L 34.13,44.33 47.5,31 l 1.11,1.11 a 1.51,1.51 0 0 1 0,2.13 L 36.29,46.5 a 0.739,0.739 0 0 1 -1.046,0.014 L 35.23,46.5 Z" style="fill:#50e6ff"/><path id="path66453" d="m 36.52,20 12.09,12.12 a 1.5,1.5 0 0 1 0,2.12 L 47.38,35.47 34.23,22.29 a 0.771,0.771 0 0 1 0,-1.07 L 35.46,20 a 0.751,0.751 0 0 1 1.06,0 z" style="fill:#1490df"/></g><metadata id="metadata66457"/></svg>