<svg xmlns="http://www.w3.org/2000/svg" xmlns:svg="http://www.w3.org/2000/svg" id="svg67114" width="18.048" height="17.361" version="1.1"><path id="path67084" d="m 0.02,15.28753 a 0.16,0.16 0 0 0 0.09,0.15 l 1.22,0.7 2.07,1.2 a 0.18,0.18 0 0 0 0.24,-0.06 l 0.7,-1.22 a 0.16,0.16 0 0 0 0,-0.22 l -2.5,-1.42 a 0.18,0.18 0 0 1 -0.08,-0.15 V 3.1075305 a 0.18,0.18 0 0 1 0.08,-0.15 l 2.43,-1.4 a 0.16,0.16 0 0 0 0.07,-0.22 L 3.64,0.08753049 a 0.18,0.18 0 0 0 -0.24,-0.06 l -2,1.18000001 -1.3,0.73 a 0.16,0.16 0 0 0 -0.09,0.15 z" style="fill:#949494"/><path id="path67086" d="M 4.32,1.3175305 3.64,0.08753049 a 0.18,0.18 0 0 0 -0.18,-0.08 0.11,0.11 0 0 0 -0.08,0 l -2,1.18000001 -1.3,0.75 -0.06,0.05 v 0.08 l 1.74,1 a 0.18,0.18 0 0 1 0.08,-0.15 l 2.43,-1.4 a 0.16,0.16 0 0 0 0.07,-0.22 z m 0,14.7399995 -0.7,1.22 a 0.18,0.18 0 0 1 -0.18,0.08 H 3.36 l -2,-1.18 -1.3,-0.75 -0.06,-0.06 v -0.08 l 1.74,-1 a 0.18,0.18 0 0 0 0.08,0.15 l 2.43,1.4 a 0.16,0.16 0 0 1 0.06,0.21 z" style="fill:#a3a3a3"/><path id="path67088" d="m 18.02,2.0875305 a 0.16,0.16 0 0 0 -0.09,-0.15 l -1.22,-0.7 -2.07,-1.20000001 a 0.18,0.18 0 0 0 -0.24,0.06 L 13.7,1.3175305 a 0.15,0.15 0 0 0 0.05,0.22 l 2.43,1.4 a 0.18,0.18 0 0 1 0.08,0.15 V 14.25753 a 0.18,0.18 0 0 1 -0.08,0.15 l -2.43,1.4 a 0.16,0.16 0 0 0 -0.07,0.22 l 0.7,1.22 a 0.18,0.18 0 0 0 0.24,0.06 l 2,-1.18 1.26,-0.73 a 0.16,0.16 0 0 0 0.09,-0.15 V 2.0875305 Z" style="fill:#949494"/><path id="path67090" d="m 13.72,16.05753 0.7,1.22 a 0.18,0.18 0 0 0 0.18,0.08 h 0.08 l 2,-1.18 1.26,-0.73 0.1,-0.06 a 0.11,0.11 0 0 0 0,-0.08 l -1.74,-1 a 0.18,0.18 0 0 1 -0.08,0.15 l -2.43,1.4 a 0.17,0.17 0 0 0 -0.06,0.19 z m 0,-14.7399995 0.7,-1.23000001 a 0.18,0.18 0 0 1 0.18,-0.08 0.11,0.11 0 0 1 0.08,0 l 2,1.18000001 1.26,0.73 0.1,0.06 a 0.11,0.11 0 0 1 0,0.08 l -1.74,1 a 0.18,0.18 0 0 0 -0.08,-0.15 l -2.43,-1.37 a 0.16,0.16 0 0 1 -0.07,-0.22 z" style="fill:#a3a3a3"/><path id="path67092" d="m 8.54,12.58753 a 0.29,0.29 0 0 1 -0.31,0.29 H 3.39 a 0.3,0.3 0 0 1 -0.32,-0.28 V 4.7475305 a 0.3,0.3 0 0 1 0.31,-0.29 h 4.84 a 0.29,0.29 0 0 1 0.31,0.29 z" style="fill:#999"/><path id="path67094" d="m 3.88,8.0575305 a 0.62,0.62 0 0 1 0.59,-0.65 h 2.72 a 0.63,0.63 0 0 1 0.6,0.65 0.63,0.63 0 0 1 -0.6,0.66 H 4.47 a 0.63,0.63 0 0 1 -0.59,-0.65 z m 0,-1.94 a 0.63,0.63 0 0 1 0.59,-0.66 h 2.72 a 0.63,0.63 0 0 1 0.6,0.66 0.63,0.63 0 0 1 -0.6,0.65 H 4.47 a 0.63,0.63 0 0 1 -0.59,-0.65 z" style="fill:#003067"/><g id="g67100" transform="translate(0.02,-0.31246951)" style="fill:#50e6ff"><circle id="circle67096" cx="4.62" cy="6.43" r=".44"/><circle id="circle67098" cx="4.62" cy="8.37" r=".44"/></g><path id="path67102" d="m 15.1,12.58753 a 0.29,0.29 0 0 1 -0.31,0.29 H 9.95 a 0.3,0.3 0 0 1 -0.32,-0.28 V 4.7475305 a 0.3,0.3 0 0 1 0.31,-0.29 h 4.84 a 0.3,0.3 0 0 1 0.32,0.28 z" style="fill:#999"/><path id="path67104" d="m 10.42,8.0575305 a 0.64,0.64 0 0 1 0.6,-0.65 h 2.72 a 0.63,0.63 0 0 1 0.6,0.65 0.63,0.63 0 0 1 -0.6,0.66 h -2.72 a 0.63,0.63 0 0 1 -0.6,-0.66 z m 0,-1.94 a 0.64,0.64 0 0 1 0.6,-0.66 h 2.72 a 0.63,0.63 0 0 1 0.6,0.66 0.63,0.63 0 0 1 -0.6,0.65 h -2.72 a 0.64,0.64 0 0 1 -0.6,-0.65 z" style="fill:#003067"/><g id="g67110" transform="translate(0.02,-0.31246951)" style="fill:#50e6ff"><circle id="circle67106" cx="11.18" cy="6.43" r=".44"/><circle id="circle67108" cx="11.18" cy="8.37" r=".44"/></g><metadata id="metadata67112"/></svg>