<svg xmlns="http://www.w3.org/2000/svg" xmlns:svg="http://www.w3.org/2000/svg" xmlns:xlink="http://www.w3.org/1999/xlink" id="f3b54d7d-7db0-469c-afc7-ffc9b14d26c9" width="18" height="14" data-name="azure-fluent-icons" version="1.1" viewBox="0 0 18 14"><defs id="defs68540"><linearGradient id="b6125be5-5e46-486d-bdee-ef1ac2eafdaa" x1="5.055" x2="5.055" y1="-1401.772" y2="-1395.802" gradientTransform="matrix(1,0,0,-1,0,-1391.642)" gradientUnits="userSpaceOnUse"><stop id="stop68529" offset="0" stop-color="#32bedd"/><stop id="stop68531" offset=".18" stop-color="#32caea"/><stop id="stop68533" offset=".41" stop-color="#32d2f2"/><stop id="stop68535" offset=".78" stop-color="#32d4f5"/></linearGradient><linearGradient id="adf1cfb9-1a2a-44ee-aac6-05ac5cdb186f" x1="9" x2="9" y1="-1404.702" y2="-1398.732" gradientTransform="translate(0,2)" xlink:href="#b6125be5-5e46-486d-bdee-ef1ac2eafdaa"/><linearGradient id="f0461ac7-cb08-44b4-94c6-8fe04f936f9b" x1="12.945" x2="12.945" y1="-1407.632" y2="-1401.662" gradientTransform="translate(0,2)" xlink:href="#b6125be5-5e46-486d-bdee-ef1ac2eafdaa"/><linearGradient id="linearGradient68579" x1="5.055" x2="5.055" y1="-1401.772" y2="-1395.802" gradientTransform="matrix(1,0,0,-1,0,-1389.642)" gradientUnits="userSpaceOnUse" xlink:href="#b6125be5-5e46-486d-bdee-ef1ac2eafdaa"/></defs><title id="title68542">Lighthouse-GS-networking-372</title><g id="g68572" transform="translate(0,-2)"><path id="path68544" d="M 0,4.16 H 10.11 V 9.8 A 0.34,0.34 0 0 1 9.77,10.14 H 0.34 A 0.34,0.34 0 0 1 0,9.8 v 0 z" style="fill:url(#linearGradient68579)"/><path id="path68546" d="m 0.34,2 h 9.43 a 0.34,0.34 0 0 1 0.34,0.34 v 0 1.82 H 0 V 2.34 A 0.34,0.34 0 0 1 0.34,2 Z" style="fill:#767676"/><rect id="rect68548" width="7.39" height=".87" x="1.36" y="2.65" rx=".17" style="fill:#f2f2f2"/><path id="path68550" d="m 3.94,7.08 h 10.12 v 5.64 a 0.34,0.34 0 0 1 -0.34,0.34 H 4.28 A 0.34,0.34 0 0 1 3.94,12.72 v 0 z" style="fill:url(#adf1cfb9-1a2a-44ee-aac6-05ac5cdb186f)"/><path id="path68552" d="m 4.28,4.93 h 9.43 a 0.34,0.34 0 0 1 0.34,0.34 v 0 1.81 H 3.95 V 5.27 A 0.34,0.34 0 0 1 4.28,4.93 Z" style="fill:#767676"/><rect id="rect68554" width="7.39" height=".87" x="5.3" y="5.58" rx=".17" style="fill:#f2f2f2"/><g id="g68570"><path id="path68556" d="M 7.89,10.02 H 18 v 5.64 A 0.34,0.34 0 0 1 17.66,16 H 8.23 A 0.34,0.34 0 0 1 7.89,15.66 v 0 z" style="fill:url(#f0461ac7-cb08-44b4-94c6-8fe04f936f9b)"/><path id="path68558" d="m 8.23,7.86 h 9.43 A 0.34,0.34 0 0 1 18,8.2 v 1.82 H 7.89 V 8.2 A 0.34,0.34 0 0 1 8.23,7.86 Z" style="fill:#767676"/><g id="g68566"><circle id="circle68560" cx="15.22" cy="12.64" r=".82" style="fill:#f2f2f2"/><circle id="circle68562" cx="12.98" cy="12.64" r=".82" style="fill:#f2f2f2"/><circle id="circle68564" cx="10.67" cy="12.64" r=".82" style="fill:#f2f2f2"/></g><rect id="rect68568" width="7.39" height=".87" x="9.25" y="8.51" rx=".17" style="fill:#f2f2f2"/></g></g><metadata id="metadata68574"/></svg>