<svg xmlns="http://www.w3.org/2000/svg" xmlns:svg="http://www.w3.org/2000/svg" id="a190de4f-47a5-4f48-859f-421d4393bb54" width="17.43" height="14.014" data-name="azure-fluent-icons" version="1.1" viewBox="0 0 17.43 14.014"><defs id="defs68973"><linearGradient id="b4943fc0-ee69-42fa-ba77-41b9c6c6b321" x1="9" x2="9" y1="16.007" y2="5.707" gradientTransform="translate(0.285,1.993)" gradientUnits="userSpaceOnUse"><stop id="stop68964" offset="0" stop-color="#32bedd"/><stop id="stop68966" offset=".175" stop-color="#32caea"/><stop id="stop68968" offset=".41" stop-color="#32d2f2"/><stop id="stop68970" offset=".775" stop-color="#32d4f5"/></linearGradient></defs><title id="title68975">Lighthouse-GS-networking-371</title><g id="g68991" transform="translate(-0.285,-1.993)"><path id="path68977" d="m 0.285,5.707 h 17.43 v 10.08 a 0.22,0.22 0 0 1 -0.22,0.22 H 0.505 a 0.22,0.22 0 0 1 -0.22,-0.22 z" style="fill:url(#b4943fc0-ee69-42fa-ba77-41b9c6c6b321)"/><path id="path68979" d="m 0.509,1.993 h 16.982 a 0.22,0.22 0 0 1 0.22,0.22 V 5.707 H 0.289 V 2.213 a 0.22,0.22 0 0 1 0.22,-0.22 z" style="fill:#0078d4"/><g id="g68987"><circle id="circle68981" cx="12.917" cy="10.218" r="1.416" style="fill:#0078d4"/><circle id="circle68983" cx="9.058" cy="10.218" r="1.416" style="fill:#0078d4"/><circle id="circle68985" cx="5.083" cy="10.218" r="1.416" style="fill:#0078d4"/></g><rect id="rect68989" width="12.739" height="1.496" x="2.63" y="3.102" rx=".11" style="fill:#f2f2f2"/></g><metadata id="metadata68993"/></svg>