<svg xmlns="http://www.w3.org/2000/svg" xmlns:svg="http://www.w3.org/2000/svg" id="a7fced15-da9f-41e0-8b9e-21a862586c87" width="18.04" height="11.18" version="1.1" viewBox="0 0 18.04 11.18"><defs id="defs69358"><linearGradient id="ace104d6-1f53-40e3-a991-cb43c1f1aa51" x1="5.82" x2="5.82" y1="25.68" y2="14.64" gradientTransform="matrix(1,0,0,1.01,0,-11.41)" gradientUnits="userSpaceOnUse"><stop id="stop69347" offset="0" stop-color="#5e9624"/><stop id="stop69349" offset=".01" stop-color="#5f9724"/><stop id="stop69351" offset=".35" stop-color="#6cab29"/><stop id="stop69353" offset=".68" stop-color="#73b82c"/><stop id="stop69355" offset="1" stop-color="#76bc2d"/></linearGradient></defs><title id="title69360">Icon-networking-71</title><path id="path69362" d="m 18,5.7499999 -2.12,2.12 a 0.1,0.1 0 0 1 -0.18,-0.08 v -1.2 a 0.11,0.11 0 0 0 -0.11,-0.1 h -3.5 l 2.18,2.1 a 0.09,0.09 0 0 0 0.12,0 v 0 l 0.61,-0.62 a 0.08,0.08 0 0 1 0.14,0.06 V 10.22 a 0.12,0.12 0 0 1 -0.12,0.12 H 12.87 A 0.08,0.08 0 0 1 12.81,10.2 l 0.62,-0.6100001 v 0 a 0.09,0.09 0 0 0 0,-0.12 l -1.79,-1.88 v -3.83 l 1.83,-1.82 a 0.08,0.08 0 0 0 0,-0.11 v 0 l -0.62,-0.61 a 0.08,0.08 0 0 1 0.06,-0.14 h 2.19 a 0.13,0.13 0 0 1 0.12,0.13 v 2.13 a 0.08,0.08 0 0 1 -0.14,0.06 l -0.61,-0.61 v 0 a 0.09,0.09 0 0 0 -0.12,0 l -2.23,2.11 h 3.43 a 0.11,0.11 0 0 0 0.11,-0.11 v -1.2 a 0.1,0.1 0 0 1 0.18,-0.08 l 2.16,2.08 a 0.1,0.1 0 0 1 0,0.16 z" style="fill:#0078d4"/><rect id="rect69364" width="11.64" height="11.18" x="0" y="0" rx=".58" style="fill:url(#ace104d6-1f53-40e3-a991-cb43c1f1aa51)"/><g id="g69372" transform="translate(0,-3.4100001)"><rect id="rect69366" width="2.73" height="2.61" x="2.27" y="4.78" rx=".29" style="fill:#fff"/><rect id="rect69368" width="2.73" height="2.61" x="6.92" y="7.77" rx=".29" style="fill:#fff"/><rect id="rect69370" width="2.73" height="2.61" x="2.27" y="10.61" rx=".29" style="fill:#fff"/></g><metadata id="metadata69374"/></svg>