<svg xmlns="http://www.w3.org/2000/svg" xmlns:svg="http://www.w3.org/2000/svg" id="ec71760d-ea07-41d5-9506-94a0f2677aa9" width="16.924" height="16.34" version="1.1" viewBox="0 0 16.924 16.34"><defs id="defs69706"><linearGradient id="ec6ad825-6008-44c0-8c46-d31711213827" x1="10.56" x2="10.56" y1="7.77" y2="19.24" gradientUnits="userSpaceOnUse"><stop id="stop69696" offset=".22" stop-color="#32d4f5"/><stop id="stop69698" offset="1" stop-color="#198ab3"/></linearGradient><linearGradient id="b2c2be9e-0a70-4a83-ab8f-bf8022e67924" x1="10.23" x2="11.07" y1="1.63" y2="12.04" gradientUnits="userSpaceOnUse"><stop id="stop69701" offset=".22" stop-color="#32d4f5"/><stop id="stop69703" offset="1" stop-color="#198ab3"/></linearGradient></defs><title id="title69708">Icon-networking-82</title><path id="path69710" d="m 15.69417,16.340294 a 1.21,1.21 0 0 0 1.23,-1.17 v -0.2 c -0.49,-3.86 -2.69,-6.9999996 -6.89,-6.9999996 -4.2000001,0 -6.4800001,2.6599996 -6.9100001,6.9999996 a 1.24,1.24 0 0 0 1.1,1.36 H 15.69417 Z" style="fill:url(#ec6ad825-6008-44c0-8c46-d31711213827)"/><path id="path69712" d="m 10.03417,8.8802944 a 3.86,3.86 0 0 1 -2.1000001,-0.61 l 2.0800001,5.4199996 2.06,-5.3899996 a 3.83,3.83 0 0 1 -2.04,0.58 z" style="opacity:.8;fill:#fff"/><circle id="circle69714" cx="10.034" cy="5.01" r="3.87" style="fill:url(#b2c2be9e-0a70-4a83-ab8f-bf8022e67924)"/><path id="path69716" d="M 5.4641699,5.0502944 V 0.17029439 a 0.16,0.16 0 0 0 -0.16,-0.17000000246 h -1.27 a 0.17,0.17 0 0 0 -0.18,0.17000000246 V 4.8802944 a 0.18,0.18 0 0 1 -0.17,0.17 h -1.12 a 0.12,0.12 0 0 1 -0.1,-0.12 v -1.31 a 0.11,0.11 0 0 0 -0.19,-0.08 l -2.21999995,2.2 a 0.16,0.16 0 0 0 0,0.24 l 2.19999995,2.19 a 0.11067972,0.11067972 0 0 0 0.21,-0.07 v -1.32 a 0.11,0.11 0 0 1 0.1,-0.11 h 2.74 a 0.17,0.17 0 0 0 0.16,-0.17 z" style="fill:#0078d4"/><metadata id="metadata69718"/></svg>