<svg xmlns="http://www.w3.org/2000/svg" xmlns:svg="http://www.w3.org/2000/svg" id="a510a120-e8af-4fe0-831e-67ebe9c4368b" width="17" height="16.795" version="1.1" viewBox="0 0 17 16.795"><defs id="defs71207"><linearGradient id="a009acc1-6e03-4969-81ca-b157b58a2f69" x1="9" x2="9" y1="172.704" y2="160.613" gradientTransform="translate(0.5,-159.40191)" gradientUnits="userSpaceOnUse"><stop id="stop71194" offset="0" stop-color="#198ab3"/><stop id="stop71196" offset=".11" stop-color="#22a5cb"/><stop id="stop71198" offset=".23" stop-color="#29bade"/><stop id="stop71200" offset=".37" stop-color="#2ec9eb"/><stop id="stop71202" offset=".53" stop-color="#31d1f3"/><stop id="stop71204" offset=".78" stop-color="#32d4f5"/></linearGradient></defs><g id="g71227" transform="translate(-0.5,-0.59808878)"><path id="path71209" d="m 17.5,8.9 a 3.854,3.854 0 0 0 -3.3,-3.7 4.871,4.871 0 0 0 -5,-4.6 5.011,5.011 0 0 0 -4.7,3.2 4.693,4.693 0 0 0 -4,4.4 4.612,4.612 0 0 0 4.8,4.5 h 8.4 a 3.8,3.8 0 0 0 3.8,-3.8 z" style="fill:url(#a009acc1-6e03-4969-81ca-b157b58a2f69)"/><circle id="circle71211" cx="9" cy="12.9" r="4.4" style="fill:#f2f2f2"/><path id="path71213" d="M 12.7,10.1 A 4.6,4.6 0 0 0 6.3,9.2 v 0 a 4.561,4.561 0 1 0 5.6,7.2 v 0 a 4.557,4.557 0 0 0 0.8,-6.3 z M 5.1,12.6 A 4.707,4.707 0 0 1 5.5,11 H 6.6 A 7.772,7.772 0 0 0 6.4,12.6 Z M 7.2,11 h 1.5 v 1.6 H 7 A 7.772,7.772 0 0 1 7.2,11 Z m 2.1,0 h 1.5 A 7.772,7.772 0 0 1 11,12.6 H 9.3 Z m -0.5,2.1 v 1.6 H 7.2 L 6.9,13.2 Z m 0.5,0 h 1.8 a 9.971,9.971 0 0 1 -0.2,1.6 H 9.3 Z m 2.4,0 H 13 a 4.707,4.707 0 0 1 -0.4,1.6 h -1.1 a 7.772,7.772 0 0 0 0.2,-1.6 z m 0,-0.5 A 9.971,9.971 0 0 0 11.5,11 h 1.1 a 4.193,4.193 0 0 1 0.4,1.6 z m 0.5,-2.2 h -0.9 a 4.5,4.5 0 0 0 -0.6,-1.2 4.428,4.428 0 0 1 1.5,1.2 z m -1.5,0 H 9.3 V 9 a 2.171,2.171 0 0 1 1.4,1.4 z M 8.8,9 v 1.5 H 7.4 A 2.118,2.118 0 0 1 8.8,9 Z M 6.6,9.7 v 0 A 5.582,5.582 0 0 1 7.4,9.2 3.1,3.1 0 0 0 6.8,10.5 H 5.9 A 2.7,2.7 0 0 1 6.6,9.7 Z m -1.5,3.5 h 1.3 a 9.971,9.971 0 0 0 0.2,1.6 H 5.5 A 5.349,5.349 0 0 1 5.1,13.2 Z m 0.8,2.1 h 0.9 l 0.6,1.2 A 3.491,3.491 0 0 1 5.9,15.3 Z m 1.5,0 h 1.3 v 1.5 A 2.433,2.433 0 0 1 7.4,15.3 Z m 1.9,1.5 v -1.5 h 1.3 A 1.968,1.968 0 0 1 9.3,16.8 Z M 11.5,16 v 0 a 2.622,2.622 0 0 1 -0.9,0.5 3.379,3.379 0 0 0 0.6,-1.2 h 0.9 A 1.344,1.344 0 0 1 11.5,16 Z" style="fill:#0078d4"/><path id="path71215" d="M 5.1,11.4 A 4.025,4.025 0 0 1 2.9,8.5 3.646,3.646 0 0 1 4.4,5.6 L 5,5.1 5.5,5.7 4.9,6.2 a 2.509,2.509 0 0 0 -1.2,2.2 3.031,3.031 0 0 0 1.8,2.3 z" style="fill:#e6e6e6"/><circle id="circle71217" cx="5.3" cy="5.4" r="1.1" style="fill:#f2f2f2"/><path id="path71219" d="M 12.7,11.4 12.3,10.7 A 3.259,3.259 0 0 0 14.1,8.4 2.748,2.748 0 0 0 12.9,6.2 l -0.6,-0.4 0.5,-0.6 0.6,0.4 a 3.071,3.071 0 0 1 1.5,2.9 4.025,4.025 0 0 1 -2.2,2.9 z" style="fill:#e6e6e6"/><circle id="circle71221" cx="12.6" cy="5.4" r="1.1" style="fill:#f2f2f2"/><circle id="circle71223" cx="5.3" cy="11.1" r="1.1" style="fill:#ce74b6"/><circle id="circle71225" cx="12.6" cy="11.1" r="1.1" style="fill:#ce74b6"/></g><metadata id="metadata71229"/></svg>