<svg xmlns="http://www.w3.org/2000/svg" xmlns:svg="http://www.w3.org/2000/svg" id="a264d655-1dbb-49d2-ab11-5661636dcac3" width="18.006" height="10.784" version="1.1" viewBox="0 0 18.006 10.784"><defs id="defs70992"><linearGradient id="a852e611-5849-4670-89ce-518ddf7edeae" x1="10.7" x2="10.7" y1="11.32" y2="9" gradientTransform="rotate(-0.08,-822.61174,-1454.4552)" gradientUnits="userSpaceOnUse"><stop id="stop70977" offset="0" stop-color="#0078d4"/><stop id="stop70979" offset=".82" stop-color="#5ea0ef"/></linearGradient><linearGradient id="a2350862-f997-4c57-aad0-c16f9ca4c0c3" x1="6.99" x2="7" y1="11.32" y2="9" gradientUnits="userSpaceOnUse"><stop id="stop70982" offset="0" stop-color="#0078d4"/><stop id="stop70984" offset=".82" stop-color="#5ea0ef"/></linearGradient><linearGradient id="e5473695-068a-44ff-b3dc-927159226a8e" x1="3.29" x2="3.3" y1="11.32" y2="9" gradientUnits="userSpaceOnUse"><stop id="stop70987" offset="0" stop-color="#0078d4"/><stop id="stop70989" offset=".82" stop-color="#5ea0ef"/></linearGradient></defs><title id="title70994">Icon-networking-75</title><circle id="circle70996" cx="12.744" cy="5.383" r="1.16" style="fill:url(#a852e611-5849-4670-89ce-518ddf7edeae)"/><circle id="circle70998" cx="9.044" cy="5.393" r="1.16" style="fill:url(#a2350862-f997-4c57-aad0-c16f9ca4c0c3)"/><circle id="circle71000" cx="5.344" cy="5.393" r="1.16" style="fill:url(#e5473695-068a-44ff-b3dc-927159226a8e)"/><path id="path71002" d="M 6.1863956,10.030542 5.5226439,10.69615 a 0.3,0.3 0 0 1 -0.4242636,5.93e-4 L 0.18421208,5.7962782 A 0.6,0.6 0 0 1 0.18302731,4.9477509 L 0.84677897,4.2821431 6.1858032,9.6062787 a 0.3,0.3 0 0 1 5.924e-4,0.4242633 z" style="fill:#50e6ff"/><path id="path71004" d="M 5.4221989,0.10117925 6.0878067,0.76493091 A 0.3,0.3 0 0 1 6.0883991,1.1891946 L 0.84193654,6.4503285 0.17632875,5.7865769 A 0.6,0.6 0 0 1 0.17514398,4.9380496 L 4.9979353,0.10177164 a 0.3,0.3 0 0 1 0.4242636,-5.9239e-4 z" style="fill:#1490df"/><path id="path71006" d="m 17.160946,4.2730297 0.663752,0.6656078 a 0.6,0.6 0 0 1 -0.0012,0.8485273 l -4.914168,4.9004642 a 0.3,0.3 0 0 1 -0.424264,-5.92e-4 l -0.663752,-0.665608 a 0.3,0.3 0 0 1 5.93e-4,-0.4242636 z" style="fill:#50e6ff"/><path id="path71008" d="M 17.822617,5.7800309 17.157009,6.4437825 11.910546,1.1826486 a 0.3,0.3 0 0 1 5.93e-4,-0.42426368 l 0.672688,-0.67081284 a 0.3,0.3 0 0 1 0.424264,5.9238e-4 l 4.822791,4.83627794 a 0.6,0.6 0 0 1 -0.0012,0.8485273 z" style="fill:#1490df"/><metadata id="metadata71010"/></svg>