<svg xmlns="http://www.w3.org/2000/svg" xmlns:svg="http://www.w3.org/2000/svg" id="a1606a52-fb14-4637-87de-4d524bba1829" width="18.006" height="10.784" version="1.1" viewBox="0 0 18.006 10.784"><defs id="defs70798"><linearGradient id="f020fb7e-2243-4501-8153-5d69bd3c34f7" x1="9.88" x2="11.52" y1="8.59" y2="10.23" gradientTransform="rotate(-0.08,-285.46384,-1454.0801)" gradientUnits="userSpaceOnUse"><stop id="stop70783" offset="0" stop-color="#86d633"/><stop id="stop70785" offset="1" stop-color="#5e9624"/></linearGradient><linearGradient id="b3c2bc94-8c7c-48a2-9719-6ee899a43a97" x1="6.18" x2="7.81" y1="8.59" y2="10.23" gradientUnits="userSpaceOnUse"><stop id="stop70788" offset="0" stop-color="#86d633"/><stop id="stop70790" offset="1" stop-color="#5e9624"/></linearGradient><linearGradient id="e900c35d-0958-4d4f-b28f-302eeaaf52f5" x1="2.48" x2="4.11" y1="8.59" y2="10.23" gradientUnits="userSpaceOnUse"><stop id="stop70793" offset="0" stop-color="#86d633"/><stop id="stop70795" offset="1" stop-color="#5e9624"/></linearGradient></defs><title id="title70800">Icon-networking-61</title><circle id="circle70802" cx="12.744" cy="5.383" r="1.16" style="fill:url(#f020fb7e-2243-4501-8153-5d69bd3c34f7)"/><circle id="circle70804" cx="9.044" cy="5.393" r="1.16" style="fill:url(#b3c2bc94-8c7c-48a2-9719-6ee899a43a97)"/><circle id="circle70806" cx="5.344" cy="5.393" r="1.16" style="fill:url(#e900c35d-0958-4d4f-b28f-302eeaaf52f5)"/><path id="path70808" d="M 6.1863956,10.030542 5.5226439,10.69615 a 0.3,0.3 0 0 1 -0.4242636,5.93e-4 L 0.18421208,5.7962782 A 0.6,0.6 0 0 1 0.18302731,4.9477509 L 0.84677897,4.2821431 6.1858032,9.6062787 a 0.3,0.3 0 0 1 5.924e-4,0.4242633 z" style="fill:#50e6ff"/><path id="path70810" d="M 5.4221989,0.10117925 6.0878067,0.76493091 A 0.3,0.3 0 0 1 6.0883991,1.1891946 L 0.84193654,6.4503285 0.17632875,5.7865769 A 0.6,0.6 0 0 1 0.17514398,4.9380496 L 4.9979353,0.10177164 a 0.3,0.3 0 0 1 0.4242636,-5.9239e-4 z" style="fill:#1490df"/><path id="path70812" d="m 17.160946,4.2730297 0.663752,0.6656078 a 0.6,0.6 0 0 1 -0.0012,0.8485273 l -4.914168,4.9004642 a 0.3,0.3 0 0 1 -0.424264,-5.92e-4 l -0.663752,-0.665608 a 0.3,0.3 0 0 1 5.93e-4,-0.4242636 z" style="fill:#50e6ff"/><path id="path70814" d="M 17.822617,5.7800309 17.157009,6.4437825 11.910546,1.1826486 a 0.3,0.3 0 0 1 5.93e-4,-0.42426368 l 0.672688,-0.67081284 a 0.3,0.3 0 0 1 0.424264,5.9238e-4 l 4.822791,4.83627794 a 0.6,0.6 0 0 1 -0.0012,0.8485273 z" style="fill:#1490df"/><metadata id="metadata70816"/></svg>