<svg xmlns="http://www.w3.org/2000/svg" xmlns:svg="http://www.w3.org/2000/svg" id="bc5816c9-c40c-4700-a3cd-6054b6abe2f7" width="17.63" height="17.528" version="1.1" viewBox="0 0 17.63 17.528"><defs id="defs71328"><radialGradient id="bb8edb14-0b70-46fb-997d-f3a277915c9b" cx="15013.284" cy="4584.191" r="56.626" gradientTransform="matrix(0.15,0,0,0.15,-2243.333,-678.832)" gradientUnits="userSpaceOnUse"><stop id="stop71312" offset=".183" stop-color="#5ea0ef"/><stop id="stop71314" offset="1" stop-color="#0078d4"/></radialGradient><linearGradient id="a6f3c115-b661-478c-8384-79eca0b050eb" x1="4.022" x2="3.991" y1="171.297" y2="167.338" gradientTransform="translate(0,-160)" gradientUnits="userSpaceOnUse"><stop id="stop71317" offset="0" stop-color="#ccc"/><stop id="stop71319" offset=".123" stop-color="#d7d7d7"/><stop id="stop71321" offset=".421" stop-color="#ebebeb"/><stop id="stop71323" offset=".716" stop-color="#f8f8f8"/><stop id="stop71325" offset="1" stop-color="#fcfcfc"/></linearGradient></defs><title id="title71330">Icon-362Artboard 1</title><path id="a365ed42-c10c-4d6b-b8da-5311b6818174" d="M 13.730085,15.228102 A 8.512,8.512 0 0 1 3.2300847,1.8281022 l 0.1,-0.1 A 8.521,8.521 0 0 1 13.730085,15.228102" style="fill:url(#bb8edb14-0b70-46fb-997d-f3a277915c9b)"/><path id="path71333" d="m 1.9300847,10.228102 a 25.824,25.824 0 0 0 -0.8,2.6 l 0.6,0.9 0.6,0.6 a 14.249,14.249 0 0 1 1.1,-3.5 2.529,2.529 0 0 1 -1.5,-0.6 z" style="fill:#83b9f9"/><path id="path71335" d="m 2.9300847,5.6281022 a 13.655,13.655 0 0 1 -0.7,-2.9 7.551,7.551 0 0 0 -1.1,1.4 10.548,10.548 0 0 0 0.6,2.4 2.73,2.73 0 0 1 1.2,-0.9 z" style="fill:#83b9f9"/><circle id="circle71337" cx="3.83" cy="8.228" r="2.7" style="fill:url(#a6f3c115-b661-478c-8384-79eca0b050eb)"/><path id="path71339" d="m 7.8300847,13.228102 a 2.106,2.106 0 0 1 0.5,-1.3 9.2,9.2 0 0 1 -2.5,-1.9 2.751,2.751 0 0 1 -1.5,0.8 19.2,19.2 0 0 0 1.5,1.4 8.175,8.175 0 0 0 2,1.2 z" style="fill:#83b9f9"/><path id="path71341" d="m 14.130085,13.428102 a 13.329,13.329 0 0 1 -2.8,-0.3 v 0.1 a 1.656,1.656 0 0 1 -0.5,1.2 12.967,12.967 0 0 0 3.4,0.2 c 0.4,-0.4 0.8,-0.9 1.2,-1.3 a 5.283,5.283 0 0 1 -1.3,0.1 z" style="fill:#83b9f9"/><circle id="circle71343" cx="9.63" cy="13.228" r="1.8" style="fill:none"/><path id="path71345" d="m 9.1300847,4.6281022 a 13.468,13.468 0 0 1 5.9000003,-1.4 6.73,6.73 0 0 0 -1.5,-1.4 15.335,15.335 0 0 0 -4.7000003,1.1 9.25,9.25 0 0 0 -1,0.5 18.723,18.723 0 0 1 -2,-2.9 1.9,1.9 0 0 0 -0.9,0.3 21.123,21.123 0 0 0 2.1,3.1 9.841,9.841 0 0 0 -2.2,1.7 2.85,2.85 0 0 1 1.3,1.1 8.961,8.961 0 0 1 1.9,-1.5 22.363,22.363 0 0 0 3.7000003,3.2 2.075,2.075 0 0 1 0.6,-1 27.892,27.892 0 0 1 -3.2000003,-2.8 z" style="fill:#83b9f9"/><circle id="circle71347" cx="13.63" cy="8.828" r="1.9" style="fill:#f2f2f2"/><path id="path71349" d="m 16.830085,10.128102 c -0.1,-0.1 -0.2,-0.1 -0.3,-0.1999998 v 0 c -0.1,-0.1 -0.2,-0.1 -0.3,-0.2 h -0.1 l -0.3,-0.2 h -0.1 l -0.3,-0.2 a 1.456,1.456 0 0 1 -0.6,0.8999998 c 0.1,0.1 0.2,0.1 0.4,0.2 h 0.1 c 0.1,0.1 0.2,0.1 0.3,0.2 v 0 c 0.3,0.2 0.6,0.3 0.9,0.5 v 0 c 0.1,-0.3 0.2,-0.7 0.3,-1 z" style="fill:#83b9f9"/><circle id="circle71351" cx="3.83" cy="8.228" r="2.7" style="fill:#f2f2f2"/><circle id="circle71353" cx="9.63" cy="13.228" r="1.8" style="fill:#f2f2f2"/><path id="path71355" d="M 5.0300847,10.228102 H 17.130085 c 0.2,0 0.5,0.2 0.5,0.4 v 6.4 a 0.536,0.536 0 0 1 -0.5,0.5 H 5.0300847 a 0.458,0.458 0 0 1 -0.4,-0.5 v -6.3 a 0.458,0.458 0 0 1 0.4,-0.5 z" style="fill:#821010"/><rect id="rect71357" width="3.6" height="1.6" x="5.13" y="11.028" style="fill:#e62323"/><rect id="rect71359" width="3.6" height="1.6" x="9.33" y="11.028" style="fill:#ff7381"/><rect id="rect71361" width="3.6" height="1.6" x="13.43" y="11.028" style="fill:#e62323"/><rect id="rect71363" width="1.5" height="1.6" x="5.13" y="13.128" style="fill:#e62323"/><rect id="rect71365" width="1.5" height="1.6" x="15.53" y="13.128" style="fill:#ff7381"/><rect id="rect71367" width="3.6" height="1.6" x="7.23" y="13.128" style="fill:#ff7381"/><rect id="rect71369" width="3.6" height="1.6" x="11.33" y="13.128" style="fill:#e62323"/><rect id="rect71371" width="3.6" height="1.6" x="5.13" y="15.228" style="fill:#e62323"/><rect id="rect71373" width="3.6" height="1.6" x="9.33" y="15.228" style="fill:#ff7381"/><rect id="rect71375" width="3.6" height="1.6" x="13.43" y="15.228" style="fill:#e62323"/><metadata id="metadata71377"/></svg>